<?xml version="1.0" encoding="utf-8"?>
<!-- Generator: Adobe Illustrator 27.5.0, SVG Export Plug-In . SVG Version: 6.00 Build 0)  -->
<svg version="1.1" xmlns="http://www.w3.org/2000/svg" xmlns:xlink="http://www.w3.org/1999/xlink" x="0px" y="0px"
	 viewBox="0 0 500 500" style="enable-background:new 0 0 500 500;" xml:space="preserve">
<g id="BACKGROUND">
	<rect style="fill:#FFFFFF;" width="500" height="500"/>
</g>
<g id="OBJECTS">
	<g>
		<g>
			<g>
				<path style="fill:#76CAB3;" d="M311.188,267.451c-30.171,4.003-52.69,42.651-36.054,49.392
					c-4.092,14.164-4.794,31.436-4.894,39.103l1.56,4.322l74.385-0.527l15.34-42.238c4.849-4.375,9.52-11.116,9.322-20.78
					C370.431,276.93,345.24,262.933,311.188,267.451z"/>
				<path style="fill:#FDF9CA;" d="M343.602,316.97c5.07-14.032-2.378-28.025-17.368-29.656
					c-14.175-1.543-26.837,6.099-36.709,15.468c-0.673,0.64,0.9,0.62,1.278,0.262c9.96-9.454,21.824-16.239,36.014-14.695
					c14.192,1.545,19.6,16.62,15.19,28.821C341.814,317.703,343.409,317.5,343.602,316.97L343.602,316.97z"/>
				<path style="fill:#FDF9CA;" d="M281.88,305.381c7.95-17.797,28.304-29.307,47.247-30.742
					c10.618-0.805,21.098,3.594,26.239,13.146c5.162,9.588,3.55,21.62,0.809,31.625c-0.087,0.323,1.464,0.11,1.573-0.283
					c3.224-11.781,4.379-25.263-3.241-35.662c-5.878-8.02-16.762-10.057-26.057-9.353c-19.141,1.45-40.178,13.727-48.142,31.553
					C280.197,305.914,281.698,305.784,281.88,305.381L281.88,305.381z"/>
				<path style="fill:#FDF9CA;" d="M278.08,324.847c0.71-2.739,1.727-5.154,3.408-7.46c2.28-1.666,3.674-1.477,4.185,0.569
					c0.406,1.146-0.138,2.531-0.483,3.625c-1.083,3.423-3.548,6.625-5.923,9.265c0.508-0.082,1.016-0.163,1.524-0.246
					c-0.075-3.779,4.888-6.072,8.033-3.354c2.377,2.054,1.281,6.729,0.661,9.153c-1.255,4.902-6.574,14.227-12.242,14.822
					c-0.695,0.073-1.387,0.808-0.271,0.691c8.878-0.934,17.729-16.471,13.956-24.426c-2.448-5.158-11.829-1.463-11.731,3.54
					c0.009,0.454,1.376-0.081,1.525-0.246c2.737-3.043,9.839-11.525,5.104-15.234c-4.635-3.632-8.73,7.254-9.326,9.553
					C276.389,325.534,277.964,325.292,278.08,324.847L278.08,324.847z"/>
			</g>
			<g>
				<path style="fill:#F57E9E;" d="M375.654,362.146c-2.344,12.237-16.769,21.442-36.429,27.488
					c-19.647,6.048-16.624,11.546-16.624,11.546l-9.764,1.099l-10.853-30.096c0,0-38.078,7.841-41.376-6.737
					c-1.177-5.18,3.332-8.006,9.632-9.5c11.424-2.729,28.721-1.079,28.721-1.079s-5.664-26.017-4.916-45.346
					c8.874-3.805,25.565-10.193,37.078-9.907c16.083,0.395,8.102,20.243,7.85,20.881c0.24-0.088,8.312-3.091,12.096-10.314
					c0.9,3.541,1.35,8.258,0.119,13.9c0,0,5.255-1.982,10.337-6.578C368.211,332.412,377.149,354.358,375.654,362.146z"/>
				<g>
					<path style="fill:#3B1467;" d="M342.76,324.995v36.56l-14.935-4.122c0,0,1.924-5.592,4.488-5.453
						c2.564,0.137,2.978,3.068,2.978,3.068s-3.342-5.223-6.092,1.743l11.911,2.473L342.76,324.995z"/>
					<path style="fill:#3B1467;" d="M332.177,358.12v6.185c0,0-9.482,2.656-10.903-8.385c0,0-7.468,3.939-9.347,14.064
						c-1.878,10.127,8.018,16.815,15.898,11.729c0,0-11.27,3.71-14.752-5.817c-3.483-9.53,7.741-18.829,7.741-18.829
						s1.236,10.491,12.691,7.514l-0.917-6.646L332.177,358.12z"/>
					<path style="fill:#3B1467;" d="M328.512,364.761l-5.911,18.281c0,0-9.619,0.32-10.49-10.814c0,0-0.825-8.108,8.979-15.437
						C321.09,356.791,321.594,364.669,328.512,364.761z"/>
					<path style="fill:#FDF9CA;" d="M320.677,357.339c0,0,1.559,6.647,7.148,7.607l-0.824,3.065l-10.39-6.457
						C316.611,361.555,317.883,358.715,320.677,357.339z"/>
					<path style="fill:#E93F64;" d="M312.477,372.322c0,0,0.046,7.697,6.506,9.438C318.982,381.76,319.715,371.588,312.477,372.322z
						"/>
				</g>
				<g>
					<path style="fill:#3B1467;" d="M345.485,347.017l-1.972-0.978c0.115-0.232,2.866-5.675,8.02-6.961
						c2.6-0.646,5.299-0.125,8.039,1.551l2.368-4.549l1.95,1.014l-3.516,6.76l-1.03-0.739c-2.554-1.83-5.004-2.468-7.278-1.901
						C347.889,342.256,345.509,346.97,345.485,347.017z"/>
					
						<rect x="355.524" y="337.073" transform="matrix(0.3062 -0.952 0.952 0.3062 -73.4127 575.6127)" style="fill:#3B1467;" width="5.357" height="2.199"/>
				</g>
				<g>
					<path style="fill:#3B1467;" d="M316.098,349.004l-6.202-5.16l1.406-1.69l4.742,3.945c2.682-2.139,12.042-8.453,20.308-0.023
						l-1.572,1.539c-8.19-8.356-17.576,0.343-17.974,0.717L316.098,349.004z"/>
					
						<rect x="315.986" y="339.998" transform="matrix(0.8402 -0.5424 0.5424 0.8402 -135.3441 226.8002)" style="fill:#3B1467;" width="2.199" height="6.016"/>
				</g>
				<polygon style="fill:#76CAB3;" points="307.333,331.768 331.811,326.827 309.007,337.004 				"/>
				<polygon style="fill:#76CAB3;" points="346.847,324.787 364.659,329.714 346.185,330.244 				"/>
				<path style="fill:#3B1467;" d="M265.735,369.176c0,0,3.325-6.051,13.953-8.344c10.628-2.291,18.007,2.815,11.363,8.165
					c-6.643,5.35-13.494,2.546-9.253-1.52l-6.551,1.277l8.474-2.685c0,0-4.623,6.37,1.058,5.27c5.68-1.097,11.022-7.434,5.369-9.432
					C284.495,359.907,273.417,361.246,265.735,369.176z"/>
				<ellipse style="fill:#FDC25E;" cx="285.079" cy="376.949" rx="2.52" ry="4.032"/>
			</g>
		</g>
		<g>
			<path style="fill:#3B1467;" d="M440.403,347.446c-3.159,5.782,6.691,10.821,11.206,10.857c7.459,0.058,12.81-8.768,10.171-15.429
				c-2.303-5.813-9.226-6.027-9.436,0.934c-0.173,5.828,9.4,3.853,12.401,2.729c16.435-6.14,12.464-34.476-2.58-39.832
				c-9.818-3.495-20.94,3.772-29.267,7.956c-6.182,3.106-14.008,6.519-20.728,3.111c-5.243-2.659-5.333-9.45-4.405-14.391
				c0.258-1.374-2.975-0.87-3.201,0.341c-1.76,9.372,2.616,18.015,13.148,17.474c6.463-0.332,12.332-2.916,18.04-5.784
				c8.153-4.098,17.551-10.161,26.795-5.879c11.009,5.103,13.933,29.893,1.771,35.146c-2.225,0.963-5.953,1.965-8.06,0.287
				c-1.037-0.826-0.69-2.393-0.478-3.467c0.376-1.931,3.071,2.883,3.199,3.204c2.328,5.876-4.107,13.817-10.406,10.669
				c-2.184-1.09-6.75-4.866-5.176-7.751C444.185,346.186,440.966,346.417,440.403,347.446L440.403,347.446z"/>
			<g>
				<g>
					<path style="fill:#3B1467;" d="M404.526,394.754c0,0-7.248-10.839-6.974-27.607l-11.271,3.388c0,0-0.219,2.251-0.176,5.719
						c-0.05,0.13-2.527,6.65-2.527,6.514l4.857,10.676l-0.275,4.213l2.338,4.947l4.958-4.171l-0.002-0.009L404.526,394.754z"/>
					<g>
						<path style="fill:#F57E9E;" d="M390.144,376.22l18.222,0.705c0,0,1.925,20.55-7.146,22.266
							C392.147,400.909,390.144,376.22,390.144,376.22z"/>
						
							<rect x="394.049" y="393.304" transform="matrix(0.9993 -0.0373 0.0373 0.9993 -14.4101 15.1984)" style="fill:#3B1467;" width="12.258" height="1.099"/>
						
							<rect x="392.622" y="388.479" transform="matrix(0.9971 -0.0762 0.0762 0.9971 -28.492 31.6352)" style="fill:#3B1467;" width="15.032" height="1.101"/>
						
							<rect x="391.639" y="382.331" transform="matrix(0.9995 -0.0319 0.0319 0.9995 -12.0207 12.9494)" style="fill:#3B1467;" width="15.677" height="1.101"/>
					</g>
					<path style="fill:#F57E9E;" d="M399.107,385.653c-0.067,3.75-8.511-0.343-12.591-2.551c0.57,5.332,1.881,11.555,4.718,17.032
						l4.223-1.703l-8.444,11.224l-4.575-3.385l5.499-12.237c0,0-8.984-9.941-6.235-15.802c0.748-1.604,2.408-2.144,4.409-1.991
						C391.41,376.681,399.183,382.058,399.107,385.653z"/>
					<path style="fill:#3B1467;" d="M386.517,383.103c4.08,2.208,12.523,6.301,12.591,2.551c0.075-3.596-7.697-8.973-12.997-9.413
						c-2.001-0.152-3.661,0.387-4.409,1.991c0,0,3.939-3.76,12.873,2.336C402.501,385.976,396.922,388.889,386.517,383.103z"/>
				</g>
				<g>
					<path style="fill:#E93F64;" d="M328.237,412.18c0,0,30.786,20.066,55.113-13.882l12.096,14.157c0,0-33.124,37.251-65.835,8.867
						L328.237,412.18z"/>
					
						<rect x="388.298" y="396.067" transform="matrix(0.7602 -0.6496 0.6496 0.7602 -169.9875 350.157)" style="fill:#3B1467;" width="2.2" height="18.62"/>
				</g>
			</g>
			<g>
				<path style="fill:#E93F64;" d="M335.662,414.516l-6.738-4.254l5.225-11.964l-30.788-4.265c0,0,3.188,4.726,6.51,12.996
					c-20.255,5.651-49.745,18.658-48.426,25.224c1.364,6.86,41.916,9.06,41.916,9.06v-13.602l-21.992,0.693
					c0,0,12.547-9.183,30.162-16.965c1.058,3.029,2.076,6.419,2.954,10.109l-3.282,6.729l1.03,10.945h0.005
					c-0.061,0.672-0.096,1.329-0.081,1.958c0,0,14.503,3.694,23.132-2.177l-4.989-14.448L335.662,414.516z"/>
				<polygon style="fill:#3B1467;" points="303.36,394.033 334.148,398.298 328.924,410.262 335.662,414.516 330.299,424.556 
					335.288,439.004 329.269,424.824 334.558,414.86 328.237,410.806 332.361,398.779 				"/>
				
					<rect x="309.316" y="395.12" transform="matrix(0.9357 -0.3528 0.3528 0.9357 -121.5766 135.1044)" style="fill:#3B1467;" width="1.099" height="11.946"/>
				<polygon style="fill:#3B1467;" points="314.093,406.986 311.711,396.496 312.784,396.25 315.167,406.744 				"/>
				
					<rect x="316.164" y="397.229" transform="matrix(0.9967 -0.0807 0.0807 0.9967 -31.4259 26.8823)" style="fill:#3B1467;" width="1.101" height="9.652"/>
				
					<rect x="315.903" y="401.894" transform="matrix(0.0693 -0.9976 0.9976 0.0693 -103.3275 694.1397)" style="fill:#3B1467;" width="8.862" height="1.1"/>
				
					<rect x="318.984" y="402.467" transform="matrix(0.1706 -0.9853 0.9853 0.1706 -128.9153 652.8825)" style="fill:#3B1467;" width="8.746" height="1.1"/>
				
					<rect x="322.176" y="402.971" transform="matrix(0.279 -0.9603 0.9603 0.279 -152.073 604.501)" style="fill:#3B1467;" width="8.686" height="1.099"/>
				
					<rect x="324.525" y="403.704" transform="matrix(0.3536 -0.9354 0.9354 0.3536 -165.6022 568.8801)" style="fill:#3B1467;" width="8.525" height="1.1"/>
				<g>
					<path style="fill:#F57E9E;" d="M324.669,427.306l-3.034,10.995c0,0-3.465-5.19-8.346-4.663
						c-0.484,1.802-0.891,3.751-1.057,5.585c-1.473-0.527-2.551-2.022-2.551-2.022h-6.321v-4.596l6.872-1.045l-2.2-9.622
						c0,0,2.64-1.054,6.455-0.394C317.412,422.036,321.028,423.544,324.669,427.306z"/>
					<path style="fill:#3B1467;" d="M323.54,430.228c-0.063-0.076-6.367-7.414-11.252-3.99l-0.631-0.901
						c5.706-4.001,12.438,3.846,12.723,4.18L323.54,430.228z"/>
					<path style="fill:#3B1467;" d="M322.77,432.938c-0.05-0.065-5.013-6.406-10.076-3.645l-0.526-0.965
						c5.887-3.211,11.42,3.867,11.474,3.94L322.77,432.938z"/>
					<path style="fill:#3B1467;" d="M321.731,436.368c-0.122-0.267-3.058-6.498-8.45-4.301l-0.417-1.016
						c6.371-2.599,9.831,4.783,9.866,4.857L321.731,436.368z"/>
				</g>
				<rect x="302.26" y="427.711" style="fill:#3B1467;" width="2.199" height="13.602"/>
			</g>
			<g>
				<path style="fill:#3B1467;" d="M401.677,371.268c0,0,33.903,3.665,46.73,16.401l4.397-71.654c0,0-39.519,26.25-51.586,27.122
					L401.677,371.268z"/>
				<polygon style="fill:#3B1467;" points="370.614,356.791 363.651,358.165 365.483,366.779 372.445,367.603 				"/>
				<polygon style="fill:#FDC25E;" points="371.713,376.22 367.04,348.543 403.692,341.029 405.525,373.376 				"/>
				
					<rect x="412.481" y="350.536" transform="matrix(0.0582 -0.9983 0.9983 0.0582 70.0637 777.535)" style="fill:#FDC25E;" width="69.255" height="2.199"/>
				
					<rect x="410.427" y="350.741" transform="matrix(0.0586 -0.9983 0.9983 0.0586 64.4206 771.9952)" style="fill:#FDC25E;" width="62.22" height="2.199"/>
			</g>
			<g>
				
					<text transform="matrix(1 0 0 1 372.8906 298.0879)" style="fill:#3B1467; font-family:'Bangers-Regular'; font-size:33.8484px;">HIRING</text>
			</g>
		</g>
	</g>
	<g>
		<g>
			<g>
				<g>
					<path style="fill:#5C2E91;" d="M205.676,78.755c4.115,14.844,1.251,28.594-6.395,30.713c-7.648,2.12-17.18-8.194-21.295-23.039
						c-4.113-14.843-1.251-28.595,6.397-30.715C192.029,53.595,201.563,63.912,205.676,78.755z"/>
					<path style="fill:#FDF9CA;" d="M204.882,101.03c-10.895,1.763-16.809-10.88-18.567-19.672
						c-0.752-3.758-0.967-7.725-0.293-11.503c0.749-4.197,4.844-7.651,9.203-4.826c2.067,1.339,3.26,3.89,4.232,6.048
						c1.548,3.446,2.222,7.241,2.676,10.965c0.445,3.683-0.409,18.29-7.386,11.011c-2.405-2.509-4.005-6.252-4.806-9.611
						c-0.519-2.183-0.649-4.463-0.503-6.695c0.061-0.947,0.309-1.842,0.593-2.739c1.208-3.82,5.896-2.096,7.539,0.425
						c0.262,0.404,1.58-0.118,1.41-0.379c-2.43-3.728-7.319-4.844-9.941-0.704c-2.969,4.686-0.401,12.232,1.924,16.612
						c2.042,3.848,5.509,7.76,9.814,4.802c5.14-3.531,2.916-14.28,1.729-19.124c-1.094-4.487-4.018-12.91-10.006-12.52
						c-5.746,0.375-7.861,4.621-8.253,9.998c-0.837,11.511,5.999,30.89,20.407,28.558
						C205.267,101.574,205.867,100.871,204.882,101.03L204.882,101.03z"/>
				</g>
				<g>
					<path style="fill:#5C2E91;" d="M186.619,92.771c-9.214-14.543-29.63-35.289-69.642-30.448
						c-60.391,7.305-57.956,51.79-57.956,51.79l8.952,0.32l19.698,37.793l82.847-7.299l4.551-14.972
						c0.014-0.002,0.025-0.004,0.038-0.004L186.619,92.771z"/>
					<path style="fill:#FDF9CA;" d="M92.425,109.994c0.042-13.351,2.425-24.968,14.029-33.064
						c10.173-7.102,23.838-7.514,35.666-5.775c1.318,0.194,2.907-1.663,1.007-1.942c-12.042-1.771-25.444-1.221-36.195,5.11
						c-5.622,3.312-10.29,7.814-13.487,13.531c-3.747,6.701-3.847,14.936-3.87,22.391C89.571,111.659,92.421,111.179,92.425,109.994
						L92.425,109.994z"/>
					<path style="fill:#FDF9CA;" d="M76.584,111.446c-4.419-12.823,3.572-25.799,14.303-32.606c1.259-0.798-1.6-0.654-2.21-0.268
						C77.655,85.564,69.208,98.987,73.76,112.2C74.046,113.028,76.844,112.199,76.584,111.446L76.584,111.446z"/>
					<path style="fill:#FDF9CA;" d="M116.52,108.768c-4.625-9.642,2.648-20.284,10.708-25.243
						c7.774-4.785,17.568-5.927,26.429-7.106c1.438-0.191,2.275-2.014,0.335-1.755c-10.259,1.364-20.699,3.012-29.658,8.524
						c-8.222,5.061-15.226,16.771-10.639,26.334C114.212,110.598,116.981,109.729,116.52,108.768L116.52,108.768z"/>
					<path style="fill:#FDF9CA;" d="M130.885,109.497c-3.411-8.389-1.611-18.759,7.003-23.149c1.719-0.875,0.175-2.372-1.246-1.648
						c-9.505,4.844-12.49,15.937-8.58,25.553C128.575,111.511,131.377,110.707,130.885,109.497L130.885,109.497z"/>
					<path style="fill:#FDF9CA;" d="M141.505,103.74c-3.15-5.025,0.707-11.58,4.544-14.863c4.025-3.445,9.55-5.087,14.522-6.607
						c1.653-0.505,1.331-1.795-0.345-1.284c-6.146,1.879-12.313,4.007-17.27,8.248c-4.101,3.508-7.225,10.563-4.084,15.576
						C139.329,105.535,142.078,104.655,141.505,103.74L141.505,103.74z"/>
				</g>
			</g>
			<g>
				<g>
					<path style="fill:#76CAB3;" d="M189.7,140.083c-6.333,7.306-18.507,10.881-27.596,12.177c-1.578,0.224-3.077,0.212-4.549,0.107
						c-3.506,13.607-5.697,27.963-3.788,41.433c-1.421,0.848-2.806,1.754-4.043,2.786c-1.52-2.278-3.943-4.547-5.639-6.008
						c-7.958-6.818-19.967-10.559-29.543-13.803c-6.33-2.112-13.149-2.92-19.159-5.677c-7.14-3.254-12.663-8.61-16.88-15.265
						c-7.763-12.302-10.597-26.876-10.528-41.397l31.139,1.14c0-5.932,4.608-13.413,7.919-18.01
						c-1.548,10.256,2.396,18.497,2.396,18.497l38.065-2.435l11.658,21.186l4.247,7.706v-9.751
						c3.712-1.528,7.657-2.495,11.707-2.817c1.609-0.136,3.227-0.174,4.854-0.096c2.922,0.165,10.557,0.488,12.174,3.741
						C193.275,135.867,191.004,138.621,189.7,140.083z"/>
				</g>
				<g>
					<path style="fill:#FDF9CA;" d="M121.357,153.584l15.22,14.571c0,0,5.438-1.826,5.03-7.284c0,0-2.146-12.521-12.619-17.189
						C128.989,143.683,130.123,153.871,121.357,153.584z"/>
					<path style="fill:#3B1467;" d="M100.173,119.779l9.26,25.325c0,0-8.042,1.949-6.988,4.059
						c1.055,2.11,15.991-1.949,15.991-1.949l-1.218,7.306c0,0,12.826,1.056,12.339-10.389c0,0,8.034,5.276,10.714,13.311
						c2.679,8.035-3.895,11.445-8.441,10.875c0,0,5.788,1.461,9.062-2.191c3.276-3.652-0.216-18.019-12.31-23.051
						c0,0,1.218,9.984-10.225,10.472l0.892-7.467c0,0-14.817,3.788-15.585,2.759c-0.768-1.031,7.142-3.571,7.142-3.571
						S103.177,120.831,100.173,119.779z"/>
					
						<rect x="131.543" y="149.282" transform="matrix(0.6864 -0.7272 0.7272 0.6864 -74.8628 145.9315)" style="fill:#3B1467;" width="0.488" height="20.986"/>
					
						<rect x="133.971" y="147.116" transform="matrix(0.6344 -0.773 0.773 0.6344 -72.0698 161.0396)" style="fill:#3B1467;" width="0.486" height="19.191"/>
					<polygon style="fill:#3B1467;" points="140.341,156.124 128.207,148.476 128.468,148.064 140.603,155.714 					"/>
					<polygon style="fill:#3B1467;" points="127.007,158.914 126.586,158.67 133.483,146.648 133.906,146.889 					"/>
				</g>
				<path style="fill:#FDC25E;" d="M170.548,165.803c-5.193,0-9.418-4.007-9.418-8.93c0-3.242,1.86-6.236,4.851-7.811l0.906,1.725
					c-2.347,1.235-3.808,3.569-3.808,6.086c0,3.849,3.35,6.982,7.469,6.982c4.117,0,7.467-3.133,7.467-6.982
					c0-2.313-1.224-4.471-3.271-5.775l1.042-1.643c2.616,1.663,4.175,4.433,4.175,7.417
					C179.962,161.796,175.74,165.803,170.548,165.803z"/>
				<path style="fill:#3B1467;" d="M188.192,139.028c0,0-3.777-4.488-12.434-4.189s-13.325,6.265-7.127,9.445
					c6.196,3.177,10.919-0.694,6.831-3.283l5.31-0.304l-7.075-0.497c0,0,4.842,4.488,0.242,4.757
					c-4.601,0.269-9.993-4.034-6.033-6.961C171.864,135.07,180.678,133.855,188.192,139.028z"/>
				<path style="fill:#F57E9E;" d="M150.417,138.299c0,1.479-3.041,2.678-6.793,2.678c-3.755,0-6.796-1.199-6.796-2.678
					c0-1.48,3.041-2.679,6.796-2.679C147.376,135.621,150.417,136.82,150.417,138.299z"/>
				<path style="fill:#F57E9E;" d="M83.209,144.144c0,1.479-3.041,2.679-6.794,2.679c-3.754,0-6.796-1.2-6.796-2.679
					s3.042-2.678,6.796-2.678C80.168,141.465,83.209,142.665,83.209,144.144z"/>
				<g>
					
						<rect x="82.193" y="132.913" transform="matrix(0.3473 -0.9378 0.9378 0.3473 -73.9597 166.5822)" style="fill:#3B1467;" width="0.975" height="7.011"/>
					
						<rect x="83.736" y="130.183" transform="matrix(0.5437 -0.8393 0.8393 0.5437 -74.6837 132.193)" style="fill:#3B1467;" width="0.974" height="9.186"/>
					
						<rect x="85.46" y="129.382" transform="matrix(0.6454 -0.7639 0.7639 0.6454 -71.6183 113.0538)" style="fill:#3B1467;" width="0.975" height="8.554"/>
					<path style="fill:#FDF9CA;" d="M103.276,136.556c0.121,3.067-4.538,5.742-10.407,5.972c-5.865,0.232-10.721-2.068-10.842-5.138
						c-0.121-3.068,4.539-5.742,10.407-5.972C98.302,131.186,103.157,133.486,103.276,136.556z"/>
					<path style="fill:#3B1467;" d="M100.7,136.704c0,1.904-1.998,3.448-4.464,3.448c-2.465,0-4.464-1.544-4.464-3.448
						c0-1.906,1.998-3.45,4.464-3.45C98.702,133.253,100.7,134.797,100.7,136.704z"/>
				</g>
				<g>
					
						<rect x="129.797" y="131.528" transform="matrix(0.8828 -0.4697 0.4697 0.8828 -46.3885 78.0728)" style="fill:#3B1467;" width="6.988" height="0.975"/>
					
						<rect x="128.079" y="129.599" transform="matrix(0.7924 -0.61 0.61 0.7924 -51.8502 107.8151)" style="fill:#3B1467;" width="8.799" height="0.975"/>
					<polygon style="fill:#3B1467;" points="128.812,132.566 128.028,131.991 132.087,126.469 132.87,127.046 					"/>
					<path style="fill:#FDF9CA;" d="M134.495,133.647c0.273,3.22-4.503,6.259-10.669,6.782c-6.164,0.523-11.382-1.667-11.656-4.889
						c-0.275-3.224,4.502-6.263,10.667-6.784C129,128.232,134.219,130.419,134.495,133.647z"/>
					<path style="fill:#3B1467;" d="M131.14,133.824c0,1.904-1.999,3.448-4.465,3.448c-2.465,0-4.464-1.544-4.464-3.448
						c0-1.906,1.999-3.453,4.464-3.453C129.141,130.371,131.14,131.917,131.14,133.824z"/>
				</g>
				
					<rect x="78.203" y="121.645" transform="matrix(0.9686 -0.2485 0.2485 0.9686 -28.082 25.6768)" style="fill:#3B1467;" width="18.939" height="4.87"/>
				
					<rect x="109.02" y="118.276" transform="matrix(1 -0.0037 0.0037 1 -0.4478 0.4504)" style="fill:#3B1467;" width="23.864" height="4.871"/>
			</g>
		</g>
		<g>
			<polygon style="fill:#FDC25E;" points="177.688,200.586 156.172,184.633 139.215,203.509 136.535,209.841 147.24,213.932 
				148.097,231.931 153.577,236.209 174.113,228.823 174.113,213.318 173.598,205.223 			"/>
			<g>
				<polygon style="fill:#F57E9E;" points="145.067,231.494 142.393,216.476 142.38,192.303 66.528,193.399 70.18,247.58 
					142.409,242.221 142.407,240.733 				"/>
				<polygon style="fill:#FDC25E;" points="71.358,200.381 137.451,196.586 140.472,240.395 72.787,243.886 				"/>
				<polygon style="fill:#F57E9E;" points="78.014,240.395 75.172,204.093 133.696,203.14 133.539,238.055 				"/>
				<polygon style="fill:#FDC25E;" points="78.637,206.547 78.637,236.876 130.3,234.855 130.007,206.547 				"/>
				<g>
					<text transform="matrix(1 0 0 1 88.8916 220.2339)"><tspan x="0" y="0" style="fill:#FDF9CA; font-family:'Bangers-Regular'; font-size:15.2648px;">we’re</tspan><tspan x="-2.374" y="13.993" style="fill:#FDF9CA; font-family:'Bangers-Regular'; font-size:15.2648px;">hiring</tspan></text>
				</g>
			</g>
			<g>
				<path style="fill:#76CAB3;" d="M178.664,230.655c-6.205,10.893-27.41,10.686-36.255,10.094l-0.009-5.534l-7.567,5.18
					l-7.792-14.124c4.754-8.474,11.609-9.805,15.349-9.836c1.638-0.011,2.669,0.224,2.669,0.224l1.833,15.213
					c0.41,0.022,0.808,0.04,1.206,0.058c23.553,0.897,22.561-13.285,20.369-20.872l5.133-5.836
					C177.856,210.512,184.233,220.888,178.664,230.655z"/>
				<path style="fill:#3B1467;" d="M133.546,237.431l-0.903-0.365c0.037-0.09,3.669-8.899,11.464-7.212l-0.208,0.953
					C136.901,229.281,133.581,237.348,133.546,237.431z"/>
				<path style="fill:#3B1467;" d="M131.331,233.49l-0.866-0.45c0.056-0.105,5.686-10.754,13.717-7.626l-0.354,0.909
					C136.611,223.508,131.382,233.39,131.331,233.49z"/>
				<path style="fill:#3B1467;" d="M128.708,229.782c-0.002,0-0.002,0-0.003,0l0.016-0.973l-0.013,0.485l-0.394-0.282l0.082-0.143
					c1.791-3.09,6.784-10.067,14.515-8.022l-0.249,0.942c-7.067-1.866-11.745,4.67-13.424,7.569
					C129.101,229.597,128.993,229.782,128.708,229.782z"/>
			</g>
			<g>
				<path style="fill:#76CAB3;" d="M72.129,243.317h-8.524l-3.652-19.905c0,0,4.626-6.028,15.219,2.374L72.129,243.317z"/>
				<path style="fill:#3B1467;" d="M74.193,229.612c-0.234-0.273-5.765-6.603-11.81-2.372l-0.559-0.799
					c6.783-4.744,13.047,2.463,13.11,2.537L74.193,229.612z"/>
				<path style="fill:#3B1467;" d="M73.298,234.589c-0.177-0.244-4.404-5.959-10.099-1.875l-0.568-0.792
					c6.491-4.654,11.41,2.032,11.458,2.099L73.298,234.589z"/>
				<path style="fill:#3B1467;" d="M72.409,239.831c-0.025-0.027-2.362-2.862-4.939-2.761c-1.264,0.045-2.417,0.792-3.426,2.229
					l-0.797-0.561c1.195-1.701,2.607-2.589,4.194-2.641c3.057-0.109,5.617,2.992,5.724,3.124L72.409,239.831z"/>
			</g>
			<polygon style="fill:#3B1467;" points="164.838,216.655 157.548,198.633 159.354,197.904 165.46,213.001 176.959,199.94 
				178.42,201.227 			"/>
		</g>
	</g>
	<g>
		<g>
			<g>
				<polygon style="fill:#F57E9E;" points="294.516,177.626 293.889,125.77 228.598,134.56 233.872,189.214 268.618,182.575 
					273.925,200.601 276.248,198.406 276.248,181.118 				"/>
				<g>
					<text transform="matrix(0.99 -0.1411 0.1411 0.99 240.2914 158.3324)"><tspan x="0" y="0" style="fill:#FDF9CA; font-family:'Bangers-Regular'; font-size:21.6168px;">we’re</tspan><tspan x="-3.361" y="19.815" style="fill:#FDF9CA; font-family:'Bangers-Regular'; font-size:21.6168px;">hiring</tspan></text>
				</g>
				<path style="fill:#FDF9CA;" d="M231.525,137.822c20.032-2.486,40.067-4.966,60.099-7.452c-0.322-0.183-0.643-0.369-0.966-0.558
					c-0.157,8.481-0.315,16.963-0.473,25.443c-0.1,5.266-0.196,10.536-0.295,15.802c-0.022,1.149-0.043,2.3-0.064,3.453
					c0.006-0.281,1.621-0.631-0.478-0.184c-17.473,3.721-34.945,7.445-52.42,11.167c0.419,0.109,0.838,0.218,1.258,0.329
					c-1.814-16.324-3.627-32.645-5.44-48.97c-0.093-0.829-2.285-0.327-2.184,0.585c1.813,16.324,3.628,32.645,5.44,48.97
					c0.057,0.507,0.961,0.391,1.258,0.326c17.94-3.823,35.884-7.645,53.822-11.47c0.298-0.06,0.925-0.352,0.933-0.734
					c0.278-14.985,0.558-29.968,0.836-44.95c0.011-0.507-0.556-0.612-0.966-0.559c-20.035,2.483-40.067,4.964-60.101,7.449
					C230.67,136.608,230.021,138.007,231.525,137.822z"/>
			</g>
			<g>
				<g>
					<path style="fill:#FDC25E;" d="M293.01,214.164l-4.138,4.894l-9.042-12.296c0,0-0.761,5.712-5.654,7.624
						c-4.893,1.92-10.547-5.614-10.547-16.293c0-9.352,3.186-15.138,10.135-8.397c1.557-3.897,3.817-7.1,6.188-7.039
						c5.525,0.12,3.135,16.31,3.135,16.31L293.01,214.164z"/>
					<path style="fill:#3B1467;" d="M291.842,212.939l-9.275-13.848l0.026-0.194c0.018-0.116,1.682-11.67-1.097-14.961
						c-0.433-0.515-0.942-0.773-1.557-0.786c-1.806-0.067-3.938,2.401-5.632,6.535c-2.199,5.363-2.875,11.495-1.421,12.865
						c0.285,0.267,0.5,0.249,0.659,0.208c1.856-0.51,4.463-7.376,5.671-11.583l0.967,0.275c-0.336,1.17-3.366,11.451-6.371,12.277
						c-0.402,0.109-1.009,0.124-1.612-0.445c-2.028-1.91-0.967-8.745,1.178-13.977c1.887-4.604,4.324-7.202,6.584-7.159
						c0.906,0.018,1.682,0.403,2.303,1.138c2.89,3.427,1.572,13.95,1.35,15.565l9.06,13.527L291.842,212.939z"/>
					
						<rect x="276.493" y="199.615" transform="matrix(0.9978 -0.0668 0.0668 0.9978 -13.1317 18.9632)" style="fill:#3B1467;" width="1.005" height="12.457"/>
					
						<rect x="266.609" y="208.572" transform="matrix(0.9577 -0.2877 0.2877 0.9577 -48.6595 87.083)" style="fill:#3B1467;" width="10.611" height="1.004"/>
					
						<rect x="264.186" y="202.802" transform="matrix(0.9752 -0.2215 0.2215 0.9752 -38.3693 64.4628)" style="fill:#3B1467;" width="8.085" height="1.004"/>
					<rect x="263.681" y="195.588" style="fill:#3B1467;" width="7.944" height="1.005"/>
				</g>
				<path style="fill:#3B1467;" d="M346.372,216.674c0,0-28.251,19.587-53.739-9.919l-10.547,11.803c0,0,19.085,41.562,68.053,5.775
					L346.372,216.674z"/>
			</g>
		</g>
		<path style="fill:#76CAB3;" d="M403.382,216.926l1.247-7.354l3.747-1.571l-2.594-5.207h-0.002l1.116-6.582
			c-36.794-1.888-67.431,18.172-67.431,18.172l12.557,14.977l10.799-7.493l19.336,18.039l9.041-7.413l13.308,2.894l-10.526-22.218
			L403.382,216.926z"/>
		<g>
			<g>
				<path style="fill:#FDC25E;" d="M402.497,234.125l-1.385,5.783l-9.041-2.892c0,0-4.39,11.169-10.286,9.161
					c-5.906-2.007-3.396-20.591-3.396-20.591s-21.977-6.528-20.713-10.415c1.025-3.216,17.931,4.369,23.767,7.098
					c6.178-10.466,10.124,5.827,10.124,5.827L402.497,234.125z"/>
				
					<rect x="382.409" y="226.011" transform="matrix(0.9879 -0.1549 0.1549 0.9879 -31.9736 62.1553)" style="fill:#3B1467;" width="1.005" height="20.531"/>
				
					<rect x="377.857" y="231.968" transform="matrix(0.9923 -0.1242 0.1242 0.9923 -25.9335 49.0125)" style="fill:#3B1467;" width="4.432" height="1.007"/>
				
					<rect x="378.493" y="240.313" transform="matrix(0.9361 -0.3518 0.3518 0.9361 -60.3558 149.438)" style="fill:#3B1467;" width="5.153" height="1.005"/>
			</g>
			<path style="fill:#3B1467;" d="M426.484,236.393c-5.654,14.808-28.507,4.391-28.507,4.391l0.331-6.74l0.222-4.443
				c0,0,1.457,0.337,3.434,0.425c3.93,0.17,9.945-0.574,11.151-6.569c1.225-6.079-4.572-11.201-8.489-13.883l1.155-6.778
				C418.471,207.062,431.598,222.953,426.484,236.393z"/>
		</g>
		<g>
			<g>
				<path style="fill:#5C2E91;" d="M414.933,94.502c-1.537-0.614-3.556-1.066-5.664-1.186c3.354-3.184,6.177-7.142,7.673-10.989
					c2.25-6.027-2.511-8.789-8.035-8.659c-2.623,0.06-5.122,0.462-7.483,1.185c-1.266-3.184-3.768-5.835-7.845-7.342
					c-4.569-1.617-9.634-1.758-13.871,1.015c0.633-2.802,0.593-5.917,0.07-7.674c-2.271-7.534-10.93-8.036-16.575-3.887
					c-4.067,2.982-6.679,7.422-8.005,12.314c-4.593-1.466-10.227-0.703-14.355,0.995c-7.272,2.893-12.555,9.292-9.159,17.327
					c0.16,0.412,0.392,0.875,0.673,1.356c-3.907-1.115-11.473-2.189-12.104,3.416c-0.213,2.099,0.875,4.7,2.543,6.076
					c-2.874,0.924-5.628,2.412-5.556,4.852c0.07,2.421,4.459,2.924,8.628,2.331c-0.461,1.386-0.471,2.923,0.171,4.32
					c0.734,1.497,1.918,2.481,3.335,3.093l13.986,48.715l37.668,5.196l5.942-17.749l9.219-31.09c3.458,0.502,7.104,0,10.327-1.386
					c4.02-1.878,8.66-5.523,7.153-10.546c-0.202-0.764-0.513-1.406-0.914-1.948c1.376-0.422,2.671-0.985,3.806-1.698
					C420.699,99.906,418.82,96.008,414.933,94.502z"/>
				<g>
					<path style="fill:#3B1467;" d="M334.881,94.794c-3.025,0.843-5.565,2.171-7.298,4.879c-2.022,3.164,0.201,6.944,3.415,7.807
						c4.492,1.204,11.823-2.145,14.278-5.879c1.749-2.662,1.754-11.627-2.95-7.313c-7.682,7.045,0.179,17.158,8.75,18.064
						c6.274,0.663,13.339-3.676,16.606-8.753c2.54-3.942-0.035-14.604-5.581-10.279c-3.063,2.387-0.116,7.255,1.739,9.207
						c2.545,2.673,7.024,3.676,10.58,3.073c7.86-1.335,13.254-7.106,10.607-15.271c-1.046-3.233-3.546-5.763-6.802-6.648
						c-0.327-0.089-1.598,0.438-1.199,0.546c13.96,3.799,6.349,27.846-9.872,19.277c-2.207-1.165-3.78-3.303-4.574-5.61
						c-0.46-1.336-0.112-2.822,0.399-4.075c1.134-2.758,3.709,2.096,4.034,2.819c2.335,5.195-2.471,10.155-6.419,12.694
						c-6.645,4.274-13.831,2.443-18.3-3.539c-1.196-1.602-1.694-3.513-1.828-5.47c-0.139-2.034,3.999-8.61,4.643-4.457
						c0.746,4.814-2.522,7.982-6.443,9.879c-10.513,5.09-14.254-7.586-3.676-10.536C335.832,94.975,335.725,94.559,334.881,94.794
						L334.881,94.794z"/>
					<path style="fill:#3B1467;" d="M342.114,88.082c-7.939,3.136-8.547-6.526-3.38-9.006c2.842-1.364,6.582-1.239,9.564-0.456
						c2.66,0.699,5.241,2.222,7.008,4.325c2.916,3.474-2.658,4.51-4.35,2.332c-1.89-2.438-0.886-5.942,0.73-8.165
						c2.023-2.775,6.51-4.188,9.816-3.997c1.021,0.06,2.062,0.293,3.049,0.523c3.756,0.873,0.271,2.58-1.539,0.511
						c-5.587-6.378-2.519-15.661,6.469-16.118c0.808-0.041,1.134-1.073,0.141-1.022c-6.191,0.315-11.921,4.479-10.923,11.343
						c0.454,3.132,4.355,11.179,8.651,8.064c4.141-3.003-3.889-4.236-5.887-4.352c-5.68-0.329-11.928,3.41-12.916,9.158
						c-0.643,3.743,4.323,10.47,7.963,6.397c4.354-4.87-4.663-9.448-8.3-10.185c-4.726-0.959-11.045-0.373-13.913,4.005
						c-3.778,5.766,3.987,9.22,8.45,7.459C343.681,88.53,342.85,87.792,342.114,88.082L342.114,88.082z"/>
					<path style="fill:#3B1467;" d="M380.634,108.739c-6.147,1.347-6.964,10.131,0.375,8.229c3.355-0.869,6.391-2.614,8.672-5.241
						c0.943-1.088,1.904-4.789-0.772-4.463c-2.962,0.36-3.587,4.291-2.526,6.462c1.39,2.854,6.565,3.276,9.237,2.996
						c3.465-0.362,8.086-1.398,10.294-4.418c2.691-3.679,1.733-8.174-2.505-10.078c-0.44-0.197-1.77,0.438-1.154,0.714
						c6.064,2.724,3.921,9.208-1.059,11.657c-3.862,1.899-11.541,2.472-13.787-2.141c-0.338-0.691,0.79-5.363,1.764-3.628
						c0.779,1.388-1.159,3.242-1.965,4.023c-1.508,1.463-3.547,2.467-5.507,3.137c-5.534,1.892-6.406-5.287-0.867-6.502
						C381.727,109.291,381.512,108.546,380.634,108.739L380.634,108.739z"/>
					<path style="fill:#3B1467;" d="M381.037,88.055c-5.813-0.309-7.864-7.097-4.3-11.268c1.682-1.966,4.364-0.098,5.383,1.279
						c1.107,1.5-0.127,3.891-1.28,1.42c-0.826-1.774,0.452-4.189,1.25-5.757c2.373-4.653,8.359-5.786,12.44-2.832
						c3.565,2.582,4.539,7.543,4.227,11.624c-0.016,0.206,1.421,0.045,1.456-0.39c0.492-6.454-3.786-15.462-11.67-13.579
						c-2.905,0.694-5.354,2.038-7.229,4.403c-1.671,2.107-3.794,8.112,0.132,9.195c0.355,0.098,0.999-0.076,1.258-0.337
						c3.777-3.833-1.749-7.365-5.598-5.974c-6.736,2.436-3.364,12.473,2.988,12.812C380.402,88.667,381.763,88.095,381.037,88.055
						L381.037,88.055z"/>
					<path style="fill:#3B1467;" d="M394.402,97.422c0.842,4.687,8.229,0.853,8.608-2.547c0.184-1.662-1.139-5.551-3.219-5.707
						c-1.824-0.134-2.941,1.464-2.592,3.216c0.43,2.162,4.541,1.924,5.997,1.688c3.689-0.599,6.679-3.668,8.368-6.804
						c1.183-2.193,2.613-6.76,1.032-9.047c-1.594-2.305-4.02-1.51-5.686,0.205c-0.64,0.659,0.763,0.91,1.22,0.438
						c1.114,0.187,2.228,0.372,3.34,0.558c0.189,0.783,0.244,1.57,0.167,2.365c-0.04,1.127-0.365,2.309-0.678,3.375
						c-0.914,3.118-3.107,5.568-5.901,7.157c-1.727,0.983-3.386,1.059-5.173,0.551c0.809,0.229-0.258-3.728,1.271,0.038
						c1.681,4.141-4.793,6.933-5.298,4.124C395.735,96.348,394.277,96.721,394.402,97.422L394.402,97.422z"/>
				</g>
				<path style="fill:#3B1467;" d="M380.523,148.411c-3.324,0.121-5.464-1.54-7.059-4.234c-1.743-2.939,0.225-4.588,3.013-2.861
					c0.495,0.307,1.336,1.974,0.352,1.206c-0.774-0.609-1.429-1.436-2.029-2.21c-2.55-3.293-3.336-7.938-2.885-11.965
					c0.741-6.6,8.815-8.606,13.162-3.976c0.319,0.341,1.699-0.185,1.358-0.547c-4.404-4.688-11.218-3.822-14.762,1.408
					c-3.139,4.631-0.819,18.192,5.992,18.903c1.096,0.113,1.874-0.774,1.622-1.804c-0.476-1.936-3.794-2.867-5.473-2.85
					c-1.36,0.013-2.627,1.119-2.432,2.558c0.604,4.426,4.138,7.289,8.555,7.129C380.432,149.151,381.502,148.377,380.523,148.411
					L380.523,148.411z"/>
			</g>
			<g>
				<path style="fill:#FDC25E;" d="M404.386,160.055c-5.151,6.767-15.067,10.545-23.102,11.79c-1.056,0.172-2.08,0.262-3.084,0.293
					c1.308,4.932,3.113,12.756,2.45,15.908c-1.003,4.773-11.049,6.782-11.049,6.782l7.403,11.049
					c-3.003,4.662-7.213,5.065-10.256,4.55c-4.049-4.679-12.295-12.084-23.897-12.084c-16.944,0-42.811-2.13-45.321-12.172
					c-2.067-8.267,16.002-51.28,31.843-73.127c3.204,1.397,7.593,0.903,10.468,0.302c1.465-0.322,2.86-0.733,4.208-1.245
					c-0.03,0.421,0,0.842,0.07,1.245c0.744,3.384,4.89,3.515,7.532,3.013c2.583-0.553,4.873-1.628,6.901-3.074
					c0.332,0.703,0.745,1.326,1.255,1.808c3.174,2.823,7.475,2.671,11.663,1.226c-9.653,18.994-0.111,34.193-0.111,34.193
					l-3.516,7.773l10.428,4.018l0.571-7.737c2.441-2.257,5.163-4.127,8.127-5.36c3.797-1.587,8.006-2.161,12.515-1.209
					C405.895,149.374,408.525,154.53,404.386,160.055z"/>
				<path style="fill:#3B1467;" d="M331.683,126.692c0,0-13.393,27.29-9.542,38.671c3.85,11.382,19.756-4.77,19.756-4.77
					s-3.265-5.19-5.191-3.769c-1.926,1.424-0.753,4.187-0.753,4.187s-0.084-6.448,4.604-0.587c0,0-8.371,8.706-15.401,6.779
					C318.123,165.282,331.683,126.692,331.683,126.692z"/>
				<path style="fill:#3B1467;" d="M327.665,126.692l-19.252,5.105C308.413,131.797,314.691,121.252,327.665,126.692z"/>
				<path style="fill:#3B1467;" d="M336.121,124.682l18.665,8.372C354.786,133.054,348.593,118.738,336.121,124.682z"/>
				<path style="fill:#3B1467;" d="M402.924,159.029c0,0-4.219-4.124-12.414-2.758c-8.197,1.368-11.809,8.036-5.47,10.521
					c6.339,2.49,10.295-2.045,6.044-4.188l5.011-0.962l-6.801,0.361c0,0,5.232,3.992,0.891,4.83
					c-4.342,0.838-10.069-2.897-6.71-6.37C386.835,156.987,395.056,154.663,402.924,159.029z"/>
				<g>
					<path style="fill:#FDF9CA;" d="M322.808,145.824c0,3.348-5.002,6.068-11.174,6.068c-6.175,0-11.176-2.721-11.176-6.068
						c0-3.353,5.001-6.069,11.176-6.069C317.806,139.755,322.808,142.471,322.808,145.824z"/>
					<path style="fill:#3B1467;" d="M311.634,151.893c-6.175,0-11.176-2.721-11.176-6.068c0-3.353,5.001-6.069,11.176-6.069
						c1.41,0,2.759,0.143,4.001,0.399c0,0-14.743-0.058-14.401,5.669C301.548,151.071,311.634,151.893,311.634,151.893z"/>
					<path style="fill:#3B1467;" d="M320.521,145.921c0,1.73-1.719,3.135-3.837,3.135c-2.118,0-3.837-1.405-3.837-3.135
						c0-1.733,1.719-3.138,3.837-3.138C318.803,142.783,320.521,144.188,320.521,145.921z"/>
				</g>
				<g>
					<path style="fill:#FDF9CA;" d="M353.613,146.322c0,3.349-5.002,6.069-11.175,6.069c-6.172,0-11.174-2.72-11.174-6.069
						c0-3.352,5.002-6.07,11.174-6.07C348.611,140.251,353.613,142.97,353.613,146.322z"/>
					<path style="fill:#3B1467;" d="M350.111,146.322c0,1.731-1.718,3.136-3.836,3.136c-2.119,0-3.837-1.405-3.837-3.136
						c0-1.733,1.718-3.138,3.837-3.138C348.394,143.184,350.111,144.589,350.111,146.322z"/>
				</g>
				<g>
					<path style="fill:#FDF9CA;" d="M345.131,169.392l6.22,15.335c6.885,1.702,10.862-2.78,9.708-10.425
						c-1.304-8.611-9.979-14.253-9.979-14.253S352.271,167.572,345.131,169.392z"/>
					<path style="fill:#3B1467;" d="M354.108,185.764c-1.752,0-3.71-0.456-5.79-1.366l0.538-1.235
						c3.789,1.656,7.041,1.671,9.167,0.042c2.109-1.618,2.972-4.826,2.369-8.803c-0.968-6.375-6.227-11.133-8.561-12.961
						c-0.025,1.625-0.408,4.265-2.368,6.295c-2.206,2.285-5.769,3.146-10.578,2.556l0.163-1.336c4.363,0.531,7.54-0.189,9.436-2.148
						c2.521-2.601,1.937-6.61,1.933-6.651l-0.232-1.49l1.265,0.82c0.364,0.24,8.94,5.901,10.276,14.712
						c0.689,4.545-0.335,8.121-2.881,10.077C357.552,185.269,355.941,185.764,354.108,185.764z"/>
					
						<rect x="355.589" y="162.717" transform="matrix(0.7739 -0.6334 0.6334 0.7739 -27.9008 264.1259)" style="fill:#3B1467;" width="0.675" height="16.835"/>
					<polygon style="fill:#3B1467;" points="358.816,183.322 348.744,167.389 349.313,167.027 359.386,182.959 					"/>
					<polygon style="fill:#3B1467;" points="353.599,185.225 346.395,168.991 347.011,168.714 354.215,184.949 					"/>
					<polygon style="fill:#3B1467;" points="347.048,174.06 346.755,173.454 358.579,167.757 358.874,168.367 					"/>
					<path style="fill:#3B1467;" d="M349.028,160.266c0,0,1.767-1.969,6.897,0c0,0-4.279-4.142-7.889-0.955L349.028,160.266z"/>
				</g>
			</g>
		</g>
	</g>
	<g>
		<g>
			<g>
				<path style="fill:#76CAB3;" d="M180.587,437.928l-2.097-9.727l-77.525,5.956l-13.747-11.971l-5.019-44.681l63.01-1.145
					l30.223-41.679c0,0,57.991-4.444,65.163,49.549C247.743,438.225,180.587,437.928,180.587,437.928z"/>
				<polygon style="fill:#5C2E91;" points="100.965,384.23 146.075,378.932 157.96,420.317 107.409,424.614 				"/>
			</g>
			<g>
				<path style="fill:#3B1467;" d="M166.273,439.006l6.08-8.234c-5.37,1.504-4.869-11.527-4.869-11.527l-1.707-0.372l-0.656-26.479
					l-103.823,6.395l6.301,55.612l98.955-4.152L166.273,439.006L166.273,439.006z"/>
				<path style="fill:#FDF9CA;" d="M66.104,403.216c28.187-2.129,56.374-4.258,84.56-6.388c2.15-0.164,4.298-0.326,6.449-0.488
					c0.551-0.041,1.101-0.083,1.651-0.125c0.96-0.072-0.329-0.871-0.304-0.324c0.297,6.297,0.593,12.595,0.888,18.892
					c0.407,8.619,0.813,17.235,1.217,25.854c0.087,1.863,0.175,3.727,0.264,5.59c-0.009-0.157,1.486-0.579,0.43-0.535
					c-0.703,0.029-1.405,0.061-2.108,0.09c-26.352,1.126-52.704,2.251-79.054,3.377c-2.92,0.123-5.838,0.248-8.755,0.373
					c1.047-0.044,0.59-0.392,0.398-2.215c-0.309-2.902-0.615-5.805-0.922-8.706c-1.28-12.083-2.558-24.166-3.837-36.249
					c-0.085-0.806-1.718-0.396-1.629,0.437c1.678,15.864,3.359,31.728,5.037,47.592c0.036,0.328,0.499,0.431,0.754,0.42
					c30.153-1.288,60.307-2.576,90.458-3.863c0.329-0.015,0.908-0.278,0.891-0.688c-0.797-16.922-1.593-33.843-2.39-50.765
					c-0.018-0.413-0.372-0.616-0.766-0.587c-31.037,2.346-62.072,4.69-93.11,7.036C65.28,402.015,64.998,403.301,66.104,403.216z"/>
				<g>
					
						<text transform="matrix(0.9991 -0.0418 0.0418 0.9991 76.3548 435.5084)" style="fill:#FDF9CA; font-family:'Bangers-Regular'; font-size:27.3073px;">join us</text>
				</g>
			</g>
			<g>
				<path style="fill:#E93F64;" d="M179.739,433.974l-13.462,5.041l-0.114-4.318l-10.071,4.811l-9.166-16.106
					c2.338-8.8,12.763-12.718,18.605-14.253c2.406-0.628,4.032-0.858,4.032-0.858v17.907l8.02-2.211L179.739,433.974z"/>
				<path style="fill:#3B1467;" d="M155.3,437.444l-1.038-0.485c0.199-0.426,4.972-10.39,13.316-8.971l-0.19,1.13
					C159.898,427.846,155.345,437.348,155.3,437.444z"/>
				<path style="fill:#3B1467;" d="M152.823,433.005l-1.079-0.383c0.181-0.513,4.56-12.582,14.504-12.877l0.034,1.146
					C157.115,421.162,152.866,432.887,152.823,433.005z"/>
				<path style="fill:#3B1467;" d="M149.773,427.738l-1.034-0.494c0.262-0.547,6.547-13.427,18.274-14.228l0.079,1.144
					C156.025,414.915,149.833,427.61,149.773,427.738z"/>
			</g>
			<g>
				<path style="fill:#E93F64;" d="M70.319,444.52l-12.315-2.005l-4.44-23.629c0,0,8.593-7.446,20.765,4.511L70.319,444.52z"/>
				<path style="fill:#3B1467;" d="M72.961,428.648c-0.076-0.092-7.699-9.056-16.128-4.741l-0.523-1.02
					c9.252-4.736,17.451,4.929,17.531,5.026L72.961,428.648z"/>
				<path style="fill:#3B1467;" d="M71.845,434.389c-0.23-0.315-5.771-7.662-13.907-4.234l-0.445-1.057
					c8.979-3.784,15.211,4.528,15.276,4.612L71.845,434.389z"/>
				<path style="fill:#3B1467;" d="M70.659,440.022c-0.23-0.315-4.22-6.474-12.195-4.812l-0.465-1.062
					c8.68-2.225,13.52,5.11,13.584,5.193L70.659,440.022z"/>
			</g>
			<path style="fill:#3B1467;" d="M177.481,419.069l5.225,18.8l0.458,1.638l-4.732,1.146l-4.719-23.05
				c45.011-8.89,25.925-48.781,25.352-49.962C222.311,404.29,183.943,417.202,177.481,419.069z"/>
		</g>
		<g>
			<g>
				<path style="fill:#3B1467;" d="M180.415,316.672c-44.154-76.265-110.577-25.525-110.577-25.525l5.041,1.926l4.748,18.982
					l64.156,21.768h34.369l-1.432-4.869L180.415,316.672z"/>
				<polygon style="fill:#3B1467;" points="160.126,277.758 152.613,292.579 154.646,276.088 				"/>
				<polygon style="fill:#3B1467;" points="162.823,287.37 146.694,291.373 160.504,282.132 				"/>
				<g>
					<polygon style="fill:#FDF9CA;" points="104.599,300.245 118.579,281.553 106.498,301.526 					"/>
					<polygon style="fill:#FDF9CA;" points="88.748,293.586 110.703,282.555 89.871,295.583 					"/>
					<polygon style="fill:#FDF9CA;" points="120.803,304.013 124.186,282.555 123.081,304.25 					"/>
					<polygon style="fill:#FDF9CA;" points="130.465,304.185 130.751,285.705 132.754,304.078 					"/>
					<polygon style="fill:#FDF9CA;" points="148.831,306.369 135.764,283.7 150.765,305.139 					"/>
				</g>
			</g>
			<g>
				<g>
					<path style="fill:#E93F64;" d="M202.927,330.293c-2.669,3.048-8.02,5.156-11.651,6.484c-4.035,1.73-8.078,3.14-12.282,3.885
						c0.871,10.014-1.627,34.884-45.573,43.568c-55.563,10.975-115.137-10.22-108.264-41.529
						c4.892-22.293,33.603-40.818,49.722-49.629l32.96,12.59l6.679-10.127v10.127l37.542,4.469
						c0.812,10.747,9.246,13.381,9.246,13.381l-1.535,6.209l7.069,3.036v-11.009c0.628-0.47,1.237-0.87,1.718-1.192
						c3.321-2.325,7.525-3.529,11.857-3.884c4.892-0.4,9.955,0.275,14.115,1.592C199.49,319.593,207.509,324.565,202.927,330.293z"
						/>
				</g>
				<g>
					<path style="fill:#FDF9CA;" d="M111.372,358.31l6.681,14.416c0,0,10.55,2.34,14.37-6.634c0,0,1.752-13.021-10.08-21.477
						C122.343,344.616,121.3,356.831,111.372,358.31z"/>
					<path style="fill:#3B1467;" d="M98.295,318.514c2.193,4.262,3.916,8.149,2.258,12.983c-3.455,10.079-12.609,1.26-16.547-1.812
						c-3.37-2.626-6.151-2.569-8.917,0.766c-6.561,7.91-0.6,20.675,8.123,24.035c6.706,2.582,20.595,1.598,22.734-7.211
						c2.139-8.802-7.464-11.191-9.581-2.465c-0.284,1.172,2.26,0.853,2.518-0.208c2.801-3.105,4.359-3.454,4.676-1.047
						c0.217,1.003,0.248,2.007,0.094,3.012c-0.275,3.05-3.486,5.043-5.925,6.183c-4.882,2.277-10.756,1.6-15.252-1.103
						c-3.857-2.316-6.292-6.494-7.337-10.746c-0.622-2.537-0.172-5.108,0.728-7.5c2.338-6.228,6.634-1.871,9.257,0.608
						c4.428,4.188,10.172,5.247,15.122,1.469c5.992-4.574,3.099-12.67,0.335-18.043C100.095,316.489,97.711,317.378,98.295,318.514
						L98.295,318.514z"/>
					<path style="fill:#3B1467;" d="M100.345,352.821l0.069,0.199l2.365,6.675c0,0,19.476,1.575,19.762-14.607
						c0,0,6.825,4.01,8.973,14.081c2.148,10.073-5.012,16.565-16.659,12.126l0.382,7.973c0,0-14.846-2.207-9.404,7.87
						c0,0-2.247-9.209,10.286-7.347l-0.309-7.255c0,0,10.454,3.198,15.466-3.246c5.01-6.444-0.812-21.768-9.335-25.251
						c0,0,0.646,14.511-18.543,15.179l-2.481-6.732"/>
					
						<rect x="119.247" y="355.474" transform="matrix(0.821 -0.5709 0.5709 0.821 -186.9336 133.5473)" style="fill:#3B1467;" width="0.572" height="18.897"/>
					<polygon style="fill:#3B1467;" points="130.539,369.673 117.411,355.159 117.836,354.777 130.964,369.289 					"/>
					
						<rect x="126.286" y="348.1" transform="matrix(0.6339 -0.7734 0.7734 0.6339 -228.8276 228.1414)" style="fill:#3B1467;" width="0.573" height="15.363"/>
					
						<rect x="111.312" y="356.474" transform="matrix(0.7739 -0.6333 0.6333 0.7739 -198.5712 157.3614)" style="fill:#3B1467;" width="19.543" height="0.573"/>
					<path style="fill:#3B1467;" d="M118.579,342.081c0,0,3.817,5.441,5.607,0C124.186,342.081,122.922,346.091,118.579,342.081z"/>
				</g>
				<g>
					<path style="fill:#FDF9CA;" d="M121.014,325.636c0,5.523-3.462,10.001-7.733,10.001c-4.272,0-7.733-4.477-7.733-10.001
						c0-5.523,3.461-10.001,7.733-10.001C117.552,315.635,121.014,320.112,121.014,325.636z"/>
					<path style="fill:#3B1467;" d="M120.152,325.961c0,2.354-1.486,4.263-3.316,4.263c-1.833,0-3.318-1.908-3.318-4.263
						c0-2.354,1.486-4.262,3.318-4.262C118.666,321.699,120.152,323.607,120.152,325.961z"/>
				</g>
				<g>
					<path style="fill:#FDF9CA;" d="M99.566,327.228c0,4.17-2.651,7.55-5.92,7.55c-3.27,0-5.921-3.38-5.921-7.55
						c0-4.168,2.651-7.549,5.921-7.549C96.915,319.679,99.566,323.06,99.566,327.228z"/>
					<path style="fill:#3B1467;" d="M99.012,327.228c0,2.189-1.381,3.963-3.083,3.963c-1.703,0-3.086-1.773-3.086-3.963
						c0-2.188,1.383-3.963,3.086-3.963C97.631,323.265,99.012,325.039,99.012,327.228z"/>
				</g>
				
					<rect x="84.328" y="309.669" transform="matrix(0.9986 -0.0531 0.0531 0.9986 -16.4513 5.8706)" style="fill:#3B1467;" width="35.85" height="5.728"/>
				<path style="fill:#3B1467;" d="M200.425,329.944c0,0-4.059-5.301-13.296-4.997c-9.241,0.307-14.189,7.297-7.556,11.068
					c6.632,3.772,11.651-0.756,7.274-3.821l5.666-0.328l-7.554-0.623c0,0,5.193,5.303,0.284,5.595
					c-4.911,0.29-10.689-4.799-6.478-8.219C182.972,325.2,192.374,323.819,200.425,329.944z"/>
			</g>
		</g>
	</g>
</g>
</svg>
