<svg xmlns="http://www.w3.org/2000/svg" xmlns:xlink="http://www.w3.org/1999/xlink" width="793" zoomAndPan="magnify" viewBox="0 0 595.5 842.249979" height="1122" preserveAspectRatio="xMidYMid meet" version="1.0"><defs><clipPath id="d640b11478"><path d="M 0.015625 0 L 594.984375 0 L 594.984375 841.5 L 0.015625 841.5 Z M 0.015625 0 " clip-rule="nonzero"/></clipPath><clipPath id="b97d7047e8"><path d="M 0.015625 256 L 268 256 L 268 466 L 0.015625 466 Z M 0.015625 256 " clip-rule="nonzero"/></clipPath><clipPath id="18d905c808"><path d="M 53 529 L 584 529 L 584 753.253906 L 53 753.253906 Z M 53 529 " clip-rule="nonzero"/></clipPath></defs><g clip-path="url(#d640b11478)"><path fill="#ffffff" d="M 0.015625 0 L 594.984375 0 L 594.984375 841.5 L 0.015625 841.5 Z M 0.015625 0 " fill-opacity="1" fill-rule="nonzero"/><path fill="#ffffff" d="M 0.015625 0 L 594.984375 0 L 594.984375 841.5 L 0.015625 841.5 Z M 0.015625 0 " fill-opacity="1" fill-rule="nonzero"/></g><path fill="#ffffff" d="M 47.617188 462.984375 C 47.234375 462.984375 46.859375 462.890625 46.519531 462.714844 C 45.953125 462.429688 45.523438 461.925781 45.335938 461.324219 L 3.265625 331.425781 C 2.851562 330.160156 3.550781 328.808594 4.804688 328.40625 L 219.398438 258.960938 C 219.636719 258.890625 219.890625 258.851562 220.136719 258.851562 C 220.511719 258.851562 220.882812 258.9375 221.226562 259.113281 C 221.796875 259.398438 222.21875 259.898438 222.417969 260.511719 L 264.488281 390.410156 C 264.894531 391.664062 264.203125 393.023438 262.945312 393.429688 L 48.355469 462.863281 C 48.109375 462.945312 47.863281 462.984375 47.617188 462.984375 " fill-opacity="1" fill-rule="nonzero"/><g clip-path="url(#b97d7047e8)"><path fill="#ffffff" d="M 220.136719 256.449219 C 219.644531 256.449219 219.144531 256.53125 218.65625 256.679688 L 4.066406 326.117188 C 1.546875 326.933594 0.164062 329.636719 0.980469 332.164062 L 43.046875 462.0625 C 43.441406 463.269531 44.292969 464.28125 45.429688 464.851562 C 46.113281 465.199219 46.859375 465.375 47.617188 465.375 C 48.109375 465.375 48.609375 465.304688 49.09375 465.144531 L 263.6875 395.710938 C 266.207031 394.890625 267.589844 392.191406 266.769531 389.671875 L 224.699219 259.773438 C 224.308594 258.566406 223.453125 257.554688 222.324219 256.976562 C 221.640625 256.625 220.890625 256.449219 220.136719 256.449219 Z M 220.136719 261.25 L 262.207031 391.148438 L 47.617188 460.585938 L 5.546875 330.683594 L 220.136719 261.25 " fill-opacity="1" fill-rule="nonzero"/></g><path fill="#2b3974" d="M 262.207031 391.148438 L 47.617188 460.585938 L 5.546875 330.683594 L 220.136719 261.25 L 262.207031 391.148438 " fill-opacity="1" fill-rule="nonzero"/><path fill="#ffffff" d="M 220.136719 261.25 L 191.953125 270.363281 L 129.683594 344.917969 L 35.507812 320.984375 L 5.894531 330.566406 L 5.664062 331.035156 L 10.878906 347.160156 L 107.335938 371.671875 L 43.546875 448.027344 L 47.617188 460.585938 L 83.8125 448.871094 L 141.121094 380.253906 L 227.792969 402.28125 L 262.207031 391.148438 L 257.78125 377.472656 L 163.46875 353.507812 L 225.835938 278.84375 L 220.136719 261.25 " fill-opacity="1" fill-rule="nonzero"/><path fill="#ed1c24" d="M 202.113281 267.082031 L 133.054688 358.378906 L 23.566406 324.851562 L 8.414062 329.753906 L 127.195312 366.125 L 58.378906 457.097656 L 73.539062 452.191406 L 136.488281 368.972656 L 236.28125 399.539062 L 251.433594 394.628906 L 142.347656 361.222656 L 217.265625 262.171875 L 202.113281 267.082031 " fill-opacity="1" fill-rule="nonzero"/><path fill="#ffffff" d="M 169.75 421.066406 L 140.074219 430.667969 L 98.003906 300.765625 L 127.679688 291.160156 L 169.75 421.066406 " fill-opacity="1" fill-rule="nonzero"/><path fill="#ed1c24" d="M 163.4375 423.101562 L 146.378906 428.625 L 104.316406 298.726562 L 121.375 293.203125 L 163.4375 423.101562 " fill-opacity="1" fill-rule="nonzero"/><path fill="#ffffff" d="M 31.382812 410.464844 L 21.777344 380.804688 L 236.363281 311.367188 L 245.972656 341.03125 L 31.382812 410.464844 " fill-opacity="1" fill-rule="nonzero"/><path fill="#ed1c24" d="M 29.339844 404.15625 L 23.8125 387.105469 L 238.40625 317.667969 L 243.929688 334.730469 L 29.339844 404.15625 " fill-opacity="1" fill-rule="nonzero"/><path fill="#ffffff" d="M 360.730469 240.167969 C 360.824219 240.136719 361.191406 240.011719 362.058594 239.769531 C 362.828125 239.589844 363.457031 239.4375 363.917969 239.320312 C 365.984375 238.859375 367.988281 238.628906 369.890625 238.628906 C 374.269531 238.628906 378.21875 239.828125 381.964844 242.304688 C 387.316406 245.777344 390.78125 250.824219 392.617188 257.753906 C 394.5 264.683594 394.015625 270.777344 391.164062 276.429688 C 388.261719 282.164062 383.585938 285.980469 376.882812 288.085938 L 376.757812 288.125 C 376.375 288.253906 375.867188 288.402344 375.238281 288.585938 C 374.660156 288.722656 374.207031 288.824219 373.863281 288.878906 C 373.464844 288.941406 373.070312 289.046875 372.695312 289.183594 C 370.890625 289.539062 369.125 289.722656 367.449219 289.722656 C 363.066406 289.722656 359.117188 288.515625 355.371094 286.042969 C 350.03125 282.539062 346.554688 277.484375 344.710938 270.585938 C 342.867188 263.675781 343.351562 257.5625 346.191406 251.890625 C 349.074219 246.144531 353.734375 242.339844 360.421875 240.273438 Z M 262.960938 287.28125 L 262.960938 240.34375 L 271.613281 240.34375 C 278.371094 240.519531 283.65625 242.773438 287.773438 247.257812 C 291.867188 251.691406 293.847656 257.101562 293.847656 263.816406 C 293.847656 270.53125 291.867188 275.933594 287.789062 280.359375 C 283.65625 284.851562 278.371094 287.109375 271.613281 287.28125 Z M 236.488281 313.777344 L 272.472656 313.777344 C 272.882812 313.777344 273.289062 313.742188 273.679688 313.671875 C 287.128906 313.011719 298.753906 307.96875 308.253906 298.652344 C 312.9375 294.054688 315.957031 289.09375 317.914062 284.183594 C 322.285156 295.300781 329.980469 304.027344 340.910156 310.128906 C 349.210938 314.722656 357.957031 317.050781 366.929688 317.050781 C 371.691406 317.050781 376.589844 316.390625 381.480469 315.09375 C 381.804688 315.03125 382.132812 314.945312 382.449219 314.839844 L 382.519531 314.816406 L 382.824219 314.738281 C 397.140625 310.90625 408.191406 302.625 415.679688 290.121094 C 423.214844 277.492188 425.140625 264.007812 421.410156 250.023438 C 417.636719 236.058594 409.234375 225.371094 396.425781 218.214844 C 388.15625 213.621094 379.414062 211.300781 370.429688 211.300781 C 365.730469 211.300781 360.898438 211.941406 356.046875 213.199219 C 355.683594 213.269531 355.324219 213.367188 354.964844 213.484375 L 354.949219 213.484375 C 354.703125 213.539062 354.457031 213.605469 354.21875 213.683594 C 340.042969 217.546875 329.089844 225.800781 321.65625 238.230469 C 320.972656 239.367188 320.351562 240.519531 319.757812 241.671875 C 314.730469 226.589844 298.492188 213.851562 281.945312 213.851562 L 236.488281 213.851562 C 232.625 213.851562 229.5 216.972656 229.5 220.835938 L 229.5 233.359375 C 229.5 236.671875 231.808594 239.445312 234.898438 240.160156 L 234.898438 287.464844 C 231.808594 288.179688 229.5 290.953125 229.5 294.265625 L 229.5 306.789062 C 229.5 310.652344 232.625 313.777344 236.488281 313.777344 " fill-opacity="1" fill-rule="nonzero"/><path fill="#ffffff" d="M 319.828125 457.285156 L 316.109375 457.285156 L 316.109375 451.214844 L 325.171875 451.214844 C 325.378906 452.097656 325.757812 452.917969 326.269531 453.632812 L 325.972656 453.632812 C 323.316406 453.632812 321.011719 455.109375 319.828125 457.285156 Z M 324.222656 345.210938 C 324.097656 345.832031 323.9375 346.5 323.738281 347.214844 C 323.390625 347.316406 323.054688 347.429688 322.714844 347.546875 C 323.222656 346.6875 323.730469 345.902344 324.222656 345.210938 Z M 221.511719 472.152344 C 217.019531 467.347656 210.550781 463.382812 201.742188 460.058594 C 195.15625 457.613281 192.835938 455.96875 192.144531 455.371094 C 191.414062 454.734375 191.054688 453.996094 190.945312 452.875 C 190.890625 452.214844 191.007812 452.097656 191.191406 451.90625 C 191.78125 451.304688 193.394531 450.921875 195.554688 450.921875 C 197.789062 450.921875 199.824219 451.175781 201.699219 451.683594 L 201.699219 452.304688 C 201.699219 456.167969 204.832031 459.289062 208.6875 459.289062 L 220.726562 459.289062 C 222.402344 459.289062 223.921875 458.667969 225.128906 457.683594 L 225.128906 476.882812 C 224.078125 475.207031 222.886719 473.617188 221.511719 472.152344 Z M 256.292969 460.195312 L 252.753906 460.195312 L 252.753906 450.984375 L 261.492188 450.984375 C 262.757812 451.246094 263.734375 451.820312 264.617188 452.78125 C 265.433594 453.6875 265.785156 454.578125 265.753906 455.722656 C 265.714844 456.746094 265.65625 458.136719 262.089844 459.335938 C 260.363281 459.910156 258.628906 460.203125 256.9375 460.203125 L 256.492188 460.195312 Z M 483.0625 496.445312 L 478.109375 496.445312 L 460.144531 473.441406 L 477.070312 451.039062 L 481.496094 451.039062 C 485.351562 451.039062 488.484375 447.917969 488.484375 444.054688 L 488.484375 432.089844 C 488.484375 428.234375 485.351562 425.105469 481.496094 425.105469 L 467.316406 425.105469 C 465.128906 425.105469 463.070312 426.128906 461.75 427.878906 L 452.679688 439.84375 C 452.535156 440.035156 452.402344 440.234375 452.273438 440.433594 L 452.273438 431.859375 C 452.273438 428.003906 449.148438 424.875 445.292969 424.875 L 421.984375 424.875 C 418.128906 424.875 414.996094 428.003906 414.996094 431.859375 L 414.996094 443.824219 C 414.996094 446.925781 417.023438 449.554688 419.820312 450.46875 L 419.820312 496.789062 C 419.542969 496.875 419.273438 496.996094 419.011719 497.121094 C 418.683594 497.082031 418.367188 497.027344 418.035156 497.027344 L 416.484375 497.027344 L 396.417969 430.429688 C 395.527344 427.472656 392.808594 425.453125 389.730469 425.453125 L 366.773438 425.453125 C 362.917969 425.453125 359.785156 428.585938 359.785156 432.4375 L 359.785156 443.355469 C 359.785156 445.121094 360.445312 446.734375 361.515625 447.964844 L 348.949219 489.746094 C 347.675781 488.4375 345.902344 487.617188 343.933594 487.617188 L 331.960938 487.617188 C 328.105469 487.617188 324.972656 490.742188 324.972656 494.59375 L 324.972656 496.03125 L 316.109375 496.03125 L 316.109375 483.683594 L 319.828125 483.683594 C 321.011719 485.871094 323.316406 487.347656 325.972656 487.347656 L 337.945312 487.347656 C 341.800781 487.347656 344.933594 484.226562 344.933594 480.363281 L 344.933594 460.617188 C 344.933594 459.105469 344.449219 457.699219 343.628906 456.5625 L 343.933594 456.5625 C 347.789062 456.5625 350.921875 453.433594 350.921875 449.578125 L 350.921875 431.859375 C 350.921875 428.003906 347.789062 424.875 343.933594 424.875 L 290.984375 424.875 C 287.128906 424.875 284 428.003906 284 431.859375 L 284 433.035156 C 278.417969 427.449219 271.628906 424.578125 263.789062 424.578125 L 249.304688 424.578125 C 257.199219 417.90625 261.238281 408.171875 263.226562 403.371094 C 263.726562 402.132812 264.417969 400.40625 264.988281 398.992188 C 272.558594 395.328125 280.398438 390.910156 288.171875 383.464844 C 293.300781 390.972656 302.003906 395.195312 313.09375 395.195312 C 323.8125 395.195312 333.453125 391.125 341.183594 383.371094 C 343.941406 383.28125 346.707031 382.835938 349.410156 382.035156 C 350.433594 385.140625 351.96875 387.398438 353.410156 388.964844 C 357.089844 392.984375 362.558594 395.195312 368.808594 395.195312 C 375.054688 395.195312 380.835938 393.144531 386.3125 388.957031 C 389.992188 392.9375 395.382812 395.195312 401.839844 395.195312 C 416.386719 395.195312 430.1875 383.871094 442.867188 361.523438 C 443.933594 359.640625 444.070312 357.371094 443.226562 355.375 C 441.292969 350.78125 435.800781 346.808594 430.730469 346.332031 C 430.507812 346.308594 430.285156 346.300781 430.0625 346.300781 C 427.589844 346.300781 425.285156 347.609375 424.019531 349.773438 C 421.777344 353.632812 419.78125 356.75 418.035156 359.253906 L 431.023438 326.949219 C 431.890625 324.796875 431.628906 322.359375 430.324219 320.441406 C 429.027344 318.519531 426.859375 317.367188 424.535156 317.367188 L 405.441406 317.367188 C 402.59375 317.367188 400.027344 319.089844 398.960938 321.738281 L 398.476562 322.945312 C 398.292969 322.0625 397.945312 321.207031 397.417969 320.441406 C 396.125 318.519531 393.953125 317.367188 391.632812 317.367188 L 372.535156 317.367188 C 369.691406 317.367188 367.128906 319.089844 366.058594 321.730469 L 356.828125 344.519531 C 356.582031 326.792969 345.300781 315.800781 327.261719 315.800781 C 303.769531 315.800781 290.015625 334.667969 285.199219 351.210938 C 284.355469 352.648438 283.511719 354.007812 282.679688 355.3125 L 294.230469 326.984375 C 295.105469 324.828125 294.859375 322.382812 293.554688 320.449219 C 292.257812 318.519531 290.085938 317.367188 287.757812 317.367188 L 268.664062 317.367188 C 265.824219 317.367188 263.265625 319.082031 262.191406 321.714844 L 261.691406 322.9375 C 261.507812 322.054688 261.15625 321.207031 260.640625 320.441406 C 259.335938 318.519531 257.175781 317.367188 254.847656 317.367188 L 235.757812 317.367188 C 232.902344 317.367188 230.34375 319.089844 229.277344 321.730469 L 215.707031 355.222656 C 210.214844 368.875 209.984375 379.5625 215.023438 387.015625 C 216.296875 388.898438 217.886719 390.488281 219.730469 391.761719 C 212.679688 396.792969 208.578125 403.753906 208.464844 411.285156 C 208.378906 416.695312 210.320312 421.710938 213.945312 425.398438 C 215.03125 426.511719 216.511719 427.710938 218.394531 428.75 C 216.296875 428.125 213.347656 427.265625 209.148438 426.074219 C 204.691406 424.777344 199.832031 424.117188 194.746094 424.117188 C 184.832031 424.117188 176.738281 426.957031 170.703125 432.542969 C 164.40625 438.421875 161.523438 446.28125 162.324219 455.308594 C 163.605469 469.152344 173.335938 479.378906 191.246094 485.726562 C 196.851562 487.761719 199.070312 489.484375 199.886719 490.328125 L 199.976562 490.414062 C 200.429688 490.867188 200.960938 491.582031 201.089844 493.125 C 201.238281 494.800781 200.785156 495.191406 200.453125 495.476562 C 199.460938 496.34375 197.589844 496.796875 195.03125 496.796875 C 192.644531 496.796875 190.339844 496.484375 188.074219 495.851562 L 188.074219 494.945312 C 188.074219 491.089844 184.941406 487.96875 181.085938 487.96875 L 169.050781 487.96875 C 165.195312 487.96875 162.070312 491.089844 162.070312 494.945312 L 162.070312 510.457031 C 162.070312 513.460938 163.996094 516.128906 166.839844 517.082031 C 180.425781 521.605469 189.53125 523.71875 195.5 523.71875 C 206.167969 523.71875 214.613281 520.9375 220.660156 515.460938 C 220.691406 519.285156 223.800781 522.375 227.632812 522.375 L 250.066406 522.375 C 253.933594 522.375 257.054688 519.253906 257.054688 515.398438 L 257.054688 503.019531 C 257.054688 500.117188 255.28125 497.621094 252.753906 496.574219 L 252.753906 486.332031 C 253.75 486.347656 254.710938 486.355469 255.632812 486.355469 C 263.84375 486.355469 269.777344 485.757812 273.742188 484.542969 C 279.65625 482.683594 284.453125 478.644531 288.058594 472.519531 C 288.203125 472.273438 288.332031 472.019531 288.472656 471.765625 L 288.472656 496.5 C 285.859375 497.511719 284 500.046875 284 503.019531 L 284 515.398438 C 284 519.253906 287.128906 522.375 290.984375 522.375 L 343.882812 522.375 C 344.734375 522.75 345.671875 522.957031 346.667969 522.957031 L 361.945312 522.957031 C 365.03125 522.957031 367.75 520.9375 368.640625 517.988281 L 373.300781 502.507812 L 389.898438 502.507812 L 394.613281 518.003906 C 395.503906 520.945312 398.222656 522.957031 401.289062 522.957031 L 418.035156 522.957031 C 419.097656 522.957031 420.09375 522.699219 420.992188 522.28125 C 421.316406 522.320312 421.640625 522.375 421.984375 522.375 L 445.292969 522.375 C 449.148438 522.375 452.273438 519.253906 452.273438 515.398438 L 452.273438 507.5625 L 460.039062 517.335938 L 461.734375 519.585938 C 463.046875 521.34375 465.121094 522.375 467.316406 522.375 L 483.0625 522.375 C 486.925781 522.375 490.050781 519.253906 490.050781 515.398438 L 490.050781 503.421875 C 490.050781 499.570312 486.925781 496.445312 483.0625 496.445312 " fill-opacity="1" fill-rule="nonzero"/><path fill="#2b3974" d="M 271.636719 294.265625 C 280.347656 294.070312 287.425781 291.007812 292.863281 285.097656 C 298.140625 279.375 300.78125 272.289062 300.78125 263.816406 C 300.78125 255.347656 298.140625 248.25 292.863281 242.527344 C 287.425781 236.617188 280.347656 233.566406 271.636719 233.359375 L 255.917969 233.359375 L 255.917969 294.265625 Z M 314.335938 263.816406 C 314.335938 275.402344 311.773438 285.351562 303.300781 293.664062 C 294.824219 301.976562 284.53125 306.335938 272.414062 306.734375 L 272.414062 306.789062 L 236.433594 306.789062 L 236.433594 294.265625 L 241.832031 294.265625 L 241.832031 233.359375 L 236.433594 233.359375 L 236.433594 220.835938 L 281.890625 220.835938 C 297.886719 220.835938 314.335938 236.195312 314.335938 251.046875 C 314.335938 261.394531 314.335938 252.222656 314.335938 263.816406 " fill-opacity="1" fill-rule="nonzero"/><path fill="#2b3974" d="M 378.929688 294.746094 C 387.441406 292.066406 393.578125 287.011719 397.339844 279.582031 C 400.972656 272.382812 401.632812 264.515625 399.320312 255.957031 C 397.039062 247.367188 392.523438 240.875 385.765625 236.480469 C 378.808594 231.878906 370.96875 230.5625 362.257812 232.515625 C 361.773438 232.644531 361.113281 232.800781 360.277344 233 C 359.394531 233.238281 358.734375 233.4375 358.296875 233.597656 C 349.777344 236.234375 343.636719 241.296875 339.886719 248.765625 C 336.285156 255.957031 335.625 263.832031 337.90625 272.382812 C 340.179688 280.941406 344.703125 287.433594 351.460938 291.867188 C 358.417969 296.460938 366.253906 297.78125 374.96875 295.824219 L 374.96875 295.769531 C 375.445312 295.683594 376.105469 295.546875 376.949219 295.347656 C 377.789062 295.101562 378.449219 294.902344 378.929688 294.746094 Z M 357.390625 220.054688 C 369.953125 216.695312 381.804688 218.117188 392.960938 224.308594 C 404.113281 230.546875 411.332031 239.714844 414.605469 251.824219 C 417.851562 263.976562 416.1875 275.546875 409.628906 286.535156 C 403.070312 297.484375 393.515625 304.636719 380.964844 307.992188 L 380.667969 308.054688 L 380.421875 308.109375 L 380.128906 308.238281 L 379.824219 308.292969 C 367.3125 311.644531 355.460938 310.230469 344.257812 304.035156 C 333.105469 297.804688 325.894531 288.609375 322.609375 276.460938 C 319.375 264.308594 321.035156 252.761719 327.59375 241.8125 C 334.144531 230.863281 343.703125 223.710938 356.253906 220.351562 L 356.558594 220.292969 L 356.859375 220.230469 L 357.097656 220.113281 L 357.390625 220.054688 " fill-opacity="1" fill-rule="nonzero"/><path fill="#2b3974" d="M 222.695312 491.75 C 223.316406 498.410156 221.632812 504.003906 217.640625 508.539062 C 212.878906 514 205.476562 516.726562 195.445312 516.726562 C 190.363281 516.726562 181.554688 514.636719 168.996094 510.457031 L 168.996094 494.945312 L 181.03125 494.945312 L 181.03125 500.699219 C 185.523438 502.746094 190.171875 503.773438 194.976562 503.773438 C 199.316406 503.773438 202.648438 502.769531 204.976562 500.753906 C 207.296875 498.742188 208.308594 496.007812 207.996094 492.558594 C 207.765625 489.699219 206.71875 487.332031 204.855469 485.472656 C 202.648438 483.191406 198.871094 481.078125 193.527344 479.148438 C 178.335938 473.757812 170.234375 465.605469 169.234375 454.6875 C 168.613281 447.75 170.664062 442.078125 175.394531 437.667969 C 180.117188 433.289062 186.546875 431.101562 194.6875 431.101562 C 199.140625 431.101562 203.308594 431.660156 207.179688 432.789062 C 215.628906 435.1875 220.121094 436.539062 220.660156 436.847656 L 220.660156 452.304688 L 208.632812 452.304688 L 208.632812 446.957031 C 204.800781 444.945312 200.421875 443.9375 195.5 443.9375 C 191.277344 443.9375 188.136719 444.984375 186.085938 447.074219 C 184.417969 448.816406 183.703125 450.96875 183.933594 453.527344 C 184.203125 456.429688 185.402344 458.8125 187.535156 460.671875 C 189.703125 462.53125 193.601562 464.5 199.21875 466.589844 C 206.933594 469.5 212.648438 472.949219 216.359375 476.9375 C 220.082031 480.886719 222.195312 485.820312 222.695312 491.75 " fill-opacity="1" fill-rule="nonzero"/><path fill="#2b3974" d="M 256.230469 467.179688 C 258.910156 467.25 261.578125 466.847656 264.25 465.957031 C 269.679688 464.136719 272.488281 460.78125 272.675781 455.902344 C 272.757812 452.964844 271.769531 450.347656 269.710938 448.0625 C 267.660156 445.820312 265.101562 444.460938 262.046875 444 L 245.710938 444 L 245.710938 467.179688 Z M 263.734375 431.5625 C 269.855469 431.5625 275.085938 433.828125 279.417969 438.367188 C 283.757812 442.855469 285.929688 448.316406 285.929688 454.742188 C 285.929688 459.820312 284.609375 464.566406 281.980469 468.976562 C 279.269531 473.585938 275.816406 476.546875 271.636719 477.867188 C 267.105469 479.257812 258.535156 479.6875 245.941406 479.148438 L 245.710938 479.148438 L 245.710938 503.019531 L 250.011719 503.019531 L 250.011719 515.390625 L 227.578125 515.390625 L 227.578125 503.019531 L 232.054688 503.019531 L 232.054688 444 L 227.578125 444 L 227.578125 431.5625 L 263.734375 431.5625 " fill-opacity="1" fill-rule="nonzero"/><path fill="#2b3974" d="M 343.875 431.859375 L 343.875 449.570312 L 331.902344 449.570312 L 331.902344 444.230469 L 309.0625 444.230469 L 309.0625 464.269531 L 325.917969 464.269531 L 325.917969 460.609375 L 337.890625 460.609375 L 337.890625 480.363281 L 325.917969 480.363281 L 325.917969 476.699219 L 309.0625 476.699219 L 309.0625 503.019531 L 331.902344 503.019531 L 331.902344 494.59375 L 343.875 494.59375 L 343.875 515.390625 L 290.929688 515.390625 L 290.929688 503.019531 L 295.40625 503.019531 L 295.40625 444.230469 L 290.929688 444.230469 L 290.929688 431.859375 L 343.875 431.859375 " fill-opacity="1" fill-rule="nonzero"/><path fill="#2b3974" d="M 372.179688 481.929688 L 390.949219 481.929688 L 381.535156 450.792969 Z M 389.667969 432.4375 L 411.234375 504.003906 L 417.976562 504.003906 L 417.976562 515.976562 L 401.234375 515.976562 L 395.019531 495.523438 L 368.050781 495.523438 L 361.890625 515.976562 L 346.601562 515.976562 L 346.601562 504.003906 L 351.898438 504.003906 L 370.144531 443.355469 L 366.714844 443.355469 L 366.714844 432.4375 L 389.667969 432.4375 " fill-opacity="1" fill-rule="nonzero"/><path fill="#2b3974" d="M 445.230469 431.859375 L 445.230469 443.824219 L 440.414062 443.824219 L 440.414062 467.816406 L 458.363281 444.054688 L 458.195312 444.054688 L 467.257812 432.089844 L 481.441406 432.089844 L 481.441406 444.054688 L 473.539062 444.054688 L 451.28125 473.511719 L 474.636719 503.421875 L 483.007812 503.421875 L 483.007812 515.390625 L 467.257812 515.390625 L 465.519531 513.070312 L 440.414062 481.46875 L 440.414062 503.421875 L 445.230469 503.421875 L 445.230469 515.390625 L 421.929688 515.390625 L 421.929688 503.421875 L 426.753906 503.421875 L 426.753906 443.824219 L 421.929688 443.824219 L 421.929688 431.859375 L 445.230469 431.859375 " fill-opacity="1" fill-rule="nonzero"/><path fill="#2e2a2b" d="M 227.648438 412.9375 C 230.289062 412.9375 234.375 409.941406 238.332031 399.253906 C 234.734375 400.929688 232.210938 401.894531 228.96875 403.816406 C 226.210938 405.492188 224.40625 407.660156 224.40625 409.695312 C 224.40625 411.5 225.605469 412.9375 227.648438 412.9375 Z M 298.746094 358.085938 C 286.375 379.691406 273.519531 387.253906 259.472656 393.851562 C 259.472656 393.851562 257.667969 398.292969 256.714844 400.691406 C 251.785156 412.582031 244.582031 424.578125 230.167969 424.578125 C 219.960938 424.578125 215.277344 418.222656 215.398438 411.378906 C 215.519531 402.855469 222.847656 397.210938 228.96875 394.453125 C 233.414062 392.292969 240.136719 389.535156 242.777344 388.089844 L 245.78125 380.769531 C 245.78125 380.769531 240.257812 388.210938 231.25 388.210938 C 221.648438 388.210938 213.234375 379.929688 222.125 357.847656 L 235.695312 324.351562 L 254.789062 324.351562 L 240.019531 361.082031 C 235.097656 373.085938 236.777344 374.773438 239.175781 374.773438 C 243.859375 374.773438 248.542969 368.289062 255.753906 355.921875 L 268.597656 324.351562 L 287.695312 324.351562 L 264.15625 382.089844 C 275.445312 376.328125 283.488281 368.167969 292.019531 353.285156 C 294.539062 353.523438 297.785156 355.804688 298.746094 358.085938 " fill-opacity="1" fill-rule="nonzero"/><path fill="#2e2a2b" d="M 321.433594 369.84375 C 319.757812 368.050781 318.792969 365.769531 318.792969 363.121094 C 318.792969 357.726562 323.121094 353.285156 329.003906 353.523438 C 330.6875 348.84375 331.640625 344.519531 331.640625 341.515625 C 331.640625 337.082031 329.480469 335.277344 326.960938 335.277344 C 317.476562 335.277344 308.230469 360.484375 308.230469 369.367188 C 308.230469 373.207031 310.035156 375.726562 312.910156 375.726562 C 315.796875 375.726562 318.792969 373.324219 321.433594 369.84375 Z M 367.789062 358.085938 C 361.3125 369.25 350.378906 377.289062 338.128906 376.328125 C 332.125 383.289062 323.714844 388.210938 313.03125 388.210938 C 298.140625 388.210938 289.976562 379.09375 289.976562 365.402344 C 289.976562 349.320312 301.742188 322.792969 327.199219 322.792969 C 341.730469 322.792969 349.777344 331.195312 349.777344 345.125 C 349.777344 351.71875 347.980469 359.769531 344.378906 367.085938 C 350.261719 366.125 356.144531 361.683594 361.0625 353.285156 C 363.585938 353.523438 366.828125 355.804688 367.789062 358.085938 " fill-opacity="1" fill-rule="nonzero"/><path fill="#2e2a2b" d="M 436.722656 358.085938 C 427.597656 374.167969 415.464844 388.210938 401.777344 388.210938 C 395.175781 388.210938 389.523438 384.976562 388.207031 377.410156 C 382.6875 383.894531 376.4375 388.210938 368.75 388.210938 C 357.949219 388.210938 350.140625 379.570312 358.910156 357.847656 L 372.472656 324.351562 L 391.566406 324.351562 L 376.796875 361.082031 C 371.875 373.085938 373.554688 374.773438 375.960938 374.773438 C 380.644531 374.773438 385.328125 368.289062 392.53125 356.160156 L 405.378906 324.351562 L 424.472656 324.351562 L 409.703125 361.082031 C 404.304688 374.40625 406.339844 376.449219 408.738281 376.449219 C 413.789062 376.449219 421.355469 368.167969 429.996094 353.285156 C 432.519531 353.523438 435.761719 355.804688 436.722656 358.085938 " fill-opacity="1" fill-rule="nonzero"/><g clip-path="url(#18d905c808)"><path fill="#ee2628" d="M 552.402344 529.964844 L 84.679688 529.964844 C 67.601562 529.964844 53.761719 543.796875 53.761719 560.867188 L 53.761719 681.90625 C 53.761719 698.964844 67.601562 712.800781 84.679688 712.800781 L 119.15625 712.800781 L 109.125 753.152344 L 167.738281 712.800781 L 552.402344 712.800781 C 569.480469 712.800781 583.320312 698.964844 583.320312 681.90625 L 583.320312 560.867188 C 583.320312 543.796875 569.480469 529.964844 552.402344 529.964844 " fill-opacity="1" fill-rule="nonzero"/></g><path fill="#ffffff" d="M 526.789062 662.699219 C 525.800781 667.753906 523.457031 672.066406 519.761719 675.644531 C 516.0625 679.21875 510.945312 681 504.410156 681 C 497.875 681 493.222656 679.21875 490.449219 675.644531 C 487.675781 672.066406 486.777344 667.753906 487.769531 662.699219 C 488.753906 657.527344 491.125 653.179688 494.886719 649.667969 C 498.644531 646.15625 503.859375 644.398438 510.515625 644.398438 C 517.050781 644.398438 521.636719 646.15625 524.292969 649.667969 C 526.9375 653.179688 527.773438 657.527344 526.789062 662.699219 Z M 566.179688 588.203125 C 565.3125 592.773438 563.800781 596.714844 561.648438 600.035156 C 559.492188 603.363281 556.964844 606.265625 554.0625 608.726562 C 551.171875 611.191406 548.117188 613.289062 544.914062 615.011719 C 541.703125 616.738281 538.65625 618.3125 535.753906 619.726562 C 532.863281 621.140625 530.300781 622.5 528.082031 623.792969 C 525.867188 625.082031 524.386719 626.410156 523.648438 627.765625 C 522.289062 630.230469 520.53125 632.050781 518.375 633.21875 C 516.214844 634.394531 514.148438 634.824219 512.175781 634.515625 C 510.203125 634.203125 508.511719 633.1875 507.097656 631.460938 C 505.671875 629.738281 504.964844 627.148438 504.964844 623.699219 C 504.964844 620.988281 505.488281 618.773438 506.539062 617.039062 C 507.589844 615.324219 508.851562 613.804688 510.332031 612.511719 C 511.808594 611.222656 513.472656 610.046875 515.324219 609.007812 C 517.175781 607.957031 518.957031 606.695312 520.683594 605.207031 C 524.386719 602.132812 527.066406 599.144531 528.726562 596.253906 C 530.398438 593.351562 531.320312 590.792969 531.503906 588.574219 C 531.691406 586.359375 531.222656 584.601562 530.117188 583.308594 C 529.003906 582.011719 527.527344 581.367188 525.683594 581.367188 C 522.222656 581.367188 519.601562 582.847656 517.820312 585.800781 C 516.03125 588.757812 515.441406 592.828125 516.0625 598 C 516.308594 600.34375 515.507812 602.507812 513.65625 604.476562 C 511.808594 606.449219 509.433594 607.988281 506.539062 609.09375 C 503.636719 610.207031 500.5625 610.785156 497.292969 610.847656 C 494.027344 610.914062 491.09375 610.269531 488.507812 608.910156 C 485.917969 607.550781 483.914062 605.398438 482.5 602.441406 C 481.074219 599.476562 480.796875 595.480469 481.664062 590.425781 C 482.777344 584.386719 484.742188 578.9375 487.585938 574.066406 C 490.417969 569.195312 493.996094 565.070312 498.3125 561.675781 C 502.621094 558.292969 507.492188 555.671875 512.914062 553.828125 C 518.34375 551.976562 524.195312 551.054688 530.484375 551.054688 C 536.035156 551.054688 541.183594 551.976562 545.929688 553.828125 C 550.675781 555.671875 554.714844 558.230469 558.046875 561.496094 C 561.371094 564.761719 563.800781 568.671875 565.34375 573.230469 C 566.886719 577.792969 567.164062 582.78125 566.179688 588.203125 " fill-opacity="1" fill-rule="nonzero"/><path fill="#ffffff" d="M 130.996094 593.527344 C 134.144531 596.902344 137.871094 598.761719 142.1875 598.761719 C 146.148438 598.761719 149.765625 597.015625 149.765625 593.757812 C 149.765625 590.730469 146.496094 588.632812 142.070312 588.632812 C 138.101562 588.632812 134.023438 590.261719 130.996094 593.527344 Z M 126.6875 606.6875 C 126.917969 616.59375 132.742188 621.710938 133.441406 622.179688 L 124.585938 635.347656 C 124.585938 635.347656 119.109375 630.5625 110.714844 630.5625 C 100.699219 630.5625 94.050781 637.558594 94.050781 648.046875 C 94.050781 658.058594 100.347656 666.449219 111.0625 666.449219 C 124.585938 666.449219 132.164062 652.582031 127.265625 641.171875 L 142.769531 636.746094 C 151.273438 662.605469 133.09375 682.757812 110.484375 682.757812 C 90.433594 682.757812 76.21875 667.378906 76.21875 648.507812 C 76.21875 627.535156 93.933594 612.742188 111.300781 614.378906 C 111.300781 614.378906 110.132812 611.230469 110.132812 606.226562 C 110.132812 600.160156 111.652344 594.226562 114.679688 589.09375 C 112.351562 582.570312 111.414062 575.234375 111.765625 567.890625 L 123.65625 569.527344 C 123.539062 572.785156 123.769531 575.8125 124.355469 578.609375 C 129.484375 575.113281 135.890625 572.785156 143.238281 572.785156 C 159.082031 572.785156 165.496094 583.039062 165.496094 592.128906 C 165.496094 602.609375 157.222656 612.28125 143.238281 612.28125 C 136.710938 612.28125 131.113281 610.183594 126.6875 606.6875 " fill-opacity="1" fill-rule="nonzero"/><path fill="#ffffff" d="M 232.386719 642.453125 C 223.0625 658.648438 211.867188 671.695312 197.886719 671.695312 C 185.769531 671.695312 180.753906 662.375 189.027344 641.753906 L 190.777344 637.4375 C 192.996094 631.851562 194.855469 627.425781 194.855469 625.675781 C 194.855469 624.046875 193.457031 623.109375 191.707031 623.109375 C 188.917969 623.109375 183.550781 625.789062 178.652344 631.382812 L 162.921875 670.175781 L 144.390625 670.175781 L 168.867188 609.714844 L 187.398438 609.714844 L 184.949219 615.886719 C 185.53125 615.308594 194.15625 608.203125 204.0625 608.203125 C 211.40625 608.203125 215.253906 612.160156 215.253906 618.335938 C 215.253906 621.480469 214.207031 625.445312 211.757812 631.503906 L 206.050781 645.359375 C 200.683594 658.757812 202.902344 660.277344 204.878906 660.277344 C 209.539062 660.277344 217.585938 652.121094 225.859375 637.796875 C 228.308594 638.027344 231.449219 640.234375 232.386719 642.453125 " fill-opacity="1" fill-rule="nonzero"/><path fill="#ffffff" d="M 255.457031 648.507812 L 263.035156 629.875 C 263.035156 629.875 262.914062 623.347656 257.90625 623.347656 C 248.691406 623.347656 240.074219 645.128906 240.074219 652.582031 C 240.074219 655.621094 241.464844 656.898438 243.804688 656.898438 C 250.210938 656.898438 255.457031 648.507812 255.457031 648.507812 Z M 231.449219 695.804688 C 234.007812 695.804688 237.976562 693.007812 241.933594 682.40625 C 238.554688 684.386719 235.996094 685.324219 233.199219 687.183594 C 230.859375 688.582031 228.53125 690.558594 228.53125 692.894531 C 228.53125 694.875 229.929688 695.804688 231.449219 695.804688 Z M 300.558594 642.453125 C 288.554688 663.421875 276.089844 670.757812 262.335938 677.167969 C 262.335938 677.167969 260.585938 681.476562 259.765625 683.804688 C 254.988281 695.34375 247.992188 706.992188 234.007812 706.992188 C 224.105469 706.992188 219.554688 700.929688 219.554688 694.175781 C 219.675781 686.023438 226.550781 680.777344 232.847656 677.75 C 236.578125 676 243.683594 672.972656 246.253906 671.574219 L 249.390625 663.652344 C 249.390625 663.652344 243.105469 671.695312 234.9375 671.695312 C 226.433594 671.695312 221.894531 664.820312 221.894531 656.3125 C 221.894531 643.851562 232.03125 608.203125 254.171875 608.203125 C 264.894531 608.203125 267.8125 616.9375 268.042969 617.636719 L 271.300781 609.714844 L 289.839844 609.714844 L 266.992188 665.75 C 277.949219 660.15625 285.753906 652.234375 294.03125 637.796875 C 296.480469 638.027344 299.628906 640.234375 300.558594 642.453125 " fill-opacity="1" fill-rule="nonzero"/><path fill="#ffffff" d="M 335.632812 642.453125 C 326.65625 658.179688 315.003906 671.695312 301.597656 671.695312 C 290.992188 671.695312 283.535156 663.304688 292.042969 642.222656 L 314.542969 586.652344 L 333.074219 586.652344 L 309.414062 645.359375 C 304.046875 658.648438 306.148438 660.277344 308.125 660.277344 C 312.792969 660.277344 320.828125 652.121094 329.105469 637.796875 C 331.554688 638.027344 334.703125 640.234375 335.632812 642.453125 " fill-opacity="1" fill-rule="nonzero"/><path fill="#ffffff" d="M 345.308594 594.574219 C 345.308594 588.863281 349.847656 584.4375 355.5625 584.4375 C 361.039062 584.4375 365.820312 588.863281 365.820312 594.574219 C 365.820312 600.050781 361.039062 604.828125 355.5625 604.828125 C 349.847656 604.828125 345.308594 600.050781 345.308594 594.574219 Z M 370.707031 642.453125 C 361.738281 658.179688 350.085938 671.695312 336.683594 671.695312 C 326.078125 671.695312 318.613281 663.304688 327.125 642.222656 L 340.292969 609.714844 L 358.824219 609.714844 L 344.488281 645.359375 C 339.128906 658.648438 341.230469 660.277344 343.207031 660.277344 C 347.867188 660.277344 355.914062 652.121094 364.179688 637.796875 C 366.628906 638.027344 369.777344 640.234375 370.707031 642.453125 " fill-opacity="1" fill-rule="nonzero"/><path fill="#ffffff" d="M 364.179688 637.796875 C 368.839844 629.875 376.414062 615.425781 380.851562 605.636719 L 396.933594 609.714844 C 393.898438 626.136719 396.347656 644.429688 396.464844 651.773438 C 396.464844 655.03125 396.234375 656.660156 395.886719 658.058594 C 402.0625 653.171875 406.839844 646.878906 412.078125 637.796875 C 414.527344 638.027344 417.675781 640.234375 418.605469 642.453125 C 410.097656 657.710938 398.675781 671.695312 379.09375 671.695312 C 364.648438 671.695312 359.523438 663.882812 359.402344 663.773438 L 369.65625 657.359375 C 370.707031 658.527344 371.636719 658.996094 373.273438 658.996094 C 377.003906 658.996094 379.332031 655.851562 379.332031 644.550781 C 379.332031 639.425781 378.863281 632.203125 379.09375 626.375 C 376.066406 632.3125 373.035156 638.375 370.707031 642.453125 C 368.257812 642.222656 365.109375 640.003906 364.179688 637.796875 " fill-opacity="1" fill-rule="nonzero"/><path fill="#ffffff" d="M 486.785156 642.453125 C 477.347656 658.878906 466.273438 671.695312 452.171875 671.695312 C 440.046875 671.695312 435.386719 662.144531 443.542969 641.753906 L 445.292969 637.4375 C 447.511719 631.621094 449.371094 627.425781 449.371094 625.675781 C 449.371094 624.046875 447.972656 623.109375 446.113281 623.109375 C 443.3125 623.109375 437.949219 625.789062 433.058594 631.382812 L 417.324219 670.175781 L 398.792969 670.175781 L 432.589844 586.652344 L 451.121094 586.652344 L 439.347656 615.886719 C 439.347656 615.886719 448.089844 608.203125 458.464844 608.203125 C 465.804688 608.203125 469.652344 612.160156 469.652344 618.335938 C 469.652344 621.480469 468.601562 625.445312 466.152344 631.503906 L 460.445312 645.359375 C 455.078125 658.757812 457.296875 660.277344 459.277344 660.277344 C 463.945312 660.277344 471.980469 652.121094 480.257812 637.796875 C 482.707031 638.027344 485.855469 640.234375 486.785156 642.453125 " fill-opacity="1" fill-rule="nonzero"/><path fill="#ee2628" d="M 495.410156 317.175781 L 429.472656 283.238281 L 497.828125 150.566406 L 563.761719 184.503906 L 495.410156 317.175781 " fill-opacity="1" fill-rule="nonzero"/><path fill="#fab40a" d="M 495.410156 317.175781 L 429.472656 283.238281 L 497.828125 150.566406 L 563.761719 184.503906 L 495.410156 317.175781 " fill-opacity="1" fill-rule="nonzero"/><path fill="#fdd834" d="M 455.605469 296.683594 L 441.039062 289.191406 L 509.394531 156.519531 L 523.949219 164.011719 L 455.605469 296.683594 " fill-opacity="1" fill-rule="nonzero"/><path fill="#2e2a2b" d="M 563.761719 184.503906 L 497.828125 150.566406 L 510.832031 125.3125 L 576.769531 159.25 L 563.761719 184.503906 " fill-opacity="1" fill-rule="nonzero"/><path fill="#f9a674" d="M 430.921875 361.40625 L 429.472656 283.238281 L 495.410156 317.175781 Z M 430.921875 361.40625 " fill-opacity="1" fill-rule="nonzero"/><path fill="#231f20" d="M 458.539062 342.460938 L 430.300781 327.929688 L 430.921875 361.40625 Z M 458.539062 342.460938 " fill-opacity="1" fill-rule="nonzero"/><path fill="#f03933" d="M 576.769531 159.25 L 591.808594 130.0625 C 594.878906 124.105469 592.535156 116.792969 586.570312 113.726562 L 542.21875 90.898438 C 536.257812 87.828125 528.941406 90.171875 525.875 96.125 L 510.832031 125.3125 L 576.769531 159.25 " fill-opacity="1" fill-rule="nonzero"/><path fill="#322f30" d="M 399.527344 212.863281 L 319.789062 189.828125 L 237.554688 212.863281 L 237.554688 110.746094 L 399.527344 110.746094 L 399.527344 212.863281 " fill-opacity="1" fill-rule="nonzero"/><path fill="#231f20" d="M 450.09375 123.828125 L 186.992188 123.828125 L 186.992188 108.570312 L 450.09375 108.570312 L 450.09375 123.828125 " fill-opacity="1" fill-rule="nonzero"/><path fill="#fbc707" d="M 326.0625 108.503906 C 326.070312 108.503906 328.773438 108.503906 333.144531 108.503906 C 346.269531 108.503906 374.363281 108.503906 389.128906 108.503906 C 392.433594 108.488281 398.191406 109.214844 402.746094 111.898438 C 405.035156 113.242188 407.039062 115.03125 408.5 117.476562 C 409.957031 119.925781 410.910156 123.0625 410.917969 127.332031 L 410.917969 189.199219 C 410.917969 190.75 412.175781 192.007812 413.722656 192.007812 C 415.273438 192.007812 416.53125 190.75 416.53125 189.199219 L 416.523438 127.332031 C 416.53125 122.214844 415.332031 117.96875 413.3125 114.601562 C 411.808594 112.074219 409.867188 110.0625 407.746094 108.496094 C 404.566406 106.136719 401.011719 104.761719 397.722656 103.953125 C 394.429688 103.148438 391.386719 102.902344 389.128906 102.902344 C 379.285156 102.902344 363.519531 102.902344 350.210938 102.902344 C 343.558594 102.902344 337.523438 102.902344 333.144531 102.902344 C 328.773438 102.902344 326.070312 102.902344 326.0625 102.902344 C 324.511719 102.902344 323.253906 104.160156 323.253906 105.707031 C 323.253906 107.25 324.511719 108.503906 326.0625 108.503906 " fill-opacity="1" fill-rule="nonzero"/><path fill="#393536" d="M 327.90625 108.546875 C 327.570312 103.667969 323.507812 99.8125 318.539062 99.8125 C 313.570312 99.8125 309.515625 103.667969 309.175781 108.546875 L 327.90625 108.546875 " fill-opacity="1" fill-rule="nonzero"/><path fill="#f9b00b" d="M 424.289062 205.355469 L 403.152344 205.355469 L 409.789062 184.226562 L 417.652344 184.226562 L 424.289062 205.355469 " fill-opacity="1" fill-rule="nonzero"/></svg>