<svg width="459" height="469" viewBox="0 0 459 469" fill="none" xmlns="http://www.w3.org/2000/svg">
<path opacity="0.37" d="M39.869 381.056C40.8697 383.532 41.9757 386.007 43.1871 388.378C61.1992 423.722 97.7502 446.004 136.724 450.007C167.903 453.168 198.239 443.002 224.309 426.409C250.327 409.869 271.183 386.587 300.097 374.471C340.862 357.457 386.313 344.025 418.282 307.996C454.623 267.067 468.632 205.016 451.515 152.657C434.872 101.563 379.625 85.0229 336.701 62.5307C259.544 22.0237 152.682 -4.89312 72.3647 42.6723C-23.8582 99.6139 -6.37268 228.878 24.1216 318.583C31.0736 339.021 31.9163 361.039 39.869 381.056Z" fill="#CCE9FF"/>
<path d="M88.9548 138.857L88.7968 137.856H87.7961C68.3093 137.856 61.9892 131.588 61.9366 131.535L61.0939 130.587L60.2512 131.535C60.1985 131.588 53.9312 137.856 34.3917 137.856H33.391L33.233 138.857C33.1803 139.173 29.0723 170.567 60.5672 186.685L61.0939 186.949L61.6206 186.685C93.2208 170.567 88.9548 139.173 88.9548 138.857ZM84.2147 158.294C80.3174 169.566 72.5227 178.31 61.0412 184.315C49.5598 178.31 41.7651 169.566 37.8677 158.294C35.0237 150.024 35.1817 142.807 35.3923 140.226C51.6138 140.016 58.8292 135.696 61.0412 133.905C63.2532 135.643 70.4686 140.016 86.6901 140.226C86.9008 142.86 87.0588 150.024 84.2147 158.294ZM119.87 98.5077L118.764 95.6106C117.764 95.5052 116.816 95.2418 115.868 94.9258L113.603 97.0328L107.072 92.3447L108.336 89.5003C107.704 88.7102 107.178 87.8674 106.756 86.9719L103.649 86.8665L102.332 78.9126L105.229 77.8065C105.334 76.8056 105.598 75.8575 105.914 74.9093L103.807 72.6443L108.494 66.06L111.338 67.3242C112.128 66.6921 112.971 66.1653 113.866 65.7439L113.972 62.6361L121.924 61.3192L123.03 64.2163C124.031 64.3217 124.979 64.5851 125.927 64.9011L128.192 62.7941L134.723 67.4822L133.458 70.3266C134.091 71.1167 134.617 71.9595 135.039 72.855L138.146 72.9604L139.463 80.9143L136.566 82.0204C136.408 83.0213 136.197 83.9694 135.881 84.9176L137.988 87.1826L133.3 93.767L130.456 92.5028C129.666 93.1348 128.824 93.6616 127.928 94.083L127.823 97.1908L119.87 98.5077ZM115.341 92.3974L115.973 92.6608C117.132 93.1349 118.396 93.3982 119.66 93.5036L120.344 93.5562L121.292 96.032L125.664 95.2945L125.769 92.6608L126.401 92.3974C127.56 91.8707 128.613 91.1859 129.614 90.3958L130.14 89.9744L132.563 91.0805L135.144 87.4986L133.3 85.5497L133.564 84.9176C134.038 83.7587 134.301 82.4945 134.406 81.2303L134.459 80.5456L136.935 79.5974L136.197 75.2254L133.564 75.12L133.3 74.4879C132.774 73.3291 132.089 72.2756 131.299 71.2748L130.878 70.748L131.984 68.325L128.402 65.7439L126.454 67.5349L125.822 67.2715C124.663 66.7974 123.399 66.534 122.135 66.4287L121.45 66.376L120.502 63.9003L116.131 64.6377L116.026 67.2715L115.394 67.5349C114.235 68.0616 113.182 68.7464 112.181 69.5365L111.654 69.9579L109.232 68.8517L106.651 72.4336L108.494 74.3826L108.231 75.0147C107.757 76.1735 107.494 77.4377 107.388 78.7019L107.336 79.3867L104.86 80.3349L105.598 84.7069L108.231 84.8122L108.494 85.4443C109.021 86.6032 109.706 87.6567 110.496 88.6575L110.917 89.1842L109.811 91.6073L113.392 94.1884L115.341 92.3974ZM120.818 88.7102C119.028 88.7102 117.237 88.1307 115.762 87.0772C111.812 84.2855 110.917 78.8073 113.708 74.8567C116.5 70.906 121.977 70.0106 125.927 72.8023C127.823 74.1719 129.087 76.1735 129.508 78.4912C129.877 80.8089 129.35 83.1266 128.034 85.0229C126.664 86.9192 124.663 88.1834 122.346 88.6048C121.766 88.6575 121.292 88.7102 120.818 88.7102ZM120.818 73.3818C118.764 73.3818 116.763 74.3299 115.499 76.1209C114.498 77.5431 114.077 79.2814 114.393 81.0196C114.709 82.7579 115.604 84.2328 117.026 85.2336C118.448 86.2344 120.186 86.6558 121.924 86.3398C123.662 86.0237 125.137 85.1283 126.138 83.706C127.138 82.2838 127.56 80.5455 127.244 78.8073C126.928 77.069 126.032 75.5941 124.61 74.5933C123.452 73.8032 122.135 73.3818 120.818 73.3818ZM372.357 184.368L369.881 177.889C367.248 177.573 364.614 176.993 362.139 176.098L357.083 180.839L343.39 171.094L346.234 164.773C344.601 162.718 343.179 160.453 342.02 158.03L335.121 157.82L332.33 141.227L338.808 138.751C339.124 136.118 339.703 133.484 340.598 131.008L335.858 125.951L345.602 112.256L351.922 115.1C353.976 113.467 356.24 112.045 358.663 110.886L358.874 103.986L375.464 101.194L377.939 107.673C380.573 107.989 383.206 108.569 385.681 109.464L390.737 104.723L404.431 114.468L401.587 120.789C403.219 122.843 404.641 125.109 405.8 127.532L412.7 127.742L415.491 144.335L409.013 146.811C408.697 149.444 408.117 152.078 407.222 154.554L411.962 159.611L402.219 173.306L395.899 170.462C393.845 172.095 391.58 173.517 389.157 174.676L388.947 181.576L372.357 184.368ZM361.402 172.727L362.244 173.043C365.036 174.096 367.985 174.781 370.987 175.044L371.935 175.15L374.2 181.049L385.997 179.048L386.208 172.727L387.051 172.358C389.789 171.146 392.37 169.513 394.687 167.564L395.372 166.985L401.165 169.566L408.117 159.821L403.799 155.186L404.115 154.343C405.168 151.551 405.853 148.602 406.116 145.599L406.169 144.651L412.067 142.386L410.066 130.587L403.746 130.376L403.377 129.533C402.166 126.794 400.533 124.213 398.585 121.895L398.005 121.211L400.586 115.416L390.843 108.463L386.208 112.783L385.365 112.467C382.574 111.413 379.625 110.728 376.623 110.465L375.675 110.412L373.41 104.513L361.612 106.514L361.402 112.835L360.559 113.204C357.82 114.416 355.24 116.048 352.922 117.997L352.238 118.577L346.444 115.996L339.598 125.741L343.916 130.376L343.6 131.219C342.547 134.011 341.862 136.96 341.599 139.963L341.546 140.911L335.648 143.176L337.649 154.975L343.969 155.186L344.338 156.029C345.549 158.768 347.182 161.349 349.13 163.667L349.71 164.351L347.129 170.146L356.872 177.099L361.402 172.727ZM373.831 161.876C369.986 161.876 366.142 160.717 362.771 158.346C354.186 152.236 352.185 140.279 358.294 131.693C364.404 123.107 376.359 121.105 384.944 127.216C393.529 133.326 395.53 145.283 389.421 153.869C385.681 159.084 379.783 161.876 373.831 161.876ZM373.884 126.636C368.828 126.636 363.824 129.006 360.717 133.431C358.189 136.96 357.241 141.227 357.926 145.494C358.663 149.76 360.98 153.448 364.509 155.976C371.777 161.138 381.889 159.453 387.051 152.183C389.526 148.654 390.527 144.388 389.842 140.121C389.105 135.854 386.787 132.167 383.259 129.639C380.362 127.584 377.097 126.636 373.884 126.636ZM115.92 302.886C113.392 295.775 110.496 287.769 113.708 279.551C118.027 268.49 108.863 262.801 100.805 257.691C93.8528 253.372 87.3221 249.263 89.5341 242.468C91.9568 235.094 91.7988 229.405 89.0601 225.665C86.7428 222.504 82.6347 220.819 77.1574 220.871C72.786 220.924 68.8886 215.551 64.7279 209.915C59.8299 203.278 54.8265 196.43 48.5064 197.958C47.4004 198.221 46.5051 198.853 45.9784 199.854C43.7664 204.016 47.2424 213.918 50.9818 224.453C54.9845 235.831 59.5665 248.684 56.5645 254.162C53.2992 260.167 59.1979 265.645 65.4653 271.492C72.1013 277.655 79.6327 284.661 77.6314 293.457C75.7353 301.675 75.314 304.73 76.4727 306.521C77.368 307.943 79.2114 308.259 82.0027 308.786C83.8987 309.155 86.3214 309.576 89.2708 310.524C101.964 314.475 105.65 322.692 105.703 322.797L105.861 323.166L106.23 323.113C112.339 322.165 115.92 320.427 117.606 317.635C117.711 317.477 117.764 317.319 117.869 317.161C119.66 313.421 117.922 308.522 115.92 302.886Z" fill="#FFBE55"/>
<path d="M83.4774 287.189C85.5841 290.455 87.1114 293.299 86.9534 297.303C86.8481 301.043 86.2688 304.73 85.9528 308.417C85.9001 309.207 85.8474 309.945 85.7948 310.682C84.7414 309.787 83.7408 308.891 82.6874 307.996C82.2134 307.943 81.7394 307.943 81.2127 307.943C82.6874 309.155 84.2147 310.471 85.6894 311.788C85.5314 314.369 85.4788 316.95 85.4788 319.532C85.4788 321.059 85.4261 322.692 85.5314 324.22C84.1621 323.377 82.7401 322.534 81.4234 321.691C77.3154 319.163 73.4707 316.792 70.5213 315.528C68.2566 314.58 65.7286 313.737 63.3059 312.947C56.9859 310.893 50.5078 308.786 48.3485 304.309C47.2424 301.991 47.3478 299.199 48.6645 295.828C51.9825 287.137 48.8751 285.662 43.6611 283.133C39.8691 281.29 34.7077 278.814 29.5463 272.546C27.2816 269.806 25.2803 267.436 23.4896 265.382C18.1702 259.113 15.2208 255.69 15.5895 253.688C15.6948 253.214 15.9582 252.792 16.4849 252.371C16.7482 252.16 17.0642 251.95 17.4855 251.739C19.4869 250.633 21.4882 251.476 23.7529 252.424C26.8076 253.688 30.547 255.321 35.761 252.634C39.8691 250.527 44.4511 248.578 47.1898 250.159C49.0858 251.212 50.1918 253.951 50.5605 258.429C50.6658 259.851 51.1398 260.852 51.9298 261.431C53.0885 262.274 54.8792 262.169 56.9332 261.747C58.3552 263.696 60.1986 264.644 62.4106 265.434C65.5179 266.541 67.8353 267.541 70.1 270.07C74.9453 275.548 79.6327 281.132 83.4774 287.189Z" fill="#2A94F4"/>
<path d="M66.6766 295.881C63.5166 293.774 60.7779 288.664 58.1446 283.713C54.5632 276.97 50.8238 270.017 45.7151 270.175C37.499 270.386 30.1783 260.694 30.073 260.641L29.3883 261.168C29.7043 261.589 37.0777 271.281 45.7151 271.071C50.2971 270.965 53.9312 277.655 57.3545 284.187C60.0406 289.191 62.8319 294.406 66.1499 296.671C68.1513 297.988 71.838 300.674 76.2094 304.098V302.992C72.3647 299.778 68.9413 297.355 66.6766 295.881Z" fill="white"/>
<path d="M344.232 361.145C344.232 361.145 348.972 349.346 340.335 332.595C331.645 315.844 324.64 318.425 345.549 305.52C366.458 292.615 345.654 252.055 363.456 246.893C381.257 241.731 396.689 176.045 410.224 184.42C423.76 192.796 405.695 224.98 415.386 234.672C425.024 244.364 426.34 256.638 406.379 266.593C386.419 276.549 420.547 314.58 393.476 326.169C366.405 337.757 374.2 383.216 344.232 361.145Z" fill="#FFBE55"/>
<path d="M352.501 373.629C352.448 373.471 349.552 358.406 358.768 338.916C368.143 319.057 372.62 297.355 370.776 280.816C369.776 271.861 375.517 268.384 381.047 265.013C386.524 261.695 392.159 258.218 391.843 249.421C391.58 241.467 394.951 222.82 395.056 222.03L396.267 222.241C396.215 222.452 392.791 241.573 393.055 249.369C393.371 258.903 387.419 262.537 381.679 266.014C376.201 269.332 371.092 272.493 371.988 280.657C373.884 297.355 369.354 319.321 359.874 339.39C350.868 358.511 353.66 373.207 353.712 373.365L352.501 373.629Z" fill="white"/>
<path d="M424.392 275.759C431.923 272.177 439.928 273.81 435.768 281.342C431.607 288.875 425.392 289.454 426.551 295.406C427.71 301.359 430.764 307.838 420.968 311.63C411.172 315.37 406.59 314.738 400.639 325.747C394.635 336.756 392.581 344.921 382.311 342.287C372.04 339.601 380.573 326.063 385.892 320.374C385.892 320.374 393.107 314.264 393.002 303.255C392.897 292.246 388.367 284.871 402.587 285.609C416.808 286.241 419.283 278.182 424.392 275.759Z" fill="#0E538C"/>
<path d="M380.678 349.978C381.099 348.555 391.001 314.475 399.111 310.788C407.38 306.995 411.857 297.092 413.806 291.561C416.334 284.345 427.13 282.922 427.552 282.87L427.71 284.081C427.604 284.081 417.229 285.451 414.964 291.93C412.542 298.936 407.907 308.101 399.638 311.894C392.054 315.37 381.995 349.978 381.889 350.346L380.678 349.978ZM119.818 322.534C103.596 318.478 103.386 309.734 103.175 301.306C103.017 294.406 102.859 287.874 94.0635 283.871C82.4241 278.55 82.1607 268.7 81.8974 260.009C81.6867 253.53 81.5287 247.42 76.6834 244.101C65.0439 236.147 55.1952 216.868 55.0898 216.657L55.9852 216.183C56.0905 216.394 65.7813 235.41 77.2627 243.258C82.5294 246.84 82.7401 253.214 82.8981 259.956C83.1614 268.753 83.4248 277.918 94.4848 282.923C103.807 287.189 104.018 294.353 104.176 301.253C104.386 309.681 104.597 317.688 120.081 321.533L119.818 322.534Z" fill="white"/>
<path d="M97.9609 314.738H364.404V122.369C364.404 119.63 362.192 117.365 359.4 117.365H102.964C100.226 117.365 97.9609 119.578 97.9609 122.369V314.738Z" fill="#F7F7F7"/>
<path d="M354.487 278.874L107.372 278.874L107.372 127.012L354.487 127.012V278.874Z" fill="#0B4870" stroke="white" stroke-width="0.5" stroke-miterlimit="10"/>
<path d="M364.404 286.241H98.0662L68.8886 395.225H393.529L364.404 286.241Z" fill="#F2F2F2"/>
<path d="M108.126 305.362H124.505C125.19 305.362 125.716 305.889 125.558 306.468L123.978 313.579C123.873 314.001 123.452 314.317 122.925 314.317H106.282C105.598 314.317 105.071 313.79 105.229 313.158L107.072 306.047C107.178 305.678 107.599 305.362 108.126 305.362ZM131.984 305.362H144.361L142.728 314.369H130.088L131.984 305.362ZM150.523 305.362H162.899L161.635 314.369H148.995L150.523 305.362ZM169.114 305.362H181.491L180.543 314.369H167.903L169.114 305.362ZM187.653 305.362H200.03L199.45 314.369H186.81L187.653 305.362ZM206.192 305.362H218.569L218.358 314.369H205.718L206.192 305.362ZM354.713 305.362H336.122L338.123 314.369H357.03L354.713 305.362ZM329.959 305.362H317.583L319.215 314.369H331.856L329.959 305.362ZM311.421 305.362H299.044L300.308 314.369H312.948L311.421 305.362ZM292.829 305.362H280.452L281.4 314.369H294.041L292.829 305.362ZM274.29 305.362H261.914L262.493 314.369H275.133L274.29 305.362ZM255.752 305.362H243.375L243.585 314.369H256.226L255.752 305.362ZM224.783 305.362H237.16L237.318 314.369H224.783V305.362ZM102.701 321.059H128.508L127.033 330.33H100.7L102.701 321.059ZM358.716 321.059H326.799L328.59 330.33H361.191L358.716 321.059ZM320.374 321.059H307.629L309.051 330.33H322.112L320.374 321.059ZM301.203 321.059H288.458L289.511 330.33H302.573L301.203 321.059ZM282.032 321.059H269.287L270.024 330.33H283.033L282.032 321.059ZM262.862 321.059H250.116L250.485 330.33H263.494L262.862 321.059ZM98.8035 337.546H125.242L123.294 346.764H96.3809L98.8035 337.546ZM131.826 337.546H145.045L143.518 346.764H130.035L131.826 337.546ZM151.681 337.546H250.748L251.117 346.764H150.207L151.681 337.546ZM257.384 337.546H270.604L271.341 346.764H257.858L257.384 337.546ZM277.187 337.546H290.406L291.513 346.764H278.03L277.187 337.546ZM297.043 337.546H310.262L311.684 346.764H298.254L297.043 337.546ZM316.845 337.546H330.065L331.856 346.764H318.425L316.845 337.546ZM336.648 337.546H363.087L365.51 346.764H338.597L336.648 337.546ZM243.743 321.059H231.051V330.33H243.954L243.743 321.059ZM224.573 321.059H211.774L211.406 330.33H224.467L224.573 321.059ZM205.402 321.059H192.604L191.866 330.33H204.928L205.402 321.059ZM186.231 321.059H173.433L172.327 330.33H185.388L186.231 321.059ZM167.06 321.059H154.262L152.787 330.33H165.849L167.06 321.059ZM147.889 321.059H135.091L133.3 330.33H146.309L147.889 321.059ZM108.705 299.726L110.812 291.719H116.816L114.867 299.726H108.705ZM122.82 291.719H134.828L133.195 299.726H120.924L122.82 291.719ZM140.885 291.719H152.893L151.523 299.726H139.305L140.885 291.719ZM158.897 291.719H170.905L169.851 299.726H157.633L158.897 291.719ZM176.909 291.719H188.917L188.18 299.726H175.961L176.909 291.719ZM194.921 291.719H206.929L206.508 299.726H194.289L194.921 291.719ZM212.933 291.719H224.941L224.836 299.726H212.617L212.933 291.719ZM230.945 291.719H242.953L243.164 299.726H230.945V291.719ZM248.957 291.719H260.966L261.492 299.726H249.273L248.957 291.719ZM266.97 291.719H279.03L279.82 299.726H267.602L266.97 291.719ZM285.034 291.719H297.043L298.201 299.726H285.982L285.034 291.719ZM303.047 291.719H315.055L316.529 299.726H304.311L303.047 291.719ZM321.059 291.719H333.067L334.858 299.726H322.639L321.059 291.719ZM339.071 291.719H351.079L353.186 299.726H340.967L339.071 291.719Z" fill="#0B4870" stroke="white" stroke-width="0.5" stroke-miterlimit="10"/>
<path d="M385.049 403.706H77.368C72.6806 403.706 68.8886 399.913 68.8886 395.225H393.529C393.529 399.913 389.737 403.706 385.049 403.706ZM268.971 359.986C268.655 358.09 266.97 356.667 265.074 356.667H197.396C195.448 356.667 193.815 358.09 193.499 359.986L189.286 385.533C188.864 387.956 190.76 390.169 193.183 390.169H269.234C271.71 390.169 273.553 387.956 273.132 385.533L268.971 359.986Z" fill="#D3D3D3"/>
<path d="M124.031 139.91H151.576V142.755H124.031V139.91ZM159.318 161.138H179.174V163.983H159.318V161.138ZM182.281 161.138H195.448V163.983H182.281V161.138ZM124.347 214.55H137.514V217.395H124.347V214.55ZM198.081 161.138H229.945V163.983H198.081V161.138ZM124.347 203.857H144.835V206.702H124.347V203.857ZM152.893 225.138H165.375V227.983H152.893V225.138ZM124.347 225.138H149.101V227.983H124.347V225.138ZM124.347 235.778H137.988V238.623H124.347V235.778ZM156.948 139.91H176.488V142.755H156.948V139.91ZM156.948 171.778H176.488V174.623H156.948V171.778ZM147.152 182.366H155.526V185.211H147.152V182.366ZM138.831 193.164H157.58V196.009H138.831V193.164ZM160.424 193.164H186.336V196.009H160.424V193.164ZM124.347 182.471H143.887V185.316H124.347V182.471ZM124.347 193.164H135.934V196.009H124.347V193.164ZM159.476 182.471H170.431V185.316H159.476V182.471ZM124.716 246.366H135.671V249.211H124.716V246.366ZM124.294 161.138H143.834V163.983H124.294V161.138ZM141.569 214.55H161.109V217.395H141.569V214.55ZM141.833 235.778H161.372V238.623H141.833V235.778ZM176.54 235.778H196.08V238.623H176.54V235.778ZM124.294 171.778H152.155V174.623H124.294V171.778ZM254.856 139.91H274.396V142.755H254.856V139.91ZM185.23 246.366H204.77V249.211H185.23V246.366ZM280.452 139.91H293.514V142.755H280.452V139.91ZM324.745 150.55H337.807V153.395H324.745V150.55ZM181.754 139.91H206.666V142.755H181.754V139.91ZM278.767 150.55H303.679V153.395H278.767V150.55ZM248.22 161.138H273.132V163.983H248.22V161.138ZM215.83 171.778H240.741V174.623H215.83V171.778ZM276.239 161.138H293.935V163.983H276.239V161.138ZM225.047 139.91H249.958V142.755H225.047V139.91ZM196.659 171.778H211.248V174.623H196.659V171.778ZM185.23 214.709H199.819V217.553H185.23V214.709ZM211.248 139.91H220.359V142.755H211.248V139.91ZM181.754 171.778H190.866V174.623H181.754V171.778ZM309.683 150.55H318.794V153.395H309.683V150.55ZM124.031 150.55H138.304V153.395H124.031V150.55ZM162.109 203.91H173.38V206.755H162.109V203.91ZM141.833 150.55H146.415V153.395H141.833V150.55ZM236.317 150.55H274.396V153.395H236.317V150.55ZM199.819 235.778H237.897V238.623H199.819V235.778ZM149.785 150.55H154.473V153.395H149.785V150.55ZM220.359 150.55H232.789V153.395H220.359V150.55ZM232.841 161.138H245.271V163.983H232.841V161.138ZM168.798 246.366H181.228V249.211H168.798V246.366ZM190.602 150.55H217.094V153.395H190.602V150.55ZM165.901 214.709H181.386V217.553H165.901V214.709ZM164.953 235.778H172.696V238.623H164.953V235.778ZM177.699 150.55H186.81V153.395H177.699V150.55ZM147.047 161.138H156.158V163.983H147.047V161.138ZM148.837 203.91H157.949V206.755H148.837V203.91ZM158.37 150.55H174.276V153.395H158.37V150.55Z" fill="#F7F7F7"/>
<path d="M291.723 171.884C291.723 171.884 296.358 179.732 298.307 180.997C300.94 182.735 299.307 184.473 298.043 184.526C296.779 184.526 290.354 185 288.932 183.367C287.51 181.734 286.825 176.941 285.508 175.676C284.192 174.412 282.822 169.408 286.14 168.197C289.037 167.09 291.723 171.884 291.723 171.884Z" fill="#FFB750"/>
<path d="M289.669 168.46C289.669 168.46 294.989 177.678 295.884 178.995C296.779 180.364 294.146 180.364 292.513 179.732C290.881 179.1 286.772 172.516 286.193 171.304C285.508 169.882 286.088 168.249 286.088 168.249L289.669 168.46Z" fill="#FFE3CA"/>
<path d="M284.297 173.359L285.561 182.788L286.193 182.84L285.982 176.045L284.297 173.359ZM245.745 171.884C245.745 171.884 250.379 179.732 252.328 180.997C254.962 182.735 253.329 184.473 252.065 184.526C250.801 184.526 244.375 185 242.953 183.367C241.531 181.734 240.847 176.941 239.53 175.676C238.213 174.412 236.791 169.25 240.162 168.197C243.111 167.248 245.745 171.884 245.745 171.884Z" fill="#FFB750"/>
<path d="M244.007 168.46C244.007 168.46 249.01 177.625 249.958 178.995C250.853 180.364 248.22 180.364 246.587 179.732C244.955 179.1 240.847 172.516 240.267 171.304C239.583 169.882 240.162 168.249 240.162 168.249L244.007 168.46Z" fill="#FFE3CA"/>
<path d="M238.371 173.359L239.583 182.788L240.267 182.84L240.057 176.045L238.371 173.359Z" fill="#FFB750"/>
<path d="M225.205 100.404L267.128 119.525C267.128 119.525 271.815 121.053 272.342 126.267C273.974 142.491 286.088 168.197 286.088 168.197C289.985 170.093 289.669 168.46 289.669 168.46C287.194 160.559 284.244 128.111 283.138 115.1C282.928 112.361 282.77 110.465 282.717 109.833C282.717 109.411 282.243 108.885 281.453 108.253C275.712 103.564 252.012 93.925 252.012 93.925C234.369 93.4509 225.205 100.404 225.205 100.404Z" fill="#FFE3CA"/>
<path d="M217.305 108.621C218.621 119.946 234.79 118.682 234.79 118.682H254.382C254.382 118.682 249.221 130.165 247.219 139.805C245.113 150.076 240.109 168.197 240.109 168.197C240.109 168.197 240.425 168.829 244.007 168.46C244.007 168.46 259.386 137.803 265.284 130.06C266.548 128.427 270.182 119.367 270.814 113.994C271.025 112.203 270.92 110.781 270.235 110.202C269.55 109.622 267.97 108.569 265.916 107.252C259.754 103.354 249.115 97.4015 243.164 96.0846C235.211 94.2937 222.624 90.9225 222.624 90.9225C222.624 90.9225 215.988 97.2962 217.305 108.621Z" fill="#FFE3CA"/>
<path d="M230.629 21.2863C230.629 21.2863 227.68 15.7028 229.102 9.80317C230.524 3.8509 236.054 -2.04868 244.112 0.69041C252.17 3.4295 258.701 9.64514 253.856 16.9143C249.01 24.1307 258.227 27.4493 255.857 30.8731C253.487 34.297 254.382 37.9316 255.383 38.7217C256.384 39.5118 259.596 42.3563 259.228 45.7801C258.859 49.1513 243.585 35.9299 243.585 35.9299C243.585 35.9299 235.317 19.1266 230.629 21.2863Z" fill="#0E538C"/>
<path d="M255.225 92.5027C255.225 92.5027 254.014 98.4023 222.677 90.9752C222.677 90.9752 233.157 87.4986 255.225 92.5027Z" fill="#EB4747"/>
<path d="M222.308 92.6081C221.834 93.5562 221.36 94.4517 220.833 95.3999C232.262 95.7159 243.743 96.0846 255.172 96.4007C253.382 90.3431 253.961 82.1258 254.277 75.9102C254.646 68.2723 258.859 63.0048 258.438 55.3143C260.702 55.683 261.071 55.7357 263.336 56.1044C259.86 46.2015 258.701 41.3027 247.904 37.5102C244.375 36.246 242.111 36.0353 238.319 36.3513C225.837 37.4048 222.097 37.5102 215.935 48.8353C225.521 50.3628 223.941 53.7867 226.837 63.3735C228.259 68.0089 229.734 73.2237 228.997 78.1225C228.259 82.9159 222.308 88.2361 222.308 92.6081Z" fill="white"/>
<path d="M242.216 39.8805C237.107 38.9324 238.213 36.0879 238.213 36.0879C238.213 36.0879 238.424 34.5077 238.529 32.4534C238.529 31.9266 238.582 31.3999 238.582 30.8205C238.582 29.9777 238.529 29.1349 238.424 28.2921C238.003 24.8682 247.693 26.9225 247.693 26.9225C247.693 26.9225 247.114 33.8756 248.483 35.9299C249.8 38.0369 247.325 40.8814 242.216 39.8805Z" fill="#FFE3CA"/>
<path d="M232.473 36.0879C232.473 36.0879 242.795 47.9925 246.587 50.7316C246.587 50.7316 250.959 46.7809 248.273 36.3513C248.273 36.3513 243.322 33.8229 232.473 36.0879ZM232.789 7.4328C232.789 7.4328 227.417 17.7571 232.736 27.5019C238.055 37.2468 248.483 23.2353 249.115 21.6023C249.8 19.9694 253.382 10.646 246.271 7.8542C239.161 5.00975 234.316 4.64103 232.789 7.4328Z" fill="#FFE3CA"/>
<path d="M243.111 28.5554C243.111 28.5554 242.163 30.6097 238.529 32.4534C238.529 31.9266 238.582 31.3999 238.582 30.8204C238.582 30.8204 241.057 30.5571 243.111 28.5554Z" fill="#FCD2B1"/>
<path d="M189.022 83.3373C189.022 83.3373 186.494 84.4435 185.283 83.9694C184.072 83.4427 182.228 83.3373 181.649 83.3373C180.859 83.3373 178.384 82.4419 178.436 83.4427C178.489 84.3908 182.439 85.0756 183.229 85.3916C184.019 85.7077 180.806 87.446 180.49 88.2361C180.174 89.0262 183.861 94.1884 185.915 92.7135C187.969 91.2386 189.075 88.2888 189.496 88.0781C189.918 87.8674 191.024 87.0773 191.024 87.0773L189.022 83.3373Z" fill="#FFE3CA"/>
<path d="M180.912 87.762C180.912 87.762 174.96 92.7135 174.855 93.3982C174.75 94.083 175.066 94.3991 175.645 93.925C176.224 93.5036 181.544 89.2896 181.544 89.2896C181.544 89.2896 175.592 96.348 175.382 96.8748C175.276 97.1908 175.856 97.8229 176.172 97.6122C176.488 97.4015 182.86 90.7645 182.86 90.7645C182.86 90.7645 177.278 97.3489 177.278 97.8756C177.225 98.297 177.91 98.7711 178.384 98.297C178.858 97.8229 184.388 92.0287 184.388 92.0287C184.388 92.0287 180.648 97.0855 180.912 97.5596C181.07 97.8229 181.544 98.4024 182.439 97.0855C183.334 95.7686 185.862 92.8188 185.862 92.8188L180.912 87.762Z" fill="#FFE3CA"/>
<path d="M252.328 118.629H234.79C234.79 118.629 218.621 119.946 217.305 108.569C215.988 97.2435 222.624 90.9225 222.624 90.9225C222.624 90.9225 231.156 93.1875 238.635 94.9785C242.374 94.1883 246.851 93.6616 252.118 93.8196C252.118 93.8196 283.718 104.249 282.77 109.78C282.77 109.833 269.55 102.774 252.328 118.629Z" fill="#0E538C"/>
<path d="M240.899 99.0344L274.396 98.5077L257.49 107.094L240.899 99.0344Z" fill="#F2F2F2"/>
<path d="M251.328 94.7151C251.328 94.7151 243.796 97.6122 234.579 94.9785L234.158 91.5546L253.171 92.6081L251.328 94.7151Z" fill="white"/>
<path d="M257.49 107.094L240.899 100.667V99.0345L258.806 105.461L257.49 107.094Z" fill="#D3D3D3"/>
<path d="M251.169 96.348C251.064 97.5595 252.328 98.455 253.487 97.9809L255.436 97.1381C256.015 96.8748 256.384 96.2953 256.278 95.6632C255.488 90.6065 253.75 70.906 256.278 67.4822C257.226 66.218 257.806 65.1118 258.122 64.1637C259.807 68.483 261.861 74.0665 262.704 77.069L278.504 98.139L283.823 99.5085C277.187 83.548 271.868 75.12 271.868 75.12C270.814 72.3283 267.865 63.9003 265.232 56.4204C263.546 51.6797 262.072 47.3077 261.229 44.99C260.808 43.7785 260.018 42.7777 258.912 42.1456C256.436 40.6707 252.381 38.353 248.694 36.562H248.641C248.536 36.5093 248.431 36.4567 248.273 36.404C255.33 46.9916 252.591 77.069 251.169 96.348C251.169 96.2953 251.169 96.2953 251.169 96.348ZM225.047 37.2468C222.782 37.6155 217.199 43.041 214.25 48.5192C210.879 54.7875 207.403 61.8986 204.822 64.2163C200.082 68.5357 186.758 83.7587 186.126 83.39C185.862 83.232 189.76 87.92 190.286 88.1307C190.55 88.2361 212.143 69.4838 214.25 66.6394C216.199 63.953 221.465 52.5752 223.045 52.8386C223.151 53.1019 225.099 57.2633 226.89 63.3209C226.943 63.4262 226.943 63.5316 226.995 63.6369C228.259 67.8509 228.154 72.4863 227.469 77.6484C226.943 81.5464 224.046 87.92 222.308 91.0279C222.097 91.3966 222.15 92.134 222.361 92.6608C222.519 92.9768 222.677 93.2402 222.94 93.3456L229.313 95.7159L230.787 96.2427C231.841 96.6641 232.999 96.4534 233.842 95.8213C234.527 95.3472 235.053 94.5571 235.159 93.6089C236.581 82.7579 238.371 71.6435 239.793 67.4822C246.061 49.1513 237.371 35.3505 237.371 35.3505C237.371 35.3505 227.048 36.5093 225.047 37.2468Z" fill="#FFBE55"/>
<path d="M257.49 107.094L267.444 79.9135L299.518 80.4402L290.038 105.513L257.49 107.094Z" fill="#FFBE55"/>
<path d="M277.714 91.9233C276.713 93.8723 277.029 96.032 278.398 96.6641C279.768 97.3488 281.611 96.2953 282.612 94.3464C283.612 92.3974 283.296 90.2377 281.927 89.6056C280.558 88.9209 278.662 89.9744 277.714 91.9233Z" fill="#F2F0F0"/>
<path d="M258.227 40.5653C255.857 36.9834 254.172 34.139 253.961 29.0295C253.803 25.6583 253.066 21.0756 250.748 18.8106C253.171 12.4896 250.327 10.5933 249.168 8.53897C247.746 5.9579 237.213 -0.257738 233.052 6.27395C228.891 12.753 230.366 19.548 230.366 19.548C230.787 15.9661 234.474 11.12 234.474 11.12C235.053 14.86 242.795 20.9702 246.166 23.446C246.113 23.4986 246.061 23.604 246.061 23.6567C244.165 26.3958 246.535 29.1349 246.956 32.032C247.377 34.9291 239.003 42.725 248.325 46.6229C257.648 50.5735 260.597 44.0945 258.227 40.5653ZM88.6915 347.397C88.6915 347.397 88.4808 349.609 78.158 349.609C67.8353 349.609 52.8252 346.922 52.8252 346.922L76.7887 344.605C76.7887 344.605 86.0054 344.131 88.6915 347.397Z" fill="#0E538C"/>
<path d="M62.4106 348.187C56.5645 348.187 54.0891 351.189 51.7718 352.137C49.4544 353.085 47.1371 354.508 47.1371 354.455C48.4538 351.874 50.2971 351.821 51.2451 350.978C52.1931 350.136 51.9298 350.557 49.8758 350.399C48.7171 350.294 46.6104 352.453 45.1357 353.665C43.8191 354.666 43.0291 354.771 43.0291 354.771C43.0291 354.771 44.5564 352.611 46.4524 350.873C48.7698 348.766 51.6665 347.028 52.3511 346.712C53.6151 346.185 57.5125 346.08 60.2512 346.448C63.4112 346.87 66.6239 348.187 62.4106 348.187Z" fill="#0E538C"/>
<path d="M52.7198 346.817C52.7198 346.817 48.2431 347.976 47.4531 348.608C46.9264 349.029 44.6091 351.505 44.6091 351.505C44.6091 351.505 46.2944 351.242 47.2424 350.294C48.2431 349.293 52.7198 346.817 52.7198 346.817ZM80.212 342.867C80.212 342.867 91.4828 343.604 90.6928 350.557C90.2715 354.508 87.6908 355.877 84.2674 355.561C77.9474 355.034 70.7846 354.086 70.7846 354.086L67.5719 343.288L80.212 342.867Z" fill="#0E538C"/>
<path d="M82.5821 343.815L93.6422 308.154C93.6422 308.154 95.2749 302.939 97.9609 303.887C101.806 305.309 99.9095 309.576 99.5935 312.104C98.9089 317.267 99.3829 319.532 95.8015 331.963C93.5895 339.653 91.6935 348.503 89.7975 353.56C88.4808 357.036 86.2161 352.032 82.7927 350.662C76.3673 348.081 82.5821 343.815 82.5821 343.815ZM83.4247 288.769C85.5841 294.985 92.2728 298.198 98.4349 295.933C104.544 293.668 107.81 286.768 105.65 280.552C103.491 274.336 96.8022 271.123 90.6401 273.388C84.5307 275.653 81.2654 282.554 83.4247 288.769Z" fill="#0E538C"/>
<path d="M71.3113 289.349C74.682 294.406 81.4234 295.67 86.3214 292.193L85.6368 286.241C90.5348 282.712 91.7461 275.759 88.3755 270.702L86.0581 267.278C82.6874 262.221 75.946 260.957 71.048 264.434L68.836 266.014C63.9379 269.543 62.7266 276.496 66.0973 281.553L71.3113 289.349Z" fill="#0E538C"/>
<path d="M66.8873 272.756C67.4666 273.599 68.0986 274.389 68.836 275.179C73.6813 280.447 80.1594 282.448 84.2674 280.289C86.1635 282.87 88.3228 284.924 90.2715 286.504C92.5362 288.348 98.3295 289.085 98.3295 289.085C101.7 292.773 89.0601 314.317 88.1648 314.211C86.3214 314.053 83.9514 302.149 85.6894 297.829C86.4794 295.881 87.7435 293.563 87.3748 292.509C86.0581 288.875 84.2148 289.507 84.2148 289.507C84.2148 289.507 81.7921 292.351 79.8961 292.246C77.9474 292.088 74.5767 289.033 74.4187 288.98C73.8393 288.506 73.3127 287.927 72.8387 287.242L67.7826 279.657C66.4659 277.55 66.1499 275.021 66.8873 272.756Z" fill="#FFE3CA"/>
<path d="M105.545 363.515C105.545 363.515 101.437 368.467 100.173 368.993C98.4875 369.731 93.3262 368.15 93.3262 368.15C93.3262 368.15 91.9568 345.448 90.3768 336.598C88.7968 327.749 86.4794 325.431 86.3741 322.639C86.2161 318.162 82.4767 316.371 83.1087 312.894C83.7407 309.418 84.8468 296.987 85.2154 298.62C88.4281 312.736 92.3781 300.99 93.2735 299.146C93.7475 298.146 105.545 363.515 105.545 363.515Z" fill="#F2F0F0"/>
<path d="M86.8481 294.406C86.8481 294.406 81.8447 299.884 82.2134 302.044C82.5294 304.203 80.054 310.946 82.5294 320.322C85.3208 331.015 86.7954 338.284 87.3221 345.29C87.8488 352.295 85.4788 358.722 86.4268 367.308C87.1641 374.05 88.6915 374.419 88.6915 374.419C88.6915 374.419 91.6935 375.156 93.8002 372.523C95.9068 369.941 92.7468 346.975 91.6935 341.286C90.6401 335.545 87.2694 322.165 86.3741 318.215C85.2681 313.369 85.4788 308.417 85.5314 306.995C85.7948 301.991 86.4268 298.883 86.9534 296.987C87.0061 296.723 87.2694 293.774 86.8481 294.406ZM95.5909 300.832C98.3295 308.733 106.862 312.789 114.656 309.892C122.451 306.995 126.559 298.251 123.82 290.35C121.082 282.448 112.55 278.392 104.755 281.29C96.9602 284.134 92.8522 292.931 95.5909 300.832Z" fill="#0E538C"/>
<path d="M68.7833 436.628L71.5747 458.909L59.4612 464.651L52.7725 466.126L64.6753 456.908L60.7779 436.786L68.7833 436.628Z" fill="#FCBAA2"/>
<path d="M72.3647 462.281L69.7313 462.965L67.9406 461.332L58.2499 466.178L49.6651 468.233C49.6651 468.233 49.5598 467.548 49.8231 467.179C50.8765 465.757 56.9332 462.649 56.9332 462.649C56.9332 462.649 57.0385 464.704 57.8812 464.756C58.7239 464.809 66.1499 460.911 67.8879 459.857C70.8373 458.014 71.4166 456.802 71.6273 456.96C72.2593 457.276 72.3647 462.281 72.3647 462.281Z" fill="#0E538C"/>
<path d="M39.5531 405.655L29.915 424.618L16.6429 423.986L10.0068 422.037L24.7009 419.561L32.7063 403.337L39.5531 405.655Z" fill="#FCBAA2"/>
<path d="M29.125 427.989L26.4916 427.357L25.6489 425.039L13.6935 424.881L6.58344 423.196C6.58344 423.196 7.42611 422.248 7.95278 421.984C9.5328 421.299 15.1682 420.983 15.1682 420.983C15.1682 420.983 14.5888 422.616 15.3262 423.038C16.0635 423.512 24.2796 423.775 26.2809 423.617C29.757 423.354 30.7576 422.616 30.863 422.827C31.2316 423.564 29.125 427.989 29.125 427.989Z" fill="#0E538C"/>
<path d="M109.864 348.924L102.701 352.137L102.754 361.988L53.4045 353.928C53.4045 353.928 48.7171 352.401 45.7151 360.144C41.4491 371.1 30.5996 405.181 30.5996 405.181L37.4464 412.608L58.9872 374.103C58.9872 374.103 103.122 395.541 117.658 390.906C123.241 389.115 127.507 378.896 126.717 368.572C126.085 360.46 124.505 353.033 124.505 353.033L109.864 348.924Z" fill="#FFB750"/>
<path d="M103.596 390.695L68.2566 388.062L71.3113 444.529L60.8832 444.898L53.1938 378.738C53.1938 378.738 55.2478 368.888 61.9892 370.363C68.7833 371.89 85.1101 384.848 103.596 390.695Z" fill="#FFB750"/>
<path d="M127.402 404.865C127.402 404.865 108.863 384.058 104.07 372.312C98.3295 358.248 98.8035 340.601 97.7502 334.755C95.8015 324.009 93.4315 303.15 93.0101 300.569C92.5361 297.988 94.1688 295.09 94.1688 295.09C94.1688 295.09 92.9575 287.295 96.4335 288.137C101.437 289.349 106.388 292.088 108.126 292.931C111.391 294.406 118.08 333.701 118.448 335.597C119.818 342.445 124.821 348.661 128.402 355.034C136.829 370.152 138.989 388.009 138.989 388.009C138.989 388.009 137.935 401.072 127.402 404.865Z" fill="#2A94F4"/>
<path d="M108.284 350.452C108.284 350.452 108.126 352.98 96.3282 352.401C84.5308 351.769 67.256 347.818 67.256 347.818L94.5902 346.554C94.5902 346.554 105.071 346.606 108.284 350.452Z" fill="#FFE3CA"/>
<path d="M76.5253 349.188C70.89 349.082 68.4673 351.979 66.2553 352.875C64.0432 353.77 61.7786 355.087 61.7786 355.087C63.0426 352.611 64.8333 352.559 65.7813 351.769C66.6766 350.978 66.4659 351.4 64.4646 351.189C63.3059 351.084 61.3045 353.138 59.8825 354.297C58.6185 355.298 57.8285 355.351 57.8285 355.351C57.8285 355.351 59.3032 353.244 61.1465 351.558C63.4112 349.556 66.1499 347.871 66.8346 347.607C68.0459 347.133 71.7853 347.081 74.4713 347.502C77.4734 347.923 80.5807 349.293 76.5253 349.188Z" fill="#FFE3CA"/>
<path d="M67.0979 347.66C67.0979 347.66 62.7792 348.713 62.0419 349.293C61.5152 349.714 59.3032 352.085 59.3032 352.085C59.3032 352.085 60.8832 351.821 61.8312 350.926C62.7792 350.083 67.0979 347.66 67.0979 347.66Z" fill="#FFE3CA"/>
<path d="M98.8562 347.66L116.342 338.442C116.342 338.442 116.394 349.609 116.5 353.876C116.605 358.142 118.396 364.147 115.025 365.043C111.654 365.938 109.916 365.464 113.392 367.518C116.868 369.52 116.078 371.627 114.762 373.365C113.445 375.104 119.186 392.802 117.816 393.803C112.392 386.955 106.546 378.475 104.018 372.312C100.805 364.305 99.5409 355.14 98.8562 347.66Z" fill="#0E538C"/>
<path d="M104.492 343.183L103.807 307.574C103.807 307.574 103.86 296.46 104.07 293.194C104.281 289.823 110.022 293.774 110.022 293.774C110.022 293.774 118.08 304.677 118.238 330.962C118.343 348.555 117.395 357.721 109.284 356.983C101.753 356.299 93.1682 355.14 93.1682 355.14L89.4288 345.395L104.492 343.183Z" fill="#2A94F4"/>
<path d="M102.701 361.988L42.5024 354.455L42.6604 353.191L102.859 360.723L102.701 361.988Z" fill="#D3D3D3"/>
<path d="M76.3147 357.352C76.2093 358.353 75.4193 359.09 74.5767 358.985L43.7137 355.14C42.8711 355.034 41.8177 354.244 41.0804 351.611L29.1776 320.796C29.3356 319.532 30.3363 318.899 31.179 319.216L62.7266 324.167C63.5692 324.483 64.1486 325.22 64.4646 326.59L76.3147 357.352Z" fill="#D3D3D3"/>
<path d="M72.4173 358.195L72.7333 358.248L102.859 362.04C101.7 362.514 99.8569 362.672 97.8029 362.409L72.5753 359.248L72.2593 359.196L47.0318 356.035C44.9778 355.772 43.2397 355.14 42.1864 354.455L72.4173 358.195Z" fill="#D3D3D3"/>
<path d="M104.492 343.183L103.807 307.574C103.807 307.574 104.334 304.572 105.387 301.885C105.65 305.783 107.441 333.859 107.652 337.546C107.915 341.55 111.18 341.971 111.865 343.288C112.602 344.552 111.97 344.815 109.548 344.341C107.178 343.815 108.02 344.236 108.547 345.5C109.074 346.817 107.757 346.448 103.122 344.763C99.7516 343.551 93.2735 344.763 90.0081 345.5L104.492 343.183Z" fill="#0E538C"/>
<path d="M312.632 255.795C306.839 257.323 296.147 262.695 293.883 271.913C290.512 285.767 297.253 306.047 286.614 325.958C283.191 332.279 345.444 340.812 345.444 340.812L357.452 270.86C357.452 270.86 342.442 255.69 339.387 254.636C333.014 252.529 324.219 252.74 312.632 255.795Z" fill="#CCE9FF"/>
<path d="M357.504 270.913C359.664 276.496 365.141 309.734 359.032 317.583C358.347 318.478 362.192 319.9 361.507 324.009C361.402 324.694 360.243 328.012 360.243 328.012L355.292 329.329L344.496 316.845C344.496 316.845 348.867 310.05 354.608 284.292C356.293 276.707 357.03 269.648 357.504 270.913Z" fill="#2A94F4"/>
<path d="M316.635 310.63C316.635 310.63 321.849 324.378 334.436 328.065C336.596 328.697 337.965 331.12 336.912 331.91C335.542 332.911 333.752 333.122 330.592 333.122C324.008 333.122 315.055 331.015 308.893 324.799C299.729 315.634 296.832 311.42 297.78 306.837C298.623 302.149 316.635 310.63 316.635 310.63Z" fill="#FCD2B1"/>
<path d="M295.673 267.278C292.987 271.808 291.46 279.077 291.512 289.507C291.512 297.566 298.254 310.787 299.255 314.843C299.413 315.528 299.834 318.425 299.834 318.425L307.26 326.011L322.165 315.528L317.635 308.312L316.266 308.47C316.266 308.47 315.423 304.467 315.634 302.939C315.845 301.411 311.526 280.605 309.367 267.278C308.155 259.535 298.307 262.801 295.673 267.278Z" fill="#2A94F4"/>
<path d="M309.051 308.154L313.422 306.784L315.213 306.31C315.318 307.574 316.371 308.417 316.371 308.417L312.948 308.839L308.998 310.103L304.363 313.421L309.051 308.154Z" fill="#0E538C"/>
<path d="M333.488 328.012L341.072 325.853C341.072 325.853 343.232 328.855 342.81 329.592C342.389 330.33 342.81 334.755 342.81 334.755L339.124 338.02L336.122 336.967C336.122 336.967 335.911 335.597 336.912 335.492C337.965 335.334 336.227 334.597 335.7 334.281C335.174 333.912 330.802 331.594 333.488 328.012Z" fill="#FCD2B1"/>
<path d="M321.796 255.11C320.953 257.586 322.217 260.378 324.64 261.22L328.959 262.801C331.382 263.696 334.015 262.327 334.858 259.851L338.702 248.473C339.545 245.997 338.281 243.206 335.858 242.31L331.54 240.73C329.117 239.834 326.483 241.204 325.641 243.68L321.796 255.11Z" fill="#FF957E"/>
<path d="M340.651 265.118C340.23 266.751 338.544 267.752 336.964 267.278L323.955 263.538C322.375 263.064 321.427 261.378 321.849 259.693L327.168 239.729C327.589 238.096 329.275 237.095 330.855 237.569L343.864 241.257C345.444 241.731 346.392 243.416 345.97 245.102L340.651 265.118Z" fill="#FCD2B1"/>
<path d="M347.392 243.1C347.498 242.995 346.181 241.52 346.866 238.623C347.761 234.725 344.864 233.145 342.705 233.092C341.441 233.039 337.175 235.094 334.91 235.778C332.646 236.463 332.856 235.568 328.748 234.83C326.009 234.304 325.377 235.831 324.429 237.938C323.481 240.098 323.376 248.315 323.376 248.315C323.745 248.842 324.324 249.263 324.693 248.842C325.061 248.42 326.536 241.836 327.747 239.887C328.906 237.938 333.646 241.046 336.227 242.574C338.755 244.101 341.02 244.364 345.075 243.522C345.549 244.048 345.97 244.628 345.97 244.891C345.97 245.418 344.812 249.158 344.812 249.158C344.812 249.158 347.076 247.736 347.708 246.629C348.024 246.261 348.13 244.47 347.392 243.1Z" fill="#FFBE55"/>
<path d="M325.957 255.532C325.799 256.058 325.272 256.427 324.745 256.269L321.954 255.479C321.427 255.321 321.111 254.741 321.269 254.215L322.691 248.895C322.849 248.368 323.376 247.999 323.903 248.157L326.694 248.947C327.221 249.105 327.537 249.685 327.379 250.211L325.957 255.532Z" fill="#FCD2B1"/>
<path d="M324.219 250.475C324.219 250.475 322.112 258.323 321.427 260.957C320.795 263.327 320.321 268.806 333.225 272.493C340.862 274.653 342.126 268.753 342.652 266.857C343.021 265.382 342.6 260.588 342.02 259.535C342.02 259.482 341.178 262.801 341.178 262.801C341.178 262.801 340.44 259.166 336.806 258.165C330.96 256.48 328.643 259.693 326.115 258.85C324.113 258.165 323.534 254.373 324.219 250.475Z" fill="#FFBE55"/>
<path d="M333.014 262.537L337.017 263.696C337.544 263.854 338.123 263.538 338.228 262.959L338.386 262.379L332.435 260.694L332.277 261.273C332.171 261.853 332.487 262.379 333.014 262.537Z" fill="#FCD2B1"/>
<path d="M396.478 342.34C394.635 347.66 362.192 367.202 351.29 366.044L318.478 367.676C290.617 364.147 277.398 319.268 277.398 319.268C278.504 307.996 305.996 324.325 315.792 329.382C331.276 337.388 341.125 337.81 341.125 337.81C351.5 338.916 363.508 330.593 376.623 330.33C391.001 329.961 399.427 333.965 396.478 342.34Z" fill="#0B4870"/>
<path d="M325.167 336.967C325.167 336.914 325.167 336.914 325.167 336.967V335.492L381.573 334.439V335.913L381.415 336.177C380.731 337.441 379.414 337.652 377.939 337.704L328.853 338.653C327.379 338.705 326.062 338.495 325.325 337.283L325.167 336.967Z" fill="#D3D3D3"/>
<path d="M338.755 336.914L338.597 337.178C338.386 337.494 338.123 337.757 337.807 337.915L329.222 338.073C327.8 338.126 326.536 337.968 325.799 336.967L325.641 336.756L325.588 336.704V336.019L338.65 335.755L338.755 336.914ZM346.392 336.388L374.569 335.861V334.86L346.339 335.439L346.392 336.388ZM339.071 335.176L345.865 306.31C346.023 305.573 346.76 304.941 347.498 304.888L387.103 304.15C387.841 304.15 388.262 304.73 388.104 305.52L381.31 334.386L339.071 335.176Z" fill="#D3D3D3"/>
<path d="M313.527 375.104C317.425 375.788 320.427 371.1 320.427 371.1L330.539 362.883L328.38 357.299L308.682 366.465C308.682 366.465 309.577 374.419 313.527 375.104Z" fill="#FCD2B1"/>
<path d="M320.374 370.784C320.374 370.784 320.374 371.258 319.637 373.418C318.899 375.578 317.951 376.315 317.003 376.631C313.211 377.79 310.525 377.211 301.467 379.002C292.408 380.792 289.669 379.423 287.036 375.104C284.402 370.784 287.141 367.36 291.565 367.044C297.938 366.57 301.519 367.308 304.837 366.781C308.313 366.254 308.524 365.411 310.578 364.095C312.474 362.883 314.265 370.152 312.474 371.838C310.841 373.313 319.057 373.523 320.374 370.784Z" fill="#FFB750"/>
<path d="M318.478 374.946C314.739 376.104 312 375.525 302.941 377.316C293.883 379.107 291.144 377.737 288.51 373.418C287.299 371.416 287.246 369.625 287.931 368.256C285.93 369.678 285.245 372.154 287.036 375.104C289.669 379.423 292.408 380.792 301.467 379.002C310.525 377.211 313.264 377.79 317.003 376.631C317.741 376.42 318.478 375.894 319.11 374.682C318.899 374.788 318.689 374.893 318.478 374.946Z" fill="white"/>
<path d="M320.374 370.942V370.837C320.374 370.89 320.321 370.942 320.269 370.995C320.321 370.942 320.374 370.942 320.374 370.942Z" fill="#E9D6B8"/>
<path d="M300.835 374.155C300.571 374.261 300.308 373.681 300.203 372.891C300.045 371.258 299.676 369.678 299.149 368.045C298.886 367.255 298.886 366.57 299.202 366.465C299.518 366.36 300.045 366.939 300.255 367.729C300.782 369.309 301.098 370.942 301.256 372.523C301.361 373.313 301.098 374.05 300.835 374.155ZM303.626 373.629C303.31 373.681 303.047 373.155 302.941 372.417C302.783 370.89 302.415 369.362 301.888 367.887C301.625 367.15 301.625 366.518 301.993 366.465C302.309 366.412 302.836 366.992 303.099 367.729C303.573 369.204 303.942 370.732 304.1 372.206C304.153 372.944 303.942 373.576 303.626 373.629ZM306.575 373.523C306.259 373.576 305.943 372.997 305.838 372.206C305.575 370.626 305.206 369.099 304.627 367.518C304.363 366.728 304.363 366.096 304.679 366.096C305.048 366.096 305.575 366.676 305.838 367.466C306.417 368.993 306.786 370.574 306.997 372.101C307.102 372.839 306.891 373.471 306.575 373.523Z" fill="white"/>
<path d="M314.212 361.671C314.212 361.671 383.575 332.121 387.525 332.068C400.902 331.963 397.847 345.974 391.053 352.611C383.048 360.407 322.165 374.682 322.165 374.682L314.212 361.671Z" fill="#0E538C"/>
<path d="M341.704 366.834L322.744 348.187L330.855 339.917L351.5 362.462L341.704 366.834Z" fill="#FCD2B1"/>
<path d="M345.602 352.19C345.602 352.19 297.411 306.416 294.199 305.046C283.191 300.411 276.397 313 276.766 317.372C277.292 323.008 326.22 368.835 326.22 368.835L345.602 352.19Z" fill="#0E538C"/>
<path d="M374.147 368.256C375.253 369.309 375.464 372.522 375.464 372.522C375.464 372.522 359.4 378.843 353.765 378.949C352.29 379.001 349.657 378.369 347.129 377.632C346.708 377.527 345.707 376.368 345.286 376.262C344.496 376.052 344.338 376.789 343.706 376.578C342.02 375.999 340.756 375.525 340.704 375.42C337.28 367.94 338.439 364.253 338.439 364.253C338.439 364.253 345.812 366.465 344.548 364.727C341.862 361.039 349.604 357.299 351.29 359.248C358.242 367.097 370.882 365.148 374.147 368.256Z" fill="#FFB750"/>
<path d="M375.043 369.836C370.092 371.89 359.716 376.052 357.662 376.21C349.183 376.842 343.284 373.734 339.334 371.89C339.703 372.944 340.124 374.155 340.704 375.42C340.756 375.525 341.968 375.999 343.706 376.578C344.39 376.789 344.548 375.999 345.286 376.262C345.707 376.368 346.655 377.527 347.129 377.632C349.657 378.369 352.29 378.949 353.765 378.949C359.4 378.844 375.464 372.523 375.464 372.523C375.464 372.523 375.464 371.048 375.043 369.836ZM363.719 364.99C363.877 365.306 363.245 365.622 362.35 365.833C360.506 366.202 358.716 366.781 356.925 367.518C356.03 367.887 355.24 367.992 355.134 367.676C355.029 367.36 355.608 366.781 356.504 366.412C358.242 365.675 360.085 365.148 361.876 364.779C362.718 364.516 363.561 364.674 363.719 364.99ZM360.085 363.673C360.243 363.989 359.611 364.411 358.716 364.674C356.925 365.201 355.187 365.938 353.449 366.834C352.606 367.255 351.816 367.413 351.711 367.097C351.606 366.781 352.185 366.096 353.028 365.675C354.713 364.832 356.451 364.095 358.242 363.62C359.137 363.252 359.98 363.357 360.085 363.673ZM356.609 362.514C356.714 362.83 356.135 363.304 355.292 363.62C353.554 364.305 351.869 365.148 350.236 366.149C349.446 366.676 348.709 366.834 348.604 366.465C348.498 366.149 349.025 365.411 349.868 364.885C351.5 363.884 353.186 363.041 354.871 362.409C355.714 362.146 356.504 362.198 356.609 362.514Z" fill="white"/>
</svg>
