<svg width="72" height="72" viewBox="0 0 72 72" fill="none" xmlns="http://www.w3.org/2000/svg">
<mask id="mask0_20_160" style="mask-type:luminance" maskUnits="userSpaceOnUse" x="0" y="0" width="72" height="72">
<path d="M0 0H72V72H0V0Z" fill="white"/>
</mask>
<g mask="url(#mask0_20_160)">
<path d="M60.4506 55.1692C59.9543 53.6172 58.6386 50.6219 55.3771 47.9796C55.2353 47.8661 55.0257 47.8866 54.9107 48.03C54.7957 48.1718 54.8161 48.3813 54.9595 48.4964C59.4201 52.1109 60.0977 56.4754 60.1055 56.5195C60.1181 56.6061 60.1638 56.6849 60.2347 56.7385C60.293 56.7826 60.3624 56.8047 60.4333 56.8047C60.4506 56.8047 60.4648 56.8031 60.4821 56.8015C60.6617 56.7747 60.7878 56.6061 60.7626 56.4249C60.7563 56.3745 60.6854 55.9066 60.4506 55.1707V55.1692ZM59.0735 42.7721C58.9884 42.7485 58.9002 42.7579 58.8214 42.8005C58.7442 42.843 58.6875 42.9139 58.6623 42.999C58.6386 43.0841 58.6481 43.1739 58.6906 43.2511C58.7332 43.3283 58.8041 43.385 58.8892 43.4102C59.9732 43.7238 61.0809 43.8813 62.1743 43.8813C62.9511 43.8813 63.7185 43.8026 64.4637 43.6403C64.4685 43.6403 64.4716 43.6371 64.4732 43.6324C64.4732 43.6277 64.4732 43.6229 64.4685 43.6198C63.1103 42.3908 61.4023 41.4958 59.5257 41.0326C59.4406 41.0105 59.3508 41.0247 59.2752 41.0704C59.1996 41.1161 59.146 41.1902 59.1239 41.2753C59.1034 41.3619 59.116 41.4502 59.1617 41.5274C59.209 41.603 59.2815 41.6566 59.3666 41.6786C60.6271 41.989 61.793 42.4995 62.8377 43.1944C61.5851 43.2763 60.3183 43.1329 59.0735 42.7737V42.7721ZM65.8298 42.3987C63.8823 40.6261 61.2778 39.4365 58.3014 38.9622C58.1202 38.9339 57.9485 39.0583 57.9201 39.238C57.8902 39.4192 58.0147 39.5893 58.1959 39.6193C61.7253 40.1818 64.7064 41.8094 66.5924 44.2012C63.7626 45.3294 60.3671 45.249 57.0299 43.9712C56.8597 43.905 56.6659 43.9916 56.6013 44.1634C56.5367 44.3336 56.6218 44.5258 56.7936 44.592C58.656 45.3041 60.5325 45.665 62.3351 45.665C63.2584 45.665 64.1612 45.5704 65.0325 45.3798C65.9259 45.186 66.7925 44.8834 67.6103 44.4832C67.6134 44.4801 67.6166 44.4785 67.6181 44.4754C67.6181 44.4722 67.6181 44.4675 67.6166 44.4643C67.1076 43.708 66.5073 43.0132 65.8314 42.3987H65.8298ZM52.366 53.3005C52.2762 53.2973 52.1927 53.3304 52.1297 53.3919C52.0651 53.4533 52.0289 53.5368 52.0273 53.625C52.0241 53.7149 52.0572 53.7984 52.1187 53.8614C53.4564 55.2558 55.0872 56.2879 56.8298 56.8488C56.8314 56.8488 56.833 56.8488 56.8345 56.8488C56.8377 56.8488 56.8408 56.8472 56.844 56.8441C56.8471 56.8409 56.8487 56.8362 56.8471 56.8315C56.2862 55.0872 55.2542 53.458 53.8597 52.1203C53.7274 51.9927 53.5178 51.9958 53.3902 52.1282C53.3288 52.1928 53.2957 52.2779 53.2988 52.3661C53.3004 52.4544 53.3366 52.5363 53.4012 52.5977C54.3356 53.4974 55.0919 54.5216 55.6465 55.6466C54.5231 55.0904 53.4973 54.3341 52.5992 53.3997C52.5378 53.3367 52.4559 53.3005 52.366 53.2973V53.3005ZM64.2116 48.7532C64.136 48.7122 64.0462 48.7028 63.9595 48.7296C63.9359 48.7359 61.4039 49.4386 58.4511 48.9517C58.4448 48.9517 58.4385 48.9549 58.4369 48.9612C58.4369 48.9628 58.4369 48.9643 58.4369 48.9659C58.4369 48.9675 58.4385 48.9706 58.4401 48.9722C60.3119 51.2537 60.9942 53.8283 61.0005 53.8551C61.0226 53.9433 61.0746 54.0158 61.1486 54.0599C61.199 54.0899 61.2573 54.1056 61.3172 54.1056C61.3456 54.1056 61.3755 54.1009 61.4039 54.0946C61.5803 54.0489 61.689 53.8693 61.6434 53.6912V53.6881C61.6103 53.5636 61.5693 53.4218 61.5189 53.269C61.303 52.5883 60.7988 51.2332 59.855 49.7774C61.5866 49.8656 63.0142 49.6245 63.7122 49.4717C63.9375 49.4228 64.0872 49.3834 64.1407 49.3677C64.3172 49.3173 64.4196 49.1345 64.3692 48.958C64.344 48.8682 64.2873 48.7957 64.2101 48.7532H64.2116ZM66.0725 46.6214C65.9905 46.5867 65.9007 46.5851 65.8188 46.6198C65.7778 46.6355 61.6449 48.2269 56.2988 46.1755C56.1271 46.1109 55.9348 46.1959 55.8702 46.3661C55.8041 46.5363 55.8907 46.7301 56.0609 46.7947C58.2699 47.6424 60.2663 47.8976 61.875 47.8976C63.1197 47.8976 64.1297 47.7448 64.8246 47.592C65.5714 47.4297 66.0173 47.2548 66.0661 47.2359C66.2347 47.1681 66.3183 46.9743 66.2505 46.8041C66.2174 46.7206 66.1544 46.656 66.0725 46.6214ZM53.8519 61.0021C53.8267 60.9958 51.2552 60.3167 48.9706 58.4417C48.9658 58.4386 48.9595 58.4386 48.9564 58.4402C48.9517 58.4433 48.9485 58.4496 48.9501 58.4544C49.4354 61.4039 48.7326 63.9375 48.7263 63.9628C48.7011 64.0478 48.709 64.1377 48.7515 64.2133C48.7941 64.2905 48.865 64.3472 48.9548 64.3724C48.9847 64.3803 49.0147 64.385 49.0462 64.385C49.1013 64.385 49.1565 64.3708 49.2069 64.3425C49.2841 64.2999 49.3408 64.229 49.3645 64.144C49.3786 64.0904 49.4196 63.9423 49.47 63.7154C49.6229 63.0174 49.8639 61.5914 49.7741 59.8582C51.2284 60.802 52.5851 61.3062 53.2657 61.5237C53.3729 61.5568 53.5336 61.6056 53.6864 61.6466L53.6927 61.6355L53.6896 61.6466C53.866 61.6923 54.0472 61.5851 54.0929 61.4071C54.115 61.3188 54.1024 61.2275 54.0583 61.1503C54.0142 61.0778 53.9417 61.0242 53.8534 61.0037L53.8519 61.0021ZM68.8062 50.2532C68.7274 50.2138 68.6376 50.2091 68.5541 50.2374C68.469 50.2674 68.4012 50.3288 68.3618 50.4076C68.3571 50.4218 67.6607 51.8336 66.126 53.3919H66.1244V53.3934V53.395V53.3966C65.5509 55.4748 64.6954 56.7732 64.6607 56.8267C64.6103 56.9008 64.5914 56.9906 64.6071 57.0773C64.6244 57.1639 64.6733 57.2395 64.7458 57.2884C64.8009 57.3262 64.8655 57.3467 64.9333 57.3467C64.9538 57.3467 64.9742 57.3451 64.9947 57.3404C65.0814 57.3246 65.157 57.2758 65.2059 57.2017C65.2153 57.1907 66.1055 55.864 66.7169 53.7369C68.25 52.1455 68.9559 50.7101 68.9622 50.6959C69 50.6172 69.0063 50.5258 68.9763 50.4438C68.9464 50.3588 68.8865 50.2926 68.8062 50.2532ZM53.3997 19.4071C53.3366 19.4685 53.2988 19.5505 53.2972 19.6403C53.2957 19.7285 53.3272 19.8136 53.3902 19.8766C53.4517 19.9396 53.5336 19.9775 53.6218 19.9775H53.6297C53.7148 19.9775 53.7983 19.946 53.8597 19.8861C55.2526 18.5484 56.2846 16.9192 56.8456 15.1749C56.8471 15.1702 56.8456 15.1655 56.8424 15.1608C56.8393 15.1576 56.8345 15.1576 56.8298 15.1576C55.0856 15.7185 53.4564 16.7506 52.1187 18.145C52.0572 18.208 52.0241 18.2931 52.0257 18.3813C52.0273 18.4712 52.0635 18.5531 52.1281 18.6145C52.1911 18.676 52.2762 18.7091 52.3645 18.7059C52.4527 18.7044 52.5362 18.6681 52.5977 18.6035C53.4958 17.6692 54.5215 16.9129 55.6465 16.3582C55.0903 17.4817 54.334 18.5074 53.3997 19.4055V19.4071ZM53.8345 49.7143C53.6911 49.5993 53.4832 49.6214 53.3666 49.7632C53.2515 49.905 53.2736 50.1145 53.4154 50.2311C56.1901 52.4827 57.958 55.3819 58.396 58.3976C55.3802 57.9596 52.4795 56.1917 50.2279 53.4171C50.1129 53.2753 49.9018 53.2532 49.7615 53.3698C49.6181 53.4848 49.5961 53.6944 49.7111 53.8378C51.6113 56.1791 53.9433 57.8383 56.4517 58.6403C57.323 58.9176 58.2242 59.0893 59.1334 59.1508H59.1397C59.1397 59.1508 59.1476 59.1429 59.1476 59.1382C59.0845 58.229 58.9128 57.3278 58.6355 56.4565C57.8351 53.948 56.1743 51.6177 53.833 49.7159L53.8345 49.7143ZM69.1118 46.6702C68.9417 46.6009 68.7479 46.6812 68.677 46.8498C68.6234 46.979 67.3471 50.0389 64.4496 52.4197C64.4464 52.4228 64.4448 52.426 64.4448 52.4276C63.8335 56.1161 61.8214 58.7648 61.7363 58.875C61.6244 59.0216 61.6512 59.2311 61.7946 59.3414C61.8561 59.3871 61.927 59.4092 61.9979 59.4092C62.0971 59.4092 62.1964 59.3651 62.2626 59.28C62.2831 59.2548 64.3172 56.5589 65.0121 52.749C67.9727 50.2343 69.2804 47.1319 69.293 47.1019C69.3624 46.9318 69.282 46.738 69.1118 46.6686V46.6702ZM58.4385 23.0484C58.4385 23.0484 58.448 23.0562 58.4527 23.0547C61.396 22.5694 63.9359 23.2721 63.9611 23.2784C63.9942 23.2879 64.0257 23.2926 64.0588 23.2926C64.1124 23.2926 64.1644 23.28 64.2116 23.2548C64.2888 23.2107 64.3456 23.1398 64.3708 23.0499C64.4212 22.8735 64.3188 22.6907 64.1423 22.6403C64.0257 22.6088 63.8729 22.5709 63.7137 22.5363C63.0157 22.3834 61.5898 22.1424 59.8566 22.2322C60.8004 20.7763 61.3046 19.4197 61.522 18.739C61.5551 18.6334 61.604 18.4743 61.6449 18.3199V18.3167C61.689 18.1403 61.5819 17.9575 61.4039 17.9134C61.3156 17.8913 61.2242 17.9039 61.1486 17.9496C61.0746 17.9937 61.0226 18.0662 61.0005 18.1545C60.9942 18.1797 60.3119 20.7558 58.4401 23.0358C58.4369 23.0405 58.4369 23.0452 58.4385 23.0499V23.0484ZM54.958 23.51C54.8161 23.6266 54.7941 23.8362 54.9091 23.978C54.9753 24.0583 55.0714 24.1009 55.1675 24.1009C55.2416 24.1009 55.3156 24.0757 55.3771 24.0268C58.6371 21.3861 59.9543 18.3892 60.449 16.8372C60.6822 16.103 60.7531 15.635 60.761 15.583C60.7862 15.4034 60.6602 15.2332 60.479 15.2065C60.3923 15.1954 60.3041 15.2159 60.2316 15.2711C60.1607 15.3246 60.115 15.4003 60.1024 15.4885C60.0961 15.5326 59.417 19.8987 54.9564 23.5116L54.958 23.51ZM66.7563 40.3771C65.5525 39.2805 62.9149 37.3441 58.7694 36.687C58.5882 36.6587 58.418 36.7831 58.3897 36.9628C58.3597 37.144 58.4842 37.3141 58.6654 37.3441C61.5929 37.8073 63.7326 38.9654 65.0121 39.854C66.4159 40.8294 67.125 41.7086 67.1329 41.718C67.1864 41.7873 67.2652 41.8315 67.3519 41.8409C67.3645 41.8441 67.3786 41.8441 67.3928 41.8441C67.4669 41.8441 67.5378 41.8188 67.5977 41.7716C67.741 41.6597 67.7663 41.4502 67.6528 41.3052C67.6402 41.2894 67.3503 40.9176 66.7563 40.3756V40.3771ZM56.0609 25.2117C55.8907 25.2779 55.8056 25.4701 55.8702 25.6419C55.9207 25.7742 56.0467 25.8546 56.1806 25.8546C56.22 25.8546 56.2594 25.8483 56.2988 25.8341C61.6386 23.7842 65.7778 25.3724 65.8188 25.3882C65.9007 25.4213 65.9905 25.4213 66.0725 25.3866C66.1544 25.3519 66.2174 25.2873 66.2505 25.2038C66.3183 25.0337 66.2347 24.8399 66.0661 24.7721C66.0173 24.7532 65.5761 24.5799 64.8246 24.416C63.2332 24.0678 59.9811 23.7101 56.0609 25.2149V25.2117ZM49.7127 18.1702C49.5977 18.3136 49.6197 18.5216 49.7615 18.6382C49.8309 18.6949 49.9159 18.7201 50.0042 18.7107C50.0924 18.7012 50.1728 18.6587 50.2279 18.5893C52.4795 15.8146 55.3802 14.0468 58.396 13.6103C57.958 16.6245 56.1901 19.5253 53.4154 21.7768C53.272 21.8919 53.2515 22.103 53.3666 22.2448C53.4327 22.3252 53.5289 22.3677 53.625 22.3677C53.699 22.3677 53.7731 22.3425 53.8345 22.2936C56.1759 20.3919 57.8366 18.0615 58.6371 15.5531C58.9144 14.6818 59.0877 13.7805 59.1491 12.8714C59.1491 12.8666 59.1476 12.8635 59.1444 12.8603C59.1413 12.8588 59.1381 12.8572 59.135 12.8572C58.2258 12.9186 57.323 13.0904 56.4532 13.3693C53.9448 14.1681 51.6129 15.8288 49.7127 18.1718V18.1702ZM48.9501 13.552C48.9501 13.5568 48.9517 13.5631 48.9564 13.5662C48.958 13.5662 48.9595 13.5678 48.9627 13.5678C48.9658 13.5678 48.9674 13.5678 48.9706 13.5646C51.2694 11.6786 53.8267 11.0105 53.8519 11.0042C53.9401 10.9822 54.0126 10.9302 54.0567 10.8561C54.1024 10.7805 54.115 10.6891 54.0914 10.6009C54.0472 10.4228 53.866 10.3157 53.688 10.3598C53.6486 10.3708 53.4989 10.4102 53.2657 10.4843C52.5851 10.7017 51.2284 11.2059 49.7726 12.1482C49.8624 10.4165 49.6213 8.98902 49.4685 8.29259C49.4149 8.04364 49.3723 7.89238 49.3645 7.86402C49.314 7.68755 49.1297 7.58513 48.9532 7.63555C48.865 7.66234 48.7925 7.71748 48.75 7.79469C48.7074 7.87032 48.6996 7.95855 48.7248 8.04679C48.7326 8.07042 49.4322 10.6151 48.9485 13.5536L48.9501 13.552ZM67.3519 30.1623C67.2652 30.1734 67.1848 30.2175 67.1329 30.2868C67.125 30.2963 66.4175 31.1739 65.0121 32.1492C63.7326 33.0394 61.5929 34.1975 58.6654 34.6608C58.4842 34.6907 58.3597 34.8609 58.3897 35.0421C58.4149 35.2044 58.5567 35.3209 58.7174 35.3209C58.7347 35.3209 58.7521 35.3209 58.7694 35.3178C62.9165 34.6608 65.5541 32.7227 66.7563 31.6277C67.3534 31.0841 67.6512 30.7012 67.6544 30.6965C67.7663 30.5531 67.7426 30.3435 67.5992 30.2301C67.5283 30.1749 67.4401 30.1513 67.3534 30.1623H67.3519ZM66.8067 32.9386C66.72 32.9402 66.6397 32.978 66.5767 33.0426C66.5577 33.0599 64.6922 34.9444 61.9175 35.989C61.9128 35.9906 61.9096 35.9953 61.9096 36.0016C61.9096 36.0063 61.9128 36.0111 61.9175 36.0142C64.6922 37.0589 66.5577 38.9417 66.5767 38.9607C66.6397 39.0253 66.7216 39.0631 66.8067 39.0646H66.813C66.8981 39.0646 66.9816 39.0284 67.0462 38.967C67.1092 38.9039 67.1455 38.8204 67.147 38.7322C67.147 38.644 67.1139 38.5604 67.0525 38.4974C67.0241 38.4675 66.9123 38.3556 66.7326 38.1917C66.2064 37.7112 65.0924 36.791 63.5451 36C65.0924 35.2107 66.2048 34.2889 66.7326 33.8083C66.9154 33.6445 67.0241 33.5326 67.0525 33.5027C67.1139 33.4396 67.147 33.3561 67.147 33.2679C67.1455 33.1781 67.1092 33.0946 67.0462 33.0331C66.98 32.9685 66.8949 32.9339 66.8067 32.937V32.9386ZM56.7904 27.4144C56.6187 27.479 56.5336 27.6728 56.5982 27.843C56.6628 28.0132 56.8566 28.0998 57.0268 28.0337C60.3639 26.7574 63.7594 26.6755 66.5893 27.8052C64.7032 30.197 61.7221 31.8246 58.1927 32.3871C58.0115 32.4171 57.8886 32.5872 57.917 32.7669C57.9438 32.9307 58.0856 33.0473 58.2447 33.0473C58.2636 33.0473 58.281 33.0457 58.2983 33.0426C61.2762 32.5683 63.8792 31.3803 65.8267 29.6077C66.501 28.9932 67.1029 28.2984 67.6103 27.5405C67.6134 27.5373 67.6134 27.5342 67.6134 27.531C67.6134 27.5263 67.6103 27.5247 67.6055 27.5232C66.7894 27.1214 65.9212 26.8204 65.0278 26.625C62.4548 26.0641 59.6045 26.3367 56.7888 27.4144H56.7904ZM59.1617 30.4775C59.1145 30.5531 59.1019 30.6429 59.1239 30.7296C59.1444 30.8162 59.198 30.8887 59.2736 30.9344C59.3256 30.9675 59.3855 30.9832 59.4454 30.9832C59.4721 30.9832 59.4989 30.9801 59.5257 30.9722C61.4023 30.5105 63.1103 29.6156 64.4669 28.3866C64.47 28.3834 64.4732 28.3771 64.4716 28.374C64.47 28.3677 64.4669 28.3661 64.4622 28.3645C62.6722 27.9785 60.7437 28.0589 58.8892 28.5946C58.8041 28.6198 58.7332 28.6765 58.689 28.7537C58.6465 28.8325 58.6355 28.9207 58.6623 29.0058C58.6859 29.0909 58.7426 29.1618 58.8214 29.2059C58.8986 29.2485 58.9884 29.2579 59.0735 29.2327C60.3183 28.8735 61.5835 28.7301 62.8361 28.812C61.7915 29.5069 60.6239 30.0174 59.3666 30.3278C59.2799 30.3498 59.2074 30.4034 59.1617 30.479V30.4775ZM3.1985 21.7532C3.24419 21.7753 3.29304 21.7863 3.34188 21.7863C3.3797 21.7863 3.41594 21.78 3.4506 21.769C3.53569 21.739 3.60186 21.6776 3.64125 21.5988C3.64913 21.583 4.34241 20.176 5.88022 18.6161C5.8818 18.613 5.88338 18.613 5.88338 18.6098C6.46478 16.5016 7.33768 15.1938 7.34714 15.1797C7.39756 15.1072 7.41646 15.019 7.39913 14.9307C7.38338 14.8425 7.33453 14.7684 7.26048 14.7196C7.11079 14.6156 6.90281 14.655 6.80039 14.8047C6.79094 14.8188 5.90386 16.1377 5.28936 18.2711C3.74367 19.8766 3.05039 21.2978 3.04251 21.312C2.96373 21.4775 3.03306 21.676 3.1985 21.7548V21.7532ZM28.8135 2.21538C28.8829 2.27053 28.9711 2.29259 29.0593 2.28156C29.198 2.26265 32.4973 1.84511 35.9968 3.15918C35.9984 3.15918 36 3.15918 36.0015 3.15918C36.0015 3.15918 36.0047 3.15918 36.0063 3.15918C39.5058 1.84511 42.8051 2.26265 42.9438 2.28156C43.032 2.29259 43.1202 2.27053 43.1896 2.21538C43.2605 2.16339 43.3062 2.08303 43.3172 1.99637C43.3408 1.81517 43.2132 1.64815 43.032 1.62294C42.9989 1.61979 39.6381 1.20698 36 2.50687C32.3618 1.2054 29.001 1.61822 28.9679 1.62294C28.7867 1.64815 28.6607 1.81517 28.6843 1.99637C28.6954 2.0846 28.7395 2.16339 28.8104 2.21538H28.8135ZM14.9291 7.39921C14.9496 7.40393 14.97 7.40551 14.9921 7.40551C15.0583 7.40551 15.1229 7.38502 15.178 7.34721C15.1938 7.33618 16.5 6.46328 18.6082 5.88187C18.6113 5.88187 18.6129 5.8803 18.6145 5.87872C20.1759 4.33933 21.5814 3.64763 21.5971 3.64133C21.6759 3.60194 21.7374 3.53418 21.7673 3.45068C21.7957 3.36717 21.7909 3.27736 21.7515 3.19857C21.6728 3.03313 21.4742 2.96381 21.3088 3.04259C21.2946 3.04889 19.8734 3.74217 18.2678 5.28944C16.1297 5.90551 14.8156 6.78944 14.803 6.79889C14.6518 6.90288 14.6124 7.10929 14.7164 7.26055C14.7652 7.33303 14.8408 7.38187 14.9275 7.39921H14.9291ZM32.2972 0.775256C32.313 0.775256 33.8776 0.669688 36 1.22273C36 1.22273 36.0015 1.22273 36.0031 1.22273C36.0031 1.22273 36.0047 1.22273 36.0063 1.22273C38.1271 0.669688 39.6901 0.77368 39.709 0.775256C39.7972 0.783134 39.8839 0.753197 39.9517 0.694898C40.0178 0.638176 40.0588 0.556243 40.0651 0.469583C40.0793 0.286811 39.9422 0.127671 39.7594 0.113491C39.7437 0.111915 38.168 0.00162107 36.0031 0.537335C33.8382 0.00162107 32.2626 0.111915 32.2452 0.113491C32.0625 0.127671 31.927 0.286811 31.9396 0.469583C31.9459 0.557819 31.9868 0.638176 32.0546 0.694898C32.1223 0.753197 32.2074 0.783134 32.2972 0.775256ZM2.89283 25.3362C2.9338 25.3535 2.97791 25.3614 3.02046 25.3614C3.063 25.3614 3.10712 25.3535 3.14808 25.3362C3.23001 25.3031 3.29304 25.2385 3.32613 25.1566C3.3797 25.0274 4.66856 21.958 7.5567 19.5867C7.5567 19.5867 7.55827 19.5836 7.55985 19.5836V19.582V19.5788C8.17119 15.8934 10.1833 13.2416 10.2684 13.1313C10.3235 13.0604 10.3456 12.9722 10.3345 12.884C10.3235 12.7957 10.2794 12.7185 10.2085 12.665C10.0619 12.5531 9.85396 12.5799 9.74209 12.7264C9.72161 12.7516 7.68432 15.457 6.99262 19.2574C4.05407 21.7516 2.72424 24.8745 2.71163 24.9045C2.6423 25.0746 2.72266 25.2684 2.89283 25.3393V25.3362ZM58.8765 61.7364C58.7647 61.8215 56.1176 63.8336 52.4291 64.4449C52.4259 64.4449 52.4228 64.448 52.4212 64.4496C50.0404 67.3472 46.9805 68.625 46.8513 68.6786C46.6812 68.7495 46.6008 68.9449 46.6701 69.1135C46.7237 69.2411 46.8482 69.3183 46.9774 69.3183C47.0199 69.3183 47.0625 69.3089 47.1034 69.2931C47.135 69.2805 50.2405 67.9696 52.7521 65.0121C56.5619 64.3173 59.2579 62.2816 59.2831 62.2627C59.428 62.1508 59.4548 61.9412 59.3429 61.7963C59.2326 61.6513 59.0231 61.6245 58.8781 61.7364H58.8765ZM12.8823 10.3378C12.8981 10.3393 12.9123 10.3409 12.9264 10.3409C12.9989 10.3409 13.0698 10.3173 13.1297 10.2716C13.24 10.1865 15.8902 8.17284 19.5772 7.5615H19.5803C19.5803 7.5615 19.5819 7.55834 19.5835 7.55834C21.9564 4.67021 25.0241 3.38135 25.1533 3.32778C25.2353 3.29469 25.2999 3.23166 25.3345 3.14973C25.3676 3.06622 25.3676 2.97641 25.3345 2.89448C25.2636 2.72589 25.0698 2.64395 24.8997 2.71486C24.8934 2.71801 24.1024 3.04889 22.9916 3.7595C21.9989 4.39448 20.5462 5.47063 19.2526 6.99584C15.4522 7.68755 12.7468 9.72484 12.7216 9.74532C12.5767 9.85719 12.5483 10.0667 12.6602 10.2101C12.7153 10.281 12.7925 10.3252 12.8807 10.3378H12.8823ZM66.1229 18.6098C66.1229 18.6098 66.126 18.6145 66.126 18.6161C67.6638 20.1744 68.3571 21.5846 68.3634 21.5988C68.4028 21.6776 68.4706 21.739 68.5541 21.769C68.5903 21.78 68.6265 21.7863 68.6628 21.7863C68.7116 21.7863 68.7605 21.7753 68.8062 21.7532C68.885 21.7154 68.9464 21.6476 68.9763 21.5641C69.0063 21.4806 69 21.3908 68.9622 21.3104C68.9543 21.2963 68.2484 19.8624 66.7153 18.2695C66.104 16.1455 65.2137 14.8157 65.2059 14.8047C65.1554 14.7306 65.0798 14.6818 64.9931 14.666C64.9065 14.6487 64.8183 14.6676 64.7458 14.718C64.6717 14.7669 64.6229 14.8425 64.6071 14.9291C64.5898 15.0174 64.6087 15.1056 64.6591 15.1797C64.6954 15.2332 65.5509 16.5347 66.1229 18.6098ZM64.4448 19.5788C64.4448 19.5788 64.4448 19.5804 64.4448 19.582C64.4448 19.582 64.4464 19.5836 64.448 19.5851C67.344 21.9659 68.6234 25.0258 68.677 25.155C68.729 25.2826 68.8534 25.3614 68.9858 25.3614C69.0268 25.3614 69.0709 25.3535 69.1118 25.3362C69.2804 25.2669 69.3608 25.0715 69.2915 24.9029C69.2789 24.8714 67.9695 21.7658 65.0105 19.2558C64.3156 15.4444 62.2799 12.75 62.261 12.7233C62.1491 12.5799 61.9396 12.5531 61.7946 12.6634C61.6497 12.7753 61.6229 12.9848 61.7347 13.1282C61.8198 13.2401 63.8319 15.8887 64.4433 19.5757L64.4448 19.5788ZM50.4075 3.6429C50.4249 3.65078 51.8319 4.34406 53.3902 5.8803C53.3918 5.88187 53.3934 5.88345 53.3949 5.88345C55.5126 6.46643 56.8125 7.33933 56.8251 7.34721C56.8818 7.38502 56.9464 7.40551 57.0126 7.40551C57.0331 7.40551 57.0551 7.40393 57.0772 7.40078C57.1638 7.38345 57.2379 7.3346 57.2883 7.26213C57.3907 7.11086 57.3529 6.90446 57.2017 6.80047C57.189 6.79101 55.8765 5.90708 53.7353 5.28944C52.1297 3.74374 50.7085 3.05047 50.6943 3.04416C50.5304 2.96381 50.3303 3.03471 50.2515 3.19857C50.2122 3.27893 50.2074 3.36874 50.2374 3.45225C50.2673 3.53576 50.3272 3.60351 50.4075 3.6429ZM46.8513 3.32778C46.9805 3.38135 50.0483 4.67021 52.4212 7.55834C52.4228 7.55992 52.4259 7.5615 52.4291 7.5615C56.1145 8.17284 58.7647 10.1865 58.8765 10.2716C58.9348 10.3157 59.0058 10.3409 59.0798 10.3409C59.094 10.3409 59.1082 10.3409 59.1223 10.3378C59.2106 10.3267 59.2878 10.281 59.3429 10.2101C59.4548 10.0652 59.428 9.85719 59.2815 9.74532C59.2547 9.72484 56.5509 7.68755 52.7505 6.99584C50.2563 4.05729 47.1334 2.72589 47.1034 2.71486C46.9333 2.64395 46.7395 2.72589 46.6686 2.89448C46.6355 2.97641 46.6355 3.06622 46.6686 3.14973C46.7032 3.23166 46.7678 3.29469 46.8498 3.32778H46.8513ZM48.0283 17.0972C48.0898 17.1461 48.1638 17.1713 48.2363 17.1713C48.3324 17.1713 48.4285 17.1287 48.4947 17.0484C52.1092 12.5846 56.4721 11.9087 56.5163 11.9008C56.6045 11.8898 56.6817 11.8425 56.7353 11.7716C56.7888 11.7007 56.8109 11.614 56.7983 11.5258C56.7715 11.3446 56.6045 11.217 56.4217 11.2437C56.3713 11.2516 55.9033 11.3225 55.1691 11.5573C53.6171 12.0505 50.6202 13.3677 47.9795 16.6292C47.8645 16.7711 47.8865 16.9806 48.0283 17.0972ZM39.709 71.2327C39.6933 71.2327 38.105 71.332 36.0063 70.7852C36.0047 70.7852 36.0031 70.7852 36.0031 70.7852H36C33.9012 71.3304 32.313 71.2327 32.2972 71.2327C32.209 71.2264 32.1223 71.2532 32.0546 71.3115C31.9868 71.3698 31.9459 71.4502 31.9396 71.5384C31.9333 71.6266 31.9616 71.7117 32.0184 71.7795C32.0767 71.8472 32.157 71.8866 32.2452 71.8945C32.261 71.8961 33.8603 72.0016 36.0031 71.4706C37.5299 71.8488 38.7825 71.9039 39.3797 71.9039C39.6208 71.9039 39.7547 71.8945 39.7594 71.8945C39.8477 71.8866 39.928 71.8472 39.9863 71.7795C40.043 71.7117 40.073 71.6266 40.0651 71.5384C40.0588 71.4502 40.0178 71.3698 39.9517 71.3115C39.8839 71.2532 39.7972 71.2248 39.709 71.2327ZM42.9454 69.7264C42.8067 69.7437 39.5089 70.1644 36.0063 68.8488C36.0063 68.8488 36.0047 68.8456 36.0031 68.8488C36.0015 68.8472 36 68.8488 35.9984 68.8488C32.4973 70.1629 29.198 69.7437 29.0593 69.7264C28.8781 69.7012 28.7111 69.8288 28.6875 70.0116C28.6638 70.1928 28.7899 70.3598 28.9711 70.385C28.9853 70.3866 29.5115 70.4544 30.3718 70.4544C31.6875 70.4544 33.7783 70.2968 36.0031 69.5011C39.6838 70.8167 43.0021 70.3898 43.0352 70.385C43.2164 70.3614 43.344 70.1928 43.3204 70.0116C43.2967 69.8288 43.1281 69.7028 42.9469 69.7264H42.9454ZM57.0756 64.6088C56.9889 64.5914 56.8991 64.6103 56.8251 64.6608C56.7715 64.697 55.4732 65.551 53.3949 66.1245C53.3934 66.1245 53.3918 66.1277 53.3902 66.1277C51.8272 67.6686 50.4217 68.3588 50.4075 68.3651C50.3272 68.4045 50.2657 68.4722 50.2374 68.5557C50.209 68.6408 50.2137 68.729 50.2515 68.8078C50.2894 68.8882 50.3571 68.9481 50.4422 68.978C50.4769 68.9906 50.5147 68.9969 50.5509 68.9969C50.5998 68.9969 50.6486 68.9859 50.6943 68.9638C50.7085 68.9575 52.1392 68.2563 53.7353 66.7185C55.8639 66.1056 57.189 65.217 57.2017 65.2075C57.2741 65.1587 57.323 65.0815 57.3403 64.9964C57.3561 64.9081 57.3387 64.8199 57.2883 64.7474C57.2379 64.6749 57.1638 64.6261 57.0772 64.6088H57.0756ZM25.1549 68.6802C25.0257 68.6266 21.9658 67.3488 19.5851 64.4512L19.5819 64.448C19.5819 64.448 19.5803 64.4465 19.5772 64.4449C15.8886 63.8336 13.2416 61.8215 13.1297 61.7364C12.9847 61.6245 12.7752 61.6513 12.6649 61.7963C12.5546 61.9412 12.5798 62.1508 12.7248 62.2627C12.7515 62.2831 15.4459 64.3188 19.2573 65.0137C21.7642 67.968 24.8729 69.2821 24.9044 69.2947C24.9454 69.312 24.9879 69.3183 25.0304 69.3183C25.1612 69.3183 25.2841 69.2411 25.3377 69.1135C25.407 68.9449 25.3267 68.7495 25.1581 68.6802H25.1549ZM7.56142 52.4291C7.56142 52.4291 7.55985 52.4228 7.5567 52.4213C4.67014 50.0484 3.38127 46.9806 3.3277 46.8514C3.29461 46.7695 3.23001 46.7049 3.14808 46.6702C3.06615 46.6371 2.97634 46.6371 2.89441 46.6702C2.72424 46.7411 2.64388 46.9349 2.71321 47.1051C2.72581 47.135 4.05249 50.2548 6.9942 52.7521C7.6859 56.5526 9.72319 59.2563 9.74367 59.2831C9.80985 59.3682 9.90911 59.4123 10.0084 59.4123C10.0793 59.4123 10.1502 59.3903 10.2101 59.3446C10.281 59.2894 10.3251 59.2122 10.3377 59.124C10.3487 59.0358 10.3251 58.9491 10.2699 58.8782C10.1848 58.7663 8.17277 56.1161 7.56142 52.4307V52.4291ZM1.95218 43.322C1.96636 43.322 1.98054 43.322 1.9963 43.3188C2.08453 43.3078 2.16174 43.2621 2.21531 43.1912C2.26888 43.1219 2.29251 43.0337 2.28148 42.9454C2.26258 42.8068 1.84346 39.5074 3.15911 36.0079C3.15911 36.0048 3.15911 36.0016 3.15911 35.9985C1.84346 32.499 2.26258 29.198 2.28148 29.0594C2.29251 28.9712 2.26888 28.8845 2.21531 28.8136C2.16174 28.7427 2.08296 28.697 1.9963 28.686C1.8151 28.6623 1.64651 28.79 1.62287 28.9712C1.6213 28.979 1.51258 29.8267 1.57403 31.1487C1.6276 32.3241 1.83401 34.1203 2.5068 36.0032C1.83401 37.8861 1.6276 39.6823 1.57403 40.8577C1.51258 42.1797 1.6213 43.0274 1.62287 43.0337C1.64493 43.2007 1.78831 43.322 1.95218 43.322ZM5.88338 53.3966C5.88338 53.3966 5.88022 53.3919 5.88022 53.3903C4.34399 51.832 3.64913 50.4218 3.64125 50.4076C3.60186 50.3273 3.53569 50.2674 3.4506 50.2374C3.36709 50.2091 3.27728 50.2138 3.1985 50.2516C3.03306 50.3304 2.96373 50.5289 3.04251 50.6944C3.05039 50.7086 3.74209 52.1298 5.28936 53.7353C5.90386 55.8703 6.79094 57.1875 6.80039 57.2002C6.86499 57.2931 6.96741 57.3451 7.07298 57.3451C7.13758 57.3451 7.20375 57.3262 7.26048 57.2868C7.33453 57.238 7.38338 57.1639 7.39913 57.0757C7.41646 56.989 7.39756 56.8992 7.34714 56.8267C7.33768 56.8125 6.46478 55.5095 5.88338 53.3966ZM21.5971 68.3635C21.5845 68.3572 20.1791 67.6686 18.6145 66.1261C18.6129 66.1245 18.6113 66.1229 18.6097 66.1229C16.5394 65.551 15.2347 64.6954 15.1796 64.6592C15.1055 64.6088 15.0173 64.5883 14.9291 64.6056C14.8424 64.6229 14.7684 64.6718 14.7179 64.7443C14.6675 64.8183 14.6502 64.905 14.6659 64.9932C14.6833 65.0799 14.7321 65.1555 14.8046 65.2059C14.8172 65.2138 16.1455 66.104 18.271 66.7154C19.8655 68.2532 21.2978 68.9544 21.3104 68.9607C21.3561 68.9827 21.4049 68.9937 21.4538 68.9937C21.4916 68.9937 21.5278 68.9874 21.564 68.9748C21.6476 68.9449 21.7137 68.885 21.7531 68.8047C21.7925 68.7259 21.7972 68.6377 21.7673 68.5526C21.7374 68.4691 21.6775 68.3997 21.5971 68.3619V68.3635ZM0.775182 32.2973C0.781485 32.2091 0.753124 32.1224 0.694825 32.0547C0.636527 31.9885 0.55617 31.9475 0.46951 31.9412C0.286737 31.927 0.126023 32.0641 0.111842 32.2469C0.111842 32.2611 -2.75057e-05 33.8383 0.537262 36.0016C-2.75057e-05 38.1681 0.111842 39.7437 0.111842 39.7595C0.126023 39.9328 0.270981 40.0652 0.4443 40.0652C0.452178 40.0652 0.461632 40.0652 0.46951 40.0652C0.557745 40.0589 0.636527 40.0195 0.694825 39.9517C0.753124 39.884 0.781485 39.7973 0.775182 39.7091C0.773607 39.6933 0.671191 38.124 1.22109 36.0063C1.22109 36.0048 1.22109 36.0016 1.22109 36C0.671191 33.8824 0.773607 32.3131 0.775182 32.2973ZM36.0142 61.9192C36.0142 61.9192 36.0079 61.9113 36.0031 61.9113C35.9968 61.9113 35.9921 61.9144 35.9905 61.9192C34.9475 64.6891 33.0614 66.561 33.0441 66.5799C32.9779 66.6413 32.9417 66.7233 32.9401 66.8083C32.9385 66.8966 32.9732 66.9817 33.0378 67.0494C33.0992 67.1124 33.1827 67.1487 33.271 67.1487H33.2757C33.3624 67.1487 33.4443 67.1156 33.5073 67.0541C33.5357 67.0274 33.6476 66.9171 33.8114 66.7359C34.292 66.2096 35.2137 65.0972 36.0031 63.5484C36.7925 65.0956 37.7143 66.208 38.1964 66.7359C38.3587 66.9155 38.4706 67.0274 38.5005 67.0541C38.5635 67.1172 38.6486 67.1518 38.7368 67.1487C38.8251 67.1487 38.907 67.1124 38.97 67.0494C39.0346 66.9817 39.0693 66.8966 39.0677 66.8083C39.0646 66.7233 39.0283 66.6413 38.9637 66.5799C38.9448 66.561 37.0619 64.6954 36.0173 61.9192H36.0142ZM56.5178 60.1056C56.4737 60.0993 52.1155 59.4281 48.4947 54.9596C48.3797 54.8178 48.1701 54.7942 48.0283 54.9092C47.885 55.0242 47.8645 55.2353 47.9779 55.3771C50.6202 58.6371 53.6171 59.9559 55.1675 60.4507C55.9049 60.6854 56.3713 60.7548 56.4217 60.7627C56.4375 60.7642 56.4532 60.7658 56.469 60.7658C56.6313 60.7658 56.7731 60.6461 56.7983 60.4806C56.8093 60.394 56.7888 60.3057 56.7337 60.2332C56.6801 60.1623 56.6045 60.1166 56.5163 60.104L56.5178 60.1056ZM43.6402 7.54101C43.6402 7.54101 43.6371 7.53313 43.6308 7.53313C43.6276 7.53156 43.6213 7.53313 43.6181 7.53628C42.3892 8.89448 41.4958 10.604 41.0325 12.479C41.0105 12.5641 41.0231 12.6539 41.0704 12.7296C41.116 12.8052 41.1885 12.8588 41.2752 12.8808C41.3618 12.9029 41.4501 12.8887 41.5273 12.843C41.6029 12.7957 41.6565 12.7233 41.6785 12.6382C41.9889 11.3777 42.4979 10.2117 43.1943 9.16706C43.2747 10.4197 43.1329 11.6865 42.7736 12.9312C42.7484 13.0163 42.7579 13.1046 42.8004 13.1833C42.8445 13.2606 42.9138 13.3173 42.9989 13.3425C43.0304 13.3519 43.0604 13.3551 43.0935 13.3551C43.1486 13.3551 43.2022 13.3409 43.2526 13.3141C43.3314 13.2716 43.3865 13.2007 43.4117 13.1156C43.949 11.2595 44.0294 9.3325 43.6418 7.54101H43.6402ZM44.1617 56.6014C43.99 56.666 43.9049 56.8582 43.9695 57.03C45.2473 60.3672 45.3277 63.7627 44.1996 66.5925C41.8062 64.7065 40.1785 61.7254 39.6176 58.1959C39.5877 58.0148 39.4175 57.8919 39.2363 57.9202C39.0567 57.9486 38.9322 58.1187 38.9606 58.2999C39.4348 61.2795 40.6244 63.8824 42.397 65.8299C43.0115 66.5042 43.7064 67.1046 44.4627 67.6135C44.4643 67.6151 44.4674 67.6151 44.4706 67.6151C44.4706 67.6151 44.4721 67.6151 44.4737 67.6151C44.4769 67.6151 44.4784 67.6119 44.4816 67.6088C44.8818 66.791 45.1843 65.9244 45.3781 65.0295C45.9406 62.4565 45.668 59.6077 44.5903 56.7905C44.5241 56.6203 44.3319 56.5352 44.1617 56.5998V56.6014ZM41.677 59.3682C41.6549 59.2816 41.6013 59.2091 41.5257 59.1634C41.4501 59.1161 41.3618 59.1035 41.2736 59.1256C41.1885 59.1461 41.1145 59.1996 41.0688 59.2753C41.0231 59.3509 41.0089 59.4407 41.031 59.5274C41.4926 61.4039 42.3892 63.1119 43.6181 64.4685C43.6197 64.4717 43.6244 64.4733 43.6276 64.4733C43.6276 64.4733 43.6292 64.4733 43.6308 64.4733C43.6339 64.4717 43.6386 64.4685 43.6386 64.4638C44.0247 62.6739 43.9459 60.7453 43.4086 58.8908C43.3834 58.8041 43.3282 58.7348 43.2494 58.6907C43.1722 58.6482 43.0824 58.6371 42.9973 58.6639C42.9123 58.6875 42.8414 58.7443 42.7988 58.823C42.7563 58.9003 42.7468 58.9901 42.7705 59.0752C43.1313 60.3199 43.2731 61.5851 43.1927 62.8378C42.4963 61.7931 41.9858 60.6271 41.6754 59.3682H41.677ZM36.9627 13.6151C36.98 13.6182 36.9989 13.6198 37.0163 13.6198C37.1754 13.6198 37.3172 13.5032 37.344 13.3393C38.2421 7.67021 41.6833 4.90026 41.7179 4.87189C41.7873 4.81832 41.8314 4.73954 41.8424 4.65288C41.8519 4.56465 41.8282 4.47641 41.7731 4.40551C41.6596 4.26213 41.4501 4.23849 41.3067 4.35036C41.2657 4.38187 40.8939 4.67967 40.3771 5.24847C39.2804 6.45225 37.344 9.08986 36.6869 13.2353C36.6586 13.4165 36.7815 13.5867 36.9627 13.6151ZM39.2363 14.0846C39.4175 14.113 39.5877 13.9901 39.6176 13.8089C40.1801 10.281 41.8077 7.29836 44.1996 5.41234C45.3277 8.24217 45.2473 11.6377 43.9695 14.9748C43.9049 15.145 43.99 15.3388 44.1617 15.4034C44.1996 15.4176 44.2405 15.4239 44.2799 15.4239C44.4123 15.4239 44.5399 15.3435 44.5903 15.2112C45.668 12.394 45.9406 9.54679 45.3781 6.97221C45.1843 6.07883 44.8818 5.21223 44.4816 4.39448V4.3929C44.4816 4.3929 44.4784 4.39133 44.4784 4.38975C44.4784 4.38975 44.4769 4.38818 44.4753 4.38818C44.4753 4.38818 44.4737 4.38818 44.4721 4.38818C44.4706 4.38818 44.4706 4.38818 44.469 4.38818C44.469 4.38818 44.4674 4.38818 44.4658 4.38975C43.7095 4.8971 43.0147 5.49742 42.4002 6.17336C40.6276 8.12084 39.438 10.7238 38.9637 13.7033C38.9354 13.8829 39.0598 14.0547 39.2395 14.083L39.2363 14.0846ZM23.9779 54.9108C23.8361 54.7957 23.625 54.8178 23.51 54.9596C19.8907 59.4281 15.531 60.0993 15.4868 60.1056C15.4002 60.1182 15.323 60.1639 15.2694 60.2348C15.2158 60.3073 15.1938 60.394 15.2048 60.4838C15.23 60.6492 15.3718 60.7674 15.5341 60.7674C15.5499 60.7674 15.5656 60.7658 15.5814 60.7642C15.6318 60.7579 16.0982 60.687 16.8356 60.4523C18.3876 59.9575 21.3844 58.6403 24.0252 55.3787C24.1402 55.2369 24.1181 55.0274 23.9763 54.9123L23.9779 54.9108ZM23.0546 58.4528C23.0546 58.448 23.053 58.4433 23.0483 58.4402C23.0436 58.437 23.0388 58.4386 23.0341 58.4402C20.7463 60.3167 18.178 60.9958 18.1528 61.0006C18.0646 61.0226 17.9921 61.0746 17.948 61.1487C17.9023 61.2243 17.8897 61.3157 17.9117 61.4055C17.9574 61.582 18.1386 61.6907 18.3182 61.6434C18.4711 61.6056 18.6318 61.5552 18.7389 61.5205C19.4196 61.3047 20.7747 60.8005 22.2305 59.8567C22.1423 61.5899 22.3834 63.0158 22.5362 63.7138C22.5709 63.8729 22.6071 64.0242 22.6386 64.1424C22.6796 64.2873 22.8151 64.3834 22.9585 64.3834C22.9884 64.3834 23.0199 64.3787 23.0499 64.3708C23.1381 64.3456 23.2122 64.2889 23.2531 64.2117C23.2941 64.1361 23.3035 64.0478 23.2783 63.9596C23.2705 63.936 22.5709 61.385 23.0546 58.4528ZM25.522 16.1566C25.5614 16.1566 25.6008 16.1487 25.6402 16.1345C25.8104 16.0699 25.897 15.8761 25.8309 15.7059C23.781 10.363 25.3692 6.22536 25.3865 6.18439C25.4196 6.10246 25.418 6.01265 25.3834 5.93229C25.3487 5.85036 25.2841 5.78576 25.2022 5.75267C25.032 5.68492 24.8382 5.76843 24.7705 5.9386C24.75 5.98587 24.5782 6.42547 24.4128 7.18019C24.0661 8.77 23.7069 12.0237 25.2116 15.9423C25.2636 16.0746 25.3897 16.155 25.522 16.155V16.1566ZM25.6402 55.8703C25.4685 55.8041 25.2762 55.8908 25.2101 56.0625C23.7069 59.9811 24.0661 63.2348 24.4128 64.8246C24.5767 65.5746 24.75 66.019 24.7689 66.0662C24.8209 66.1954 24.9469 66.2742 25.0793 66.2742C25.1202 66.2742 25.1612 66.2679 25.2006 66.2506C25.2841 66.2175 25.3487 66.1545 25.3834 66.0725C25.418 65.9922 25.4196 65.9008 25.385 65.8188C25.3692 65.7779 23.781 61.6403 25.8309 56.2989C25.8955 56.1271 25.8104 55.9349 25.6386 55.8703H25.6402ZM41.7164 67.1329C41.7069 67.125 40.8293 66.4176 39.854 65.0137C38.9637 63.7343 37.8056 61.5946 37.3424 58.6655C37.314 58.4843 37.1439 58.3614 36.9627 58.3898C36.7815 58.4181 36.6586 58.5899 36.6869 58.7695C37.344 62.9165 39.2804 65.5541 40.3771 66.7579C40.9191 67.3535 41.2909 67.6419 41.3067 67.6545C41.3666 67.7033 41.4406 67.7254 41.5115 67.7254C41.6108 67.7254 41.7069 67.6828 41.7731 67.5993C41.8282 67.5284 41.8534 67.4417 41.8424 67.3535C41.8314 67.2669 41.7873 67.1865 41.7179 67.1345L41.7164 67.1329ZM35.0404 58.3882C34.8608 58.3598 34.6906 58.4843 34.6607 58.6639C34.1959 61.593 33.0378 63.7327 32.1491 65.0121C31.1738 66.4144 30.2962 67.125 30.2867 67.1313C30.2158 67.1865 30.1717 67.2637 30.1623 67.3519C30.1512 67.4386 30.1749 67.5268 30.2316 67.5977C30.2962 67.6797 30.3939 67.7238 30.4931 67.7238C30.564 67.7238 30.6365 67.7002 30.698 67.6529C30.7137 67.6403 31.0856 67.3519 31.6276 66.7548C32.7242 65.551 34.6607 62.9134 35.3177 58.7679C35.3461 58.5883 35.2216 58.4165 35.042 58.3882H35.0404ZM68.7116 43.1298C68.7841 42.5074 69.0614 39.2931 67.5378 36.0016C69.0614 32.7101 68.7841 29.4958 68.7116 28.8735C69.1764 28.0951 69.7185 27.4034 70.3282 26.8157C70.3314 26.8125 70.333 26.8078 70.3314 26.8031C70.3298 26.7999 70.3267 26.7952 70.3219 26.7952C69.501 26.5904 68.6848 26.2627 67.8923 25.8199C67.6449 25.2448 66.2789 22.3236 63.3119 20.2343C62.9858 16.6182 61.1392 13.9759 60.7642 13.4748C60.7783 12.5673 60.9028 11.6959 61.1376 10.8829C61.1376 10.8798 61.1376 10.8735 61.1344 10.8703C61.1313 10.8672 61.125 10.8672 61.1218 10.8672C60.3088 11.1004 59.4375 11.2264 58.5299 11.239C58.0273 10.864 55.3834 9.01738 51.7689 8.6928C49.6812 5.72431 46.76 4.35824 46.1833 4.11086C45.7421 3.3199 45.4144 2.50215 45.2095 1.68124C45.2095 1.67494 45.2048 1.67179 45.1985 1.67179C45.1985 1.67179 45.1906 1.67337 45.189 1.67652C44.6013 2.28471 43.9096 2.8283 43.1313 3.29311C42.5073 3.22063 39.2946 2.94332 36.0031 4.46696C32.7101 2.94332 29.4973 3.21906 28.875 3.29311C28.0966 2.8283 27.4033 2.28629 26.8172 1.67652C26.814 1.67337 26.8077 1.67179 26.8046 1.67336C26.7999 1.67494 26.7967 1.67809 26.7951 1.68282C26.5903 2.50372 26.2626 3.3199 25.8214 4.11244C25.2463 4.35981 22.3251 5.72746 20.2358 8.6928C16.6213 9.01738 13.9774 10.8656 13.4763 11.2406C12.5688 11.2264 11.6975 11.1019 10.8844 10.8687C10.8813 10.8672 10.875 10.8687 10.8718 10.8719C10.8687 10.875 10.8687 10.8798 10.8687 10.8845C11.1019 11.6975 11.2263 12.5688 11.2405 13.4748C10.8655 13.979 9.01888 16.6214 8.69272 20.2359C5.72739 22.3236 4.35974 25.2448 4.11237 25.8215C3.3214 26.2627 2.50365 26.5904 1.68275 26.7952C1.67959 26.7968 1.67487 26.7999 1.67329 26.8047C1.67329 26.8094 1.67329 26.8141 1.67644 26.8173C2.28621 27.405 2.8298 28.0967 3.29462 28.875C3.22056 29.499 2.94325 32.7117 4.46846 36.0032C2.94483 39.2947 3.22056 42.509 3.29462 43.1313C2.8298 43.9097 2.28621 44.6014 1.67644 45.1891C1.67487 45.1907 1.67329 45.1954 1.67329 45.1986C1.67329 45.2049 1.67644 45.2096 1.68275 45.2112C2.50207 45.4144 3.31983 45.7437 4.11079 46.1849C4.35974 46.7616 5.72581 49.6828 8.69272 51.7705C9.0173 55.385 10.8655 58.0289 11.2389 58.5316C11.2263 59.4391 11.1003 60.3104 10.8687 61.1235C10.8671 61.1266 10.8687 61.1329 10.8718 61.1361C10.875 61.1392 10.8797 61.1408 10.8829 61.1392C11.6975 60.9045 12.5688 60.78 13.4732 60.7658C13.9758 61.1408 16.6181 62.989 20.2342 63.3136C22.3235 66.2805 25.2447 67.6466 25.8214 67.894C26.2626 68.6865 26.5903 69.5027 26.7936 70.3236C26.7951 70.3283 26.7983 70.3315 26.803 70.333C26.8077 70.3346 26.8125 70.333 26.8156 70.3299C27.4033 69.7217 28.095 69.1781 28.8734 68.7133C29.4973 68.7858 32.7101 69.0631 36.0015 67.5394C39.293 69.0631 42.5073 68.7858 43.1297 68.7133C43.9081 69.1781 44.5998 69.7201 45.1875 70.3299C45.189 70.3315 45.1938 70.3346 45.1969 70.3346C45.2032 70.3346 45.2064 70.3299 45.2095 70.3252C45.4128 69.5058 45.7421 68.6881 46.1817 67.8955C46.7584 67.6482 49.6796 66.2821 51.7689 63.3152C55.385 62.989 58.0257 61.1424 58.5299 60.7674C59.4359 60.7816 60.3072 60.906 61.1202 61.1392C61.125 61.1408 61.1297 61.1392 61.1329 61.1361C61.136 61.1329 61.1376 61.1282 61.136 61.125C60.9028 60.3104 60.7768 59.4391 60.7642 58.5331C61.1376 58.0305 62.9858 55.3882 63.3104 51.7721C66.2789 49.6828 67.6434 46.7616 67.8923 46.1865C68.6833 45.7437 69.501 45.4176 70.3204 45.2112C70.3267 45.2112 70.3298 45.2065 70.3298 45.2002C70.3298 45.197 70.3298 45.1923 70.3267 45.1907C69.7185 44.6046 69.1733 43.9113 68.7085 43.1329L68.7116 43.1298ZM67.4653 45.6618C67.3991 45.6996 67.3471 45.7595 67.3204 45.832C67.2825 45.9281 66.939 46.7978 66.1985 47.9087C65.2374 49.3472 64.0667 50.5289 62.7195 51.4223C62.7164 51.4239 62.7148 51.4286 62.7132 51.4333C62.6139 53.0468 62.1759 54.6508 61.4102 56.2012C60.8209 57.3955 60.2363 58.1313 60.1733 58.2117C60.1244 58.27 60.0977 58.3456 60.0977 58.4228C60.1008 59.0436 60.1575 59.6644 60.2647 60.2663C59.6612 60.1608 59.0404 60.104 58.4196 60.1009H58.418C58.3424 60.1009 58.2684 60.1277 58.2085 60.1765C58.1281 60.2411 57.3939 60.8225 56.1996 61.4134C54.6476 62.1791 53.0436 62.6187 51.4301 62.718C51.4254 62.718 51.4222 62.7196 51.4191 62.7243C50.5273 64.0715 49.344 65.2406 47.9054 66.2017C46.7962 66.9423 45.9249 67.2873 45.8303 67.3236C45.7579 67.3519 45.698 67.4039 45.6586 67.4685C45.3513 68.009 45.0898 68.573 44.8818 69.1482C44.4123 68.7542 43.9018 68.395 43.366 68.083C43.2999 68.0436 43.2227 68.0295 43.147 68.0421C42.9989 68.0657 39.501 68.5935 36.0063 66.854C36.0031 66.854 36.0015 66.8525 36 66.8525C36 66.8525 35.9952 66.8525 35.9937 66.854C32.4973 68.5935 28.9994 68.0657 28.8513 68.0421C28.7773 68.0295 28.6985 68.0452 28.6323 68.083C28.0966 68.395 27.5893 68.7527 27.1181 69.1482C26.9086 68.573 26.647 68.009 26.3382 67.4685C26.302 67.4024 26.2405 67.3519 26.168 67.3236C26.0735 67.2873 25.2022 66.9438 24.0929 66.2017C22.6544 65.2406 21.4711 64.0715 20.5777 62.7243C20.5761 62.7212 20.5714 62.718 20.5682 62.718C18.9548 62.6187 17.3508 62.1791 15.7988 61.4134C14.6029 60.8225 13.8687 60.2411 13.7899 60.1765C13.7316 60.1292 13.656 60.1025 13.5803 60.1025H13.5788C12.9564 60.1056 12.3372 60.1608 11.7337 60.2679C11.8408 59.6644 11.896 59.0452 11.8991 58.4228C11.8991 58.3472 11.8723 58.2716 11.8251 58.2117C11.7305 58.0967 9.52308 55.3283 9.28359 51.4333C9.28359 51.4302 9.28201 51.427 9.27728 51.4239C6.02361 49.2669 4.73159 45.9722 4.67802 45.8336C4.65123 45.7611 4.59924 45.7012 4.53306 45.6634C3.99262 45.3561 3.42854 45.093 2.85344 44.8834C3.24735 44.4155 3.60501 43.905 3.91856 43.3693C3.95796 43.3031 3.97214 43.2243 3.95953 43.1503C3.9359 43.0021 3.40806 39.5027 5.14756 36.0079C5.14913 36.0048 5.14913 36 5.14756 35.9969C3.40649 32.5021 3.9359 29.0027 3.95953 28.8561C3.97214 28.7789 3.95796 28.7017 3.91856 28.6355C3.60501 28.0998 3.24735 27.5909 2.85344 27.1214C3.43012 26.9118 3.99419 26.6503 4.53306 26.343C4.59924 26.3052 4.65123 26.2437 4.67802 26.1728C4.73159 26.0326 6.02203 22.7395 9.27728 20.5825C9.28043 20.5794 9.28359 20.5762 9.28359 20.5715C9.52466 16.6749 11.7321 13.9097 11.8251 13.7931C11.8723 13.7332 11.8991 13.6592 11.8991 13.582C11.896 12.9612 11.8408 12.3404 11.7337 11.7369C12.3356 11.8441 12.9564 11.9008 13.5788 11.9039H13.5803C13.656 11.9039 13.73 11.8771 13.7899 11.8299C13.9049 11.7353 16.6717 9.52946 20.5682 9.28839C20.5714 9.28839 20.5746 9.28681 20.5777 9.28208C22.7347 6.02683 26.0294 4.73639 26.168 4.68282C26.2405 4.65446 26.3004 4.60404 26.3382 4.53786C26.647 3.99742 26.9086 3.43334 27.1181 2.85824C27.5861 3.25215 28.0966 3.60981 28.6323 3.92336C28.6985 3.96276 28.7757 3.97694 28.8513 3.96433C28.9994 3.9407 32.4989 3.41286 35.9937 5.15236C35.9952 5.15236 35.9968 5.15393 36 5.15393C36.0031 5.15393 36.0031 5.15393 36.0063 5.15236C39.4994 3.41286 42.9989 3.9407 43.147 3.96433C43.2227 3.97694 43.3014 3.96118 43.366 3.92336C43.9033 3.60981 44.4123 3.25215 44.8818 2.85824C45.0898 3.43334 45.3513 3.99742 45.6586 4.53786C45.698 4.60404 45.7579 4.65446 45.8303 4.68282C45.969 4.73639 49.2636 6.02841 51.4191 9.28208C51.4222 9.28523 51.4254 9.28839 51.4301 9.28839C55.3251 9.52946 58.0935 11.7369 58.2085 11.8299C58.2684 11.8771 58.3424 11.9039 58.418 11.9039H58.4196C59.0404 11.9008 59.6612 11.8456 60.2647 11.7369C60.1575 12.3388 60.1008 12.9596 60.0977 13.582C60.0977 13.6592 60.1244 13.7332 60.1733 13.7931C60.2379 13.8735 60.8209 14.6077 61.4102 15.802C62.1759 17.354 62.6139 18.9596 62.7132 20.5715C62.7132 20.5762 62.7164 20.5794 62.7195 20.5825C65.97 22.7348 67.2668 26.0326 67.3204 26.1728C67.3471 26.2437 67.3991 26.3052 67.4653 26.3414C68.0042 26.6487 68.5683 26.9118 69.1449 27.1214C68.7494 27.5909 68.3918 28.0998 68.0798 28.6355C68.0404 28.7017 68.0262 28.7789 68.0388 28.8546C68.0625 29.0027 68.5919 32.499 66.8508 35.9953C66.8477 36 66.8477 36.0048 66.8508 36.0079C68.5919 39.5042 68.0625 43.0006 68.0388 43.1487C68.0262 43.2243 68.042 43.3031 68.0798 43.3677C68.3918 43.9034 68.7494 44.4123 69.1449 44.8834C68.5698 45.0914 68.0042 45.353 67.4653 45.6602V45.6618ZM70.3802 28.9696C70.3566 28.7884 70.188 28.6623 70.0068 28.686C69.8256 28.7096 69.698 28.8766 69.7216 29.0578C69.7405 29.1965 70.1596 32.4943 68.844 35.9969C68.844 36 68.844 36.0032 68.844 36.0063C70.1596 39.509 69.7405 42.8068 69.7216 42.9454C69.698 43.1266 69.8256 43.2952 70.0068 43.3188C70.021 43.3204 70.0367 43.3204 70.0509 43.3204C70.2148 43.3204 70.3582 43.2007 70.3818 43.0337C70.385 43.0006 70.8119 39.6776 69.4963 36.0016C70.8104 32.3257 70.385 29.0027 70.3818 28.9696H70.3802ZM71.4658 36.0016C71.9968 33.8603 71.8913 32.2611 71.8897 32.2453C71.8834 32.1571 71.8424 32.0767 71.7747 32.0184C71.7069 31.9617 71.6218 31.9333 71.5336 31.9396C71.4454 31.9459 71.365 31.9853 71.3067 32.0531C71.2484 32.1208 71.22 32.2075 71.2279 32.2973C71.2279 32.3115 71.3272 33.8997 70.7804 35.9985C70.7804 36.0016 70.7804 36.0032 70.7804 36.0048C71.3256 38.1035 71.2279 39.6917 71.2279 39.7075C71.22 39.7973 71.2484 39.8824 71.3067 39.9502C71.365 40.0179 71.4454 40.0589 71.5336 40.0652C71.5415 40.0652 71.5509 40.0652 71.5588 40.0652C71.6376 40.0652 71.7148 40.0368 71.7747 39.9848C71.8424 39.9265 71.8834 39.8462 71.8897 39.7579C71.8913 39.7422 71.9968 38.1445 71.4658 36.0016ZM32.7668 57.9218C32.5856 57.8919 32.4154 58.0148 32.3855 58.1975C31.823 61.7254 30.1954 64.7065 27.8035 66.5941C26.6754 63.7627 26.7557 60.3672 28.0336 57.0316C28.0982 56.8598 28.0115 56.6676 27.8414 56.603C27.6712 56.5368 27.479 56.6235 27.4128 56.7936C26.3351 59.6109 26.0625 62.4596 26.625 65.0326C26.8204 65.926 27.1213 66.7942 27.5215 67.6119C27.5247 67.6151 27.5278 67.6182 27.5294 67.6182C27.531 67.6182 27.5325 67.6182 27.5325 67.6182C27.5357 67.6182 27.5388 67.6182 27.5404 67.6166C28.2967 67.1077 28.9916 66.5074 29.6061 65.833C31.3786 63.8855 32.5683 61.2826 33.0425 58.3031C33.0709 58.1235 32.9464 57.9517 32.7668 57.9234V57.9218ZM30.2867 4.87189C30.3214 4.90026 33.7626 7.67494 34.6607 13.3393C34.6875 13.5032 34.8293 13.6198 34.99 13.6198C35.0073 13.6198 35.0247 13.6182 35.042 13.6151C35.2216 13.5867 35.3461 13.4165 35.3177 13.2353C34.6607 9.08986 32.7242 6.45225 31.6276 5.24847C31.1108 4.67967 30.7389 4.38187 30.698 4.35036C30.5546 4.23849 30.345 4.26213 30.2316 4.40551C30.1749 4.47641 30.1512 4.56307 30.1623 4.65288C30.1717 4.74112 30.2158 4.81832 30.2867 4.87189ZM27.7248 15.427C27.7642 15.427 27.8035 15.4192 27.8429 15.405C28.0147 15.3404 28.0998 15.1482 28.0352 14.9764C26.7573 11.6392 26.6754 8.24374 27.8051 5.41391C30.1985 7.29994 31.8261 10.281 32.3871 13.8104C32.417 13.9916 32.5872 14.1145 32.7684 14.0862C32.948 14.0578 33.0725 13.8877 33.0441 13.7065C32.5683 10.7269 31.3802 8.124 29.6076 6.17652C28.9916 5.50057 28.2967 4.90026 27.542 4.3929C27.5404 4.3929 27.5388 4.39133 27.5388 4.39133H27.5357H27.5325C27.5325 4.39133 27.5294 4.39133 27.5294 4.3929C27.5294 4.3929 27.5278 4.39448 27.5262 4.39605V4.39763C27.1244 5.21538 26.8219 6.08198 26.6281 6.97536C26.0656 9.54836 26.3382 12.3971 27.4159 15.2143C27.4664 15.3467 27.594 15.427 27.7263 15.427H27.7248ZM35.9905 10.0872C35.9905 10.0872 35.9968 10.0951 36.0031 10.0951C36.0079 10.0951 36.0126 10.092 36.0142 10.0872C37.0635 7.30467 38.9417 5.44857 38.9622 5.42809C39.0268 5.36507 39.0646 5.28313 39.0661 5.19805C39.0677 5.10981 39.0331 5.02473 38.9685 4.95855C38.8408 4.82778 38.6313 4.82463 38.4989 4.95225C38.4784 4.97273 38.3666 5.08145 38.1948 5.2721C37.7143 5.79994 36.7909 6.91391 36.0031 8.4596C35.2137 6.91391 34.292 5.79994 33.8098 5.2721C33.6365 5.08145 33.5262 4.97273 33.5058 4.95225C33.375 4.8262 33.1638 4.82778 33.0362 4.95855C32.9716 5.02473 32.9369 5.10981 32.9385 5.19805C32.9417 5.28471 32.9779 5.36507 33.0441 5.42809C33.0614 5.447 34.9443 7.30939 35.9905 10.0872ZM29.2059 58.823C29.1617 58.7458 29.0924 58.6891 29.0073 58.6639C28.8309 58.6135 28.6465 58.7143 28.5961 58.8908C28.0588 60.7469 27.9784 62.6739 28.3645 64.4654C28.3645 64.4701 28.3692 64.4733 28.3739 64.4748C28.3755 64.4748 28.3755 64.4748 28.3771 64.4748C28.3818 64.4748 28.385 64.4733 28.3865 64.4701C29.6155 63.1135 30.5105 61.4039 30.9737 59.5274C30.9942 59.4423 30.98 59.3525 30.9359 59.2768C30.8886 59.2012 30.8161 59.1476 30.7295 59.1256C30.6444 59.1051 30.5546 59.1177 30.4774 59.1634C30.4018 59.2107 30.3482 59.2831 30.3277 59.3682C30.0173 60.6271 29.5084 61.7947 28.8119 62.8393C28.7316 61.5867 28.8734 60.3199 29.2326 59.0752C29.2579 58.9901 29.2484 58.9018 29.2059 58.823ZM30.9737 12.479C30.5105 10.6025 29.6155 8.89448 28.3865 7.53628C28.3834 7.53313 28.3786 7.53156 28.3739 7.53313C28.3692 7.53313 28.366 7.53786 28.3645 7.54101C27.98 9.3325 28.0588 11.2595 28.5961 13.1156C28.6197 13.2007 28.6764 13.2716 28.7536 13.3141C28.8041 13.3425 28.8592 13.3551 28.9144 13.3551C28.9459 13.3551 28.9774 13.3519 29.0073 13.3425C29.0924 13.3173 29.1633 13.2606 29.2059 13.1833C29.25 13.1046 29.2594 13.0163 29.2342 12.9312C28.875 11.6849 28.7316 10.4197 28.8135 9.16706C29.5084 10.2117 30.0189 11.3792 30.3293 12.6382C30.3498 12.7233 30.4033 12.7957 30.479 12.843C30.5546 12.8887 30.6444 12.9029 30.7311 12.8808C30.8177 12.8588 30.8902 12.8052 30.9359 12.7296C30.9832 12.6539 30.9958 12.5641 30.9737 12.479ZM22.292 53.8346C22.407 53.6928 22.385 53.4832 22.2431 53.3682C22.1013 53.2516 21.8918 53.2737 21.7752 53.4155C19.5236 56.1902 16.6229 57.958 13.6087 58.3961C14.0451 55.3803 15.813 52.4811 18.5877 50.2296C18.7311 50.113 18.7515 49.9034 18.6365 49.7616C18.5215 49.6182 18.3119 49.5977 18.1686 49.7128C15.8272 51.6114 14.1665 53.9433 13.366 56.4533C13.0887 57.3246 12.9154 58.2259 12.854 59.1334V59.1382C12.854 59.1382 12.854 59.1413 12.8571 59.1429V59.1461H12.8587V59.1476C12.8587 59.1476 12.8618 59.1492 12.865 59.1492H12.8666C13.7757 59.0878 14.677 58.916 15.5483 58.6371C18.0567 57.8383 20.3871 56.1776 22.2888 53.8346H22.292ZM19.8844 18.145C18.5467 16.7506 16.9175 15.7185 15.1733 15.1576H15.1701H15.167C15.167 15.1576 15.1638 15.1576 15.1638 15.1592L15.1607 15.1608V15.1639H15.1575C15.1575 15.1639 15.1575 15.1671 15.1575 15.1686C15.1575 15.1686 15.1575 15.1734 15.1575 15.1749C15.7185 16.9192 16.7521 18.5484 18.1434 19.8861C18.2064 19.946 18.2883 19.979 18.3734 19.979H18.3813C18.4695 19.9775 18.5514 19.9412 18.6145 19.8766C18.6759 19.8136 18.7074 19.7285 18.7059 19.6403C18.7043 19.552 18.668 19.4685 18.6034 19.4071C17.6691 18.509 16.9128 17.4832 16.3566 16.3582C17.48 16.916 18.5058 17.6707 19.4039 18.6051C19.4653 18.6681 19.5472 18.7059 19.6371 18.7075C19.7269 18.7091 19.8104 18.6776 19.8734 18.6161C19.938 18.5531 19.9742 18.4712 19.9758 18.3829C19.9774 18.2931 19.9443 18.2096 19.8829 18.145H19.8844ZM15.1607 56.8441C15.1607 56.8441 15.1623 56.8472 15.1638 56.8472C15.1638 56.8472 15.1654 56.8488 15.167 56.8488H15.1701H15.1733C16.9175 56.2879 18.5467 55.2558 19.8844 53.8614C19.9475 53.7984 19.979 53.7149 19.9774 53.625C19.9758 53.5352 19.9396 53.4533 19.8765 53.3919C19.8119 53.3304 19.7269 53.2973 19.6386 53.3005C19.5504 53.302 19.4685 53.3383 19.407 53.4029C18.5073 54.3372 17.4816 55.0935 16.3582 55.6482C16.9144 54.5247 17.6707 53.499 18.605 52.6009C18.6696 52.5394 18.7059 52.4575 18.7074 52.3677C18.7106 52.2779 18.6775 52.1944 18.616 52.1313C18.5546 52.0667 18.4711 52.0305 18.3829 52.0289C18.293 52.0274 18.2095 52.0604 18.1465 52.1219C16.7521 53.4596 15.72 55.0888 15.1591 56.833C15.1591 56.8346 15.1591 56.8378 15.1591 56.8378C15.1591 56.8378 15.1591 56.8409 15.1607 56.8425V56.8441ZM7.79304 23.2532C7.84031 23.2784 7.8923 23.2926 7.94745 23.2926C7.97896 23.2926 8.01205 23.2863 8.04514 23.2768C8.06878 23.2705 10.6244 22.5709 13.552 23.0547H13.5551C13.5551 23.0547 13.5614 23.0531 13.5646 23.0499C13.5677 23.0452 13.5677 23.0389 13.5646 23.0342C11.6722 20.7275 11.0105 18.1781 11.0042 18.1513C10.9821 18.0631 10.9301 17.9906 10.8561 17.9465C10.7804 17.9024 10.689 17.8882 10.5992 17.9118C10.4228 17.9575 10.314 18.1371 10.3597 18.3152C10.3692 18.3546 10.4086 18.5027 10.4842 18.7374C10.7017 19.4181 11.2043 20.7732 12.1481 22.229C10.4149 22.1408 8.98894 22.3819 8.29094 22.5347C8.05302 22.5867 7.90333 22.6277 7.86394 22.6387C7.68747 22.6891 7.58506 22.8719 7.63548 23.0484C7.66069 23.1382 7.71741 23.2107 7.79462 23.2532H7.79304ZM5.93222 25.385C6.01258 25.4197 6.10396 25.4213 6.1859 25.3866C6.22686 25.3708 10.3597 23.781 15.7059 25.8325C15.7452 25.8467 15.7846 25.853 15.824 25.853C15.958 25.853 16.084 25.7726 16.1344 25.6403C16.2006 25.4685 16.1139 25.2763 15.9422 25.2101C12.0236 23.707 8.76993 24.0646 7.18012 24.4113C6.42382 24.5767 5.98579 24.7485 5.93852 24.769C5.76993 24.8367 5.68642 25.0305 5.75417 25.2007C5.78726 25.2826 5.85029 25.3472 5.93222 25.3819V25.385ZM18.1701 22.2921C18.2316 22.3409 18.3056 22.3661 18.3797 22.3661C18.4758 22.3661 18.5719 22.3236 18.6365 22.2432C18.7531 22.1014 18.7311 21.8919 18.5893 21.7753C15.8146 19.5237 14.0467 16.6245 13.6087 13.6088C16.6244 14.0468 19.5236 15.8146 21.7752 18.5893C21.8319 18.6571 21.9107 18.7012 21.9989 18.7091C22.0872 18.7185 22.1738 18.6933 22.2431 18.6366C22.385 18.5216 22.407 18.312 22.292 18.1686C20.3918 15.8273 18.0598 14.1681 15.5514 13.3661C14.6801 13.0888 13.7789 12.9171 12.8697 12.8556C12.865 12.8556 12.8618 12.8556 12.8587 12.8588C12.8571 12.8619 12.8555 12.8651 12.8555 12.8698C12.917 13.7774 13.0887 14.6802 13.3676 15.5499C14.1665 18.0599 15.8272 20.3903 18.1701 22.2905V22.2921ZM11.5556 16.8372C12.0488 18.3892 13.366 21.3845 16.6276 24.0268C16.689 24.0757 16.7631 24.1009 16.8372 24.1009C16.9333 24.1009 17.0294 24.0583 17.0956 23.978C17.2106 23.8362 17.1885 23.6266 17.0467 23.51C12.5908 19.9018 11.907 15.5326 11.8991 15.4885C11.8881 15.4018 11.8408 15.3246 11.7699 15.2711C11.699 15.2175 11.6124 15.1954 11.5241 15.208C11.3414 15.2348 11.2153 15.4034 11.2421 15.5846C11.25 15.635 11.3209 16.1046 11.5556 16.8388V16.8372ZM46.3645 55.8719C46.1943 55.9365 46.1076 56.1303 46.1738 56.3005C48.2253 61.6466 46.6339 65.7795 46.6197 65.8204C46.5866 65.9024 46.5866 65.9922 46.6213 66.0741C46.656 66.156 46.7206 66.2191 46.8041 66.2521C46.8435 66.2679 46.886 66.2758 46.9254 66.2758C47.0577 66.2758 47.1838 66.197 47.2358 66.0678C47.2547 66.019 47.428 65.573 47.5919 64.8262C47.9401 63.2348 48.2978 59.9827 46.793 56.0625C46.7284 55.8924 46.5346 55.8073 46.3645 55.8719ZM47.2358 5.94017C47.168 5.77158 46.9742 5.68807 46.8041 5.75582C46.7206 5.78891 46.656 5.85194 46.6213 5.93387C46.5866 6.01423 46.5851 6.10561 46.6197 6.18755C46.6355 6.22851 48.2269 10.3567 46.1738 15.7075C46.1092 15.8792 46.1943 16.0715 46.3645 16.1377C46.4023 16.1518 46.4433 16.1581 46.4811 16.1581C46.615 16.1581 46.7426 16.0778 46.793 15.9454C48.2962 12.0268 47.9369 8.77315 47.5919 7.18334C47.4264 6.43019 47.2531 5.98744 47.2342 5.94175L47.2358 5.94017ZM18.1528 11.0042C18.178 11.0105 20.7337 11.6786 23.0341 13.5646C23.0357 13.5662 23.0388 13.5678 23.042 13.5678C23.0436 13.5678 23.0467 13.5678 23.0483 13.5662C23.053 13.5631 23.0562 13.5568 23.0546 13.552C22.5725 10.6308 23.2705 8.07042 23.2783 8.04364C23.3035 7.95698 23.2941 7.86717 23.2531 7.79311C23.2106 7.71591 23.1381 7.65918 23.0499 7.63397C22.8734 7.58355 22.689 7.68755 22.6386 7.86402C22.6276 7.90341 22.5866 8.05152 22.5362 8.29101C22.3834 8.98902 22.1423 10.415 22.2305 12.1482C20.7747 11.2044 19.4196 10.7002 18.7389 10.4827C18.5057 10.4087 18.3561 10.3693 18.3167 10.3598C18.1386 10.3141 17.9574 10.4213 17.9133 10.5993C17.8913 10.6891 17.9039 10.7789 17.948 10.8561C17.9921 10.9286 18.0646 10.9822 18.1528 11.0027V11.0042ZM17.0467 48.4964C17.1869 48.3798 17.2106 48.1718 17.0956 48.0284C16.979 47.8866 16.7694 47.8645 16.6276 47.9796C13.366 50.6219 12.0488 53.6172 11.5556 55.1676C11.3209 55.9018 11.25 56.3714 11.2421 56.4218C11.2169 56.603 11.3429 56.7716 11.5241 56.7984C11.5399 56.7999 11.5556 56.8015 11.5714 56.8015C11.6439 56.8015 11.7116 56.7795 11.7699 56.7353C11.8408 56.6818 11.8881 56.6046 11.8991 56.5163C11.9054 56.4722 12.5893 52.103 17.0467 48.4948V48.4964ZM16.8372 11.5557C16.1029 11.3225 15.6334 11.2516 15.583 11.2437C15.4018 11.217 15.2332 11.343 15.2064 11.5242C15.1938 11.6124 15.2158 11.7007 15.2694 11.7716C15.323 11.8425 15.4002 11.8882 15.4884 11.9008C15.5325 11.9071 19.897 12.583 23.5115 17.0468C23.5761 17.1271 23.6722 17.1697 23.7699 17.1697C23.8424 17.1697 23.9165 17.1461 23.9779 17.0956C24.1197 16.9806 24.1418 16.7711 24.0268 16.6277C21.3844 13.3661 18.3876 12.0505 16.8372 11.5557ZM12.8414 41.5274C12.8886 41.4502 12.9012 41.3619 12.8807 41.2753C12.8587 41.1886 12.8051 41.1161 12.7295 41.0688C12.6539 41.0232 12.564 41.0105 12.4774 41.031C10.6024 41.4943 8.89283 42.3877 7.53621 43.6182C7.53306 43.6214 7.53149 43.6261 7.53149 43.6308C7.53306 43.6355 7.53621 43.6387 7.54094 43.6403C8.28464 43.801 9.05354 43.8813 9.83033 43.8813C10.9222 43.8813 12.0299 43.7238 13.1155 43.4087C13.2006 43.385 13.2699 43.3283 13.314 43.2511C13.3566 43.1723 13.3676 43.0825 13.3408 42.9974C13.3172 42.9123 13.2605 42.843 13.1817 42.7989C13.1045 42.7563 13.0147 42.7469 12.9296 42.7721C11.6848 43.1313 10.4196 43.2747 9.16699 43.1928C10.2116 42.4979 11.3776 41.9874 12.6365 41.677C12.7232 41.655 12.7957 41.6014 12.8414 41.5258V41.5274ZM15.9438 46.7947C16.1155 46.7285 16.2006 46.5363 16.136 46.3645C16.0698 46.1944 15.8776 46.1077 15.7059 46.1739C10.3534 48.2269 6.22686 46.6355 6.1859 46.6182C6.10396 46.5851 6.01258 46.5867 5.93222 46.6214C5.85029 46.656 5.78726 46.7206 5.75417 46.8026C5.68642 46.9727 5.76993 47.1665 5.93852 47.2343C5.98579 47.2548 6.42854 47.4281 7.18012 47.592C7.87497 47.7432 8.88495 47.8976 10.1297 47.8976C11.7368 47.8976 13.7347 47.6408 15.9422 46.7947H15.9438ZM13.5646 48.9549C13.5646 48.9549 13.563 48.9533 13.5614 48.9517C13.5583 48.9517 13.5551 48.9502 13.552 48.9517C10.6197 49.4354 8.07193 48.7359 8.04514 48.728C7.95691 48.7028 7.86867 48.7107 7.79304 48.7516C7.71583 48.7957 7.66069 48.8666 7.6339 48.9565C7.58506 49.1329 7.68747 49.3157 7.86394 49.3661C7.8923 49.3756 8.04356 49.4165 8.29094 49.4717C8.99052 49.6245 10.4165 49.8656 12.1481 49.7758C11.2043 51.2317 10.7001 52.5867 10.4842 53.2674C10.4086 53.5021 10.3692 53.6503 10.3597 53.6912C10.314 53.8677 10.4228 54.0489 10.5992 54.093C10.6292 54.1009 10.6575 54.104 10.6875 54.104C10.7458 54.104 10.8041 54.0899 10.8561 54.0583C10.9301 54.0142 10.9821 53.9417 11.0042 53.8535C11.0105 53.8283 11.6722 51.2789 13.5646 48.9722C13.5677 48.9675 13.5677 48.9612 13.5646 48.9549ZM9.67119 45.6634C11.4737 45.6634 13.3503 45.3026 15.2143 44.5904C15.3844 44.5242 15.4695 44.332 15.4049 44.1618C15.3734 44.0783 15.3119 44.0137 15.2316 43.9775C15.1497 43.9412 15.0598 43.9381 14.9763 43.9696C11.6392 45.2474 8.24367 45.3294 5.41384 44.1996C7.30144 41.8062 10.281 40.1802 13.8104 39.6177C13.9931 39.5878 14.116 39.4176 14.0861 39.2364C14.0577 39.0568 13.8876 38.9323 13.7064 38.9607C10.7284 39.4365 8.12392 40.6245 6.17802 42.3971C5.50207 43.0132 4.90018 43.708 4.39283 44.4628C4.39125 44.4659 4.38968 44.4706 4.39125 44.4738C4.39125 44.4785 4.39441 44.4801 4.39756 44.4817C5.21531 44.8834 6.08348 45.1844 6.97529 45.3798C7.84819 45.5704 8.74945 45.6634 9.67277 45.6634H9.67119ZM4.61184 41.8441C4.62602 41.8441 4.63863 41.8441 4.65281 41.8425C4.74104 41.833 4.81825 41.7889 4.8734 41.718C4.90018 41.6833 7.67487 38.2422 13.3408 37.3441C13.5205 37.3141 13.6449 37.144 13.6166 36.9643C13.5882 36.7831 13.4165 36.6587 13.2353 36.6886C9.08978 37.3456 6.45218 39.2821 5.2484 40.3787C4.68275 40.894 4.38338 41.2674 4.35186 41.3083C4.23842 41.4517 4.26363 41.6613 4.40701 41.7747C4.46531 41.822 4.53779 41.8472 4.61184 41.8472V41.8441ZM12.9312 29.2343C13.0163 29.2579 13.1061 29.2485 13.1833 29.2059C13.2621 29.1634 13.3172 29.0925 13.3424 29.0074C13.3676 28.9223 13.3566 28.8325 13.314 28.7553C13.2715 28.6765 13.2022 28.6214 13.1155 28.5962C11.2594 28.0589 9.33243 27.9785 7.54251 28.3661C7.53621 28.3661 7.53306 28.3693 7.53306 28.374C7.53148 28.3787 7.53306 28.3834 7.53621 28.3866C8.89441 29.6156 10.604 30.5121 12.479 30.9738C12.5057 30.9801 12.5325 30.9848 12.5593 30.9848C12.6192 30.9848 12.6775 30.9675 12.7295 30.936C12.8067 30.8903 12.8587 30.8162 12.8807 30.7311C12.9028 30.6445 12.8886 30.5562 12.8429 30.479C12.7972 30.4034 12.7248 30.3498 12.6381 30.3294C11.3792 30.019 10.2116 29.5084 9.16856 28.812C10.4196 28.7317 11.6864 28.8735 12.9312 29.2343ZM6.17487 29.6093C8.12235 31.3819 10.7253 32.5699 13.7048 33.0457C13.7221 33.0489 13.7395 33.0489 13.7568 33.0489C13.9159 33.0489 14.0593 32.9323 14.0845 32.77C14.1129 32.5888 13.99 32.4186 13.8088 32.3887C10.281 31.8262 7.29829 30.1986 5.41226 27.8068C8.24209 26.677 11.6376 26.759 14.9748 28.0368C15.0583 28.0683 15.1481 28.0652 15.2284 28.0289C15.3104 27.9927 15.3718 27.9281 15.4033 27.8446C15.4695 27.6728 15.3829 27.4822 15.2111 27.416C12.3955 26.3383 9.54672 26.0657 6.97371 26.6282C6.08033 26.822 5.21216 27.1245 4.39598 27.5247C4.39283 27.5263 4.38968 27.5295 4.3881 27.5326C4.3881 27.5358 4.3881 27.5405 4.38968 27.5436C4.89703 28.2984 5.49735 28.9932 6.17487 29.6093ZM5.2484 31.6292C6.45218 32.7259 9.08978 34.6623 13.2353 35.3194C13.2526 35.3225 13.2699 35.3241 13.2888 35.3241C13.4496 35.3241 13.5898 35.2059 13.6166 35.0436C13.6449 34.8624 13.5205 34.6923 13.3408 34.6623C7.67014 33.7642 4.90018 30.323 4.8734 30.2884C4.81825 30.2191 4.73947 30.1749 4.65281 30.1655C4.56457 30.1545 4.47791 30.1797 4.40701 30.2332C4.26363 30.3467 4.23842 30.5562 4.35186 30.6996C4.38338 30.7406 4.68117 31.114 5.2484 31.6308V31.6292ZM5.19167 39.0662H5.19798C5.28464 39.0646 5.36657 39.0284 5.42802 38.9622C5.44693 38.9433 7.29829 37.0652 10.0872 36.0158C10.0919 36.0142 10.095 36.0079 10.095 36.0032C10.095 35.9985 10.0919 35.9937 10.0872 35.9906C7.29829 34.9412 5.44693 33.0631 5.42802 33.0442C5.36657 32.978 5.28464 32.9417 5.19798 32.9402H5.19167C5.10501 32.9402 5.02308 32.9748 4.95848 33.0379C4.82613 33.1655 4.82455 33.3766 4.95218 33.5074C4.96321 33.52 5.07035 33.6303 5.27046 33.8115C5.79829 34.2936 6.91384 35.2154 8.45796 36.0048C6.91384 36.7942 5.79829 37.7159 5.27046 38.1965C5.07508 38.3745 4.96478 38.488 4.95218 38.5006C4.82455 38.6329 4.82613 38.8425 4.95848 38.9701C5.02308 39.0347 5.10501 39.0678 5.19167 39.0678V39.0662Z" fill="#FFCC1A"/>
</g>
<mask id="mask1_20_160" style="mask-type:luminance" maskUnits="userSpaceOnUse" x="15" y="15" width="42" height="42">
<path d="M15.156 15.1576H56.9039V56.9055H15.156V15.1576Z" fill="white"/>
</mask>
<g mask="url(#mask1_20_160)">
<mask id="mask2_20_160" style="mask-type:luminance" maskUnits="userSpaceOnUse" x="15" y="15" width="42" height="42">
<path d="M36.03 15.1576C24.5026 15.1576 15.156 24.5027 15.156 36.0315C15.156 47.5589 24.5026 56.9055 36.03 56.9055C47.5588 56.9055 56.9039 47.5589 56.9039 36.0315C56.9039 24.5027 47.5588 15.1576 36.03 15.1576Z" fill="white"/>
</mask>
<g mask="url(#mask2_20_160)">
<path d="M36.0299 15.1576C24.5026 15.1576 15.156 24.5027 15.156 36.0315C15.156 47.5588 24.5026 56.9055 36.0299 56.9055C47.5588 56.9055 56.9039 47.5588 56.9039 36.0315C56.9039 24.5027 47.5588 15.1576 36.0299 15.1576Z" stroke="#FFCC1A" stroke-width="5.0068"/>
</g>
</g>
<path d="M42.501 22.3614V36.9328C42.501 36.9328 36.7736 25.3834 30.0126 23.5982C22.979 21.7421 19.1833 26.1964 19.1833 26.1964C19.1833 26.1964 29.2973 21.0047 35.458 32.5194C42.2915 45.2899 47.1964 45.2899 47.1964 45.2899V27.0567C47.1964 24.4632 45.0945 22.3614 42.501 22.3614Z" fill="#FFCC1A"/>
<path d="M29.3729 49.5126V34.9412C29.3729 34.9412 35.1003 46.4921 41.8613 48.2757C48.8949 50.1318 52.6906 45.6775 52.6906 45.6775C52.6906 45.6775 42.5767 50.8692 36.4159 39.3545C29.5809 26.5856 24.6775 26.5856 24.6775 26.5856V44.8188C24.6775 47.4107 26.7794 49.5126 29.3729 49.5126Z" fill="#FFCC1A"/>
<mask id="mask3_20_160" style="mask-type:luminance" maskUnits="userSpaceOnUse" x="16" y="25" width="36" height="31">
<path d="M16.7253 25.8057H51.1292V55.1471H16.7253V25.8057Z" fill="white"/>
</mask>
<g mask="url(#mask3_20_160)">
<path d="M35.937 52.6905C26.6833 52.6905 19.1833 45.1905 19.1833 35.9368C19.1833 32.1316 20.4517 28.6211 22.5898 25.8086C20.7385 26.1111 19.4811 26.7414 19.4654 26.7493C19.3756 26.795 19.2794 26.817 19.1833 26.817C19.1329 26.817 19.0825 26.8107 19.0352 26.7981C17.562 29.5161 16.7253 32.6295 16.7253 35.9368C16.7253 46.5471 25.3267 55.1484 35.937 55.1484C42.0977 55.1484 47.5825 52.2477 51.0977 47.7367C50.0058 48.3969 48.2789 49.1673 46.0163 49.3218C43.2117 51.4363 39.7201 52.6905 35.937 52.6905Z" fill="#FFCC1A"/>
</g>
<mask id="mask4_20_160" style="mask-type:luminance" maskUnits="userSpaceOnUse" x="20" y="16" width="36" height="31">
<path d="M20.7354 16.7269H55.1455V46.0856H20.7354V16.7269Z" fill="white"/>
</mask>
<g mask="url(#mask4_20_160)">
<path d="M35.937 16.7256C29.7747 16.7256 24.2915 19.6279 20.7763 24.1374C21.8682 23.4772 23.5951 22.7067 25.8577 22.5538C28.6623 20.4378 32.1539 19.1836 35.937 19.1836C45.1891 19.1836 52.6907 26.6851 52.6907 35.9372C52.6907 39.744 51.4223 43.2529 49.2842 46.0654C51.1356 45.7629 52.3913 45.1326 52.4087 45.1247C52.4985 45.0791 52.5946 45.057 52.6907 45.057C52.7411 45.057 52.79 45.0633 52.8388 45.0759C54.312 42.3579 55.1487 39.2461 55.1487 35.9372C55.1487 25.327 46.5473 16.7256 35.937 16.7256Z" fill="#FFCC1A"/>
</g>
</svg>
