<svg width="500" height="400" viewBox="0 0 500 400" fill="none" xmlns="http://www.w3.org/2000/svg">
<path d="M150.014 354.394C147.723 354.394 145.525 354.336 143.405 354.223C128.626 353.429 117.678 349.885 108.95 343.071C91.9536 329.8 84.7246 305.017 73.7826 267.503C71.2416 258.79 68.6136 249.781 65.5856 239.933C53.5796 200.892 53.5856 172.538 65.6066 145.125C79.3446 113.797 110.016 82.458 162.132 46.503C234.251 -3.25398 280.755 28.395 318.122 53.828C324.631 58.258 330.78 62.443 336.776 66.008C346.74 71.932 357.342 77.095 367.595 82.088C399.269 97.513 429.187 112.082 434.415 145.869C437.871 168.201 433.68 183.543 427.881 204.779C421.986 226.363 414.65 253.225 411.359 299.614C407.83 349.371 368.223 347.199 313.407 344.194C280.103 342.368 242.355 340.297 201.791 348.195C180.258 352.386 163.566 354.393 150.014 354.394ZM235.056 22.001C214.192 22.001 190.517 28.983 163.098 47.901C111.254 83.669 80.7696 114.78 67.1646 145.807C55.3216 172.815 55.3356 200.815 67.2116 239.433C70.2436 249.293 72.8736 258.309 75.4166 267.027C86.2656 304.224 93.4336 328.798 109.998 341.731C126.456 354.581 152.956 355.971 201.468 346.525C242.238 338.587 280.098 340.663 313.502 342.495C340.787 343.99 364.352 345.283 381.136 340.117C399.27 334.536 408.069 322.006 409.665 299.492C412.967 252.937 420.328 225.985 426.243 204.329C431.987 183.297 436.137 168.101 432.737 146.128C427.645 113.22 398.115 98.839 366.852 83.615C356.568 78.607 345.933 73.428 335.908 67.468C329.867 63.876 323.698 59.678 317.166 55.232C294.461 39.778 268.339 22.001 235.056 22.001Z" fill="#F2F1F7"/>
<path d="M171.205 55.547C63.9743 129.528 53.8973 179.443 74.9893 248.028C104.453 343.838 100.877 376.994 210.219 355.704C319.673 334.393 413.58 385.744 419.102 307.897C425.704 214.816 449.012 198.584 442.166 154.342C435.32 110.1 385.521 99.213 344.932 75.081C304.343 50.949 255.318 -2.48497 171.205 55.547Z" fill="#F2F1F7"/>
<path d="M413.63 196.465C416.854 196.606 419.471 193.879 419.203 190.663C416.354 156.496 415.537 134.875 419.719 99.546C363.973 103.122 331.331 104.17 274.305 99.546C276.773 133.648 277.465 155.833 274.792 190.689C273.886 202.483 284.744 190.821 413.63 196.465Z" fill="white"/>
<path d="M413.865 197.036C413.779 197.036 413.693 197.034 413.606 197.03C350.662 194.274 315.67 195.655 296.872 196.397C282.609 196.961 277.272 197.17 275.207 195.028C274.135 193.915 274.102 192.264 274.226 190.645C276.897 155.833 276.197 133.546 273.739 99.587L273.691 98.928L274.35 98.981C332.206 103.672 364.524 102.519 419.682 98.98L420.361 98.937L420.281 99.612C416.214 133.972 416.836 155.455 419.767 190.615C419.909 192.312 419.313 193.989 418.132 195.217C417.014 196.382 415.47 197.036 413.865 197.036ZM344.544 194.255C362.634 194.255 385.312 194.658 413.655 195.899C415.025 195.964 416.362 195.425 417.315 194.433C418.27 193.44 418.752 192.083 418.638 190.71C415.719 155.702 415.085 134.22 419.076 100.155C364.482 103.65 332.2 104.78 274.916 100.164C277.339 133.811 278.014 156.074 275.355 190.732C275.211 192.61 275.398 193.595 276.022 194.242C277.735 196.02 283.323 195.799 296.827 195.265C307.176 194.857 322.431 194.255 344.544 194.255Z" fill="#EEE4D9"/>
<path d="M414.125 94.1139C417.068 93.9849 419.719 96.2789 419.719 99.5459C363.122 102.977 331.594 104.317 274.305 99.5459C274.304 88.4039 278.695 100.062 414.125 94.1139Z" fill="#444244"/>
<path d="M342.217 103.223C321.961 103.223 300.904 102.329 274.258 100.11L273.738 100.067V99.546C273.738 97.802 273.821 96.278 274.845 95.297C276.629 93.589 280.671 93.764 292.681 94.283C311.116 95.081 345.43 96.564 414.1 93.548C415.706 93.475 417.296 94.074 418.458 95.186C419.636 96.314 420.285 97.862 420.285 99.546V100.079L419.753 100.111C389.598 101.939 366.483 103.223 342.217 103.223ZM274.875 99.024C332.835 103.826 364.36 102.33 419.126 99.014C419.008 97.851 418.503 96.797 417.675 96.004C416.736 95.106 415.452 94.623 414.151 94.68C345.432 97.699 311.085 96.214 292.633 95.415C281.622 94.939 277.065 94.742 275.63 96.115C275.054 96.667 274.901 97.549 274.875 99.024Z" fill="#444244"/>
<path d="M411.755 98.9399C413.773 98.8019 414.515 98.9189 414.465 98.1849C414.368 96.7689 414.47 95.9779 413.748 96.0269C411.73 96.1649 410.988 96.0479 411.038 96.7819C411.135 98.1989 411.033 98.9889 411.755 98.9399Z" fill="#BEC0C2"/>
<path d="M411.838 98.6389C411.763 98.6389 411.689 98.6099 411.633 98.5509C411.525 98.4379 411.529 98.2589 411.642 98.1509L413.467 96.4069C413.58 96.2989 413.76 96.3029 413.868 96.4159C413.976 96.5289 413.972 96.7079 413.859 96.8159L412.034 98.5599C411.979 98.6129 411.908 98.6389 411.838 98.6389Z" fill="white"/>
<path d="M413.773 98.507C413.715 98.507 413.657 98.49 413.607 98.453L411.563 96.973C411.436 96.882 411.407 96.704 411.499 96.577C411.591 96.45 411.77 96.422 411.895 96.514L413.939 97.994C414.066 98.085 414.094 98.263 414.003 98.39C413.947 98.466 413.86 98.507 413.773 98.507Z" fill="white"/>
<g opacity="0.7">
<g opacity="0.8">
<path d="M312.248 116.668C288.929 116.668 288.077 117.324 288.077 114.909C288.077 113.089 287.721 110.793 289.836 110.793C313.155 110.793 314.007 110.137 314.007 112.552C314.007 114.371 314.362 116.668 312.248 116.668Z" fill="#D6723A"/>
<path d="M369.647 116.668C322.552 116.668 322.715 117.585 322.715 114.242C322.715 112.582 322.968 110.794 325.141 110.794H369.646C372.92 110.793 372.999 116.668 369.647 116.668Z" fill="#D6723A"/>
<path d="M404.186 116.668C380.867 116.668 380.015 117.324 380.015 114.909C380.015 113.089 379.659 110.793 381.774 110.793C405.093 110.793 405.945 110.137 405.945 112.552C405.945 114.371 406.301 116.668 404.186 116.668Z" fill="#D6723A"/>
</g>
<g opacity="0.8">
<path d="M369.646 124.982H325.141C321.868 124.982 321.789 119.107 325.141 119.107H369.646C372.919 119.108 372.998 124.982 369.646 124.982Z" fill="#D6723A"/>
</g>
<g opacity="0.8">
<path d="M312.248 133.297C288.929 133.297 288.077 133.953 288.077 131.538C288.077 129.718 287.721 127.422 289.836 127.422C313.155 127.422 314.007 126.766 314.007 129.181V131.538C314.007 132.509 313.219 133.297 312.248 133.297Z" fill="#D6723A"/>
<path d="M369.646 133.297H325.141C321.868 133.297 321.789 127.422 325.141 127.422C372.236 127.422 372.073 126.505 372.073 129.848C372.072 131.508 371.82 133.297 369.646 133.297Z" fill="#D6723A"/>
<path d="M404.186 133.297C380.867 133.297 380.015 133.953 380.015 131.538C380.015 129.718 379.659 127.422 381.774 127.422C405.093 127.422 405.945 126.766 405.945 129.181C405.945 131 406.301 133.297 404.186 133.297Z" fill="#D6723A"/>
</g>
<g opacity="0.8">
<path d="M312.248 141.611C288.929 141.611 288.077 142.267 288.077 139.853C288.077 138.033 287.721 135.737 289.836 135.737H312.249C313.22 135.737 314.008 136.524 314.008 137.496V139.853C314.007 140.824 313.219 141.611 312.248 141.611Z" fill="#D6723A"/>
<path d="M404.186 141.611C380.867 141.611 380.015 142.267 380.015 139.853C380.015 138.033 379.659 135.737 381.774 135.737C405.093 135.737 405.945 135.081 405.945 137.496C405.945 139.315 406.301 141.611 404.186 141.611Z" fill="#D6723A"/>
</g>
<g opacity="0.8">
<path d="M312.25 149.926H289.837C288.866 149.926 288.078 149.139 288.078 148.168V145.811C288.078 144.84 288.865 144.052 289.837 144.052H312.25C313.221 144.052 314.009 144.839 314.009 145.811V148.168C314.009 149.139 313.221 149.926 312.25 149.926Z" fill="#D6723A"/>
<path d="M369.65 149.926H325.145C321.872 149.926 321.793 144.052 325.145 144.052H369.65C372.639 144.052 372.076 148.067 372.076 147.5C372.076 148.84 370.99 149.926 369.65 149.926Z" fill="#D6723A"/>
<path d="M404.186 149.926C380.867 149.926 380.015 150.582 380.015 148.168C380.015 146.348 379.659 144.052 381.774 144.052C405.093 144.052 405.945 143.396 405.945 145.811C405.945 147.63 406.301 149.926 404.186 149.926Z" fill="#D6723A"/>
</g>
<g opacity="0.8">
<path d="M312.25 158.24H289.837C288.866 158.24 288.078 157.453 288.078 156.482V154.125C288.078 153.154 288.865 152.366 289.837 152.366C313.156 152.366 314.008 151.71 314.008 154.125V156.482C314.009 157.453 313.221 158.24 312.25 158.24Z" fill="#D6723A"/>
<path d="M369.65 158.24H325.145C321.872 158.24 321.793 152.366 325.145 152.366H369.65C372.639 152.366 372.076 156.381 372.076 155.814C372.076 157.154 370.99 158.24 369.65 158.24Z" fill="#D6723A"/>
</g>
<g opacity="0.8">
<path d="M312.25 166.555H289.837C288.866 166.555 288.078 165.768 288.078 164.797V162.44C288.078 161.469 288.865 160.681 289.837 160.681H312.25C313.221 160.681 314.009 161.468 314.009 162.44V164.797C314.009 165.768 313.221 166.555 312.25 166.555Z" fill="#D6723A"/>
<path d="M404.187 166.555H381.775C380.804 166.555 380.016 165.768 380.016 164.797V162.44C380.016 161.469 380.803 160.681 381.775 160.681H404.187C405.158 160.681 405.946 161.468 405.946 162.44V164.797C405.946 165.768 405.159 166.555 404.187 166.555Z" fill="#D6723A"/>
</g>
<g opacity="0.8">
<path d="M312.25 174.87H289.837C288.866 174.87 288.078 174.083 288.078 173.112V170.755C288.078 169.784 288.865 168.996 289.837 168.996H312.25C313.221 168.996 314.009 169.783 314.009 170.755V173.112C314.009 174.082 313.221 174.87 312.25 174.87Z" fill="#D6723A"/>
<path d="M369.65 174.87H325.145C321.872 174.87 321.793 168.995 325.145 168.995H369.65C372.639 168.995 372.076 173.01 372.076 172.443C372.076 173.783 370.99 174.87 369.65 174.87Z" fill="#D6723A"/>
</g>
<g opacity="0.8">
<path d="M312.25 183.184H289.837C288.866 183.184 288.078 182.397 288.078 181.425V179.068C288.078 178.097 288.865 177.309 289.837 177.309H312.25C313.221 177.309 314.009 178.096 314.009 179.068V181.425C314.009 182.397 313.221 183.184 312.25 183.184Z" fill="#D6723A"/>
<path d="M369.65 183.184H325.145C321.872 183.184 321.793 177.31 325.145 177.31C372.24 177.31 372.077 176.393 372.077 179.736V180.758C372.076 182.098 370.99 183.184 369.65 183.184Z" fill="#D6723A"/>
<path d="M404.187 183.184H381.775C380.804 183.184 380.016 182.397 380.016 181.425V179.068C380.016 178.097 380.803 177.309 381.775 177.309H404.187C405.158 177.309 405.946 178.096 405.946 179.068V181.425C405.946 182.397 405.159 183.184 404.187 183.184Z" fill="#D6723A"/>
</g>
</g>
<path d="M372.885 216.505C388.78 204.159 402.25 162.837 400.729 138.604C399.208 114.371 374.83 148.803 371.62 180.653C368.411 212.503 372.885 216.505 372.885 216.505Z" fill="#58857A"/>
<path d="M362.289 264.42C363.981 254.877 374.095 230.21 391.788 225.947C412.923 220.855 401.332 238.886 389.483 249.383C377.633 259.88 362.289 264.42 362.289 264.42Z" fill="#76A699"/>
<path d="M376.103 219.169C391.367 215.74 414.291 202.584 422.383 184.243C430.475 165.902 405.691 170.172 390.688 189C375.685 207.829 376.103 219.169 376.103 219.169Z" fill="#76A699"/>
<path d="M360.04 247.164C362.618 241.313 373.628 220.163 364.085 198.948C356.793 182.737 348.928 198.916 352.342 215.745C355.757 232.574 360.04 247.164 360.04 247.164Z" fill="#58857A"/>
<path d="M354.098 271.319C354.098 271.319 367.339 230.507 358.101 205.83C357.892 205.277 358.73 204.974 358.932 205.519C367.048 227.199 358.388 259.264 355.568 268.507C367.359 249.412 388.99 147.744 386.901 158.473C375.462 216.895 358.409 273.969 354.098 271.319Z" fill="#76A699"/>
<path d="M356.096 273.175C354.777 272.339 376.74 243.866 386.713 238.205C387.221 237.917 387.663 238.684 387.152 238.977C376.629 244.949 356.096 273.175 356.096 273.175Z" fill="#58857A"/>
<path d="M369.632 229.262C367.963 228.379 392.418 194.423 412.509 184.217C413.036 183.951 413.431 184.746 412.91 185.009C395.82 193.691 374.982 220.169 370.232 229.08C370.113 229.303 369.836 229.375 369.632 229.262Z" fill="#58857A"/>
<path d="M379.057 209.87C381.703 207.342 388.723 193.475 389.92 189.809C389.996 189.576 390.246 189.449 390.479 189.525C391.8 189.999 382.453 207.852 379.669 210.512C379.245 210.917 378.633 210.273 379.057 209.87Z" fill="#58857A"/>
<path d="M150.083 165.436C134.188 153.09 120.718 111.768 122.239 87.5351C123.76 63.3021 148.138 97.7341 151.348 129.584C154.558 161.435 150.083 165.436 150.083 165.436Z" fill="#58857A"/>
<path d="M160.681 213.351C158.989 203.808 148.876 179.141 131.182 174.878C110.047 169.786 121.638 187.817 133.487 198.314C145.337 208.811 160.681 213.351 160.681 213.351Z" fill="#76A699"/>
<path d="M146.865 168.1C131.601 164.671 108.677 151.516 100.585 133.174C92.4927 114.833 117.277 119.103 132.28 137.931C147.283 156.76 146.865 168.1 146.865 168.1Z" fill="#76A699"/>
<path d="M162.928 196.096C160.35 190.245 149.34 169.095 158.883 147.881C166.175 131.67 174.04 147.849 170.626 164.678C167.211 181.506 162.928 196.096 162.928 196.096Z" fill="#58857A"/>
<path d="M168.87 220.25C168.87 220.25 155.629 179.438 164.867 154.761C165.076 154.208 164.238 153.905 164.036 154.45C155.92 176.13 164.58 208.195 167.4 217.438C155.609 198.343 133.978 96.675 136.067 107.404C142.141 138.424 158.695 209.886 168.317 220.173C168.465 220.33 168.699 220.355 168.87 220.25Z" fill="#76A699"/>
<path d="M166.869 222.106C168.188 221.27 146.225 192.797 136.252 187.136C135.744 186.848 135.302 187.615 135.813 187.908C143.518 192.281 159.747 211.645 166.256 221.966C166.393 222.181 166.671 222.232 166.869 222.106Z" fill="#58857A"/>
<path d="M153.516 177.594C142.365 156.67 111.326 130.444 109.861 133.344C109.75 133.563 109.837 133.83 110.056 133.941C127.146 142.623 147.984 169.101 152.734 178.012C153.01 178.529 153.793 178.111 153.516 177.594Z" fill="#58857A"/>
<path d="M143.911 158.801C141.265 156.273 134.245 142.406 133.048 138.74C132.864 138.177 132.026 138.466 132.205 139.015C133.451 142.838 140.512 156.779 143.299 159.443C143.723 159.848 144.335 159.204 143.911 158.801Z" fill="#58857A"/>
<path d="M287.192 165.229C231.49 179.88 197.746 179.713 143.95 165.244C138.875 163.879 140.28 167.567 140.28 61.974C195.393 77.724 231.132 79.025 290.89 61.974V160.439C290.89 162.689 289.368 164.656 287.192 165.229Z" fill="white"/>
<path d="M215.074 176.754C192.946 176.754 170.978 173.1 143.802 165.791C143.65 165.75 143.504 165.714 143.364 165.679C139.413 164.699 139.413 164.699 139.593 116.693C139.646 102.584 139.712 85.025 139.712 61.973V61.222L140.434 61.428C197.979 77.873 233.095 77.873 290.732 61.428L291.454 61.222V160.438C291.454 162.942 289.76 165.137 287.334 165.776C259.513 173.095 237.213 176.754 215.074 176.754ZM140.846 62.724C140.845 85.41 140.78 102.741 140.727 116.698C140.552 163.373 140.579 163.82 143.637 164.579C143.784 164.615 143.937 164.653 144.097 164.696C198.24 179.258 231.639 179.254 287.048 164.68C288.976 164.173 290.323 162.428 290.323 160.438V62.724C260.24 71.261 236.616 74.999 213.839 74.841C192.033 74.688 170.168 71.061 140.846 62.724Z" fill="#EEE4D9"/>
<path d="M284.77 56.979C231.259 70.01 197.618 71.039 146.52 57.199C143.375 56.347 140.277 58.716 140.277 61.974C198.762 78.499 231.996 78.26 290.887 61.974C290.887 58.343 287.721 56.26 284.77 56.979Z" fill="#444244"/>
<path d="M215.112 74.7891C192.014 74.7901 169.08 70.7001 140.124 62.5181L139.711 62.4011V61.9721C139.711 60.2421 140.499 58.6461 141.874 57.5941C143.249 56.5421 144.997 56.1981 146.668 56.6501C195.784 69.9531 229.309 69.8991 284.636 56.4261C286.268 56.0301 288.026 56.4091 289.341 57.4411C290.703 58.5111 291.453 60.1201 291.453 61.9711V62.4021L291.038 62.5171C261.462 70.6991 238.204 74.7881 215.112 74.7891ZM140.865 61.5501C198.129 77.6821 231.795 77.6811 290.305 61.5461C290.202 60.2321 289.621 59.1021 288.642 58.3331C287.599 57.5141 286.204 57.2121 284.905 57.5281C229.364 71.0521 195.702 71.1051 146.373 57.7451C145.044 57.3851 143.656 57.6591 142.564 58.4951C141.584 59.2451 140.98 60.3411 140.865 61.5501Z" fill="#444244"/>
<path d="M283.751 62.1521C285.648 61.4511 286.394 61.3541 286.139 60.6641C285.647 59.3321 285.522 58.5451 284.843 58.7961C282.946 59.4971 282.2 59.5941 282.455 60.2841C282.947 61.6151 283.072 62.4021 283.751 62.1521Z" fill="#BEC0C2"/>
<path d="M283.669 61.8501C283.621 61.8501 283.572 61.8381 283.528 61.8121C283.393 61.7341 283.346 61.5611 283.424 61.4251L284.683 59.2381C284.761 59.1021 284.935 59.0561 285.07 59.1341C285.205 59.2121 285.253 59.3851 285.175 59.5211L283.916 61.7081C283.862 61.7991 283.767 61.8501 283.669 61.8501Z" fill="white"/>
<path d="M285.487 61.1791C285.456 61.1791 285.423 61.1741 285.392 61.1631L283.013 60.3191C282.865 60.2671 282.788 60.1051 282.84 59.9581C282.893 59.8111 283.057 59.7351 283.202 59.7861L285.581 60.6301C285.729 60.6821 285.806 60.8441 285.754 60.9921C285.712 61.1061 285.603 61.1791 285.487 61.1791Z" fill="white"/>
<path d="M162.268 110.382H164.078V116.812C164.078 119.549 162.754 120.461 160.782 120.461C160.282 120.461 159.649 120.373 159.266 120.226L159.487 118.77C159.781 118.858 160.179 118.946 160.605 118.946C161.635 118.946 162.268 118.475 162.268 116.754V110.382Z" fill="#444244"/>
<path d="M169.977 120.299L169.859 119.505C169.373 120.064 168.623 120.461 167.696 120.461C166.254 120.461 165.445 119.416 165.445 118.328C165.445 116.518 167.049 115.606 169.697 115.621V115.503C169.697 115.032 169.506 114.252 168.241 114.252C167.535 114.252 166.799 114.473 166.313 114.782L165.96 113.605C166.489 113.281 167.416 112.972 168.55 112.972C170.845 112.972 171.507 114.429 171.507 115.988V118.578C171.507 119.225 171.537 119.858 171.61 120.299H169.977ZM169.741 116.797C168.461 116.768 167.24 117.047 167.24 118.136C167.24 118.842 167.696 119.166 168.27 119.166C168.991 119.166 169.521 118.695 169.683 118.18C169.727 118.048 169.742 117.9 169.742 117.783L169.741 116.797Z" fill="#444244"/>
<path d="M174.418 113.133L175.58 116.767C175.786 117.4 175.933 117.973 176.065 118.562C176.241 117.973 176.403 117.414 176.595 116.767L177.728 113.133H179.641L176.904 120.298H175.124L172.461 113.133H174.418Z" fill="#444244"/>
<path d="M184.684 120.299L184.566 119.505C184.081 120.064 183.33 120.461 182.403 120.461C180.961 120.461 180.152 119.416 180.152 118.328C180.152 116.518 181.756 115.606 184.404 115.621V115.503C184.404 115.032 184.213 114.252 182.948 114.252C182.242 114.252 181.506 114.473 181.02 114.782L180.667 113.605C181.196 113.281 182.123 112.972 183.257 112.972C185.552 112.972 186.214 114.429 186.214 115.988V118.578C186.214 119.225 186.244 119.858 186.317 120.299H184.684ZM184.449 116.797C183.169 116.768 181.948 117.047 181.948 118.136C181.948 118.842 182.404 119.166 182.978 119.166C183.699 119.166 184.229 118.695 184.391 118.18C184.435 118.048 184.45 117.9 184.45 117.783V116.797H184.449Z" fill="#444244"/>
<path d="M191.199 118.327C191.787 118.665 192.67 118.96 193.597 118.96C194.759 118.96 195.407 118.415 195.407 117.606C195.407 116.855 194.907 116.414 193.641 115.958C192.008 115.369 190.963 114.501 190.963 113.074C190.963 111.455 192.317 110.22 194.465 110.22C195.539 110.22 196.334 110.455 196.849 110.72L196.408 112.177C196.055 111.986 195.363 111.706 194.436 111.706C193.288 111.706 192.788 112.324 192.788 112.898C192.788 113.663 193.362 114.016 194.686 114.531C196.407 115.178 197.246 116.046 197.246 117.474C197.246 119.063 196.039 120.446 193.479 120.446C192.434 120.446 191.346 120.152 190.801 119.828L191.199 118.327Z" fill="#444244"/>
<path d="M204.161 120.078C203.778 120.254 203.029 120.446 202.131 120.446C199.894 120.446 198.438 119.019 198.438 116.797C198.438 114.649 199.908 112.972 202.424 112.972C203.086 112.972 203.764 113.119 204.176 113.31L203.852 114.664C203.558 114.532 203.131 114.385 202.484 114.385C201.101 114.385 200.277 115.4 200.292 116.71C200.292 118.181 201.248 119.02 202.484 119.02C203.117 119.02 203.558 118.888 203.911 118.74L204.161 120.078Z" fill="#444244"/>
<path d="M205.496 115.443C205.496 114.472 205.481 113.78 205.438 113.133H207.012L207.07 114.501H207.13C207.483 113.486 208.322 112.971 209.087 112.971C209.263 112.971 209.367 112.986 209.514 113.015V114.722C209.367 114.693 209.204 114.663 208.983 114.663C208.115 114.663 207.527 115.222 207.365 116.032C207.336 116.194 207.305 116.385 207.305 116.591V120.299H205.495L205.496 115.443Z" fill="#444244"/>
<path d="M212.66 111.132C212.66 111.676 212.263 112.103 211.63 112.103C211.027 112.103 210.629 111.676 210.629 111.132C210.629 110.573 211.041 110.146 211.644 110.146C212.263 110.147 212.646 110.573 212.66 111.132ZM210.733 120.299V113.134H212.558V120.299H210.733Z" fill="#444244"/>
<path d="M214.5 115.517C214.5 114.575 214.471 113.81 214.441 113.134H216.03L216.118 114.238C216.677 113.428 217.516 112.973 218.605 112.973C220.253 112.973 221.621 114.386 221.621 116.622C221.621 119.212 219.988 120.462 218.354 120.462C217.457 120.462 216.706 120.079 216.338 119.506C216.308 119.506 216.308 123.214 216.308 123.214H214.498V115.517H214.5ZM216.31 117.297C216.31 117.473 216.325 117.635 216.369 117.797C216.545 118.533 217.193 119.062 217.958 119.062C219.106 119.062 219.783 118.106 219.783 116.693C219.783 115.428 219.165 114.398 218.003 114.398C217.253 114.398 216.561 114.942 216.384 115.737C216.34 115.884 216.31 116.046 216.31 116.193V117.297Z" fill="#444244"/>
<path d="M225.18 111.088V113.133H226.901V114.487H225.18V117.65C225.18 118.518 225.415 118.974 226.107 118.974C226.416 118.974 226.651 118.93 226.813 118.886L226.842 120.269C226.577 120.372 226.106 120.445 225.532 120.445C224.87 120.445 224.311 120.224 223.972 119.856C223.59 119.444 223.413 118.797 223.413 117.855V114.486H222.383V113.132H223.413V111.513L225.18 111.088Z" fill="#444244"/>
<path d="M148.314 141.242C152.059 141.242 153.822 140.864 153.822 142.523C153.822 146.268 154.199 148.031 152.541 148.031C148.796 148.031 147.033 148.409 147.033 146.75C147.033 143.005 146.655 141.242 148.314 141.242Z" fill="#514342"/>
<path d="M148.314 126.312C152.059 126.312 153.822 125.934 153.822 127.593C153.822 131.338 154.199 133.101 152.541 133.101C148.796 133.101 147.033 133.479 147.033 131.82C147.033 128.075 146.655 126.312 148.314 126.312Z" fill="#514342"/>
<path d="M148.314 110.413C152.059 110.413 153.822 110.036 153.822 111.694C153.822 115.439 154.199 117.202 152.541 117.202C148.796 117.202 147.033 117.579 147.033 115.921C147.033 112.175 146.655 110.413 148.314 110.413Z" fill="#514342"/>
<path d="M148.312 97.3852C152.057 97.3852 153.82 97.0072 153.82 98.6662C153.82 102.411 154.197 104.174 152.539 104.174C148.794 104.174 147.031 104.551 147.031 102.893V98.6662C147.031 97.9592 147.604 97.3852 148.312 97.3852Z" fill="#514342"/>
<path d="M148.314 82.1462C152.059 82.1462 153.822 81.7682 153.822 83.4272C153.822 87.1722 154.199 88.9352 152.541 88.9352C148.796 88.9352 147.033 89.3122 147.033 87.6542C147.033 83.9092 146.655 82.1462 148.314 82.1462Z" fill="#514342"/>
<g opacity="0.8">
<path d="M163.292 82.1461C202.4 82.1461 202.535 81.4061 202.535 84.0811C202.535 86.3661 202.952 88.9351 200.6 88.9351C161.492 88.9351 161.357 89.6741 161.357 87.0001C161.357 84.7151 160.94 82.1461 163.292 82.1461Z" fill="#514342"/>
<path d="M208.475 82.1462C232.085 82.1462 233.239 81.4312 233.239 84.0812C233.239 86.3662 233.656 88.9352 231.304 88.9352C207.694 88.9352 206.54 89.6502 206.54 87.0002C206.54 84.7152 206.123 82.1462 208.475 82.1462Z" fill="#514342"/>
<path d="M240.061 82.1462C264.837 82.1462 265.815 81.4462 265.815 84.0812C265.815 86.3662 266.232 88.9352 263.88 88.9352C239.104 88.9352 238.126 89.6352 238.126 87.0002C238.126 84.7152 237.709 82.1462 240.061 82.1462Z" fill="#514342"/>
</g>
<g opacity="0.8">
<path d="M163.294 97.3851C202.402 97.3851 202.537 96.6451 202.537 99.3201C202.537 101.605 202.954 104.174 200.602 104.174C161.494 104.174 161.359 104.914 161.359 102.239V99.3201C161.359 98.2521 162.225 97.3851 163.294 97.3851Z" fill="#514342"/>
<path d="M208.479 97.3852C232.089 97.3852 233.243 96.6702 233.243 99.3202C233.243 101.605 233.66 104.174 231.308 104.174C207.698 104.174 206.544 104.889 206.544 102.239C206.544 99.9542 206.127 97.3852 208.479 97.3852Z" fill="#514342"/>
<path d="M240.061 97.3852C264.837 97.3852 265.815 96.6852 265.815 99.3202C265.815 101.605 266.232 104.174 263.88 104.174C239.104 104.174 238.126 104.874 238.126 102.239C238.126 99.9542 237.709 97.3852 240.061 97.3852Z" fill="#514342"/>
</g>
<g opacity="0.8">
<path d="M163.292 126.312C202.4 126.312 202.535 125.572 202.535 128.247C202.535 130.532 202.952 133.101 200.6 133.101C161.492 133.101 161.357 133.841 161.357 131.166C161.357 128.881 160.94 126.312 163.292 126.312Z" fill="#514342"/>
<path d="M208.475 126.312C232.085 126.312 233.239 125.597 233.239 128.247C233.239 130.532 233.656 133.101 231.304 133.101C207.694 133.101 206.54 133.816 206.54 131.166C206.54 128.881 206.123 126.312 208.475 126.312Z" fill="#514342"/>
<path d="M240.06 126.312C264.836 126.312 265.814 125.612 265.814 128.247C265.814 130.532 266.231 133.101 263.879 133.101C239.103 133.101 238.125 133.801 238.125 131.166V128.247C238.125 127.179 238.991 126.312 240.06 126.312Z" fill="#514342"/>
</g>
<g opacity="0.8">
<path d="M163.294 141.242C202.402 141.242 202.537 140.502 202.537 143.177C202.537 145.462 202.954 148.031 200.602 148.031C161.494 148.031 161.359 148.771 161.359 146.096V143.177C161.359 142.109 162.225 141.242 163.294 141.242Z" fill="#514342"/>
<path d="M208.478 141.242C232.088 141.242 233.242 140.527 233.242 143.177C233.242 145.462 233.659 148.031 231.307 148.031C207.697 148.031 206.543 148.746 206.543 146.096V143.177C206.543 142.109 207.409 141.242 208.478 141.242Z" fill="#514342"/>
<path d="M240.061 141.242C264.837 141.242 265.815 140.542 265.815 143.177C265.815 145.462 266.232 148.031 263.88 148.031C239.104 148.031 238.126 148.731 238.126 146.096C238.126 143.811 237.709 141.242 240.061 141.242Z" fill="#514342"/>
</g>
<path d="M73.2403 239.112C60.3093 239.678 76.0143 217.787 67.2223 142.803C67.1853 142.487 67.4463 142.212 67.7633 142.232C122.943 145.764 155.52 146.793 211.97 142.241C212.281 142.216 212.544 142.477 212.521 142.788C210.088 176.554 209.419 198.683 212.077 233.335C212.982 245.13 202.123 233.469 73.2403 239.112Z" fill="white"/>
<path d="M72.7666 239.689C71.0456 239.689 69.8286 239.263 68.9636 238.364C66.7276 236.039 67.1726 230.654 67.9806 220.878C69.1906 206.233 71.2156 181.722 66.6596 142.869C66.6226 142.551 66.7276 142.234 66.9496 142.001C67.1706 141.768 67.4836 141.648 67.7996 141.666C124.506 145.297 157.064 146.1 211.925 141.675C212.239 141.646 212.546 141.763 212.77 141.985C212.994 142.207 213.11 142.514 213.087 142.828C210.664 176.457 209.98 198.571 212.643 233.291C212.767 234.91 212.734 236.561 211.662 237.674C209.597 239.818 204.259 239.606 189.995 239.044C171.196 238.302 136.206 236.922 73.2646 239.677C73.0946 239.686 72.9276 239.689 72.7666 239.689ZM67.7926 142.802C72.3516 181.731 70.3226 206.292 69.1096 220.971C68.3286 230.419 67.8986 235.623 69.7806 237.579C70.4846 238.311 71.5786 238.618 73.2156 238.547C136.205 235.789 171.226 237.171 190.04 237.914C203.545 238.447 209.134 238.668 210.846 236.89C211.47 236.242 211.657 235.258 211.513 233.38C208.846 198.609 209.529 176.463 211.952 142.812C157.077 147.234 124.497 146.431 67.7926 142.802Z" fill="#EEE4D9"/>
<path d="M206.903 136.845C87.4264 143.63 67.1484 129.785 67.1484 142.193C123.745 145.624 155.273 146.964 212.562 142.193C212.563 139.117 209.976 136.67 206.903 136.845Z" fill="#444244"/>
<path d="M144.651 145.871C120.381 145.871 97.273 144.587 67.114 142.759L66.582 142.727V142.194C66.582 140.341 67.027 139.056 67.983 138.15C70.575 135.693 76.673 136.017 91.408 136.8C110.597 137.82 146.314 139.719 206.872 136.28C208.513 136.186 210.078 136.758 211.275 137.888C212.472 139.019 213.131 140.548 213.131 142.194V142.715L212.611 142.758C185.967 144.977 164.905 145.871 144.651 145.871ZM67.729 141.661C122.495 144.978 154.019 146.474 211.969 141.674C211.849 140.543 211.336 139.505 210.495 138.711C209.528 137.797 208.267 137.334 206.935 137.411C146.315 140.853 110.557 138.952 91.347 137.931C77.8 137.211 71 136.849 68.762 138.972C68.125 139.576 67.798 140.418 67.729 141.661Z" fill="#444244"/>
<path d="M205.094 141.573C207.112 141.435 207.854 141.552 207.804 140.818C207.707 139.402 207.81 138.611 207.087 138.66C205.069 138.798 204.327 138.681 204.377 139.415L204.488 141.044C204.51 141.358 204.781 141.594 205.094 141.573Z" fill="#BEC0C2"/>
<path d="M205.178 141.272C205.103 141.272 205.029 141.243 204.973 141.185C204.865 141.072 204.869 140.893 204.982 140.784L206.806 139.04C206.92 138.931 207.098 138.936 207.206 139.049C207.314 139.162 207.31 139.341 207.197 139.45L205.373 141.194C205.319 141.246 205.248 141.272 205.178 141.272Z" fill="white"/>
<path d="M207.112 141.14C207.054 141.14 206.996 141.123 206.946 141.086L204.902 139.606C204.775 139.514 204.747 139.337 204.839 139.21C204.931 139.083 205.107 139.054 205.235 139.147L207.279 140.627C207.406 140.719 207.434 140.896 207.342 141.023C207.286 141.1 207.199 141.14 207.112 141.14Z" fill="white"/>
<path d="M84.1445 181.697C85.0075 181.54 86.2045 181.422 87.8335 181.422C89.5995 181.422 90.8945 181.795 91.7385 182.501C92.5235 183.149 93.0335 184.189 93.0335 185.425C93.0335 186.681 92.6415 187.721 91.8955 188.427C90.9335 189.389 89.4225 189.84 87.7155 189.84C87.2645 189.84 86.8525 189.82 86.5385 189.761V194.745H84.1445V181.697ZM86.5385 187.859C86.8325 187.938 87.2255 187.957 87.7155 187.957C89.5205 187.957 90.6195 187.074 90.6195 185.524C90.6195 184.052 89.5985 183.267 87.9315 183.267C87.2645 183.267 86.7935 183.326 86.5385 183.384V187.859Z" fill="#D6723A"/>
<path d="M96.6451 185.19L98.3721 190.312C98.5681 190.901 98.7641 191.627 98.9021 192.176H98.9611C99.1181 191.627 99.2951 190.92 99.4711 190.292L100.962 185.19H103.552L101.158 191.705C99.8431 195.276 98.9601 196.866 97.8221 197.847C96.8801 198.691 95.8991 199.005 95.2911 199.083L94.7421 197.042C95.1541 196.944 95.6641 196.728 96.1551 196.375C96.6061 196.081 97.1361 195.512 97.4701 194.864C97.5681 194.687 97.6271 194.55 97.6271 194.432C97.6271 194.334 97.6071 194.197 97.4891 193.961L93.9961 185.189H96.6451V185.19Z" fill="#D6723A"/>
<path d="M107.717 182.462V185.19H110.013V186.996H107.717V191.215C107.717 192.373 108.031 192.981 108.953 192.981C109.365 192.981 109.679 192.922 109.895 192.863L109.934 194.708C109.581 194.845 108.953 194.943 108.188 194.943C107.305 194.943 106.559 194.649 106.108 194.158C105.598 193.609 105.362 192.745 105.362 191.489V186.995H103.988V185.189H105.362V183.031L107.717 182.462Z" fill="#D6723A"/>
<path d="M111.837 180.814H114.27V186.505C114.604 186.054 114.996 185.681 115.506 185.406C115.977 185.131 116.546 184.974 117.154 184.974C118.783 184.974 120.49 186.053 120.49 189.115V194.747H118.076V189.39C118.076 187.997 117.566 186.957 116.231 186.957C115.289 186.957 114.622 187.585 114.367 188.311C114.289 188.507 114.269 188.762 114.269 189.037V194.747H111.836L111.837 180.814Z" fill="#D6723A"/>
<path d="M132.151 189.88C132.151 193.392 129.678 194.962 127.245 194.962C124.537 194.962 122.457 193.098 122.457 190.036C122.457 186.896 124.517 184.973 127.402 184.973C130.248 184.974 132.151 186.976 132.151 189.88ZM124.95 189.978C124.95 191.823 125.853 193.216 127.324 193.216C128.698 193.216 129.659 191.862 129.659 189.939C129.659 188.448 128.992 186.741 127.343 186.741C125.636 186.74 124.95 188.389 124.95 189.978Z" fill="#D6723A"/>
<path d="M134.133 188.035C134.133 186.936 134.113 186.014 134.055 185.189H136.174L136.292 186.622H136.351C136.763 185.876 137.803 184.974 139.393 184.974C141.061 184.974 142.788 186.053 142.788 189.075V194.746H140.374V189.349C140.374 187.976 139.864 186.935 138.549 186.935C137.587 186.935 136.92 187.622 136.665 188.348C136.586 188.564 136.567 188.858 136.567 189.133V194.745H134.134V188.035H134.133Z" fill="#D6723A"/>
<g opacity="0.7">
<path d="M101.044 165.543C76.1498 165.543 75.2818 166.23 75.2818 163.669C75.2818 161.73 74.9028 159.282 77.1558 159.282C102.05 159.282 102.918 158.595 102.918 161.156C102.918 163.095 103.298 165.543 101.044 165.543Z" fill="#D6723A"/>
<path d="M134.88 165.543C109.986 165.543 109.118 166.23 109.118 163.669C109.118 161.73 108.739 159.282 110.992 159.282C135.886 159.282 136.754 158.595 136.754 161.156C136.755 163.095 137.134 165.543 134.88 165.543Z" fill="#D6723A"/>
<path d="M168.716 165.543C143.822 165.543 142.954 166.23 142.954 163.669C142.954 161.73 142.575 159.282 144.828 159.282C169.722 159.282 170.59 158.595 170.59 161.156V163.669C170.591 164.704 169.752 165.543 168.716 165.543Z" fill="#D6723A"/>
<path d="M202.552 165.543C177.658 165.543 176.79 166.23 176.79 163.669C176.79 161.73 176.411 159.282 178.664 159.282C203.558 159.282 204.426 158.595 204.426 161.156C204.426 163.095 204.805 165.543 202.552 165.543Z" fill="#D6723A"/>
</g>
<g opacity="0.7">
<path d="M101.044 176.156C76.1498 176.156 75.2818 176.843 75.2818 174.282C75.2818 172.343 74.9028 169.895 77.1558 169.895C102.05 169.895 102.918 169.208 102.918 171.769C102.918 173.709 103.298 176.156 101.044 176.156Z" fill="#D6723A"/>
<path d="M134.88 176.156C109.986 176.156 109.118 176.843 109.118 174.282C109.118 172.343 108.739 169.895 110.992 169.895C135.886 169.895 136.754 169.208 136.754 171.769C136.755 173.709 137.134 176.156 134.88 176.156Z" fill="#D6723A"/>
<path d="M168.716 176.156C143.822 176.156 142.954 176.843 142.954 174.282C142.954 172.343 142.575 169.895 144.828 169.895H168.716C169.751 169.895 170.59 170.734 170.59 171.769V174.281C170.591 175.317 169.752 176.156 168.716 176.156Z" fill="#D6723A"/>
<path d="M202.552 176.156C177.658 176.156 176.79 176.843 176.79 174.282C176.79 172.343 176.411 169.895 178.664 169.895C203.558 169.895 204.426 169.208 204.426 171.769C204.426 173.709 204.805 176.156 202.552 176.156Z" fill="#D6723A"/>
<path d="M202.552 192.076C177.658 192.076 176.79 192.763 176.79 190.202C176.79 188.263 176.411 185.815 178.664 185.815C203.558 185.815 204.426 185.128 204.426 187.689C204.426 189.628 204.805 192.076 202.552 192.076Z" fill="#D6723A"/>
</g>
<g opacity="0.7">
<path d="M101.044 207.996C76.1498 207.996 75.2818 208.683 75.2818 206.122C75.2818 204.183 74.9028 201.735 77.1558 201.735C102.05 201.735 102.918 201.048 102.918 203.609C102.918 205.548 103.298 207.996 101.044 207.996Z" fill="#D6723A"/>
<path d="M134.88 207.996C109.986 207.996 109.118 208.683 109.118 206.122C109.118 204.183 108.739 201.735 110.992 201.735C135.886 201.735 136.754 201.048 136.754 203.609V206.122C136.755 207.157 135.915 207.996 134.88 207.996Z" fill="#D6723A"/>
<path d="M168.716 207.996C143.822 207.996 142.954 208.683 142.954 206.122C142.954 204.183 142.575 201.735 144.828 201.735C169.722 201.735 170.59 201.048 170.59 203.609V206.122C170.591 207.157 169.752 207.996 168.716 207.996Z" fill="#D6723A"/>
<path d="M202.552 207.996C177.658 207.996 176.79 208.683 176.79 206.122C176.79 204.183 176.411 201.735 178.664 201.735C203.558 201.735 204.426 201.048 204.426 203.609C204.426 205.548 204.805 207.996 202.552 207.996Z" fill="#D6723A"/>
</g>
<g opacity="0.7">
<path d="M101.044 218.609C76.1498 218.609 75.2818 219.296 75.2818 216.735C75.2818 214.796 74.9028 212.348 77.1558 212.348C102.05 212.348 102.918 211.661 102.918 214.222C102.918 216.162 103.298 218.609 101.044 218.609Z" fill="#D6723A"/>
<path d="M134.88 218.609C109.986 218.609 109.118 219.296 109.118 216.735C109.118 214.796 108.739 212.348 110.992 212.348C135.886 212.348 136.754 211.661 136.754 214.222C136.755 216.162 137.134 218.609 134.88 218.609Z" fill="#D6723A"/>
<path d="M168.716 218.609C143.822 218.609 142.954 219.296 142.954 216.735C142.954 214.796 142.575 212.348 144.828 212.348C169.722 212.348 170.59 211.661 170.59 214.222C170.591 216.162 170.97 218.609 168.716 218.609Z" fill="#D6723A"/>
<path d="M202.552 218.609C177.658 218.609 176.79 219.296 176.79 216.735C176.79 214.796 176.411 212.348 178.664 212.348C203.558 212.348 204.426 211.661 204.426 214.222C204.426 216.162 204.805 218.609 202.552 218.609Z" fill="#D6723A"/>
</g>
<g opacity="0.7">
<path d="M101.044 229.222C76.1498 229.222 75.2818 229.909 75.2818 227.348C75.2818 225.409 74.9028 222.961 77.1558 222.961C102.05 222.961 102.918 222.274 102.918 224.835C102.918 226.775 103.298 229.222 101.044 229.222Z" fill="#D6723A"/>
<path d="M134.88 229.222C109.986 229.222 109.118 229.909 109.118 227.348C109.118 225.409 108.739 222.961 110.992 222.961C135.886 222.961 136.754 222.274 136.754 224.835V227.348C136.755 228.383 135.915 229.222 134.88 229.222Z" fill="#D6723A"/>
<path d="M168.716 229.222C143.822 229.222 142.954 229.909 142.954 227.348C142.954 225.409 142.575 222.961 144.828 222.961C169.722 222.961 170.59 222.274 170.59 224.835C170.591 226.775 170.97 229.222 168.716 229.222Z" fill="#D6723A"/>
<path d="M202.552 229.222C177.658 229.222 176.79 229.909 176.79 227.348C176.79 225.409 176.411 222.961 178.664 222.961C203.558 222.961 204.426 222.274 204.426 224.835C204.426 226.775 204.805 229.222 202.552 229.222Z" fill="#D6723A"/>
</g>
<path d="M257.808 272.644C253.388 271.417 254.714 277.088 254.714 146.74C254.714 146.74 335.995 167.38 379.726 146.74V269.213C379.727 278.565 328.842 292.356 257.808 272.644Z" fill="white"/>
<path d="M327.113 283.105C307.848 283.105 284.204 280.429 257.689 273.071C257.521 273.024 257.362 272.989 257.211 272.954C253.973 272.217 253.973 272.217 254.144 217.508C254.197 200.46 254.271 177.111 254.271 146.74V146.171L254.823 146.311C255.026 146.363 275.417 151.495 300.878 154.041C324.345 156.388 357.042 156.957 379.537 146.34L380.169 146.042V269.214C380.169 270.607 379.229 272.028 377.375 273.437C371.042 278.251 353.049 283.105 327.113 283.105ZM257.926 272.218C319.839 289.398 365.925 281.03 376.839 272.732C378.438 271.516 379.283 270.3 379.283 269.214V147.435C356.625 157.835 324.14 157.259 300.776 154.921C277.585 152.6 258.589 148.14 255.156 147.305C255.155 177.402 255.083 200.568 255.03 217.51C254.864 270.5 254.908 271.521 257.407 272.089C257.571 272.127 257.744 272.167 257.926 272.218Z" fill="#EEE4D9"/>
<path d="M373.836 142.85C337.085 158.113 277.756 145.687 259.935 141.382C258.047 140.926 254.711 141.56 254.711 146.74C254.711 146.74 338.08 167.38 379.723 146.74C379.724 143.708 376.637 141.687 373.836 142.85Z" fill="#444244"/>
<path d="M328.573 156.333C319.043 156.333 309.762 155.733 301.559 154.921C275.778 152.367 254.815 147.222 254.606 147.17L254.27 147.087V146.74C254.27 144.407 254.913 142.719 256.181 141.72C257.715 140.513 259.523 140.827 260.041 140.951C277.426 145.151 336.999 157.669 373.668 142.441C375.131 141.833 376.788 141.992 378.1 142.868C379.395 143.732 380.168 145.18 380.168 146.74V147.015L379.922 147.137C365.756 154.158 346.718 156.333 328.573 156.333ZM255.161 146.393C261.025 147.791 339.516 165.93 379.273 146.469C379.193 145.298 378.596 144.265 377.608 143.605C376.544 142.895 375.197 142.765 374.008 143.259C360.788 148.749 344.627 150.663 328.533 150.663C299.683 150.664 271.035 144.519 259.833 141.813C259.413 141.712 257.95 141.456 256.729 142.417C255.745 143.191 255.218 144.528 255.161 146.393Z" fill="#444244"/>
<path d="M373.812 147.291C375.702 146.57 376.446 146.466 376.184 145.778C375.678 144.451 375.545 143.665 374.868 143.923C372.978 144.644 372.234 144.748 372.496 145.436C373.003 146.763 373.136 147.549 373.812 147.291Z" fill="#BEC0C2"/>
<path d="M373.721 146.991C373.674 146.991 373.626 146.979 373.582 146.955C373.446 146.878 373.397 146.706 373.474 146.569L374.71 144.369C374.786 144.232 374.958 144.184 375.096 144.261C375.232 144.338 375.281 144.51 375.204 144.647L373.968 146.847C373.915 146.939 373.82 146.991 373.721 146.991Z" fill="white"/>
<path d="M375.534 146.3C375.504 146.3 375.473 146.295 375.442 146.285L373.055 145.466C372.907 145.415 372.828 145.254 372.879 145.106C372.93 144.958 373.09 144.88 373.239 144.93L375.626 145.749C375.774 145.8 375.853 145.961 375.802 146.109C375.762 146.226 375.652 146.3 375.534 146.3Z" fill="white"/>
<path d="M325.371 193.268C324.944 193.489 324.003 193.709 322.811 193.709C319.662 193.709 317.75 191.738 317.75 188.721C317.75 185.455 320.016 183.483 323.046 183.483C324.238 183.483 325.092 183.733 325.459 183.924L325.062 185.366C324.591 185.16 323.944 184.983 323.12 184.983C321.104 184.983 319.648 186.248 319.648 188.632C319.648 190.81 320.928 192.208 323.106 192.208C323.841 192.208 324.606 192.061 325.077 191.84L325.371 193.268Z" fill="#444244"/>
<path d="M330.857 185.735V189.06H334.049V190.207H330.857V193.562H329.65V190.207H326.457V189.06H329.65V185.735H330.857Z" fill="#444244"/>
<path d="M339.623 185.735V189.06H342.816V190.207H339.623V193.562H338.416V190.207H335.223V189.06H338.416V185.735H339.623Z" fill="#444244"/>
<path d="M322.043 214.26C322.907 214.103 324.103 213.986 325.732 213.986C327.499 213.986 328.794 214.359 329.638 215.065C330.422 215.712 330.933 216.753 330.933 217.989C330.933 219.245 330.54 220.285 329.794 220.992C328.832 221.954 327.321 222.405 325.615 222.405C325.163 222.405 324.751 222.385 324.437 222.326V227.31H322.043V214.26ZM324.437 220.422C324.732 220.501 325.124 220.52 325.615 220.52C327.42 220.52 328.519 219.637 328.519 218.087C328.519 216.615 327.499 215.83 325.831 215.83C325.164 215.83 324.693 215.889 324.437 215.948V220.422Z" fill="#D6723A"/>
<path d="M335.43 214.083V219.382H341.023V214.083H343.436V227.309H341.023V221.481H335.43V227.309H333.016V214.083H335.43Z" fill="#D6723A"/>
<path d="M346.203 214.26C347.067 214.103 348.263 213.986 349.892 213.986C351.659 213.986 352.954 214.359 353.798 215.065C354.583 215.712 355.093 216.753 355.093 217.989C355.093 219.245 354.7 220.285 353.954 220.992C352.992 221.954 351.481 222.405 349.775 222.405C349.324 222.405 348.911 222.385 348.597 222.326V227.31H346.203V214.26ZM348.597 220.422C348.892 220.501 349.284 220.52 349.775 220.52C351.58 220.52 352.679 219.637 352.679 218.087C352.679 216.615 351.659 215.83 349.991 215.83C349.324 215.83 348.853 215.889 348.597 215.948V220.422Z" fill="#D6723A"/>
<path d="M349.958 259.534C349.531 259.755 348.59 259.975 347.398 259.975C344.249 259.975 342.336 258.003 342.336 254.987C342.336 251.72 344.602 249.749 347.633 249.749C348.825 249.749 349.678 249.999 350.046 250.191L349.649 251.633C349.178 251.427 348.531 251.251 347.707 251.251C345.691 251.251 344.235 252.516 344.235 254.9C344.235 257.078 345.515 258.475 347.693 258.475C348.428 258.475 349.194 258.328 349.664 258.108L349.958 259.534Z" fill="#444244"/>
<path d="M351.824 259.829L352.207 257.092H351V255.944H352.383L352.647 254.076H351.382V252.943H352.809L353.191 250.265H354.295L353.927 252.943H355.354L355.736 250.265H356.84L356.472 252.943H357.664V254.076H356.296L356.046 255.944H357.282V257.077H355.855L355.487 259.828H354.354L354.737 257.077H353.324L352.941 259.828H351.824V259.829ZM354.929 255.944L355.179 254.076H353.752L353.502 255.944H354.929Z" fill="#444244"/>
<g opacity="0.8">
<path d="M307.329 168.762H285.509C284.564 168.762 283.797 167.996 283.797 167.05V164.755C283.797 163.81 284.564 163.043 285.509 163.043H307.329C308.275 163.043 309.041 163.81 309.041 164.755V167.05C309.041 167.995 308.274 168.762 307.329 168.762Z" fill="#9EBFD8"/>
<path d="M336.024 168.762C313.279 168.762 312.492 169.387 312.492 167.05C312.492 165.32 312.14 163.043 314.204 163.043C336.949 163.043 337.736 162.418 337.736 164.755C337.736 166.485 338.088 168.762 336.024 168.762Z" fill="#D6723A"/>
<path d="M364.719 168.762C341.974 168.762 341.187 169.387 341.187 167.05C341.187 165.32 340.835 163.043 342.899 163.043C365.644 163.043 366.431 162.418 366.431 164.755C366.431 166.485 366.782 168.762 364.719 168.762Z" fill="#9EBFD8"/>
</g>
<g opacity="0.8">
<path d="M307.329 180.742H285.509C284.564 180.742 283.797 179.975 283.797 179.03V176.735C283.797 175.789 284.564 175.023 285.509 175.023H307.329C308.275 175.023 309.041 175.789 309.041 176.735V179.03C309.041 179.975 308.274 180.742 307.329 180.742Z" fill="#9EBFD8"/>
<path d="M336.024 180.742C313.279 180.742 312.492 181.367 312.492 179.03C312.492 177.3 312.14 175.023 314.204 175.023C336.949 175.023 337.736 174.398 337.736 176.735C337.736 178.465 338.088 180.742 336.024 180.742Z" fill="#9EBFD8"/>
</g>
<path opacity="0.8" d="M307.329 192.722H285.509C284.564 192.722 283.797 191.955 283.797 191.01V188.715C283.797 187.77 284.564 187.003 285.509 187.003H307.329C308.275 187.003 309.041 187.769 309.041 188.715V191.01C309.041 191.956 308.274 192.722 307.329 192.722Z" fill="#9EBFD8"/>
<g opacity="0.8">
<path d="M307.328 204.703C284.583 204.703 283.796 205.328 283.796 202.991C283.796 201.261 283.444 198.984 285.508 198.984C308.253 198.984 309.04 198.359 309.04 200.696V202.991C309.04 203.936 308.273 204.703 307.328 204.703Z" fill="#9EBFD8"/>
<path d="M336.02 204.703H314.2C313.254 204.703 312.488 203.936 312.488 202.991V200.696C312.488 199.751 313.254 198.984 314.2 198.984H336.02C336.966 198.984 337.732 199.751 337.732 200.696V202.991C337.732 203.936 336.966 204.703 336.02 204.703Z" fill="#9EBFD8"/>
<path d="M364.719 204.703C341.974 204.703 341.187 205.328 341.187 202.991C341.187 201.261 340.835 198.984 342.899 198.984C365.644 198.984 366.431 198.359 366.431 200.696C366.431 202.426 366.782 204.703 364.719 204.703Z" fill="#9EBFD8"/>
</g>
<path opacity="0.8" d="M307.328 216.683C284.583 216.683 283.796 217.309 283.796 214.971C283.796 213.241 283.444 210.964 285.508 210.964H307.328C308.274 210.964 309.04 211.73 309.04 212.676V214.971C309.04 215.916 308.273 216.683 307.328 216.683Z" fill="#514342"/>
<path opacity="0.8" d="M307.328 228.663C284.583 228.663 283.796 229.288 283.796 226.951C283.796 225.221 283.444 222.944 285.508 222.944C308.253 222.944 309.04 222.318 309.04 224.656V226.951C309.04 227.897 308.273 228.663 307.328 228.663Z" fill="#514342"/>
<g opacity="0.8">
<path d="M307.328 240.643C284.583 240.643 283.796 241.268 283.796 238.931C283.796 237.201 283.444 234.924 285.508 234.924C308.253 234.924 309.04 234.299 309.04 236.636C309.04 238.367 309.392 240.643 307.328 240.643Z" fill="#9EBFD8"/>
<path d="M336.024 240.643C313.279 240.643 312.492 241.268 312.492 238.931C312.492 237.201 312.14 234.924 314.204 234.924C336.949 234.924 337.736 234.299 337.736 236.636C337.736 238.367 338.088 240.643 336.024 240.643Z" fill="#9EBFD8"/>
<path d="M364.719 240.643C341.974 240.643 341.187 241.268 341.187 238.931C341.187 237.201 340.835 234.924 342.899 234.924C365.644 234.924 366.431 234.299 366.431 236.636C366.431 238.367 366.782 240.643 364.719 240.643Z" fill="#9EBFD8"/>
</g>
<path opacity="0.8" d="M307.328 252.624C284.583 252.624 283.796 253.25 283.796 250.912C283.796 249.182 283.444 246.905 285.508 246.905H307.328C308.274 246.905 309.04 247.672 309.04 248.617V250.912C309.04 251.857 308.273 252.624 307.328 252.624Z" fill="#9EBFD8"/>
<path opacity="0.8" d="M336.024 252.624H314.204C313.258 252.624 312.492 251.858 312.492 250.912V248.617C312.492 247.672 313.258 246.905 314.204 246.905C336.949 246.905 337.736 246.28 337.736 248.617V250.912C337.736 251.857 336.97 252.624 336.024 252.624Z" fill="#D6723A"/>
<path opacity="0.8" d="M307.328 264.604C284.583 264.604 283.796 265.229 283.796 262.892C283.796 261.162 283.444 258.885 285.508 258.885C308.253 258.885 309.04 258.26 309.04 260.597C309.04 262.327 309.392 264.604 307.328 264.604Z" fill="#9EBFD8"/>
<path opacity="0.8" d="M336.024 264.604C313.279 264.604 312.492 265.229 312.492 262.892C312.492 261.162 312.14 258.885 314.204 258.885C336.949 258.885 337.736 258.26 337.736 260.597C337.736 262.327 338.088 264.604 336.024 264.604Z" fill="#9EBFD8"/>
<path opacity="0.8" d="M351.695 186.468H355.922C356.63 186.468 357.203 187.042 357.203 187.749C357.203 191.494 357.58 193.257 355.922 193.257C352.177 193.257 350.414 193.634 350.414 191.976V187.749C350.413 187.042 350.987 186.468 351.695 186.468Z" fill="#514342"/>
<path opacity="0.8" d="M360.922 186.468H365.149C365.857 186.468 366.43 187.042 366.43 187.749C366.43 191.494 366.807 193.257 365.149 193.257C361.404 193.257 359.641 193.634 359.641 191.976V187.749C359.641 187.042 360.214 186.468 360.922 186.468Z" fill="#514342"/>
<path opacity="0.8" d="M265.255 246.369C269 246.369 270.763 245.992 270.763 247.65C270.763 251.395 271.141 253.158 269.482 253.158C265.737 253.158 263.974 253.535 263.974 251.877C263.974 248.132 263.597 246.369 265.255 246.369Z" fill="#514342"/>
<path opacity="0.8" d="M274.484 246.369C278.229 246.369 279.992 245.992 279.992 247.65C279.992 251.395 280.369 253.158 278.711 253.158C274.966 253.158 273.203 253.535 273.203 251.877V247.65C273.202 246.943 273.776 246.369 274.484 246.369Z" fill="#514342"/>
<path opacity="0.8" d="M265.255 222.409C269 222.409 270.763 222.032 270.763 223.69C270.763 227.435 271.141 229.198 269.482 229.198C265.737 229.198 263.974 229.576 263.974 227.917C263.974 224.171 263.597 222.409 265.255 222.409Z" fill="#514342"/>
<path opacity="0.8" d="M274.483 222.409C278.228 222.409 279.991 222.032 279.991 223.69C279.991 227.435 280.368 229.198 278.71 229.198C274.965 229.198 273.202 229.576 273.202 227.917C273.201 224.171 272.824 222.409 274.483 222.409Z" fill="#514342"/>
<path opacity="0.8" d="M265.255 198.448C269 198.448 270.763 198.071 270.763 199.729C270.763 203.474 271.141 205.237 269.482 205.237C265.737 205.237 263.974 205.615 263.974 203.956C263.974 200.211 263.597 198.448 265.255 198.448Z" fill="#514342"/>
<path opacity="0.8" d="M274.483 198.448C278.228 198.448 279.991 198.071 279.991 199.729C279.991 203.474 280.368 205.237 278.71 205.237C274.965 205.237 273.202 205.615 273.202 203.956C273.201 200.211 272.824 198.448 274.483 198.448Z" fill="#514342"/>
<path opacity="0.8" d="M265.254 174.488H269.481C270.189 174.488 270.762 175.062 270.762 175.769V179.996C270.762 180.704 270.188 181.277 269.481 181.277H265.254C264.546 181.277 263.973 180.703 263.973 179.996V175.769C263.973 175.062 264.547 174.488 265.254 174.488Z" fill="#514342"/>
<path opacity="0.8" d="M274.484 174.488H278.711C279.419 174.488 279.992 175.062 279.992 175.769V179.996C279.992 180.704 279.418 181.277 278.711 181.277H274.484C273.776 181.277 273.203 180.703 273.203 179.996V175.769C273.202 175.062 273.776 174.488 274.484 174.488Z" fill="#514342"/>
<path opacity="0.8" d="M364.691 252.473C372.42 252.473 374.366 251.983 374.366 254.128C374.366 256.99 374.791 259.262 372.711 259.262C364.982 259.262 363.036 259.752 363.036 257.607C363.035 254.744 362.61 252.473 364.691 252.473Z" fill="#514342"/>
<path d="M223.041 279.138C166.489 275.506 147.732 285.607 149.161 274.457C149.62 270.873 150.075 266.071 150.075 261.093C150.075 253.562 156.472 247.576 163.99 248.018C219.069 251.26 238.359 241.518 235.908 253.027C234.687 258.76 233.763 264.281 233.805 269.061C233.855 274.891 228.86 279.511 223.041 279.138Z" fill="white"/>
<path d="M157.363 280.452C153.334 280.452 150.883 279.992 149.566 278.587C148.663 277.624 148.356 276.288 148.6 274.384C149.014 271.148 149.509 266.215 149.509 261.092C149.509 257.307 151.034 253.784 153.802 251.174C156.545 248.587 160.271 247.235 164.023 247.452C187.715 248.846 204.938 247.825 216.334 247.151C227.854 246.467 233.637 246.125 235.798 248.64C236.685 249.672 236.896 251.103 236.461 253.145C235.464 257.829 234.324 263.87 234.37 269.056C234.395 272.002 233.222 274.747 231.065 276.788C228.906 278.831 225.961 279.891 223.004 279.704C197.793 278.084 180.085 279.2 168.368 279.938C163.816 280.224 160.199 280.452 157.363 280.452ZM163.196 248.561C159.983 248.561 156.948 249.766 154.58 251.999C152.041 254.393 150.642 257.623 150.642 261.093C150.642 266.276 150.143 271.26 149.724 274.529C149.526 276.072 149.739 277.115 150.393 277.813C152.271 279.817 158.304 279.436 168.298 278.807C180.044 278.067 197.797 276.95 223.078 278.573C225.729 278.747 228.356 277.793 230.288 275.965C232.213 274.144 233.261 271.693 233.238 269.066C233.192 263.769 234.345 257.649 235.354 252.909C235.709 251.242 235.578 250.119 234.94 249.378C233.145 247.289 226.843 247.663 216.402 248.281C204.979 248.957 187.716 249.982 163.957 248.582C163.703 248.568 163.449 248.561 163.196 248.561Z" fill="#EEE4D9"/>
<path d="M199.665 267.251C199.238 267.472 198.297 267.693 197.105 267.693C193.956 267.693 192.043 265.721 192.043 262.705C192.043 259.438 194.309 257.467 197.34 257.467C198.532 257.467 199.385 257.717 199.753 257.908L199.356 259.35C198.885 259.144 198.238 258.968 197.414 258.968C195.399 258.968 193.942 260.233 193.942 262.617C193.942 264.795 195.222 266.192 197.4 266.192C198.135 266.192 198.9 266.045 199.371 265.825L199.665 267.251Z" fill="#444244"/>
<path d="M201.531 267.545L201.914 264.808H200.707V263.66H202.09L202.354 261.792H201.089V260.659H202.516L202.898 257.981H204.002L203.634 260.659H205.061L205.443 257.981H206.547L206.179 260.659H207.371V261.792H206.003L205.753 263.66H206.988V264.793H205.561L205.193 267.544H204.06L204.443 264.793H203.03L202.647 267.544H201.531V267.545ZM204.635 263.661L204.885 261.793H203.458L203.208 263.661H204.635Z" fill="#444244"/>
<path opacity="0.8" d="M186.301 261.473C163.556 261.473 162.769 262.098 162.769 259.761C162.769 258.031 162.417 255.754 164.481 255.754C187.226 255.754 188.013 255.128 188.013 257.466C188.013 259.197 188.365 261.473 186.301 261.473Z" fill="#D6723A"/>
<path opacity="0.8" d="M186.301 270.621C163.556 270.621 162.769 271.247 162.769 268.909C162.769 267.179 162.417 264.902 164.481 264.902C187.226 264.902 188.013 264.277 188.013 266.614C188.013 268.344 188.365 270.621 186.301 270.621Z" fill="#9EBFD8"/>
<path opacity="0.8" d="M214.964 259.056C222.693 259.056 224.639 258.566 224.639 260.711C224.639 263.573 225.064 265.845 222.984 265.845C215.255 265.845 213.309 266.335 213.309 264.19C213.309 261.328 212.884 259.056 214.964 259.056Z" fill="#514342"/>
<path opacity="0.8" d="M156.453 255.754C160.54 255.754 162.066 255.408 162.066 256.93C162.066 259.843 162.396 261.473 160.89 261.473C156.803 261.473 155.277 261.819 155.277 260.297C155.277 257.384 154.947 255.754 156.453 255.754Z" fill="#514342"/>
<path opacity="0.8" d="M156.453 264.902C160.54 264.902 162.066 264.556 162.066 266.078C162.066 268.991 162.396 270.621 160.89 270.621C156.803 270.621 155.277 270.967 155.277 269.445C155.277 266.532 154.947 264.902 156.453 264.902Z" fill="#514342"/>
<path d="M310.079 369.022C310.079 383.353 200.723 383.351 200.723 369.022C200.723 354.69 310.079 354.693 310.079 369.022Z" fill="#E0DFEA"/>
<path d="M247.63 130.564C247.708 136.945 249.822 141.677 238.086 147.199C245.071 156.809 251.951 160.36 251.951 160.36C251.951 160.36 266.669 153.735 271.726 149.351C265.504 144.824 260.983 144.28 261.098 138.211C261.126 136.754 261.057 130.797 261.018 130.682L247.63 130.564Z" fill="#FFA887"/>
<path d="M259.01 132.799C262.342 131.886 268.112 122.546 266.715 110.249C265.747 101.726 247.969 95.032 245.401 110.168C244.203 118.834 237.239 118.992 243.474 121.601C243.474 121.601 242.012 129.361 248.319 131.698C246.274 130.867 253.597 134.282 259.01 132.799Z" fill="#FFA887"/>
<path d="M228.652 357.853C230.794 359.502 234.093 359.132 237.114 357.39L240.193 342.551L228.866 342.821L228.652 357.853Z" fill="#FCA685"/>
<path d="M283.92 357.853C281.778 359.502 278.479 359.132 275.458 357.39L272.379 342.551L283.706 342.821L283.92 357.853Z" fill="#FCA685"/>
<path d="M275.922 209.332C286.239 250.103 287.886 352.005 285.773 352.509C284.433 352.829 273.495 354.771 273.019 352.592C262.081 302.471 254.179 254.01 254.179 254.01C249.678 303.971 241.712 352.667 238.732 353.075C236.044 353.443 226.606 352.435 226.46 350.36C225.681 339.302 224.074 232.219 230.937 208.838L275.922 209.332Z" fill="#3B314A"/>
<path d="M276.539 353.894C275.114 353.894 273.91 353.747 273.276 353.349C272.983 353.165 272.804 352.931 272.743 352.652C263.228 309.056 255.933 266.232 254.262 256.234C252.178 278.832 249.244 302.74 246.166 322.169C243.936 336.239 240.844 353.072 238.772 353.355C236.494 353.667 228.784 352.966 226.743 351.307C226.392 351.022 226.203 350.71 226.179 350.379C225.317 338.142 223.88 231.88 230.666 208.757L230.727 208.551L230.941 208.553L276.143 209.05L276.196 209.261C282.021 232.279 284.669 272.681 285.73 294.714C287.198 325.22 287.136 350.866 286.102 352.573C286.033 352.686 285.944 352.757 285.839 352.782C285.013 352.982 280.093 353.894 276.539 353.894ZM254.099 251.753L254.459 253.965C254.538 254.449 262.485 302.992 273.296 352.532C273.324 352.658 273.416 352.769 273.577 352.87C275.447 354.045 283.857 352.659 285.637 352.25C286.49 350.672 286.673 326.249 285.177 295.002C284.122 272.986 281.491 232.68 275.701 209.614L231.15 209.124C224.448 232.607 225.885 338.152 226.744 350.341C226.756 350.509 226.876 350.687 227.1 350.869C228.905 352.335 236.28 353.126 238.695 352.795C239.471 352.689 241.8 346.101 245.606 322.081C248.782 302.032 251.805 277.212 253.897 253.985L254.099 251.753Z" fill="#1A297B"/>
<path d="M265.738 216.435C265.951 216.435 265.868 208.25 265.868 208.443C265.868 208.218 264.339 208.313 264.54 208.313C264.327 208.313 264.41 216.498 264.41 216.305C264.41 216.53 265.939 216.435 265.738 216.435Z" fill="#3B314A"/>
<path d="M239.438 215.872C239.651 215.872 239.568 207.687 239.568 207.88C239.568 207.655 238.039 207.75 238.24 207.75C238.027 207.75 238.11 215.935 238.11 215.742C238.11 215.967 239.639 215.872 239.438 215.872Z" fill="#3B314A"/>
<path d="M261.764 140.583C256.775 143.384 250.515 143.18 246.505 141.159C237.291 143.967 228.179 145.495 228.374 154.583C228.777 173.466 227.468 207.876 230.935 208.837C246.665 213.196 275.253 211.837 277.663 208.837C280.929 204.77 279.651 178.381 278.453 161.42C277.788 152.004 271.497 143.446 261.764 140.583Z" fill="#FFFFF8"/>
<path d="M256.784 211.913C247.906 211.913 238.018 211.094 230.861 209.11C228.291 208.398 228.128 193.885 228.174 171.824C228.187 165.515 228.199 159.555 228.093 154.589C227.916 146.27 235.458 144.083 243.444 141.767C244.429 141.481 245.426 141.192 246.425 140.887L246.534 140.854L246.635 140.905C250.184 142.692 256.388 143.277 261.627 140.334L261.731 140.276L261.846 140.31C271.254 143.076 278.042 151.552 278.738 161.399C280.117 180.92 281.088 205.026 277.885 209.013C276.489 210.753 267.353 211.913 256.784 211.913ZM246.482 141.464C245.517 141.757 244.553 142.037 243.601 142.313C235.493 144.664 228.491 146.695 228.659 154.578C228.765 159.551 228.753 165.513 228.74 171.826C228.707 187.904 228.666 207.914 231.012 208.565C247.052 213.011 275.256 211.384 277.443 208.66C279.851 205.661 280.11 188.892 278.172 161.441C277.485 151.718 271.064 143.663 261.8 140.889C256.452 143.838 250.152 143.265 246.482 141.464Z" fill="#EFE5DA"/>
<path d="M268.365 137.107C266.706 137.107 264.368 136.772 261.117 136.096C260.964 136.064 260.865 135.914 260.897 135.761C260.929 135.607 261.081 135.51 261.232 135.541C267.142 136.769 269.966 136.865 270.984 135.877C271.797 135.087 271.507 133.464 271.106 131.217C270.676 128.808 270.087 125.51 270.676 121.668C272.602 109.094 266.576 104.206 262.812 102.412C257.385 99.824 250.783 100.695 248.505 103.202C248.4 103.318 248.221 103.326 248.105 103.221C247.989 103.116 247.98 102.937 248.086 102.821C250.499 100.168 257.413 99.21 263.056 101.901C266.961 103.763 273.218 108.818 271.236 121.754C270.662 125.502 271.217 128.616 271.664 131.117C272.096 133.536 272.407 135.283 271.379 136.283C270.815 136.831 269.869 137.107 268.365 137.107Z" fill="#30323E"/>
<path d="M254.413 132.803C254.364 132.803 254.314 132.79 254.269 132.763C250.171 130.335 249.848 125.189 249.635 121.784C249.564 120.658 249.503 119.686 249.319 119.133C248.664 117.166 246.857 115.886 245.111 114.647C243.816 113.729 242.594 112.863 241.999 111.785C241.232 110.394 241.077 107.796 242.303 105.72C243.11 104.354 244.804 102.726 248.296 102.726C248.453 102.726 248.579 102.853 248.579 103.009C248.579 103.165 248.452 103.292 248.296 103.292C245.071 103.292 243.522 104.769 242.791 106.007C241.672 107.902 241.803 110.256 242.495 111.51C243.027 112.474 244.199 113.304 245.438 114.184C247.175 115.415 249.143 116.81 249.856 118.953C250.063 119.576 250.123 120.534 250.2 121.747C250.405 125.033 250.717 129.999 254.557 132.274C254.692 132.354 254.736 132.527 254.656 132.662C254.604 132.754 254.509 132.803 254.413 132.803Z" fill="#30323E"/>
<path d="M249.989 101.593C257.67 98.869 267.284 103.498 269.023 109.513C270.361 114.142 271.981 132.21 266.105 128.499C259.735 124.476 256.103 113.716 251.919 107.849C251.188 106.824 244.77 103.443 249.989 101.593Z" fill="#30323E"/>
<path d="M257.081 106.253C260.138 109.132 259.597 110.682 260.424 113.449C262.378 119.987 270.409 122.48 270.858 132.974C270.991 136.078 269.471 136.78 266.588 136.132C254.95 133.517 250.641 134.302 250.853 125.922C251.14 114.539 247.862 116.382 244.317 112.842C238.528 107.058 247.526 97.2531 257.081 106.253Z" fill="#30323E"/>
<path d="M248.295 112.529C248.234 112.529 248.173 112.51 248.121 112.469C245.032 110.074 244.884 108.051 245.304 106.776C245.774 105.35 247.179 104.367 248.196 104.344C248.361 104.342 248.483 104.465 248.486 104.621C248.489 104.777 248.365 104.907 248.209 104.911C247.496 104.927 246.252 105.712 245.842 106.954C245.479 108.056 245.64 109.83 248.468 112.022C248.591 112.118 248.614 112.296 248.518 112.419C248.463 112.491 248.379 112.529 248.295 112.529Z" fill="#353B4A"/>
<path d="M264.68 106.115C264.61 106.115 264.541 106.089 264.486 106.038C259.323 101.167 254.519 102.024 250.91 103.314C250.762 103.367 250.601 103.29 250.548 103.143C250.495 102.996 250.572 102.833 250.719 102.781C254.186 101.542 259.427 100.487 264.873 105.626C264.987 105.733 264.992 105.913 264.885 106.027C264.831 106.085 264.756 106.115 264.68 106.115Z" fill="#353B4A"/>
<path d="M251.792 110.021C251.627 110.016 251.504 109.885 251.509 109.729C251.576 107.582 250.704 105.4 249.178 103.89C249.067 103.78 249.066 103.601 249.176 103.489C249.286 103.378 249.465 103.376 249.577 103.487C251.214 105.105 252.148 107.445 252.076 109.746C252.07 109.9 251.944 110.021 251.792 110.021Z" fill="#353B4A"/>
<path d="M259.126 106.997C259.069 106.997 259.011 106.98 258.962 106.944C256.218 104.991 254.506 104.746 251.913 105.934C251.772 105.998 251.603 105.937 251.538 105.795C251.473 105.653 251.535 105.485 251.677 105.419C254.458 104.143 256.38 104.412 259.29 106.483C259.417 106.574 259.447 106.75 259.356 106.878C259.302 106.955 259.215 106.997 259.126 106.997Z" fill="#353B4A"/>
<path d="M259.492 125.743C259.462 125.743 259.43 125.738 259.4 125.728C259.252 125.677 259.174 125.516 259.225 125.368C260.994 120.236 261.01 116.1 259.274 113.074C257.336 109.699 253.922 108.984 253.778 108.956C253.625 108.926 253.525 108.776 253.556 108.623C253.587 108.469 253.738 108.369 253.889 108.401C254.044 108.432 257.702 109.197 259.766 112.793C261.588 115.967 261.586 120.26 259.762 125.553C259.719 125.669 259.609 125.743 259.492 125.743Z" fill="#353B4A"/>
<path d="M267.584 125.416C267.501 125.416 267.418 125.379 267.362 125.309C263.967 121.024 265.062 117.306 265.942 114.319C266.534 112.311 267.045 110.577 266.055 109.167C265.965 109.039 265.996 108.863 266.124 108.773C266.251 108.683 266.428 108.714 266.518 108.842C267.664 110.475 267.118 112.331 266.485 114.479C265.598 117.49 264.592 120.903 267.805 124.957C267.902 125.08 267.882 125.258 267.759 125.355C267.708 125.396 267.646 125.416 267.584 125.416Z" fill="#353B4A"/>
<path d="M262.435 132.098C262.409 132.098 262.383 132.094 262.357 132.087L257.993 130.824C253.473 129.515 253.771 127.523 254.117 125.216C254.449 123.001 254.862 120.245 251.306 116.839C251.193 116.731 251.189 116.551 251.297 116.438C251.406 116.325 251.585 116.321 251.698 116.429C255.466 120.038 255.029 122.955 254.677 125.3C254.333 127.594 254.106 129.109 258.15 130.279L262.514 131.542C262.665 131.586 262.751 131.743 262.708 131.893C262.671 132.017 262.558 132.098 262.435 132.098Z" fill="#353B4A"/>
<path d="M267.523 135.656C266.994 135.656 266.422 135.602 265.846 135.529C265.691 135.51 265.581 135.368 265.6 135.213C265.619 135.057 265.763 134.949 265.916 134.967C267.247 135.134 268.838 135.233 269.327 134.51C269.675 133.996 269.467 133.015 268.725 131.673C268.649 131.536 268.699 131.364 268.836 131.288C268.973 131.212 269.146 131.262 269.221 131.399C270.097 132.984 270.285 134.105 269.796 134.827C269.368 135.461 268.523 135.656 267.523 135.656Z" fill="#353B4A"/>
<path d="M265.17 129.908C265.019 129.908 264.893 129.789 264.887 129.637C264.881 129.481 265.002 129.348 265.159 129.342C266.635 129.28 268.041 128.399 268.739 127.096C268.813 126.958 268.986 126.907 269.122 126.98C269.26 127.054 269.312 127.226 269.238 127.363C268.447 128.839 266.855 129.837 265.182 129.907C265.178 129.908 265.174 129.908 265.17 129.908Z" fill="#353B4A"/>
<path d="M242.733 235.755C243.237 237.413 244.569 238.687 246.248 239.113C273.556 246.033 300.719 242.207 292.558 231.199C282.753 217.974 286.736 193.89 284.495 179.433C279.23 145.463 261.852 139.626 261.852 139.626C255.252 149.894 243.615 142.071 243.615 142.071C239.229 143.419 228.047 147.159 228.047 147.159C222.687 167.569 238.859 223.008 242.733 235.755Z" fill="#FA6511"/>
<path d="M272.713 242.831C264.698 242.831 255.325 241.706 246.178 239.388C244.415 238.941 242.991 237.582 242.461 235.838C239.057 224.639 222.351 167.727 227.773 147.087L227.812 146.939L227.957 146.891C228.069 146.854 239.193 143.135 243.532 141.801L243.661 141.761L243.773 141.836C243.829 141.874 249.395 145.556 254.869 144.421C257.597 143.856 259.867 142.192 261.614 139.473L261.733 139.287L261.942 139.357C262.117 139.416 279.543 145.639 284.774 179.389C285.48 183.943 285.571 189.431 285.666 195.24C285.874 207.795 286.109 222.025 292.784 231.029C294.53 233.384 294.79 235.512 293.556 237.353C291.142 240.956 283.058 242.831 272.713 242.831ZM243.003 235.673C243.476 237.228 244.745 238.441 246.317 238.839C267.065 244.097 288.919 243.254 293.086 237.039C294.172 235.418 293.918 233.51 292.33 231.368C285.546 222.218 285.31 207.891 285.1 195.25C285.004 189.46 284.914 183.992 284.214 179.476C279.346 148.072 263.915 140.775 261.963 139.973C260.147 142.711 257.798 144.394 254.98 144.976C249.644 146.079 244.427 142.929 243.571 142.381C239.432 143.659 229.599 146.939 228.282 147.379C223.018 167.995 239.615 224.526 243.003 235.673Z" fill="#3B314A"/>
<path d="M280.138 242.501C280.059 242.501 279.981 242.468 279.925 242.405C270.17 231.341 270.474 219.309 270.825 205.377C271.244 188.752 271.766 168.063 254.792 141.822C254.707 141.691 254.744 141.515 254.876 141.43C255.007 141.346 255.183 141.382 255.268 141.514C272.337 167.902 271.812 188.689 271.391 205.391C271.042 219.204 270.742 231.133 280.35 242.03C280.453 242.147 280.442 242.327 280.325 242.43C280.271 242.478 280.204 242.501 280.138 242.501Z" fill="#3B314A"/>
<path d="M286.009 241.487C285.924 241.487 285.839 241.448 285.783 241.375C279.245 232.759 278.101 226.391 277.344 222.177C276.556 217.788 276.196 215.784 270.975 215.367C270.819 215.355 270.703 215.218 270.716 215.062C270.728 214.906 270.868 214.792 271.021 214.803C276.678 215.255 277.113 217.678 277.903 222.077C278.65 226.238 279.78 232.525 286.236 241.032C286.331 241.157 286.306 241.335 286.182 241.429C286.129 241.468 286.069 241.487 286.009 241.487Z" fill="#3B314A"/>
<path d="M260.063 134.893C260.735 134.48 261.586 134.593 261.925 135.305C263.734 139.107 265.148 141.926 259.229 144.295C247.463 149.003 249.288 147.278 243.613 142.072C245.326 141.526 248.625 141.921 260.063 134.893Z" fill="#383B4F"/>
<path d="M250.285 147.318C248.458 147.318 247.453 146.394 245.82 144.672C245.16 143.976 244.412 143.188 243.423 142.279L243.062 141.948L243.529 141.8C243.845 141.7 244.196 141.632 244.642 141.547C246.698 141.154 250.524 140.422 259.917 134.651C260.358 134.38 260.867 134.301 261.314 134.432C261.698 134.546 262.007 134.812 262.183 135.182L262.239 135.299C263.309 137.547 264.233 139.489 263.544 141.25C263.03 142.563 261.692 143.613 259.335 144.556C254.636 146.437 252.069 147.318 250.285 147.318ZM244.186 142.216C245.005 142.99 245.651 143.672 246.23 144.283C249.22 147.436 249.606 147.839 259.124 144.032C261.295 143.163 262.567 142.187 263.014 141.045C263.614 139.513 262.739 137.673 261.725 135.544L261.67 135.427C261.562 135.201 261.383 135.045 261.152 134.977C260.863 134.891 260.512 134.951 260.212 135.135C250.731 140.96 246.838 141.705 244.747 142.105C244.541 142.144 244.355 142.18 244.186 142.216Z" fill="#424459"/>
<path d="M150.596 180.115C147.178 181.578 153.133 184.549 161.908 180.294C160.417 179.5 159.41 179.88 157.901 180.066C155.095 180.411 151.775 179.61 150.596 180.115Z" fill="#EF7957"/>
<path d="M142.074 190.082C141.655 190.322 140.985 190.062 140.819 189.609C140.281 188.141 148.284 184.598 156.233 184.6C151.918 186.583 146.03 187.816 142.074 190.082Z" fill="#F39F84"/>
<path d="M166.791 178.209L177.572 180.941L173.273 190.643L165.889 184.882C164.457 183.793 165.784 184.006 142.569 187.507C141.158 187.72 140.722 186.733 141.949 186.147C144.129 185.106 147.602 183.969 149.993 184.314C148.395 184.001 144.099 184.903 144.188 183.684C144.286 182.354 151.316 182.517 153.562 181.937C156.211 181.251 162.886 176.412 166.791 178.209Z" fill="#FFA887"/>
<path d="M201.578 187.996L171.764 177.501C169.979 176.873 167.285 184.807 166.708 187.422C166.029 190.497 203.707 211.872 210.97 210.285C219.434 208.436 229.803 185.324 234.283 177.411C237.364 171.97 238.055 144.076 228.044 147.158C225.253 148.017 208.451 179.221 204.319 186.934C203.793 187.918 202.63 188.367 201.578 187.996Z" fill="#FA6511"/>
<path d="M210.088 210.652C201.715 210.653 172.586 194.263 167.39 189.055C166.647 188.311 166.343 187.772 166.434 187.362C166.953 185.014 169.147 178.376 171.013 177.338C171.307 177.175 171.592 177.14 171.861 177.234L201.675 187.729C202.601 188.055 203.61 187.664 204.072 186.801C211.873 172.24 225.349 147.693 227.963 146.888C230.017 146.256 231.767 146.815 233.162 148.551C237.915 154.464 237.093 173.028 234.532 177.552C233.725 178.976 232.731 180.889 231.579 183.102C226.211 193.422 218.097 209.019 211.033 210.562C210.757 210.623 210.44 210.652 210.088 210.652ZM171.56 177.75C171.478 177.75 171.388 177.778 171.288 177.834C169.682 178.727 167.517 185.083 166.987 187.485C166.98 187.516 166.945 187.808 167.791 188.656C173.029 193.906 204.437 211.429 210.912 210.01C217.718 208.523 226.081 192.447 231.077 182.842C232.231 180.623 233.228 178.707 234.04 177.274C236.482 172.962 237.253 154.544 232.722 148.908C231.486 147.371 229.942 146.874 228.131 147.432C226.389 147.968 217.582 162.786 204.573 187.071C203.977 188.183 202.68 188.686 201.488 188.266L171.674 177.771C171.637 177.756 171.599 177.75 171.56 177.75Z" fill="#3B314A"/>
<path d="M272.708 366.815C272.416 371.904 279.453 372.404 285.12 371.333C287.604 370.863 289.151 368.383 288.453 365.953C287.104 361.255 284.665 355.186 281.094 354.799C271.97 353.811 273.137 359.342 272.708 366.815Z" fill="#514342"/>
<path d="M280.414 372.05C277.799 372.05 275.306 371.572 273.829 370.274C272.832 369.398 272.368 368.23 272.451 366.8C272.506 365.848 272.534 364.928 272.562 364.049C272.678 360.319 272.77 357.373 274.656 355.733C275.975 354.586 278.032 354.209 281.123 354.544C284.811 354.943 287.28 360.93 288.702 365.883C289.058 367.123 288.882 368.409 288.208 369.504C287.539 370.591 286.43 371.351 285.169 371.589C283.676 371.869 282.022 372.05 280.414 372.05ZM279.119 354.941C277.241 354.941 275.908 355.328 274.994 356.122C273.278 357.614 273.19 360.46 273.077 364.064C273.049 364.948 273.021 365.873 272.965 366.829C272.892 368.092 273.297 369.119 274.168 369.885C276.416 371.86 281.274 371.796 285.071 371.079C286.19 370.868 287.173 370.194 287.766 369.231C288.363 368.261 288.519 367.122 288.203 366.024C287.075 362.094 284.647 355.444 281.065 355.056C280.36 354.98 279.713 354.941 279.119 354.941Z" fill="#463C3A"/>
<path d="M239.273 366.823C239.56 371.912 232.523 372.406 226.856 371.329C224.372 370.857 222.828 368.375 223.528 365.945C224.881 361.248 227.327 355.182 230.898 354.799C240.024 353.819 238.851 359.349 239.273 366.823Z" fill="#514342"/>
<path d="M231.586 372.05C229.971 372.05 228.309 371.867 226.811 371.583C225.549 371.343 224.442 370.582 223.774 369.495C223.101 368.4 222.926 367.114 223.283 365.874C224.71 360.923 227.185 354.938 230.873 354.542C233.966 354.209 236.021 354.59 237.339 355.738C239.223 357.38 239.312 360.326 239.425 364.056C239.452 364.936 239.479 365.856 239.533 366.809C239.614 368.238 239.149 369.407 238.151 370.281C236.676 371.574 234.192 372.05 231.586 372.05ZM232.862 354.942C232.272 354.942 231.629 354.98 230.928 355.055C227.345 355.44 224.911 362.088 223.779 366.016C223.463 367.114 223.617 368.253 224.213 369.223C224.806 370.187 225.787 370.862 226.906 371.074C230.703 371.795 235.56 371.864 237.81 369.892C238.682 369.127 239.088 368.099 239.017 366.837C238.963 365.88 238.935 364.955 238.908 364.071C238.799 360.468 238.713 357.621 236.999 356.127C236.085 355.33 234.747 354.942 232.862 354.942Z" fill="#463C3A"/>
<path d="M253.012 214.109L252.35 210.705C252.211 209.989 237.53 212.429 237.793 213.69L238.335 216.284C238.474 216.953 253.258 215.376 253.012 214.109Z" fill="#383B4F"/>
<path d="M239.507 216.73C238.137 216.73 238.093 216.521 238.056 216.342L237.514 213.748C237.487 213.619 237.504 213.422 237.737 213.215C239.153 211.96 250.956 209.893 252.341 210.362C252.553 210.434 252.61 210.574 252.626 210.651L253.287 214.055C253.38 214.534 252.871 214.968 250.08 215.532C248.103 215.931 245.253 216.321 242.641 216.55C241.173 216.679 240.18 216.73 239.507 216.73ZM238.587 216.115C240.141 216.612 252.041 214.941 252.724 214.119L252.093 210.874C250.511 210.438 238.697 212.782 238.076 213.671L238.587 216.115Z" fill="#424459"/>
</svg>
