<?xml version="1.0" encoding="UTF-8"?>
<svg id="_Слой_2" data-name="Слой 2" xmlns="http://www.w3.org/2000/svg" viewBox="0 0 1698.15 1080.25">
  <defs>
    <style>
      .cls-1, .cls-2, .cls-3, .cls-4, .cls-5, .cls-6, .cls-7, .cls-8, .cls-9, .cls-10, .cls-11, .cls-12 {
        stroke-width: 0px;
      }

      .cls-2 {
        fill: #e0e0e0;
      }

      .cls-3 {
        fill: #6f4439;
      }

      .cls-4 {
        fill: #ae7461;
      }

      .cls-5 {
        fill: #f5f5f5;
      }

      .cls-13 {
        opacity: .99;
      }

      .cls-6 {
        fill: #fff;
      }

      .cls-14 {
        opacity: .3;
      }

      .cls-7 {
        fill: #263238;
      }

      .cls-8 {
        fill: #ff725e;
      }

      .cls-9 {
        fill: #ebebeb;
      }

      .cls-10 {
        fill: #ff9a6c;
      }

      .cls-11 {
        fill: #455a64;
      }

      .cls-12 {
        fill: #ffbf9d;
      }
    </style>
  </defs>
  <g id="Background_Complete" data-name="Background Complete">
    <g class="cls-13">
      <path class="cls-9" d="M1378.11,761.77c5.84-3.51,12.06-6.17,18.47-7.98l3.81-18.18,30.9-.54,4.45,18.03c6.48,1.59,12.78,4.03,18.75,7.33l15.61-10.17,22.23,21.34-9.68,15.87c3.53,5.81,6.21,11.99,8.03,18.37l18.28,3.78.54,30.71-18.14,4.42c-1.6,6.43-4.05,12.7-7.37,18.63l10.23,15.52-21.46,22.1-15.96-9.62c-5.84,3.51-12.06,6.17-18.48,7.98l-3.81,18.18-30.9.54-4.45-18.03c-6.47-1.59-12.78-4.03-18.75-7.33l-15.61,10.17-22.23-21.33,9.68-15.87c-3.53-5.81-6.21-11.99-8.03-18.37l-18.29-3.78-.54-30.71,18.14-4.42c1.59-6.43,4.05-12.7,7.37-18.63l-10.23-15.52,21.46-22.1,15.97,9.62h0ZM1397.76,799.79c-17.03,13.62-16.57,39.25.94,52.27,11.96,8.89,28.74,8.6,40.38-.71,17.03-13.62,16.58-39.26-.94-52.28-11.96-8.89-28.74-8.59-40.38.72Z"/>
    </g>
    <g class="cls-13">
      <path class="cls-5" d="M1026.58,960.05c4.49-2.7,9.28-4.74,14.21-6.14l2.93-13.98,23.76-.41,3.42,13.87c4.98,1.22,9.83,3.1,14.42,5.64l12.01-7.82,17.1,16.41-7.44,12.2c2.72,4.47,4.77,9.22,6.17,14.13l14.06,2.91.42,23.62-13.95,3.4c-1.23,4.95-3.12,9.77-5.67,14.33l7.87,11.94-16.51,16.99-12.28-7.4c-4.49,2.7-9.28,4.74-14.21,6.14l-2.93,13.98-23.76.41-3.42-13.87c-4.98-1.22-9.83-3.1-14.42-5.64l-12.01,7.82-17.1-16.41,7.44-12.2c-2.72-4.47-4.77-9.22-6.18-14.13l-14.06-2.91-.42-23.62,13.95-3.4c1.23-4.95,3.12-9.77,5.67-14.33l-7.87-11.94,16.51-16.99,12.28,7.4h0ZM1041.7,989.29c-13.09,10.48-12.74,30.19.72,40.2,9.2,6.84,22.1,6.61,31.06-.55,13.1-10.48,12.75-30.2-.72-40.21-9.2-6.84-22.11-6.61-31.06.55Z"/>
    </g>
    <g class="cls-13">
      <path class="cls-9" d="M1565.34,745.05c2.61-1.57,5.39-2.75,8.25-3.56l1.7-8.12,13.8-.24,1.99,8.05c2.89.71,5.71,1.8,8.37,3.27l6.97-4.54,9.93,9.53-4.32,7.08c1.58,2.59,2.77,5.35,3.58,8.2l8.16,1.69.24,13.71-8.1,1.97c-.71,2.87-1.81,5.67-3.29,8.32l4.57,6.93-9.58,9.87-7.13-4.3c-2.61,1.57-5.39,2.75-8.25,3.56l-1.7,8.12-13.8.24-1.99-8.05c-2.89-.71-5.71-1.8-8.37-3.27l-6.97,4.54-9.93-9.53,4.32-7.08c-1.58-2.59-2.77-5.35-3.59-8.2l-8.17-1.69-.24-13.71,8.1-1.97c.71-2.87,1.81-5.67,3.29-8.32l-4.57-6.93,9.58-9.87,7.13,4.3h0ZM1574.11,762.03c-7.6,6.08-7.4,17.53.42,23.34,5.34,3.97,12.83,3.84,18.03-.32,7.61-6.08,7.4-17.53-.42-23.34-5.34-3.97-12.83-3.84-18.03.32Z"/>
    </g>
    <g class="cls-13">
      <path class="cls-5" d="M1368.9,980.18c2.61-1.57,5.38-2.75,8.25-3.56l1.7-8.12,13.8-.24,1.99,8.05c2.89.71,5.71,1.8,8.37,3.27l6.97-4.54,9.93,9.53-4.32,7.08c1.58,2.59,2.77,5.35,3.58,8.2l8.16,1.69.24,13.71-8.1,1.97c-.71,2.87-1.81,5.67-3.29,8.32l4.57,6.93-9.58,9.87-7.13-4.3c-2.61,1.57-5.39,2.75-8.25,3.56l-1.7,8.12-13.8.24-1.99-8.05c-2.89-.71-5.71-1.8-8.37-3.27l-6.97,4.54-9.93-9.53,4.32-7.08c-1.58-2.59-2.77-5.35-3.59-8.2l-8.16-1.69-.24-13.71,8.1-1.97c.71-2.87,1.81-5.67,3.29-8.32l-4.57-6.93,9.58-9.87,7.13,4.3h0ZM1377.68,997.15c-7.6,6.08-7.4,17.53.42,23.34,5.34,3.97,12.83,3.84,18.03-.32,7.61-6.08,7.4-17.53-.42-23.34-5.34-3.97-12.83-3.84-18.03.32Z"/>
    </g>
    <g class="cls-13">
      <path class="cls-9" d="M191.91,101.47c6.51-3.91,13.45-6.88,20.6-8.9l4.24-20.27,34.45-.6,4.96,20.1c7.22,1.77,14.26,4.49,20.9,8.17l17.41-11.34,24.79,23.79-10.79,17.69c3.94,6.48,6.92,13.37,8.95,20.48l20.39,4.22.61,34.24-20.23,4.93c-1.78,7.17-4.52,14.17-8.22,20.78l11.41,17.31-23.93,24.64-17.8-10.73c-6.51,3.91-13.45,6.88-20.6,8.9l-4.24,20.27-34.45.6-4.96-20.11c-7.22-1.77-14.25-4.49-20.9-8.17l-17.41,11.34-24.79-23.79,10.79-17.69c-3.94-6.48-6.92-13.37-8.95-20.48l-20.39-4.22-.6-34.24,20.23-4.93c1.78-7.17,4.52-14.17,8.22-20.77l-11.41-17.31,23.93-24.64,17.8,10.73h0ZM213.83,143.86c-18.98,15.19-18.47,43.77,1.05,58.28,13.34,9.91,32.05,9.59,45.03-.79,18.99-15.19,18.49-43.78-1.04-58.29-13.34-9.91-32.05-9.58-45.03.8Z"/>
    </g>
    <g class="cls-13">
      <path class="cls-9" d="M382.34,39.65c2.61-1.57,5.38-2.75,8.25-3.56l1.7-8.12,13.8-.24,1.99,8.05c2.89.71,5.71,1.8,8.37,3.27l6.97-4.54,9.93,9.53-4.32,7.08c1.58,2.59,2.77,5.35,3.58,8.2l8.16,1.69.24,13.71-8.1,1.97c-.71,2.87-1.81,5.67-3.29,8.32l4.57,6.93-9.58,9.87-7.13-4.3c-2.61,1.57-5.39,2.75-8.25,3.56l-1.7,8.12-13.8.24-1.99-8.05c-2.89-.71-5.71-1.8-8.37-3.27l-6.97,4.54-9.93-9.53,4.32-7.08c-1.58-2.59-2.77-5.35-3.59-8.2l-8.16-1.69-.24-13.71,8.1-1.97c.71-2.87,1.81-5.67,3.29-8.32l-4.57-6.93,9.58-9.87,7.13,4.3h0ZM391.12,56.63c-7.6,6.08-7.4,17.53.42,23.34,5.34,3.97,12.83,3.84,18.03-.32,7.61-6.08,7.4-17.53-.42-23.34-5.34-3.97-12.83-3.84-18.03.32Z"/>
    </g>
    <g class="cls-13">
      <path class="cls-5" d="M116.32,392.83c3.24-1.95,6.69-3.42,10.25-4.43l2.11-10.08,17.14-.3,2.47,10c3.59.88,7.09,2.23,10.4,4.07l8.66-5.64,12.33,11.84-5.37,8.8c1.96,3.22,3.44,6.65,4.45,10.19l10.14,2.1.3,17.04-10.06,2.45c-.89,3.57-2.25,7.05-4.09,10.34l5.68,8.61-11.91,12.26-8.86-5.34c-3.24,1.95-6.69,3.42-10.25,4.43l-2.11,10.08-17.14.3-2.47-10c-3.59-.88-7.09-2.23-10.4-4.07l-8.66,5.64-12.33-11.84,5.37-8.8c-1.96-3.22-3.44-6.65-4.45-10.19l-10.14-2.1-.3-17.04,10.06-2.45c.88-3.57,2.25-7.05,4.09-10.34l-5.68-8.61,11.91-12.26,8.86,5.34h0ZM127.22,413.92c-9.45,7.56-9.19,21.78.52,29,6.63,4.93,15.94,4.77,22.4-.39,9.45-7.56,9.2-21.78-.52-29-6.64-4.93-15.95-4.77-22.4.4Z"/>
    </g>
  </g>
  <g id="Tech">
    <g class="cls-13">
      <g>
        <path class="cls-7" d="M1198.12,490.46s-.09-1.9-.21-5.62c-.06-1.86-.12-4.17-.21-6.92-.06-2.75-.14-5.95-.49-9.56-.28-3.61-.6-7.66-.94-12.11-.45-4.45-1.16-9.29-1.8-14.55-1.46-10.49-3.72-22.51-6.97-35.88-3.49-13.29-7.74-28.02-14.05-43.51-6.19-15.52-13.82-32.07-23.86-48.78-19.83-33.47-48.29-68.51-87.07-98.38-19.31-14.98-41.26-28.42-65.46-39.53-24.18-11.09-50.61-20-78.8-25.13-28.13-5.25-57.92-7.32-88.33-4.93-15.23.91-30.54,3.41-45.91,6.48-7.64,1.79-15.36,3.45-22.96,5.81-7.69,2.03-15.21,4.8-22.84,7.38-15.06,5.71-30.05,12.23-44.57,20.12-14.46,7.97-28.66,16.84-42.2,26.98-13.48,10.2-26.42,21.42-38.65,33.62-12.08,12.36-23.41,25.67-33.83,39.88-10.48,14.18-19.65,29.49-27.93,45.39-1.97,4.03-4.2,7.95-5.97,12.09-1.84,4.11-3.69,8.23-5.53,12.36-1.65,4.21-3.3,8.44-4.95,12.67l-1.24,3.17-1.08,3.24-2.17,6.48-2.17,6.49-1.86,6.61c-1.18,4.42-2.63,8.78-3.55,13.29-1.02,4.48-2.04,8.97-3.06,13.47-.8,4.54-1.61,9.09-2.41,13.65-2.86,18.29-4.36,36.91-4.48,55.66.12,18.76,1.61,37.39,4.47,55.68,2.79,18.32,7.42,36.18,13.04,53.53l2.17,6.48,1.08,3.24,1.24,3.18c1.65,4.23,3.3,8.46,4.95,12.67,1.85,4.13,3.69,8.25,5.53,12.37.89,2.07,1.88,4.09,2.92,6.09l3.05,6.01c8.28,15.91,17.45,31.23,27.93,45.41,10.43,14.21,21.76,27.53,33.84,39.89,12.23,12.21,25.18,23.42,38.66,33.63,13.54,10.14,27.74,19.01,42.2,26.99,14.52,7.89,29.51,14.41,44.57,20.13,7.63,2.57,15.15,5.35,22.84,7.38,7.6,2.36,15.33,4.02,22.96,5.81,15.37,3.07,30.69,5.57,45.92,6.48,30.42,2.39,60.21.32,88.34-4.93,28.19-5.13,54.62-14.05,78.8-25.14,24.2-11.11,46.15-24.55,65.46-39.53,38.78-29.88,67.23-64.91,87.06-98.39,10.04-16.72,17.67-33.27,23.85-48.78,1.47-3.91,3.13-7.66,4.36-11.47,1.27-3.79,2.52-7.49,3.74-11.11,1.29-3.59,2.12-7.23,3.16-10.7.94-3.5,2.04-6.87,2.79-10.22,3.24-13.36,5.51-25.38,6.97-35.87.64-5.26,1.35-10.1,1.8-14.55.35-4.46.66-8.5.94-12.11.35-3.61.42-6.8.48-9.55.08-2.75.15-5.06.21-6.92.11-3.71.21-5.62.21-5.62,0,0,0,1.9-.08,5.62-.04,1.86-.09,4.17-.14,6.92-.04,2.75-.1,5.95-.42,9.56-.26,3.62-.56,7.66-.88,12.13-.43,4.45-1.12,9.3-1.74,14.57-1.42,10.51-3.65,22.55-6.86,35.94-.74,3.36-1.83,6.74-2.77,10.25-1.04,3.48-1.86,7.13-3.14,10.73-1.21,3.62-2.45,7.34-3.72,11.14-1.22,3.82-2.87,7.57-4.34,11.5-6.16,15.56-13.78,32.15-23.81,48.92-19.81,33.58-48.28,68.74-87.13,98.74-19.34,15.04-41.34,28.55-65.6,39.71-24.24,11.15-50.74,20.11-79.01,25.29-28.22,5.29-58.1,7.39-88.62,5.01-15.28-.9-30.65-3.4-46.07-6.47-7.66-1.79-15.42-3.45-23.05-5.82-7.72-2.03-15.27-4.81-22.92-7.39-15.12-5.73-30.16-12.26-44.74-20.18-14.51-8-28.77-16.9-42.36-27.07-13.53-10.24-26.52-21.49-38.8-33.73-12.13-12.4-23.5-25.77-33.97-40.03-10.52-14.23-19.73-29.6-28.04-45.57l-3.06-6.03c-1.04-2-2.04-4.03-2.93-6.11-1.85-4.13-3.7-8.27-5.56-12.41-1.65-4.23-3.31-8.47-4.97-12.72l-1.24-3.19-1.09-3.25-2.18-6.51c-5.64-17.41-10.29-35.34-13.09-53.73-2.87-18.36-4.36-37.06-4.49-55.89.13-18.82,1.63-37.51,4.5-55.87.81-4.57,1.62-9.14,2.42-13.7,1.03-4.51,2.05-9.02,3.07-13.52.92-4.52,2.38-8.9,3.56-13.34l1.86-6.63,2.18-6.52,2.18-6.5,1.09-3.25,1.24-3.19c1.66-4.25,3.32-8.48,4.97-12.71,1.86-4.14,3.71-8.28,5.56-12.41,1.78-4.16,4.01-8.09,5.99-12.14,8.31-15.96,17.52-31.33,28.04-45.56,10.47-14.25,21.84-27.62,33.97-40.01,12.28-12.24,25.27-23.49,38.8-33.72,13.59-10.17,27.85-19.07,42.36-27.06,14.57-7.91,29.62-14.45,44.73-20.17,7.66-2.58,15.2-5.36,22.92-7.39,7.63-2.36,15.38-4.02,23.04-5.81,15.42-3.07,30.79-5.57,46.07-6.47,30.52-2.38,60.39-.28,88.61,5.01,28.27,5.17,54.77,14.13,79.01,25.28,24.26,11.16,46.26,24.67,65.6,39.71,38.85,30,67.32,65.16,87.14,98.74,10.03,16.77,17.64,33.37,23.81,48.93,6.29,15.53,10.51,30.29,13.97,43.61,3.21,13.4,5.44,25.44,6.86,35.95.63,5.27,1.31,10.12,1.74,14.57.32,4.46.62,8.51.88,12.13.33,3.61.38,6.81.42,9.56.06,2.75.1,5.06.14,6.92.07,3.72.08,5.62.08,5.62Z"/>
        <path class="cls-2" d="M399.77,362.61s0-.18.03-.56c.02-.39.09-.95.18-1.69.15-1.49.5-3.69.95-6.57.98-5.76,2.76-14.2,5.71-24.9,6.03-21.32,17.07-51.82,37.01-86.29,1.25-2.15,2.51-4.33,3.79-6.53,1.26-2.21,2.57-4.43,4.01-6.6,2.81-4.38,5.68-8.86,8.62-13.43,3.04-4.5,6.31-8.97,9.55-13.59,3.18-4.67,6.75-9.18,10.36-13.78,7.01-9.38,15.07-18.42,23.19-27.89,4.28-4.53,8.62-9.13,13.03-13.8l3.32-3.5,3.5-3.37c2.34-2.26,4.69-4.53,7.06-6.81,19.07-18.15,40.51-35.75,64.1-52.08,11.84-8.1,24.12-16.02,37.04-23.3,12.9-7.3,26.22-14.34,40.32-20.23l.67-.28.18.72c1.33,5.14,2.76,10.68,4.2,16.24,1.92,7.42,3.82,14.79,5.63,21.81l.14.54-.52.22c-41.48,17.37-78.28,41.09-108.91,67.82-30.58,26.85-55.17,56.28-74.63,84.73-19.41,28.54-33.75,56.09-44.34,80.26-5.28,12.1-9.62,23.37-13.08,33.62-1.72,5.13-3.27,9.98-4.53,14.58-.67,2.29-1.21,4.53-1.74,6.68-.44,2.12-1.03,4.33-1.01,6.18v.39s-.29-.07-.29-.07c-10.87-2.74-19.27-4.85-24.98-6.29-2.8-.72-4.94-1.26-6.41-1.64-1.43-.37-2.14-.58-2.14-.58,0,0,.77.16,2.24.5,1.49.35,3.65.87,6.49,1.54,5.7,1.37,14.08,3.39,24.92,6l-.29.32c-.08-2.27.54-4.24.96-6.46.52-2.16,1.05-4.41,1.71-6.71,1.24-4.62,2.77-9.49,4.47-14.64,3.42-10.28,7.72-21.6,12.97-33.73,10.52-24.24,24.81-51.89,44.21-80.53,19.44-28.55,44.06-58.1,74.7-85.06,30.69-26.84,67.6-50.66,109.21-68.09l-.37.76c-1.81-7.02-3.72-14.4-5.64-21.81-1.44-5.56-2.87-11.1-4.2-16.24l.85.44c-13.98,5.84-27.3,12.87-40.16,20.14-12.88,7.26-25.15,15.15-36.96,23.22-23.55,16.27-44.95,33.81-64,51.89-2.37,2.28-4.72,4.54-7.05,6.79l-3.49,3.36-3.32,3.49c-4.4,4.65-8.74,9.23-13.02,13.75-8.12,9.43-16.17,18.44-23.19,27.79-3.61,4.59-7.18,9.08-10.36,13.73-3.24,4.61-6.52,9.06-9.56,13.54-2.94,4.55-5.82,9.01-8.63,13.38-1.44,2.16-2.75,4.37-4.02,6.57-1.28,2.19-2.55,4.36-3.8,6.5-20,34.34-31.15,64.73-37.31,85.98-3.02,10.67-4.88,19.07-5.93,24.81-.49,2.87-.88,5.06-1.07,6.54-.1.71-.18,1.26-.24,1.66-.05.37-.09.57-.09.57Z"/>
        <path class="cls-2" d="M1263.68,485.18s-.1-2.27-.23-6.69c-.06-2.22-.14-4.97-.24-8.24-.08-3.28-.16-7.08-.57-11.38-.33-4.3-.71-9.12-1.12-14.43-.53-5.3-1.37-11.07-2.14-17.33-1.74-12.5-4.43-26.82-8.29-42.74-.89-4-2.2-8.01-3.32-12.18-.59-2.08-1.18-4.19-1.78-6.32-.3-1.07-.6-2.14-.91-3.22-.36-1.06-.71-2.14-1.07-3.21-1.45-4.31-2.93-8.72-4.45-13.24-1.46-4.54-3.44-9-5.19-13.66-7.37-18.48-16.46-38.2-28.41-58.12-23.62-39.88-57.51-81.62-103.72-117.22-23-17.85-49.16-33.86-77.98-47.1-28.81-13.22-60.29-23.84-93.87-29.95-33.52-6.26-69-8.72-105.24-5.88-18.14,1.08-36.38,4.06-54.7,7.72-9.1,2.14-18.3,4.11-27.36,6.92-9.17,2.41-18.12,5.72-27.21,8.79-17.94,6.81-35.8,14.57-53.1,23.97-17.23,9.5-34.15,20.07-50.28,32.15-16.06,12.16-31.48,25.51-46.05,40.05-14.39,14.72-27.89,30.59-40.31,47.51-3.02,4.29-6.05,8.59-9.09,12.91-2.83,4.45-5.68,8.91-8.52,13.37-2.94,4.41-5.38,9.14-8.07,13.73l-3.95,6.94-3.64,7.13-3.63,7.16c-1.24,2.38-2.42,4.78-3.48,7.25-2.19,4.9-4.39,9.81-6.59,14.73-1.96,5.02-3.93,10.05-5.9,15.09l-1.48,3.78-1.29,3.85-2.59,7.72-2.58,7.74-2.21,7.87-2.22,7.88-1.1,3.95-.91,4c-1.21,5.34-2.43,10.69-3.65,16.05-.96,5.41-1.91,10.83-2.87,16.26-3.4,21.79-5.19,43.97-5.34,66.32.15,22.35,1.92,44.54,5.32,66.34.96,5.43,1.92,10.85,2.88,16.27,1.22,5.36,2.43,10.71,3.64,16.05,1.09,5.37,2.82,10.57,4.22,15.84l2.21,7.87,2.58,7.74,2.59,7.72,1.29,3.86,1.48,3.78c1.97,5.04,3.94,10.07,5.9,15.1,2.2,4.92,4.4,9.83,6.59,14.73l1.66,3.67,1.82,3.59,3.63,7.16,3.64,7.14,3.95,6.95c2.69,4.59,5.13,9.33,8.07,13.74,2.85,4.47,5.69,8.93,8.52,13.38,3.04,4.31,6.06,8.62,9.09,12.91,12.42,16.93,25.93,32.8,40.32,47.53,14.57,14.54,29.99,27.9,46.06,40.06,16.13,12.08,33.06,22.65,50.28,32.16,17.3,9.4,35.16,17.17,53.11,23.98,9.09,3.07,18.05,6.38,27.21,8.79,9.06,2.81,18.26,4.78,27.36,6.92,18.32,3.66,36.56,6.63,54.7,7.71,36.24,2.85,71.73.38,105.25-5.88,33.58-6.12,65.07-16.74,93.88-29.96,28.83-13.23,54.98-29.26,77.98-47.1,46.2-35.6,80.09-77.34,103.7-117.22,11.95-19.92,21.04-39.63,28.41-58.12,1.75-4.66,3.73-9.12,5.19-13.66,1.52-4.52,3-8.93,4.45-13.24.76-2.14,1.41-4.29,1.98-6.43.6-2.13,1.2-4.24,1.78-6.32,1.12-4.17,2.43-8.18,3.32-12.18,3.86-15.92,6.55-30.24,8.29-42.74.77-6.26,1.61-12.03,2.14-17.33.41-5.31.78-10.12,1.12-14.43.41-4.3.5-8.1.57-11.38.09-3.27.17-6.02.24-8.24.13-4.42.23-6.69.23-6.69,0,0-.01,2.27-.1,6.69-.05,2.22-.11,4.97-.17,8.24-.05,3.28-.12,7.09-.51,11.39-.32,4.31-.67,9.13-1.06,14.44-.51,5.3-1.33,11.08-2.08,17.35-1.7,12.51-4.35,26.86-8.18,42.81-.88,4.01-2.18,8.02-3.3,12.2-.58,2.08-1.17,4.19-1.77,6.33-.57,2.15-1.21,4.3-1.97,6.45-1.44,4.32-2.92,8.74-4.43,13.26-1.46,4.55-3.42,9.02-5.17,13.69-7.34,18.53-16.42,38.29-28.36,58.26-23.6,39.98-57.5,81.85-103.77,117.58-23.03,17.91-49.23,33.99-78.12,47.28-28.87,13.27-60.42,23.95-94.09,30.1-33.6,6.3-69.18,8.8-105.52,5.96-18.2-1.08-36.49-4.05-54.86-7.71-9.13-2.14-18.36-4.11-27.44-6.93-9.19-2.42-18.18-5.73-27.3-8.8-18-6.82-35.92-14.6-53.27-24.03-17.28-9.52-34.26-20.12-50.44-32.23-16.11-12.19-31.58-25.59-46.21-40.17-14.44-14.76-27.99-30.68-40.45-47.66-3.03-4.31-6.07-8.62-9.12-12.95-2.84-4.46-5.69-8.93-8.55-13.42-2.95-4.42-5.4-9.17-8.1-13.78l-3.97-6.97-3.65-7.16-3.64-7.18-1.82-3.6-1.66-3.68c-2.2-4.92-4.41-9.84-6.62-14.78-1.97-5.04-3.94-10.09-5.92-15.14l-1.48-3.8-1.3-3.87-2.6-7.75-2.59-7.77-2.22-7.9c-1.41-5.29-3.14-10.5-4.24-15.89-1.22-5.36-2.43-10.73-3.65-16.1-.96-5.43-1.92-10.87-2.89-16.32-3.41-21.87-5.19-44.13-5.34-66.55.15-22.41,1.94-44.67,5.36-66.52.96-5.45,1.93-10.88,2.89-16.31,1.22-5.37,2.44-10.74,3.66-16.1l.92-4.01,1.1-3.96,2.22-7.91,2.22-7.89,2.59-7.76,2.6-7.75,1.3-3.87,1.48-3.79c1.98-5.06,3.95-10.1,5.92-15.14,2.21-4.93,4.41-9.86,6.61-14.77,1.06-2.48,2.25-4.89,3.49-7.27l3.64-7.18,3.66-7.15,3.97-6.97c2.69-4.61,5.14-9.35,8.1-13.77,2.86-4.48,5.71-8.95,8.55-13.41,3.05-4.32,6.08-8.64,9.12-12.94,12.46-16.97,26.01-32.88,40.45-47.65,14.62-14.58,30.09-27.97,46.2-40.16,16.18-12.11,33.16-22.7,50.44-32.23,17.35-9.42,35.27-17.2,53.26-24.02,9.12-3.07,18.1-6.38,27.29-8.8,9.08-2.81,18.31-4.79,27.44-6.92,18.37-3.66,36.66-6.63,54.85-7.71,36.34-2.83,71.91-.34,105.52,5.96,33.66,6.15,65.22,16.82,94.09,30.1,28.88,13.29,55.09,29.37,78.12,47.28,46.27,35.73,80.18,77.59,103.78,117.57,11.95,19.97,21.02,39.74,28.37,58.26,1.75,4.67,3.72,9.14,5.17,13.69,1.51,4.53,2.99,8.95,4.43,13.26.36,1.08.72,2.15,1.07,3.22.3,1.08.6,2.16.9,3.23.6,2.14,1.19,4.25,1.77,6.33,1.12,4.18,2.41,8.2,3.3,12.2,3.83,15.95,6.49,30.3,8.18,42.81.75,6.27,1.57,12.05,2.08,17.35.39,5.32.74,10.14,1.06,14.44.39,4.3.46,8.11.51,11.39.07,3.28.13,6.03.17,8.25.09,4.43.1,6.69.1,6.69Z"/>
        <path class="cls-2" d="M895.47,17.02c-.14,0-.08-1.47-.75-3.96-.66-2.45-2.32-6.03-5.97-8.77-3.53-2.76-9.34-4.3-14.96-2.18-2.77,1.01-5.41,2.92-7.28,5.55-1.93,2.6-3.01,5.93-3.04,9.36.03,3.44,1.11,6.77,3.04,9.37,1.87,2.63,4.51,4.54,7.28,5.55,5.62,2.12,11.43.57,14.96-2.18,3.65-2.75,5.3-6.33,5.97-8.77.67-2.49.61-3.97.75-3.96.04,0,.07.36.08,1.06.02.69-.06,1.73-.34,3.03-.53,2.56-2.12,6.37-5.9,9.38-3.65,3.01-9.84,4.79-15.91,2.58-2.99-1.06-5.85-3.09-7.89-5.92-2.09-2.79-3.28-6.4-3.31-10.12.03-3.71,1.22-7.32,3.31-10.11,2.04-2.83,4.9-4.86,7.89-5.92,6.07-2.21,12.25-.43,15.91,2.57,3.79,3,5.37,6.82,5.9,9.38.28,1.3.37,2.33.35,3.03,0,.7-.03,1.06-.08,1.06Z"/>
        <path class="cls-2" d="M447.85,451.82s-.44.07-1.3.1c-.95.02-2.2.05-3.77.09-3.41.04-8.2.1-14.22.17-12.3.06-29.55.14-49.87.23h-.3s-.18-.24-.18-.24c-8.38-11.69-17.7-24.69-27.5-38.37-12.61-17.69-24.42-34.25-34.41-48.27l.45.23c-17.09-.1-31.35-.17-41.46-.23-4.92-.06-8.82-.12-11.61-.15-1.26-.03-2.27-.06-3.06-.08-.69-.03-1.05-.06-1.05-.09s.36-.06,1.05-.09c.78-.02,1.79-.05,3.06-.08,2.79-.04,6.69-.09,11.61-.15,10.11-.06,24.37-.14,41.46-.23h.28s.17.23.17.23c10.03,13.98,21.89,30.51,34.55,48.16,9.77,13.7,19.06,26.72,27.42,38.43l-.47-.24c20.31.1,37.57.18,49.87.23,6.01.07,10.81.13,14.22.17,1.57.04,2.82.07,3.77.09.86.03,1.3.06,1.3.1Z"/>
        <path class="cls-2" d="M260.57,365.2s.07.28.09.83c.02.55-.03,1.36-.25,2.39-.4,2.02-1.64,5.04-4.62,7.42-2.88,2.39-7.77,3.81-12.58,2.06-2.37-.83-4.64-2.44-6.25-4.69-1.66-2.21-2.6-5.07-2.63-8.02.02-2.94.97-5.81,2.63-8.02,1.62-2.24,3.89-3.85,6.25-4.69,4.81-1.75,9.7-.32,12.58,2.06,2.98,2.38,4.22,5.4,4.62,7.42.22,1.02.27,1.84.25,2.39-.01.55-.04.83-.09.83-.13,0-.1-1.15-.64-3.1-.53-1.91-1.84-4.69-4.69-6.82-2.76-2.14-7.27-3.32-11.64-1.67-4.33,1.51-8.05,6.16-8.01,11.59-.05,5.42,3.68,10.07,8.01,11.59,4.36,1.65,8.88.47,11.63-1.67,2.85-2.13,4.16-4.91,4.69-6.82.54-1.94.51-3.1.64-3.1Z"/>
        <path class="cls-2" d="M1478.2,684.3s-.07-.28-.09-.83c-.02-.55.03-1.36.25-2.39.4-2.02,1.64-5.04,4.62-7.42,2.88-2.39,7.77-3.81,12.58-2.06,2.37.84,4.64,2.44,6.25,4.69,1.66,2.21,2.6,5.07,2.63,8.02-.02,2.94-.97,5.81-2.63,8.02-1.62,2.24-3.89,3.85-6.25,4.69-4.81,1.75-9.7.32-12.58-2.06-2.98-2.38-4.22-5.4-4.62-7.42-.22-1.02-.27-1.84-.25-2.39.01-.55.04-.83.09-.83.13,0,.1,1.15.64,3.1.53,1.91,1.84,4.69,4.69,6.82,2.76,2.14,7.27,3.32,11.64,1.67,4.33-1.51,8.05-6.16,8.01-11.59.05-5.42-3.68-10.07-8.01-11.59-4.36-1.65-8.88-.47-11.63,1.67-2.85,2.13-4.16,4.91-4.69,6.82-.54,1.94-.51,3.1-.64,3.1Z"/>
        <path class="cls-2" d="M1231.52,656.15s.28.13.78.45c.56.37,1.29.84,2.2,1.43,2,1.34,4.79,3.21,8.34,5.58,7.27,4.95,17.59,11.97,30.17,20.54l-.28-.09c21.35-.04,48.52-.08,78.01-.14,35.29.07,67.22.14,90.46.19,11.5.09,20.84.16,27.41.2,3.16.05,5.65.09,7.45.12.79.03,1.43.05,1.94.06.44.02.66.04.66.07s-.22.04-.66.07c-.51.02-1.15.04-1.94.06-1.8.03-4.29.07-7.45.12-6.57.05-15.91.12-27.41.21-23.23.05-55.17.12-90.46.19-29.49-.05-56.66-.1-78.01-.14h-.16s-.13-.09-.13-.09c-12.48-8.72-22.72-15.87-29.92-20.91-3.48-2.47-6.23-4.42-8.19-5.81-.88-.64-1.57-1.15-2.12-1.55-.47-.36-.71-.55-.69-.57Z"/>
        <path class="cls-2" d="M1046.47,912.15s-.18.12-.55.3c-.44.2-.99.45-1.66.75-1.57.67-3.72,1.6-6.44,2.77-2.81,1.17-6.22,2.68-10.24,4.26-4.08,1.5-8.69,3.19-13.79,5.06-5.11,1.88-10.84,3.53-16.92,5.52-6.1,1.93-12.74,3.59-19.66,5.54-13.97,3.43-29.44,6.77-45.86,9.26-25.36,3.7-49.11,5.37-68.54,4.69l-.5-.02v-.51c.1-15.63.17-28.58.23-37.73.06-4.44.11-7.96.14-10.47.03-1.13.06-2.04.08-2.75.03-.62.05-.94.08-.94s.05.32.08.94c.02.71.05,1.61.08,2.75.03,2.52.08,6.03.14,10.47.05,9.15.13,22.1.22,37.73l-.5-.53c19.3.53,43.03-1.22,68.3-4.91,16.37-2.48,31.81-5.78,45.76-9.14,6.92-1.91,13.55-3.53,19.65-5.41,6.08-1.94,11.82-3.54,16.93-5.36,5.11-1.8,9.74-3.43,13.83-4.87,4.04-1.51,7.47-2.96,10.31-4.05,2.76-1.08,4.94-1.93,6.53-2.54.69-.26,1.25-.46,1.71-.63.39-.14.59-.2.6-.18Z"/>
        <path class="cls-2" d="M1274.1,897.88s-.21.1-.62.24c-.49.15-1.1.35-1.86.58-1.74.51-4.14,1.23-7.19,2.13-6.36,1.82-15.4,4.41-26.52,7.59-22.51,6.31-53.45,14.99-87.62,24.57-2.21.61-4.4,1.22-6.45,1.79l-.41.11-.26-.34c-20.78-27.12-39.41-51.44-52.91-69.07-6.63-8.76-12-15.84-15.78-20.83-1.79-2.41-3.2-4.31-4.23-5.68-.44-.61-.79-1.1-1.07-1.5-.24-.34-.35-.52-.33-.54.02-.01.16.14.43.46.31.38.69.84,1.17,1.42,1.07,1.34,2.54,3.19,4.41,5.54,3.85,4.93,9.33,11.93,16.1,20.59,13.58,17.57,32.32,41.79,53.23,68.82l-.67-.23c2.04-.57,4.24-1.18,6.45-1.79,34.21-9.44,65.19-17.99,87.72-24.21,11.17-3.02,20.24-5.47,26.63-7.2,3.08-.8,5.5-1.44,7.26-1.89.77-.19,1.4-.34,1.9-.46.43-.1.65-.14.66-.11Z"/>
        <path class="cls-2" d="M862.83,17.02s-.67.1-1.95.17c-1.4.06-3.26.14-5.59.23-2.47.08-5.43.18-8.85.29-1.73.05-3.57.11-5.52.17-1.96.13-4.02.27-6.18.41-4.34.28-9.09.59-14.17.92-5.09.52-10.51,1.08-16.21,1.66-5.71.57-11.66,1.56-17.85,2.37-6.19.86-12.53,2.14-19.06,3.23-26.02,5.05-49.09,11.92-65.35,18.04-8.15,3.01-14.59,5.85-19.03,7.83-2.11,1-3.8,1.8-5.06,2.39-1.16.55-1.76.85-1.78.81-.02-.03.54-.41,1.66-1.04,1.11-.65,2.8-1.51,4.97-2.62,4.38-2.13,10.79-5.1,18.92-8.23,16.22-6.36,39.33-13.39,65.43-18.45,6.55-1.09,12.91-2.37,19.11-3.22,6.21-.79,12.18-1.76,17.9-2.3,5.72-.54,11.16-1.06,16.26-1.54,5.1-.28,9.85-.53,14.21-.77,2.17-.11,4.23-.22,6.2-.32,1.95-.02,3.8-.05,5.53-.07,3.42-.03,6.39-.05,8.86-.07,2.34,0,4.2,0,5.6,0,1.28.02,1.95.05,1.95.09Z"/>
      </g>
      <g>
        <path class="cls-2" d="M855.89,814.35c-173.91,0-315.39-146.16-315.39-325.82s141.48-325.82,315.39-325.82,315.39,146.16,315.39,325.82-141.48,325.82-315.39,325.82ZM855.89,165.2c-172.56,0-312.94,145.05-312.94,323.34s140.38,323.34,312.94,323.34,312.94-145.05,312.94-323.34-140.39-323.34-312.94-323.34Z"/>
        <path class="cls-2" d="M838.52,813.56c-1.44-1.44-144.4-146.19-144.4-332.42,0-97.38,43.78-178.7,80.51-229.77,39.78-55.31,80.1-88.06,80.51-88.38l1.53,1.94c-.4.32-40.51,32.9-80.09,87.96-36.5,50.76-80,131.57-80,228.25,0,185.17,142.24,329.22,143.68,330.65l-1.72,1.76Z"/>
        <path class="cls-2" d="M851.46,366.36c-85.44,0-164.3-26.24-241.1-80.21l1.4-2.03c76.37,53.68,154.78,79.77,239.7,79.77,103.65,0,194.23-40.4,251.98-74.28l1.23,2.14c-58,34.04-149.02,74.62-253.21,74.62Z"/>
        <path class="cls-2" d="M1103.36,689.23c-55.46-38.29-143.88-83.93-250.15-83.93s-197.74,40.4-256.53,74.29l-1.22-2.15c59.04-34.04,151.68-74.61,257.74-74.61s195.79,45.88,251.53,84.37l-1.38,2.05Z"/>
        <path class="cls-2" d="M872.57,813.56l-1.72-1.76c1.44-1.43,143.67-145.48,143.67-330.65,0-96.71-43.53-177.54-80.04-228.31-39.58-55.04-79.65-87.58-80.05-87.9l1.53-1.94c.4.33,40.73,33.08,80.51,88.38,36.73,51.07,80.51,132.39,80.51,229.77,0,186.23-142.96,330.98-144.4,332.42Z"/>
        <rect class="cls-2" x="537.85" y="471.95" width="634.69" height="2.48"/>
      </g>
      <g>
        <polygon class="cls-2" points="1270.03 751.92 1227.2 718.65 1214.61 735.92 1255.81 769.84 1270.03 751.92"/>
        <polygon class="cls-2" points="1247.86 780.46 1206.74 745.05 1193.31 761.65 1232.75 797.63 1247.86 780.46"/>
        <polygon class="cls-2" points="1224.33 807.67 1185.18 770.05 1170.87 785.89 1208.79 824.46 1224.33 807.67"/>
        <polygon class="cls-2" points="1200.18 832.97 1163.35 794.08 1148.32 809.22 1183.95 849.05 1200.18 832.97"/>
      </g>
      <path class="cls-2" d="M1132,111.94s-.17-.12-.46-.39c-.33-.33-.74-.73-1.24-1.22-1.14-1.17-2.71-2.76-4.68-4.77-2.03-2.07-4.41-4.71-7.52-7.41-1.52-1.39-3.15-2.88-4.86-4.45-1.72-1.58-3.51-3.27-5.56-4.86-4.06-3.21-8.28-7.01-13.28-10.48-2.46-1.79-4.99-3.65-7.61-5.56-2.7-1.78-5.48-3.62-8.33-5.5-11.49-7.39-24.58-14.81-38.85-21.51-15.83-7.41-31.34-13.4-45.34-17.42l.68-.34c-7.57,17.95-13.97,33.13-18.53,43.93-2.26,5.26-4.06,9.44-5.35,12.43-.61,1.36-1.09,2.44-1.46,3.27-.34.74-.53,1.11-.56,1.1-.03-.01.1-.41.39-1.17.33-.85.76-1.95,1.29-3.34,1.21-3.01,2.91-7.24,5.05-12.55,4.45-10.85,10.7-26.09,18.1-44.11l.19-.47.48.14c14.15,3.98,29.69,9.94,45.59,17.38,14.32,6.72,27.44,14.2,38.94,21.68,2.85,1.91,5.63,3.76,8.34,5.57,2.61,1.94,5.15,3.82,7.6,5.63,4.99,3.52,9.2,7.38,13.23,10.64,2.03,1.62,3.81,3.34,5.52,4.94,1.7,1.6,3.31,3.12,4.81,4.53,3.07,2.76,5.4,5.46,7.39,7.58,1.9,2.08,3.41,3.73,4.51,4.94.46.53.84.96,1.15,1.31.25.3.37.46.36.47Z"/>
      <g>
        <polygon class="cls-2" points="1048.41 19.74 1022.38 67.57 1051.34 83.96 1079.72 37.53 1048.41 19.74"/>
        <polygon class="cls-2" points="1079.72 37.53 1051.34 83.96 1069.63 94.84 1098.83 49.99 1079.72 37.53"/>
        <polygon class="cls-2" points="1109.94 56.87 1079.09 101.67 1096.77 113.54 1128.73 69.82 1109.94 56.87"/>
        <polygon class="cls-2" points="1138.37 77.12 1105.93 119.8 1123.03 132.5 1156.58 90.86 1138.37 77.12"/>
      </g>
      <g>
        <polygon class="cls-2" points="378.12 528.59 432.13 527.02 431.08 505.6 377.26 505.62 378.12 528.59"/>
        <polygon class="cls-2" points="377.34 493.46 430.62 494.44 430.56 473.01 377.47 470.5 377.34 493.46"/>
      </g>
      <g>
        <ellipse class="cls-6" cx="1274.1" cy="897.88" rx="12.8" ry="12.93"/>
        <path class="cls-2" d="M1261.29,897.88s-.07-.28-.09-.83c-.02-.55.03-1.36.25-2.39.4-2.02,1.64-5.04,4.62-7.42,2.88-2.39,7.77-3.81,12.58-2.06,2.37.83,4.64,2.44,6.25,4.69,1.66,2.21,2.6,5.07,2.63,8.02-.02,2.94-.97,5.81-2.63,8.02-1.62,2.24-3.89,3.85-6.25,4.69-4.81,1.75-9.7.32-12.58-2.06-2.98-2.38-4.22-5.4-4.62-7.42-.22-1.02-.27-1.84-.25-2.39.01-.55.04-.83.09-.83.13,0,.1,1.15.64,3.1.53,1.91,1.84,4.69,4.69,6.82,2.76,2.14,7.27,3.32,11.64,1.67,4.33-1.51,8.05-6.16,8.01-11.59.05-5.42-3.68-10.07-8.01-11.59-4.36-1.65-8.88-.47-11.63,1.67-2.85,2.13-4.16,4.91-4.69,6.82-.54,1.94-.51,3.1-.64,3.1Z"/>
      </g>
      <ellipse class="cls-2" cx="613.23" cy="242.19" rx="18.64" ry="18.82"/>
    </g>
  </g>
  <g id="Character_1" data-name="Character 1">
    <g class="cls-13">
      <g>
        <path class="cls-6" d="M705.88,1057.3H124.04c-20.16,0-36.5-16.5-36.5-36.86v-417.44c0-20.36,16.34-36.86,36.5-36.86h581.85c20.16,0,36.5,16.5,36.5,36.86v417.44c0,20.36-16.34,36.86-36.5,36.86Z"/>
        <path class="cls-2" d="M101,566.14h628.07c8.14,0,14.75,6.61,14.75,14.75v71.26H88.96v-73.97c0-6.64,5.39-12.04,12.04-12.04Z"/>
        <g>
          <path class="cls-6" d="M137.81,606.48c0,5.37-4.31,9.73-9.63,9.73s-9.63-4.36-9.63-9.73,4.31-9.73,9.63-9.73,9.63,4.36,9.63,9.73Z"/>
          <path class="cls-6" d="M166.85,606.48c0,5.37-4.31,9.73-9.63,9.73s-9.64-4.36-9.64-9.73,4.31-9.73,9.64-9.73,9.63,4.36,9.63,9.73Z"/>
          <path class="cls-6" d="M195.88,606.48c0,5.37-4.31,9.73-9.63,9.73s-9.63-4.36-9.63-9.73,4.31-9.73,9.63-9.73,9.63,4.36,9.63,9.73Z"/>
        </g>
        <path class="cls-7" d="M707.31,1057.3s.49-.05,1.44-.11c.96-.06,2.39-.09,4.26-.45,3.68-.63,9.34-2.05,15.38-6.4,5.98-4.22,12.28-11.81,14.51-22.54,1.1-5.34.61-11.27.71-17.55,0-6.29-.02-12.99-.03-20.09-.05-56.78-.11-138.92-.2-240.41-.01-25.38-.03-51.96-.04-79.66,0-13.85-.01-27.98-.02-42.38,0-7.2,0-14.46,0-21.79.08-3.69-.13-7.29-.89-10.87-.74-3.58-2.17-6.99-3.94-10.19-1.77-3.22-4.16-6.08-6.84-8.6-2.68-2.53-5.77-4.65-9.15-6.19-3.36-1.53-6.94-2.72-10.67-3.1-3.69-.43-7.51-.29-11.33-.31-15.27,0-30.78.01-46.51.02-31.48,0-63.87.02-97.09.03-132.88.01-278.98.03-432.32.05h-3.59c-1.17.08-2.35.09-3.52.22-2.32.31-4.64.78-6.84,1.6-4.42,1.57-8.47,4.14-11.8,7.46-3.29,3.35-5.84,7.43-7.4,11.86-.82,2.2-1.29,4.52-1.6,6.85-.25,2.32-.26,4.69-.24,7.09,0,19.12,0,38.12,0,56.98,0,37.72,0,74.88,0,111.4-.01,73.04-.02,143.48-.04,210.59,0,8.39,0,16.73,0,25.01,0,4.14,0,8.27,0,12.38-.04,2.07.08,4.08.2,6.1l.45,2.99c.15,1,.47,1.96.7,2.94,2.14,7.75,6.86,14.71,13.23,19.38,3.16,2.35,6.67,4.23,10.39,5.42,3.73,1.19,7.61,1.7,11.5,1.74,31.48.01,62.04.02,91.59.03,59.1.03,114.14.05,164.4.08,100.5.08,181.83.15,238.04.2,28.09.05,49.91.09,64.72.12,7.39.03,13.03.05,16.83.06,3.79.02,5.73.06,5.73.06,0,0-1.94.04-5.73.06-3.8.01-9.44.03-16.83.06-14.81.03-36.62.07-64.72.12-56.22.05-137.54.11-238.04.2-50.25.02-105.3.05-164.4.08-29.55,0-60.11.02-91.59.03-3.98-.03-7.99-.56-11.83-1.78-3.84-1.23-7.45-3.16-10.71-5.58-6.56-4.81-11.44-11.98-13.64-19.97-.24-1.01-.56-2-.72-3.03l-.47-3.08c-.13-2.08-.25-4.17-.21-6.21,0-4.11,0-8.24,0-12.38,0-8.28,0-16.62,0-25.01-.01-67.11-.02-137.56-.04-210.59,0-36.52,0-73.68,0-111.4,0-18.86,0-37.86,0-56.98-.02-2.37-.01-4.8.25-7.24.32-2.42.81-4.82,1.66-7.11,1.62-4.6,4.26-8.84,7.68-12.32,3.46-3.44,7.67-6.12,12.26-7.75,2.29-.85,4.69-1.34,7.11-1.66,1.21-.13,2.43-.15,3.65-.22h3.59c153.34.02,299.44.03,432.32.05,33.22,0,65.62.02,97.09.03,15.74,0,31.25,0,46.51.01,3.81.03,7.62-.12,11.46.33,3.83.4,7.52,1.62,10.97,3.2,3.47,1.58,6.65,3.77,9.41,6.37,2.76,2.59,5.21,5.54,7.03,8.85,1.82,3.29,3.29,6.8,4.05,10.48.78,3.65.99,7.45.91,11.09,0,7.33,0,14.6,0,21.79,0,14.4-.01,28.53-.02,42.38-.01,27.7-.03,54.29-.04,79.66-.08,101.49-.15,183.63-.2,240.41-.01,7.1-.02,13.8-.03,20.09-.12,6.27.36,12.21-.77,17.63-2.29,10.83-8.69,18.46-14.72,22.67-6.1,4.34-11.8,5.73-15.5,6.32-1.87.34-3.31.35-4.27.39-.96.04-1.44.04-1.44.04Z"/>
      </g>
      <g>
        <g>
          <path class="cls-7" d="M331.04,524.27c-8.11-5.2-10.07-17.27-5.68-25.9,4.4-8.63,13.73-13.87,23.22-15.42,13.73-2.24,28.42,2.68,38.11,12.75,5.24,5.45,9.48,12.55,16.58,15.05,6.24,2.19,13.15.21,19.7,1.07,8.79,1.15,16.31,7.46,20.82,15.16,4.51,7.7,6.36,16.69,7.4,25.57.95,8.15,1.59,17.1,7.19,23.05,5.46,5.8,14.09,7.03,20.88,11.16,12.78,7.77,16.92,27.01,8.49,39.43-2.69,3.96-6.55,7.59-6.86,12.39-.29,4.38,2.52,8.27,3.83,12.45,3.38,10.76-5.35,23.55-16.51,24.2-5.63.33-11.67-1.89-16.72.65-5.02,2.53-6.88,8.64-10.09,13.28-6.31,9.13-19.52,12.58-29.42,7.67-4.14-2.05-8.06-5.44-12.66-5.13-4.6.31-8.21,4.28-12.74,5.16-5.92,1.16-11.54-3.25-15.06-8.19-3.52-4.94-5.97-10.77-10.48-14.82-5.9-5.3-14.19-6.61-21.65-9.2-16.48-5.73-30.25-18.94-36.76-35.26-6.52-16.32-5.67-35.48,2.27-51.15"/>
          <path class="cls-11" d="M416.89,631.42c1.69-1.83,4.11-3.55,6.59-4.38l-.5-.03c.46-.13.94-.18,1.41-.24,1.82-.43,3.62-.34,5.15.64h-.05c2.82,1.04,5.3,3.13,6.66,5.85,2.37,4.74,1.49,10.78-1.7,15-2.77,3.67-7.53,6.07-11.97,4.98-4.08-1-7.1-4.73-8.25-8.81-1.26-4.46-.46-9.63,2.67-13.03Z"/>
          <path class="cls-12" d="M309.31,709.11l-8.11-150.39c-.34-7.04,4.72-13.16,11.63-14.1l70.76-20.24c22.76-3.09,38.73,24.86,40.83,47.95,2.33,25.66,4.17,57.07,1.69,76.34-4.98,38.74-36.4,44.6-36.4,44.6-.01-.13-.23,9.74,0,23.76l-14.44,47.66-65.95-55.58Z"/>
          <g>
            <g>
              <g>
                <path class="cls-7" d="M414.56,605.14c.17,2.61-1.89,4.9-4.58,5.12-2.69.22-5.01-1.7-5.17-4.31-.16-2.61,1.89-4.9,4.58-5.13,2.7-.22,5.01,1.71,5.18,4.32Z"/>
                <path class="cls-7" d="M418.13,588.88c-.59.66-4.38-2-9.65-1.84-5.27.09-9.06,2.94-9.65,2.3-.29-.28.3-1.46,1.95-2.75,1.62-1.28,4.42-2.56,7.7-2.64,3.28-.08,6.08,1.07,7.7,2.27,1.66,1.21,2.24,2.36,1.95,2.66Z"/>
              </g>
              <g>
                <path class="cls-7" d="M367.87,605.89c.17,2.61-1.89,4.9-4.58,5.12-2.69.22-5.01-1.7-5.17-4.31-.16-2.61,1.89-4.9,4.58-5.13,2.69-.22,5.01,1.71,5.18,4.32Z"/>
                <path class="cls-7" d="M366.36,591.36c-.59.66-4.38-2-9.65-1.84-5.27.09-9.06,2.94-9.65,2.3-.29-.28.29-1.46,1.95-2.75,1.62-1.28,4.42-2.56,7.7-2.64,3.28-.08,6.08,1.07,7.7,2.27,1.65,1.21,2.24,2.36,1.95,2.66Z"/>
              </g>
              <path class="cls-7" d="M386.59,630.28c-.03-.3,3.23-.97,8.52-1.81,1.34-.18,2.61-.49,2.81-1.42.29-.99-.31-2.44-1.01-4-1.36-3.25-2.78-6.66-4.27-10.23-5.94-14.58-10.28-26.58-9.7-26.81.58-.24,5.87,11.38,11.81,25.96,1.43,3.59,2.8,7.02,4.11,10.3.55,1.53,1.48,3.26.85,5.31-.33,1.03-1.3,1.79-2.16,2.05-.86.29-1.61.33-2.28.39-5.33.44-8.65.56-8.68.26Z"/>
              <path class="cls-10" d="M389.71,693.27s-23.35,2.29-49.23-12.43c0,0,11.05,28.68,49.17,23.98l.06-11.55Z"/>
              <path class="cls-10" d="M386.17,642.96c-2.65-3.57-6.88-5.68-10.84-5.41-2.74.18-5.4,1.54-6.83,4.01-1.43,2.46-1.41,6.07.37,8.6,2.01,2.84,5.68,3.67,8.64,2.86,2.96-.81,5.36-2.94,7.62-5.07.63-.59,1.27-1.2,1.61-2.04.35-.83.32-1.95-.28-2.69"/>
              <path class="cls-7" d="M371.19,634.41c.86-.08,1.03,5.7,6.04,9.66,5,3.97,11.08,3.15,11.15,3.96.09.36-1.33,1.16-3.9,1.31-2.52.16-6.23-.55-9.3-2.98-3.06-2.43-4.44-5.75-4.7-8.11-.29-2.41.31-3.86.7-3.84Z"/>
            </g>
            <path class="cls-7" d="M368.07,569.39c-.48,1.46-5.76.93-11.92,1.86-6.18.8-11.11,2.78-11.97,1.5-.38-.61.45-2,2.42-3.46,1.96-1.46,5.11-2.88,8.81-3.4,3.7-.52,7.11-.02,9.39.84,2.3.86,3.47,1.96,3.27,2.66Z"/>
            <path class="cls-7" d="M415.76,570.62c-.89,1.23-4.56.09-8.93.15-4.37-.09-8.04,1.04-8.93-.2-.39-.6.16-1.83,1.74-3.02,1.56-1.19,4.2-2.19,7.2-2.19,3,.01,5.63,1.03,7.18,2.23,1.58,1.2,2.12,2.43,1.73,3.03Z"/>
          </g>
          <path class="cls-7" d="M450.16,564.23c-1.78-5.78-5.05-11.29-10.07-14.59-2.75-1.81-5.95-2.91-8.5-5-5.52-4.5-6.8-12.33-10.2-18.61-4.39-8.1-12.88-13.78-21.97-14.72-7.57-.78-15.36,1.51-22.74-.37-5.45-1.39-10.21-4.96-15.74-6.02-10.76-2.06-20.76,5.73-28.56,13.49-.03,7.78,6.11,12.98,12.01,17.97,5.9,4.99,14.05,7.16,21.62,5.76,5.88-1.09,12.32-4.08,17.4-.92,5.35,3.33,5.57,11.47,10.32,15.63,6.78,5.94,17.56.37,26.17,2.94,6.65,1.99,10.8,8.41,15.22,13.81,4.42,5.4,11.03,10.53,17.68,8.54-.42-6.04-.86-12.13-2.64-17.91Z"/>
          <path class="cls-7" d="M369.4,531.36c-4.82-1.39-14.69-4.55-17.28-8.77-5.62-9.17-15.52-15.44-25.64-14.88-10.12.56-19.83,8.63-21.9,19.42-12.24.09-24.19,7.86-30.07,19.55-.73,1.46-1.37,2.98-1.91,4.53-3.81,6.78-4.55,15.28-1.78,22.56,1.67,4.4,4.51,9.29,2.27,13.42-2.28,4.2-8.04,4.34-12.53,5.9-7.81,2.72-12.87,11.78-11.13,19.93.62,2.93,2.01,5.85,1.41,8.78-.63,3.05-3.21,5.2-5.2,7.59-4.93,5.92-6.46,14.55-3.86,21.83,2.6,7.28,9.22,12.94,16.76,14.32,3.43.63,7.15.48,10.12,2.33,3.4,2.12,4.89,6.25,7.3,9.48,4.61,6.19,13.28,8.93,20.56,6.5,1.48-.49,2.84-1.24,4.13-2.1,2.3,3.22,5.9,5.4,12.07,5.4l-1.42-81.31c.77,1.71,2.24,3.26,4.88,3.86,12.92,2.95,14.81-23.94,11.93-31.23,4.67-4.19,9.4-8.44,12.97-13.77,3.57-5.33,6.71-19.85,5.95-26.38,4.66.28,24.5-6.34,22.38-6.95Z"/>
          <path class="cls-12" d="M314.85,612.45c-.41-8.26-10.42-10.03-17.52-5.89-3.89,2.27-6.87,6.84-6.52,15.62.95,23.4,24.02,17.6,24.03,16.93,0-.42.48-16.98,0-26.66Z"/>
          <path class="cls-10" d="M307.41,630.54c-.1-.07-.39.3-1.06.65-.65.34-1.79.6-3.01.19-2.48-.81-4.71-4.64-4.99-8.86-.15-2.13.21-4.17.89-5.88.64-1.74,1.68-2.98,2.91-3.26,1.21-.34,2.12.37,2.43,1.02.34.64.21,1.11.33,1.15.07.06.48-.41.26-1.37-.11-.46-.41-1-.97-1.43-.57-.43-1.4-.63-2.26-.5-1.78.2-3.32,1.93-4.07,3.8-.84,1.89-1.3,4.19-1.13,6.58.34,4.71,2.91,9.02,6.3,9.86,1.65.36,2.99-.19,3.67-.77.69-.61.8-1.14.71-1.18Z"/>
          <path class="cls-11" d="M337.49,525.05c.17.25-2.33.67-4.62,3.91-2.29,3.19-3.16,9.3-1.7,16.18l.12.59-.57.14c-5.73,1.44-12.04,6.04-14.93,13.28-.68,1.79-1.14,3.76-1.2,5.71-.01,1.98.34,4.06.72,6.18.38,2.13.8,4.33.88,6.66.16,2.29-.45,4.94-1.84,6.9-2.88,4.43-7.51,6.61-11.49,8.72-4.09,2.05-7.88,4.15-10.76,7.12-5.87,5.83-8.49,13.38-8.65,19.61-.22,6.31,1.54,11.3,3.05,14.46,1.54,3.19,2.83,4.72,2.7,4.81-.04.04-.38-.33-.99-1.05-.58-.75-1.42-1.87-2.27-3.47-1.72-3.13-3.72-8.21-3.64-14.79.03-6.5,2.64-14.46,8.75-20.66,3-3.16,7.04-5.43,11.09-7.48,3.98-2.11,8.34-4.27,10.85-8.18,2.57-3.55,1.42-8.19.74-12.38-.37-2.14-.74-4.29-.71-6.49.08-2.24.6-4.3,1.35-6.24,3.19-7.77,9.94-12.49,16.06-13.9l-.45.73c-1.37-7.21-.29-13.54,2.34-16.86,1.27-1.65,2.66-2.54,3.63-2.98,1-.4,1.52-.58,1.54-.53Z"/>
          <path class="cls-11" d="M298.75,639.3c1.68-1.83,4.11-3.55,6.59-4.38l-.5-.03c.46-.13.94-.18,1.41-.24,1.82-.43,3.62-.34,5.15.64h-.05c2.82,1.04,5.3,3.13,6.66,5.85,2.37,4.74,1.49,10.78-1.7,15-2.77,3.67-7.53,6.07-11.97,4.98-4.08-1-7.1-4.73-8.25-8.8-1.26-4.46-.46-9.63,2.67-13.03Z"/>
        </g>
        <g>
          <path class="cls-12" d="M653.03,734s18.17-25.2,24.58-25.95c6.41-.75,46.56.75,52.2,0,5.64-.75,37.39-15,37.39-15,0,0,5.64,2.02,4.94,7.38-.71,5.36-35.98,25.61-40.21,26.36-4.23.75-38.1,3.4-38.1,3.4l-20.52,32.57-20.29-28.77Z"/>
          <path class="cls-8" d="M655.24,725.98l-76.74,76.4-109.05-68.88c-6.1-3.85-13.04-6.22-20.26-6.9l-42.78-4.44-17.19-16.17-13.96,46.49-68.59-53.38-12.73,24.13-45.7,22.12,43.81,217.43s-.26,3.4-9.67,30.14c-2.81,7.99-13.41,47.4-11.57,63.62l118.53,1.02,123.16-.61-22.21-75.14-13.08-58.07c3.31-71.15,5.01-82.54,1.57-100.04v.03s71.58,42.41,106.95,46.49c5.5.63,20.85-6.79,28.09-15.39,29-34.47,78.76-96.29,78.76-96.29l-37.34-32.56Z"/>
          <g>
            <path class="cls-8" d="M273.68,854.17l-18.57,69.2,125.02,67.19-23.92,49.78-148.01-59.43c-8.27-3.32-15.6-8.76-20.56-16.07-5.87-8.65-10.31-19.06-4.46-38.28l31.85-120.7c2.02-7.67,5.5-19.79,9.01-29.75,3.29-9.31,8.55-17.92,15.94-24.57,2.61-2.35,5.37-4.41,8.26-6.18"/>
            <path class="cls-7" d="M248.25,745.37s-.5.35-1.48,1.01c-.98.67-2.42,1.68-4.2,3.13-3.55,2.89-8.55,7.65-12.95,15.17-4.54,7.45-7.45,17.77-10.99,29.56-3.42,11.84-6.77,25.5-10.77,40.51-3.94,15.03-8.26,31.48-12.89,49.15-2.32,8.83-4.72,17.97-7.19,27.38-1.24,4.7-2.49,9.48-3.76,14.32-1.36,4.8-2.65,9.69-2.9,14.77-.32,5.05.24,10.24,2.13,15.07.92,2.42,2.13,4.75,3.53,6.99,1.4,2.25,2.93,4.41,4.73,6.37,3.57,3.96,7.99,7.24,12.87,9.72,2.43,1.26,5.03,2.23,7.63,3.28,2.6,1.04,5.21,2.09,7.84,3.14,21,8.43,42.74,17.15,65.01,26.09,24.64,9.9,48.63,19.54,71.6,28.76l-.77.29c8.3-17.24,16.3-33.87,23.95-49.76l.24.73c-50.03-26.98-93.03-50.16-124.93-67.36l-.26-.14.08-.28c5.94-21.85,10.63-39.12,13.85-50.97,1.62-5.88,2.87-10.4,3.72-13.5.43-1.5.75-2.65.98-3.46.23-.78.37-1.16.37-1.16,0,0-.07.41-.27,1.19-.21.82-.5,1.98-.88,3.49-.81,3.11-2,7.65-3.54,13.55-3.14,11.87-7.73,29.17-13.52,51.06l-.18-.42c31.95,17.12,75.01,40.18,125.12,67.02l.47.25-.23.48c-7.63,15.9-15.61,32.54-23.89,49.79l-.24.5-.53-.21c-22.97-9.22-46.96-18.85-71.61-28.73-22.26-8.94-44-17.68-65-26.11-2.62-1.05-5.24-2.1-7.84-3.15-2.59-1.05-5.23-2.04-7.73-3.33-5-2.55-9.53-5.92-13.2-10-1.86-2.02-3.44-4.26-4.85-6.54-1.42-2.29-2.67-4.69-3.62-7.19-1.95-5-2.52-10.37-2.18-15.54.26-5.2,1.6-10.19,2.97-14.99,1.28-4.84,2.54-9.61,3.79-14.31,2.49-9.4,4.91-18.53,7.25-27.36,4.69-17.65,9.05-34.09,13.04-49.1,4.05-14.99,7.46-28.62,10.95-40.48,3.6-11.78,6.59-22.12,11.24-29.61,4.5-7.54,9.59-12.28,13.2-15.12,3.65-2.84,5.83-3.95,5.83-3.95Z"/>
          </g>
          <path class="cls-12" d="M507.53,1027.96l-35.61-17.2-69.49-5.57-23.37-12.26-16.02,34.62s35.3,21.49,44.84,22.27l58.42-1.79,30.54,3.24,10.67-23.32Z"/>
          <path class="cls-7" d="M279.98,844.06c-.25-.05.8-4.65,1.24-12.2.25-3.77.19-8.28-.2-13.26-.47-4.97-1.33-10.4-2.77-15.99-1.5-5.57-3.44-10.73-5.49-15.3-2.12-4.53-4.31-8.5-6.39-11.67-4.12-6.38-7.32-9.9-7.12-10.06.06-.05.88.8,2.31,2.4.73.79,1.59,1.78,2.49,3.01.92,1.22,2.03,2.56,3.05,4.18,2.19,3.15,4.48,7.11,6.69,11.68,2.13,4.6,4.13,9.81,5.65,15.46,1.46,5.66,2.3,11.17,2.71,16.2.33,5.04.3,9.6-.06,13.4-.09,1.91-.4,3.61-.6,5.11-.18,1.5-.44,2.78-.69,3.82-.46,2.08-.75,3.22-.83,3.21Z"/>
          <path class="cls-7" d="M256.2,923.87c-.04.21-2.03-.18-5.24-.23-3.21-.06-7.66.38-12.29,1.97-4.62,1.61-8.41,4.03-10.9,6.07-2.5,2.03-3.83,3.57-3.99,3.43-.1-.08,1-1.83,3.43-4.1,2.41-2.27,6.27-4.9,11.07-6.57,4.8-1.65,9.45-1.97,12.73-1.68,3.29.28,5.23.98,5.2,1.11Z"/>
          <path class="cls-7" d="M461.49,773.99c.07-.05.88,1.1,2.27,3.22.36.55.74,1.14,1.15,1.78.38.69.78,1.43,1.21,2.21.87,1.59,1.87,3.39,2.77,5.48.47,1.04.97,2.13,1.48,3.26.45,1.17.91,2.38,1.38,3.62,1.02,2.48,1.77,5.25,2.71,8.12,1.62,5.81,3.04,12.29,4.07,19.17,1.99,13.78,2.21,26.41,2.07,35.5-.07,4.55-.23,8.23-.4,10.76-.16,2.54-.3,3.94-.39,3.93-.09,0-.12-1.41-.11-3.95.02-2.54.04-6.21,0-10.75-.09-9.07-.46-21.62-2.43-35.3-1.02-6.83-2.39-13.26-3.94-19.04-.9-2.84-1.6-5.6-2.57-8.08-.45-1.25-.88-2.45-1.3-3.62-.48-1.13-.94-2.22-1.39-3.26-.83-2.1-1.77-3.91-2.58-5.52-.39-.79-.76-1.54-1.11-2.24-.37-.65-.72-1.26-1.05-1.82-1.26-2.19-1.92-3.43-1.84-3.48Z"/>
          <path class="cls-7" d="M373.58,756.26s-.34-.1-.95-.39c-.6-.29-1.48-.75-2.6-1.38-2.21-1.3-5.52-3.06-9.14-6.15l.63-.08c-4.5,7.05-10.11,17.21-14.58,29.56l-.34.93-.69-.7c-3-3.03-6.13-6.2-9.35-9.46-11.89-12.05-22.61-23.02-30.32-31-3.73-3.9-6.8-7.11-9.08-9.5-.97-1.05-1.77-1.92-2.42-2.63-.54-.61-.81-.95-.78-.98.03-.03.36.24.97.79.7.66,1.56,1.47,2.59,2.46,2.35,2.31,5.52,5.42,9.37,9.21,7.87,7.82,18.69,18.68,30.58,30.73,3.21,3.26,6.34,6.44,9.33,9.48l-1.03.23c4.56-12.44,10.36-22.61,15.05-29.59l.27-.4.36.32c3.43,3.07,6.69,4.97,8.81,6.38,2.16,1.37,3.36,2.09,3.32,2.16Z"/>
          <path class="cls-7" d="M405.67,722.89c.08,0,.19,1.12.23,3.15.03,2.03-.09,4.99-.59,8.6-.96,7.2-3.76,17.15-9.8,26.55-.25.39-.51.79-.75,1.17l-.5.78-.55-.76c-5.42-7.51-9.24-15.13-11.64-21.19h.91c-1.69,3.89-3.1,7.16-4.21,9.71-1.03,2.29-1.64,3.55-1.74,3.51s.35-1.37,1.23-3.72c1-2.6,2.29-5.92,3.81-9.88l.43-1.11.48,1.11c2.54,5.93,6.4,13.4,11.77,20.81l-1.04.02c.24-.38.49-.76.74-1.15,5.92-9.22,8.81-18.92,9.98-25.99,1.2-7.11,1.01-11.62,1.25-11.61Z"/>
          <path class="cls-7" d="M422.69,966.69s-.17-.74-.36-2.16c-.19-1.53-.45-3.61-.78-6.22-.65-5.53-1.56-13.31-2.68-22.88-2.31-19.31-5.45-46.02-11.01-75.15-2.83-14.56-6.1-28.3-9.51-40.68-1.84-6.15-3.47-12.03-5.36-17.42-.91-2.7-1.74-5.34-2.63-7.83-.92-2.48-1.81-4.86-2.66-7.14-1.62-4.58-3.41-8.59-4.86-12.16-.74-1.77-1.43-3.43-2.07-4.96-.69-1.49-1.32-2.86-1.89-4.1-1.08-2.39-1.94-4.29-2.58-5.7-.58-1.31-.86-2.01-.82-2.03.04-.02.4.64,1.05,1.91.69,1.38,1.62,3.25,2.8,5.6.6,1.23,1.27,2.59,1.99,4.06.7,1.5,1.39,3.16,2.17,4.92,1.52,3.55,3.37,7.55,5.05,12.12.88,2.27,1.79,4.65,2.74,7.13.93,2.49,1.77,5.12,2.71,7.82,1.94,5.39,3.61,11.28,5.48,17.43,3.49,12.39,6.8,26.17,9.63,40.76,5.57,29.2,8.57,55.95,10.65,75.29,1.02,9.68,1.78,17.51,2.28,22.93.23,2.62.41,4.7.54,6.24.11,1.43.14,2.18.1,2.19Z"/>
          <path class="cls-7" d="M457.34,936.71c0,.09-1.37.11-3.85.08-2.48-.03-6.06-.15-10.48-.36-8.84-.42-21.05-1.3-34.48-2.8-13.43-1.51-25.54-3.36-34.26-4.91-4.36-.77-7.88-1.45-10.3-1.97-2.42-.51-3.75-.84-3.74-.93.02-.09,1.38.07,3.83.43,2.67.4,6.16.93,10.36,1.56,8.75,1.32,20.84,3.02,34.25,4.53,13.41,1.5,25.58,2.52,34.4,3.17,4.24.31,7.75.57,10.45.77,2.47.19,3.83.34,3.83.42Z"/>
          <path class="cls-7" d="M445.8,971.51c-.03.08-1.14-.28-3.12-1-2.21-.82-5.01-1.86-8.35-3.1-7.05-2.62-16.81-6.15-27.69-9.74-10.89-3.59-20.83-6.57-28.05-8.65-3.42-.99-6.29-1.82-8.55-2.48-2.02-.6-3.12-.97-3.1-1.05.02-.09,1.17.12,3.22.57,2.06.44,5.02,1.15,8.66,2.09,7.29,1.87,17.3,4.71,28.21,8.31,10.91,3.6,20.65,7.28,27.62,10.12,3.49,1.42,6.29,2.61,8.21,3.48,1.92.87,2.97,1.38,2.93,1.47Z"/>
          <path class="cls-7" d="M584.24,834.17c-.14.07-1.18-1.48-2.44-4.24-1.26-2.75-2.66-6.72-3.52-11.28-.85-4.56-.99-8.78-.81-11.8.17-3.03.58-4.86.73-4.84.41.03-.39,7.47,1.33,16.4,1.64,8.95,5.07,15.58,4.71,15.75Z"/>
        </g>
        <g>
          <g>
            <path class="cls-2" d="M700.11,886.52l-200.31,1.64c-6.5,0-12.71,3.15-13.68,9.64l-21.89,147.44h-103.18c-3.32,0-6.01,2.72-6.01,6.07s2.69,6.07,6.01,6.07h329.53l22.52-155.61c1.21-8.03-4.95-15.26-12.99-15.26Z"/>
            <path class="cls-7" d="M700.41,886.52s1.09-.14,3.16.3c2,.47,5.16,1.72,7.65,5.12,1.24,1.67,2.18,3.89,2.48,6.46.33,2.6-.41,5.35-.74,8.32-.84,5.96-1.8,12.82-2.89,20.53-4.41,30.91-10.76,75.46-18.57,130.23l-.08.53h-.54c-85.27.05-197.33.12-319.69.19h-8.6c-1.33.06-3.18-.02-4.55-.87-1.42-.79-2.53-2.12-3.08-3.65-1.2-3.09.23-6.87,3.11-8.4,1.37-.84,3.2-.91,4.51-.86h4.24c11.29,0,22.46,0,33.48,0,22.05,0,43.53.01,64.23.02l-.77.67c7.88-52.8,15.23-102.06,21.82-146.25.23-2.8,1.48-5.83,3.71-7.7,2.17-1.95,4.93-2.98,7.66-3.41,2.79-.43,5.44-.2,8.08-.29,2.64-.02,5.26-.04,7.87-.05,10.4-.07,20.46-.14,30.16-.2,19.39-.12,37.31-.24,53.59-.34,32.52-.17,58.45-.3,76.3-.4,8.87-.02,15.72-.03,20.41-.04,2.29.01,4.04.02,5.27.03,1.18.01,1.79.05,1.79.05,0,0-.6.05-1.79.08-1.23.03-2.98.06-5.27.11-4.69.07-11.54.17-20.41.3-17.85.2-43.77.49-76.3.86-16.28.16-34.21.34-53.59.54-9.7.09-19.76.19-30.16.29-2.6.02-5.22.05-7.86.07-2.64.09-5.35-.11-7.88.29-2.55.4-5.07,1.38-6.99,3.11-1.97,1.73-3.01,4.15-3.26,6.91-6.53,44.2-13.81,93.47-21.61,146.28l-.1.67h-.67c-20.7,0-42.18.01-64.23.02-11.03,0-22.2,0-33.48,0h-4.24c-1.5-.04-2.61.02-3.73.65-2.2,1.18-3.29,4.06-2.37,6.41.42,1.17,1.27,2.19,2.35,2.79,1.13.65,2.25.71,3.76.67,2.86,0,5.73,0,8.6,0,122.37.07,234.42.14,319.69.19l-.61.53c8.04-54.73,14.58-99.26,19.11-130.15,1.15-7.7,2.16-14.56,3.05-20.51.36-2.98,1.11-5.71.82-8.2-.25-2.48-1.14-4.65-2.32-6.29-2.38-3.35-5.44-4.63-7.4-5.16-2.02-.49-3.12-.4-3.11-.48Z"/>
            <path class="cls-7" d="M472.65,1056.03c.28.05,6.66-37.5,14.24-83.84,7.58-46.36,13.5-83.98,13.21-84.02-.28-.05-6.66,37.49-14.24,83.85-7.58,46.35-13.5,83.97-13.21,84.02Z"/>
          </g>
          <ellipse class="cls-6" cx="593.25" cy="974.85" rx="12.54" ry="12.67"/>
        </g>
      </g>
    </g>
  </g>
  <g id="Speech_Bubble_2" data-name="Speech Bubble 2">
    <g class="cls-13">
      <g>
        <path class="cls-6" d="M1006.58,312.89h-316.65c-14.31,0-25.9,11.71-25.9,26.16v260.45c0,14.45,11.6,26.16,25.9,26.16h40.8v53.73l53.31-53.73h222.54c14.31,0,25.9-11.71,25.9-26.16v-260.45c0-14.45-11.6-26.16-25.9-26.16Z"/>
        <path class="cls-7" d="M1006.58,312.89s.94,0,2.78.1c1.82.24,4.59.63,7.91,2.13,3.26,1.51,7.2,4.04,10.34,8.42,1.57,2.16,2.96,4.74,3.9,7.71.96,2.96,1.24,6.32,1.19,9.8.04,27.89.11,68.42.19,119.07.02,25.33.05,53.2.08,83.27.01,15.04.02,30.63.03,46.74,0,2.01,0,4.03,0,6.06.02,2.02.02,4.07-.15,6.16-.45,4.15-1.89,8.21-4.17,11.77-2.28,3.56-5.49,6.52-9.18,8.66-3.7,2.13-7.98,3.27-12.29,3.4-67.72.03-142.95.07-223.19.11l.44-.18c-16.96,17.1-34.98,35.27-53.3,53.74l-1.09,1.1v-1.55c0-17.08,0-35.32,0-53.73l.64.64h-3.16c-11.97,0-23.87,0-35.69,0-5.96.32-12.16-1.32-17.08-4.8-4.97-3.45-8.61-8.67-10.31-14.45-.92-2.87-1.09-5.96-1.09-8.89,0-2.93,0-5.86,0-8.78,0-5.84,0-11.66,0-17.46,0-11.59,0-23.09,0-34.49.01-45.6.03-89.58.04-131.48,0-20.95.02-41.38.03-61.23.04-2.5-.09-4.92.09-7.45.16-2.51.65-4.99,1.53-7.33,1.65-4.71,4.71-8.84,8.52-11.87,3.82-3.06,8.46-4.94,13.21-5.51,2.4-.25,4.74-.2,7.06-.2,2.33,0,4.64,0,6.95,0,36.89.03,71.26.05,102.64.08,62.74.09,113.51.16,148.62.2,17.53.05,31.15.09,40.41.12,4.6.03,8.12.05,10.51.06,2.37.02,3.58.07,3.58.07,0,0-1.21.04-3.58.07-2.39.01-5.9.04-10.51.06-9.26.03-22.87.07-40.41.12-35.11.05-85.88.12-148.62.21-31.38.02-65.74.05-102.64.08-2.31,0-4.62,0-6.95,0-2.33,0-4.67-.04-6.94.2-4.56.55-9,2.36-12.66,5.3-3.65,2.91-6.58,6.87-8.15,11.39-1.82,4.49-1.53,9.43-1.54,14.4,0,19.85.02,40.28.03,61.23.01,41.9.02,85.88.04,131.48,0,11.4,0,22.9,0,34.49,0,5.8,0,11.62,0,17.46,0,2.92,0,5.85,0,8.78,0,2.92.16,5.77,1.04,8.53,1.62,5.49,5.09,10.47,9.82,13.75,4.73,3.32,10.5,4.88,16.36,4.57,11.82,0,23.72,0,35.69,0,1.08,0,2.16,0,3.16,0h.64v.65c0,18.41,0,36.65,0,53.73l-1.09-.46c18.32-18.46,36.35-36.63,53.31-53.73l.18-.19h.26c80.23.02,155.45.03,223.16.05,4.13-.12,8.23-1.2,11.78-3.24,3.54-2.05,6.62-4.89,8.81-8.3,2.19-3.41,3.57-7.31,4.01-11.29.16-1.98.17-4.01.15-6.05,0-2.03,0-4.05,0-6.06.01-16.11.02-31.7.03-46.74.03-30.08.05-57.94.08-83.27.08-50.65.14-91.18.19-119.07.07-3.48-.2-6.74-1.12-9.68-.9-2.92-2.26-5.47-3.8-7.62-3.07-4.34-6.94-6.89-10.16-8.41-6.65-2.91-10.67-2.21-10.6-2.43Z"/>
      </g>
      <g>
        <path class="cls-8" d="M803.34,382.61c7.6-4.57,15.69-8.03,24.04-10.39l4.95-23.65,40.2-.7,5.79,23.46c8.43,2.06,16.64,5.24,24.4,9.54l20.32-13.24,28.93,27.76-12.59,20.65c4.6,7.56,8.08,15.6,10.45,23.9l23.79,4.92.71,39.96-23.61,5.75c-2.08,8.37-5.27,16.53-9.6,24.25l13.32,20.2-27.93,28.75-20.77-12.52c-7.6,4.57-15.7,8.03-24.04,10.38l-4.95,23.65-40.2.7-5.79-23.46c-8.42-2.06-16.63-5.24-24.39-9.54l-20.32,13.24-28.93-27.76,12.59-20.65c-4.59-7.56-8.08-15.6-10.45-23.9l-23.79-4.92-.71-39.96,23.61-5.75c2.08-8.37,5.27-16.53,9.6-24.25l-13.32-20.2,27.93-28.75,20.78,12.52h0ZM828.92,432.08c-22.16,17.73-21.56,51.08,1.22,68.01,15.56,11.57,37.4,11.19,52.55-.92,22.17-17.73,21.57-51.09-1.22-68.03-15.57-11.57-37.4-11.18-52.55.94Z"/>
        <path class="cls-11" d="M883.79,595.85h-52.68c-2.75,0-5.11-1.98-5.63-4.7l-3.12-16.4c-.21-1.12-1-2.07-2.07-2.48l-11.99-4.56c-.97-.37-2.08-.25-2.95.32l-13.66,8.98c-2.17,1.43-5.03,1.2-6.96-.54l-38.9-35.25c-1.97-1.78-2.47-4.67-1.24-7.03l8.88-16.89c.43-.82.5-1.8.19-2.67l-3.84-10.84c-.36-1.01-1.18-1.78-2.2-2.07l-21.74-6.21c-2.44-.7-4.12-2.89-4.17-5.46l-.79-39.34,2.45-.05.79,39.34c.03,1.47.99,2.72,2.39,3.12l21.73,6.21c1.78.51,3.22,1.86,3.84,3.62l3.84,10.84c.54,1.53.42,3.23-.34,4.67l-8.87,16.89c-.71,1.35-.42,3,.71,4.02l38.9,35.25c1.1,1,2.74,1.13,3.98.31l13.66-8.98c1.52-1,3.45-1.22,5.15-.57l11.99,4.56c1.85.7,3.24,2.36,3.61,4.33l3.12,16.4c.3,1.56,1.65,2.69,3.22,2.69h52.68v2.48Z"/>
        <g>
          <ellipse class="cls-6" cx="722.14" cy="455.86" rx="5.12" ry="5.17"/>
          <path class="cls-11" d="M722.14,462.26c-3.5,0-6.34-2.87-6.34-6.41s2.85-6.41,6.34-6.41,6.34,2.87,6.34,6.41-2.85,6.41-6.34,6.41ZM722.14,451.93c-2.15,0-3.89,1.76-3.89,3.93s1.75,3.93,3.89,3.93,3.89-1.76,3.89-3.93-1.75-3.93-3.89-3.93Z"/>
        </g>
        <g>
          <ellipse class="cls-6" cx="881.68" cy="596.54" rx="5.12" ry="5.17"/>
          <path class="cls-11" d="M881.68,602.95c-3.5,0-6.34-2.87-6.34-6.41s2.85-6.41,6.34-6.41,6.34,2.87,6.34,6.41-2.85,6.41-6.34,6.41ZM881.68,592.61c-2.14,0-3.89,1.76-3.89,3.93s1.75,3.93,3.89,3.93,3.89-1.76,3.89-3.93-1.75-3.93-3.89-3.93Z"/>
        </g>
        <path class="cls-11" d="M887.22,583.33l-2.41-.45,1.55-8.54c.47-2.56,2.17-4.67,4.54-5.65l12.3-5.07c2.17-.9,4.67-.71,6.69.51l15.97,9.65c2.03,1.22,4.59.88,6.23-.84l29.78-31.28c1.65-1.73,1.89-4.34.57-6.35l-10.85-16.57c-1.36-2.08-1.62-4.69-.7-7l3.71-9.33c.92-2.33,2.93-4.05,5.36-4.58l17.96-3.96c2.3-.51,3.97-2.6,3.97-4.98v-43.95c0-2.34-1.57-4.37-3.81-4.94l-19.65-5.03c-2.28-.58-4.18-2.24-5.09-4.44l-3.92-9.55c-.91-2.2-.72-4.75.5-6.8l9.58-16.16c1.22-2.06.87-4.65-.85-6.31l-32.3-31.16c-1.69-1.63-4.24-1.88-6.21-.61l-15.34,9.91c-2.14,1.38-4.81,1.58-7.13.52l-10.12-4.61c-2.1-.95-3.67-2.87-4.21-5.12l-4.07-16.98c-.55-2.3-2.57-3.9-4.91-3.9h-43.13v-2.48h43.13c3.48,0,6.48,2.38,7.29,5.79l4.08,16.98c.36,1.52,1.42,2.81,2.83,3.45l10.12,4.61c1.56.71,3.35.58,4.8-.35l15.34-9.91c2.92-1.89,6.71-1.52,9.23.9l32.3,31.16c2.55,2.46,3.07,6.32,1.25,9.37l-9.58,16.16c-.82,1.38-.94,3.09-.33,4.57l3.92,9.54c.61,1.48,1.89,2.6,3.42,2.99l19.65,5.03c3.33.86,5.66,3.88,5.66,7.35v43.95c0,3.54-2.48,6.65-5.91,7.4l-17.96,3.96c-1.64.36-2.99,1.51-3.61,3.08l-3.71,9.33c-.62,1.55-.44,3.32.47,4.71l10.85,16.57c1.95,2.98,1.6,6.86-.85,9.43l-29.78,31.28c-2.44,2.55-6.24,3.07-9.26,1.25l-15.97-9.65c-1.36-.82-3.04-.95-4.5-.34l-12.3,5.07c-1.6.66-2.75,2.08-3.06,3.81l-1.55,8.54Z"/>
        <g>
          <ellipse class="cls-6" cx="833.12" cy="339.8" rx="5.12" ry="5.17"/>
          <path class="cls-11" d="M833.12,346.21c-3.5,0-6.34-2.87-6.34-6.41s2.85-6.41,6.34-6.41,6.34,2.87,6.34,6.41-2.85,6.41-6.34,6.41ZM833.12,335.87c-2.15,0-3.89,1.76-3.89,3.93s1.75,3.93,3.89,3.93,3.89-1.76,3.89-3.93-1.75-3.93-3.89-3.93Z"/>
        </g>
        <path class="cls-11" d="M753.05,437.53c-.68,0-1.22-.62-1.22-1.3,0-.39,0-1.05,5.33-14.13.62-1.53.46-3.28-.44-4.67l-10.82-16.81c-1.89-2.93-1.54-6.75.84-9.29l28.8-30.75c2.45-2.62,6.41-3.11,9.42-1.19l16.08,10.3c1.3.83,2.94,1.01,4.39.49l12.89-4.71c1.53-.56,2.7-1.84,3.13-3.44l3.37-12.55c.18-.66.85-1.06,1.5-.87.65.18,1.04.86.86,1.52l-3.37,12.55c-.63,2.37-2.38,4.28-4.67,5.12l-12.89,4.71c-2.15.79-4.6.52-6.54-.72l-16.08-10.3c-2.02-1.29-4.68-.96-6.33.8l-28.8,30.75c-1.6,1.7-1.83,4.27-.56,6.24l10.82,16.81c1.34,2.08,1.58,4.68.65,6.97-3.64,8.92-5.05,12.73-5.16,13.31,0,.68-.54,1.17-1.22,1.17Z"/>
        <path class="cls-11" d="M855.81,500.19c-18.33,0-33.24-15.06-33.24-33.57s14.91-33.57,33.24-33.57c4.51,0,8.88.9,13,2.66.63.27.92.99.65,1.62-.27.63-.99.92-1.61.65-3.81-1.64-7.86-2.47-12.04-2.47-16.98,0-30.79,13.95-30.79,31.1s13.81,31.09,30.79,31.09,30.79-13.95,30.79-31.09c0-7.2-2.5-14.23-7.03-19.78-.43-.53-.36-1.31.17-1.74.52-.44,1.29-.36,1.73.17,4.9,5.99,7.59,13.58,7.59,21.36,0,18.51-14.91,33.57-33.24,33.57Z"/>
        <g>
          <ellipse class="cls-6" cx="869.79" cy="438.45" rx="5.12" ry="5.17"/>
          <path class="cls-11" d="M869.79,444.86c-3.5,0-6.34-2.87-6.34-6.41s2.85-6.41,6.34-6.41,6.35,2.87,6.35,6.41-2.85,6.41-6.35,6.41ZM869.79,434.52c-2.14,0-3.89,1.76-3.89,3.93s1.75,3.93,3.89,3.93,3.89-1.76,3.89-3.93-1.75-3.93-3.89-3.93Z"/>
        </g>
      </g>
    </g>
  </g>
  <g id="Character_2" data-name="Character 2">
    <g class="cls-13">
      <g>
        <path class="cls-6" d="M1656.62,622.09h-494.06c-17.12,0-30.99-16.19-30.99-36.16V176.43c0-19.97,13.88-36.16,30.99-36.16h494.06c17.12,0,30.99,16.19,30.99,36.16v409.5c0,19.97-13.88,36.16-30.99,36.16Z"/>
        <path class="cls-2" d="M1145.89,140.15h529.18c7.32,0,13.27,5.95,13.27,13.27v71.1h-554.49v-72.33c0-6.64,5.39-12.04,12.04-12.04Z"/>
        <g>
          <path class="cls-6" d="M1176.33,179.72c0,5.27-4.19,9.55-9.35,9.55s-9.35-4.27-9.35-9.55,4.19-9.54,9.35-9.54,9.35,4.27,9.35,9.54Z"/>
          <path class="cls-6" d="M1204.5,179.72c0,5.27-4.19,9.55-9.35,9.55s-9.35-4.27-9.35-9.55,4.19-9.54,9.35-9.54,9.35,4.27,9.35,9.54Z"/>
          <path class="cls-6" d="M1232.67,179.72c0,5.27-4.19,9.55-9.35,9.55s-9.35-4.27-9.35-9.55,4.19-9.54,9.35-9.54,9.35,4.27,9.35,9.54Z"/>
        </g>
        <path class="cls-7" d="M1657.35,621.97s.44-.05,1.3-.11c.86-.04,2.15-.12,3.82-.49,3.28-.71,8.37-2.24,13.38-6.76,5.03-4.35,9.96-11.68,11.68-21.49.92-4.88.54-10.26.61-15.99,0-5.73-.02-11.83-.03-18.29-.05-51.7-.11-126.49-.2-218.89-.02-46.21-.05-96.82-.07-151.16,0-3.4,0-6.81,0-10.23.05-3.44-.14-6.8-.78-10.16-1.31-6.67-4.3-13.11-8.96-18.14-4.55-5.13-10.95-8.54-17.74-9.39-3.38-.29-6.95-.13-10.45-.17-3.52,0-7.05,0-10.59,0-28.35,0-57.53.02-87.45.03-119.69.02-251.27.03-389.38.05-2.18,0-4.3-.03-6.37.28-1.03.19-2.08.33-3.07.68-.5.16-1.01.29-1.51.46l-1.45.62c-3.87,1.68-7.26,4.42-9.9,7.75-2.66,3.32-4.63,7.2-5.83,11.31-1.25,4.13-1.51,8.39-1.43,12.76,0,17.41,0,34.71,0,51.88,0,34.34,0,68.18,0,101.43-.01,66.5-.02,130.64-.04,191.74,0,15.28,0,30.36-.01,45.25.02,7.43-.06,14.85.05,22.16.05,3.62.7,7.21,1.73,10.64,1.01,3.44,2.52,6.72,4.48,9.66,1.95,2.95,4.27,5.64,7,7.82,2.74,2.16,5.81,3.84,9.07,4.9,1.62.57,3.31.85,5,1.13,1.7.1,3.39.23,5.14.19,3.47,0,6.92,0,10.35,0,13.75,0,27.29.01,40.59.02,53.23.03,102.8.05,148.07.08,90.51.08,163.76.15,214.4.2,25.3.05,44.95.09,58.29.12,6.65.03,11.73.05,15.16.06,3.41.02,5.16.06,5.16.06,0,0-1.75.04-5.16.06-3.43.01-8.51.03-15.16.06-13.34.03-32.99.07-58.29.12-50.63.05-123.88.11-214.4.2-45.26.02-94.84.05-148.07.08-13.31,0-26.84.01-40.59.02-3.44,0-6.89,0-10.35,0-1.72.04-3.49-.08-5.26-.19-1.75-.29-3.51-.58-5.19-1.17-3.39-1.1-6.58-2.84-9.41-5.08-2.83-2.25-5.23-5.03-7.24-8.06-2.02-3.04-3.59-6.41-4.62-9.95-1.06-3.53-1.73-7.21-1.78-10.93-.12-7.37-.04-14.74-.06-22.19,0-14.89,0-29.97-.01-45.25-.01-61.1-.02-125.24-.04-191.74,0-33.25,0-67.09,0-101.43,0-17.17,0-34.47,0-51.88-.08-4.32.18-8.87,1.48-13.11,1.24-4.26,3.28-8.29,6.06-11.75,2.75-3.47,6.3-6.34,10.36-8.1l1.53-.65c.52-.18,1.06-.33,1.58-.49,1.05-.37,2.14-.53,3.23-.72,2.2-.33,4.41-.3,6.55-.3,138.11.02,269.69.03,389.38.05,29.92,0,59.1.02,87.45.03,3.54,0,7.07,0,10.59,0,3.53.05,6.99-.12,10.57.19,7.07.89,13.7,4.45,18.39,9.74,4.8,5.2,7.88,11.82,9.21,18.67.65,3.42.85,6.96.8,10.37,0,3.42,0,6.84,0,10.23-.03,54.33-.05,104.95-.07,151.16-.08,92.41-.15,167.19-.19,218.89,0,6.46-.02,12.56-.03,18.29-.09,5.71.28,11.12-.67,16.05-1.77,9.9-6.78,17.27-11.87,21.62-5.08,4.53-10.22,6.03-13.52,6.7-1.68.35-2.97.41-3.84.43-.86.04-1.3.04-1.3.04Z"/>
      </g>
      <g>
        <g>
          <g>
            <g>
              <path class="cls-4" d="M1076.78,487.73c-10.07-1.11-21.37-1.92-21.37-1.92l-10-1.25c.13.66.36,1.32.61,1.95.47,1.2.97,2.46.8,3.73-.33,2.42-2.92,3.87-5.31,4.32-5.01.93-10.45-1.04-13.69-4.97-3.11-3.77-4.06-9.2-2.49-13.86-.52-1.19-.86-2.53-.9-4.09-.26-9.55,10.97-17.58,10.97-17.58l-3.44-.93s-10.92,1.51-16.65,19.09c-.86,2.62-2.58,4.96-4.96,6.34-1.46.85-3.15,1.34-4.84.73-4.2-1.51-4.21-4.9-.78-15.93,3.43-11.03,10.37-20.53,17.64-23.1,7.27-2.57,10.27-3.1,10.27-3.1,0,0-30.53-10.23-32.43-10.96-5.51-2.1-9.19-6.34-8.14-10.18.67-2.46,3.33-5.07,9.83-2.82,5.62,1.94,65.75,14.48,65.75,14.48l26.27,7.12,20.72,9.43-14.53,36.67-2.39,1.61c-6.16,4.17-13.58,6.02-20.93,5.21Z"/>
              <g>
                <path class="cls-4" d="M1090.07,439.12c-.24,3.51-3.71,5.99-7.14,6.75-3.42.76-7,.33-10.47.84-10.37,1.53-18.38,11.09-28.81,12.12-1.45.14-3.29-.14-3.73-1.53-.41-1.29.7-2.53,1.71-3.44,8.62-7.79,17.23-15.57,25.85-23.36"/>
                <path class="cls-3" d="M1067.49,430.5c-.09-.1-1.17.7-3.05,2.24-1.88,1.54-4.55,3.81-7.83,6.65-3.39,2.98-7.24,6.36-11.45,10.06-1.07.96-2.17,1.93-3.29,2.93-.97,1.01-2.69,1.89-2.99,4.29-.09,1.2.83,2.37,1.8,2.74.96.42,1.89.48,2.8.43,1.72-.18,3.38-.5,5.01-1.06,6.54-2.21,11.56-6.25,16.62-8.67,2.51-1.25,5-2.17,7.41-2.56,2.41-.39,4.78-.35,6.97-.53,4.44-.16,8.02-2.11,9.47-4.23,1.53-2.13,1.19-3.73,1.12-3.67-.19-.05-.17,1.43-1.72,3.18-1.53,1.77-4.69,3.32-8.95,3.31-2.12.09-4.5-.05-7.13.3-2.63.35-5.32,1.28-7.96,2.54-5.29,2.46-10.38,6.41-16.43,8.43-1.49.52-3.05.8-4.52.97-1.44.12-2.68-.39-2.55-1.16,0-.86,1.19-1.93,2.31-2.92,1.1-1.01,2.19-2,3.25-2.98,4.1-3.81,7.86-7.3,11.16-10.37,3.16-2.97,5.69-5.41,7.41-7.12,1.72-1.71,2.63-2.71,2.54-2.81Z"/>
              </g>
              <path class="cls-3" d="M1035.69,453.71c-.03.26-2.58-1.08-6.55,0-1.94.53-4.03,1.87-5.68,4-1.68,2.11-2.94,4.86-4.05,7.86-1.12,2.99-2.2,5.95-3.74,8.38-1.54,2.41-3.41,4.32-5.42,5.33-2.02,1.05-4.04.74-5.1.18-1.09-.57-1.5-1.12-1.47-1.15.07-.1.6.3,1.66.69,1.05.38,2.75.5,4.49-.52,1.73-.98,3.44-2.83,4.83-5.14,1.41-2.32,2.42-5.19,3.55-8.21,1.12-3.03,2.47-5.92,4.33-8.15,1.82-2.26,4.23-3.68,6.37-4.13,2.15-.49,3.95-.23,5.09.1,1.16.34,1.71.72,1.68.79Z"/>
              <path class="cls-3" d="M998.08,425.37c.07-.17,2.37.65,6.08,1.99,4.13,1.47,9.06,3.23,14.51,5.17,5.48,1.86,10.43,3.54,14.59,4.95,3.74,1.25,6.05,2.03,6.01,2.21-.04.17-2.45-.31-6.27-1.34-3.82-1.03-9.05-2.63-14.75-4.61-5.7-1.98-10.79-3.97-14.42-5.54-3.64-1.56-5.82-2.68-5.75-2.84Z"/>
              <path class="cls-3" d="M1040.15,462.98c.07.07-.45.59-1.3,1.54-.8.92-2.11,2.5-1.85,4.62.12,1.03.84,1.93,1.98,2.45,1.12.56,2.52.76,4.03,1.07,1.48.3,3.32.8,4.51,2.37,1.14,1.53,1.39,3.63.79,5.49-.61,1.91-2.11,3.31-3.72,4.08-1.63.76-3.35,1.06-5.02.8-3.13-.59-5.66-1.73-7.75-2.8-2.06-1.11-3.6-2.28-4.47-3.28-.88-1.01-1.1-1.73-1.05-1.75.1-.06.47.56,1.4,1.4.94.84,2.48,1.85,4.53,2.82,2.04.93,4.63,1.97,7.51,2.44,2.69.36,6.34-1.04,7.35-4.1.49-1.5.27-3.2-.58-4.35-.85-1.16-2.32-1.65-3.77-1.97-1.45-.33-2.96-.58-4.27-1.27-1.32-.62-2.33-1.97-2.39-3.29-.16-2.66,1.5-4.24,2.4-5.09.99-.87,1.6-1.25,1.65-1.19Z"/>
              <path class="cls-3" d="M1043.85,483.77c0-.06.71,0,1.66.76.91.74,2.03,2.36,1.89,4.63-.14,2.22-1.73,4.73-4.38,5.99-2.63,1.27-5.97,1.28-9.05.23-3.09-1.06-5.62-3.09-7.22-5.41-1.63-2.32-2.3-4.86-2.46-6.96-.16-2.12.17-3.82.51-4.94.35-1.12.69-1.68.76-1.65.24.05-.87,2.5-.37,6.49.27,1.96.98,4.28,2.52,6.37,1.52,2.09,3.86,3.92,6.68,4.89,2.81.96,5.83.96,8.13-.09,2.31-1.03,3.76-3.14,3.97-5.01.23-1.89-.62-3.41-1.34-4.18-.75-.8-1.36-1.02-1.32-1.12Z"/>
              <path class="cls-3" d="M1071.49,469.71c-.11-.03.05-1.21,1.05-2.91.98-1.67,2.97-3.86,6.04-5.05l-.06,1.13c-1.23-.57-2.53-1.27-3.82-2.07-7.22-4.47-10.82-10.56-10.52-10.68.3-.26,4.24,5.3,11.19,9.59,1.25.78,2.5,1.47,3.67,2.05l1.3.65-1.36.48c-2.79.99-4.72,2.87-5.82,4.33-1.11,1.48-1.53,2.54-1.69,2.48Z"/>
              <path class="cls-3" d="M1019.49,452.46c.24-.24,2.01,1.69,2.23,4.78.24,3.08-1.23,5.27-1.5,5.07-.34-.16.45-2.29.23-4.97-.17-2.68-1.26-4.67-.95-4.88Z"/>
            </g>
            <path class="cls-8" d="M1342.08,393.73s-65.06,112.19-86.73,123.13c-21.67,10.93-100-5.03-118.22-9.22-20.67-4.75-47.05-13.08-47.05-13.08l7.72-62.31,17.04.37s96.6,9.87,102.19,5.42c5.59-4.45,42.79-76.31,42.79-76.31,0,0,23.35-47.63,31.72-58.53,12.3-16.01,22.53-16.01,22.53-16.01l28.01,106.54Z"/>
          </g>
          <g>
            <path class="cls-8" d="M1263.91,621.25c1.72-89.04,9.63-269.98,9.63-269.98l40.52-64.08s12.51-3.71,28.01-5.44c15.51-1.73,18.14-3.22,18.14-3.22l11.29-17.95,92.97-5.48,14.21,26.61s58.22,30.63,65.97,34.94c7.75,4.31-42.78,215.41-42.78,215.41l9.75,89.19h-247.72Z"/>
            <path class="cls-7" d="M1344.8,621.25c.36-15.62,1.17-34.21,2.24-54.84,1.22-20.62,2.84-43.28,5.15-67,2.42-23.72,5.28-46.26,8.44-66.69,3.34-20.39,6.68-38.71,10.27-53.93.86-3.81,1.69-7.44,2.47-10.88.89-3.4,1.74-6.61,2.52-9.62,1.55-6.02,2.89-11.2,4.23-15.37,1.21-4.1,2.17-7.33,2.86-9.67.29-1.03.52-1.86.7-2.53.15-.57.21-.87.18-.88-.03,0-.15.27-.35.82-.23.65-.52,1.47-.87,2.48-.77,2.32-1.83,5.52-3.18,9.58-1.44,4.15-2.88,9.31-4.53,15.31-.83,3.01-1.72,6.21-2.66,9.61-.82,3.44-1.69,7.06-2.6,10.87-3.75,15.21-7.23,33.54-10.67,53.95-3.26,20.44-6.17,43.01-8.59,66.76-2.32,23.76-3.89,46.44-5.02,67.09-.98,20.65-1.66,39.26-1.85,54.9"/>
            <path class="cls-7" d="M1273.54,351.28c-.12,0-.32,2.16-.57,6.08-.25,3.92-.52,9.59-.8,16.61-.56,14.03-1.04,33.42-1.59,54.82-.55,21.41-1.27,40.78-1.95,54.79-.34,6.78-.61,12.38-.82,16.6-.19,3.92-.24,6.09-.11,6.1.12,0,.4-2.14.81-6.05.42-3.91.89-9.57,1.39-16.57,1.01-14.01,1.92-33.4,2.48-54.82.56-21.42.83-40.8,1.07-54.83.09-6.79.17-12.4.23-16.62.03-3.93,0-6.1-.13-6.1Z"/>
            <g class="cls-14">
              <path class="cls-1" d="M1276.78,503.93c.68-5.57,5.11-10.13,10.2-12.46,5.1-2.33,10.83-2.8,16.43-3.08,72.58-3.54,146.17,22.03,200.97,69.82l2.85,19.9c-17.68,7.57-38.21,2.38-55.74-5.52-17.54-7.9-34.2-18.52-53.07-22.18-16.36-3.18-33.99-1.04-49.09-8.1-9.52-4.45-17.35-12.3-27.34-15.55-8.92-2.9-18.67-1.84-27.81-3.95-9.14-2.11-18.54-9.55-17.39-18.88Z"/>
            </g>
            <path class="cls-8" d="M1544.66,316.66s28.78,13.4,36.93,50.03c4.89,21.97,19.1,82.39,19.1,82.39,0,0,15.42,72.09,13.22,86.07-2.2,13.98-6.84,45.17-36.96,48.85-30.12,3.68-134.91-34.88-134.91-34.88l-28.65-11.77,11.02-52.96,49.21,12.51,48.18,3.86-6.51-44.03-10.69-28.3s.6-30.84,12.35-56.59c11.75-25.75,27.71-55.18,27.71-55.18Z"/>
            <g>
              <path class="cls-11" d="M1365.03,459.15l-38.03-77.61c-2.58-5.27-7.94-8.61-13.8-8.61h-95.55c-3.55,0-5.81,3.79-4.14,6.92l64.68,120.93c1.81,3.39,5.34,5.51,9.18,5.51h99.1l-21.44-47.13Z"/>
              <path class="cls-7" d="M1214.14,380.41c0,.06.66.11,1.91.15,1.45.02,3.26.05,5.47.09,5.01,0,11.82,0,20.13,0,17.21-.15,40.55-.35,66.34-.57,3.16.13,6.27.64,8.82,2.14,2.57,1.46,4.4,3.92,5.86,6.5,2.78,5.3,5.11,10.83,7.53,15.88,4.75,10.13,9.03,19.29,12.68,27.06,3.59,7.5,6.53,13.66,8.69,18.18.99,1.98,1.8,3.6,2.44,4.9.58,1.11.91,1.68.96,1.66.06-.03-.16-.65-.63-1.81-.57-1.34-1.27-3.01-2.14-5.05-2.03-4.58-4.8-10.82-8.17-18.42-3.54-7.82-7.71-17.03-12.33-27.22-2.4-5.11-4.62-10.5-7.5-16.05-1.52-2.71-3.53-5.47-6.5-7.18-2.94-1.73-6.36-2.25-9.64-2.39-26.02.17-49.42.74-66.43,1.09-8.3.23-15.11.43-20.12.57-2.21.1-4.02.18-5.47.24-1.25.08-1.91.15-1.91.21Z"/>
              <path class="cls-6" d="M1273.02,397.41c-2.32,1.2-2.4,3.12-1.43,4.8.97,1.68,3.19,2.44,5.06,1.92,1.24-.34,2.39-1.28,2.63-2.55.24-1.26-.91-4-2.92-4.41,0,0-2.19-.36-3.34.24Z"/>
            </g>
            <g>
              <path class="cls-4" d="M1423.43,489.06l-6.59-6.79s-9.68-14.09-13.63-18.5c-3.96-4.4-27.71-19.82-27.71-19.82,0,0-11.44-15.53-13.2-15.53s-7.33,1-5.83,8.22c1.45,6.95,4.08,16.3,6.27,20.84l-50.72,1.11c-3.19.07-6.29,1.44-8.26,3.96-1.33,1.69-1.88,3.56.5,4.75,5.28,2.64,26.83,7.93,26.83,7.93l-9.62-2.48s-2.06,9.22,4.02,13.59c6.05,4.35,6.48,5.19,6.48,5.19,0,0,.3,8.72,2.94,12.24,2.64,3.52,31.21,18.25,31.21,18.25,0,0,18.26,5.4,27.5,4.96,9.24-.44,18.74,4.8,19.78,5.09,1.04.28,10.04-43,10.04-43Z"/>
              <path class="cls-3" d="M1357.86,457.7c.01.51,6.41.76,14.25,1.6,7.84.87,14.32,1.26,14.36.71.03-.44-6.26-1.62-14.18-2.5-7.95-.84-14.45-.3-14.43.19Z"/>
              <path class="cls-3" d="M1364.64,480.24c.16-.54-9.09-3.07-20.72-4.41-5.8-.74-11.05-1.26-14.84-1.68-3.79-.4-6.13-.72-6.19-.47-.06.23,2.22,1,6,1.73,3.77.75,9.02,1.47,14.8,2.21,11.59,1.33,20.83,3.04,20.95,2.63Z"/>
              <path class="cls-3" d="M1364.64,496.87c0-.53-7.39-.76-16.32-2.31-8.94-1.51-15.98-3.76-16.16-3.26-.18.43,6.73,3.49,15.86,5.03,9.12,1.59,16.65,1,16.62.54Z"/>
              <path class="cls-3" d="M1361.57,515.49c.49.08,1.23-1.92,1.64-4.46.42-2.54.36-4.67-.13-4.75-.49-.08-1.22,1.92-1.64,4.46-.42,2.54-.36,4.67.13,4.75Z"/>
              <path class="cls-3" d="M1366.11,493.19c.51-.04.77-1.69,1.65-3.43.83-1.76,1.96-2.99,1.68-3.42-.23-.43-2.21.39-3.29,2.63-1.09,2.24-.51,4.3-.03,4.22Z"/>
              <path class="cls-3" d="M1371.9,470.87c.5.05,1.02-1.01,1.63-2.21.59-1.22,1.13-2.27.79-2.64-.32-.37-1.63.3-2.39,1.84-.77,1.53-.51,2.98-.03,3.02Z"/>
            </g>
            <path class="cls-7" d="M1383.86,329.86c.07.09,1.04-.55,2.9-1.68,2.1-1.26,4.77-2.87,8-4.81,3.44-2.05,7.6-4.5,12.27-7.39,4.64-2.95,9.93-6.1,15.04-10.58l-1.31-.23c3.57,6.95,5.76,15.55,5.39,24.54v.11s-.06,2.03-.06,2.03l1.53-1.31c14.91-12.74,28.29-24.45,37.58-33.35,4.66-4.44,8.34-8.12,10.81-10.74,2.47-2.61,3.77-4.13,3.68-4.21-.09-.09-1.56,1.26-4.18,3.71-2.87,2.64-6.63,6.11-11.18,10.3-9.5,8.64-22.98,20.17-37.89,32.91l1.48.72v-.11c.39-9.33-1.93-18.23-5.7-25.39l-.5-.95-.81.73c-4.83,4.33-10.11,7.6-14.66,10.61-4.55,2.91-8.6,5.5-12.06,7.71-3.37,2.16-6.01,3.94-7.76,5.23-1.77,1.28-2.64,2.07-2.59,2.13Z"/>
            <path class="cls-7" d="M1360.22,278.53c-.11-.05-.84,1.26-1.95,3.72-1.11,2.46-2.61,6.07-4.32,10.57-1.7,4.51-3.67,9.9-5.5,16.04-.46,1.54-.89,3.12-1.24,4.8-.14.87-.35,1.67-.23,2.86.09.64.88,1.15,1.48.99.3-.03.65-.29.77-.45l.2-.25.79-1.02c2.12-2.75,4.31-5.6,6.56-8.51,2.95-3.86,5.8-7.59,8.47-11.08l-1.46-.12c5.3,10.03,10.11,18.61,13.76,24.58,1.82,2.99,3.34,5.33,4.45,6.89,1.1,1.57,1.78,2.36,1.86,2.31.09-.06-.42-.97-1.36-2.63-1.1-1.96-2.43-4.32-4-7.13-3.37-6.11-7.98-14.77-13.18-24.83l-.62-1.21-.84,1.09c-2.67,3.46-5.53,7.16-8.48,10.99-2.22,2.91-4.39,5.74-6.49,8.49l-.78,1.03-.19.25.32.32h0s0,0-.01.03h-.01s.01,0,.01,0l.46-.12c-.04-.52.08-1.38.22-2.15.31-1.59.71-3.16,1.14-4.67,1.72-6.09,3.56-11.52,5.1-16.06,1.5-4.26,2.76-7.85,3.77-10.74.91-2.53,1.42-3.93,1.3-3.98Z"/>
            <path class="cls-7" d="M1582.9,495.8c.05-.2-3.26-1.36-8.83-2.36-5.56-1.01-13.41-1.67-22.05-.99-8.63.71-16.28,2.62-21.61,4.5-5.34,1.88-8.42,3.55-8.34,3.74.11.27,3.36-.99,8.72-2.53,5.36-1.55,12.9-3.23,21.37-3.92,8.47-.67,16.18-.22,21.72.45,5.54.66,8.94,1.38,9.01,1.1Z"/>
            <path class="cls-7" d="M1552.49,482.65c-.04-.44-8.38.7-17.32,5.67-8.99,4.91-14.41,11.35-14.06,11.61.38.4,6.22-5.29,14.93-10.04,8.66-4.82,16.59-6.71,16.46-7.24Z"/>
            <path class="cls-7" d="M1511.36,430.67s0,.43.08,1.24c.11.93.26,2.12.44,3.61.45,3.3,1.08,7.92,1.88,13.78,1.74,12.06,4.22,29.19,7.24,50.1v-.06c.02.44.05.94.09,1.45l.77-.75c-15.32-1.45-32.76-3.09-51.63-4.88l.13.02c-14.25-3.64-29.7-7.58-45.74-11.67l-.91-.23-.19.92c-.87,4.19-1.81,8.67-2.75,13.19-2.85,13.72-5.62,27.07-8.25,39.78l-.15.71.67.28c37.82,15.66,71.87,26.71,96.48,33.29,12.29,3.34,22.19,5.72,29.01,7.27,3.32.72,5.93,1.29,7.84,1.71.82.16,1.49.29,2.04.4.46.08.7.11.7.08,0-.03-.22-.11-.67-.24-.54-.15-1.2-.33-2-.55-1.9-.49-4.48-1.15-7.77-1.99-6.77-1.74-16.62-4.28-28.85-7.77-24.49-6.87-58.38-18.11-96.11-33.83l.52.99c2.65-12.7,5.44-26.06,8.3-39.77.94-4.52,1.87-9,2.74-13.19l-1.1.69c16.05,4.06,31.5,7.97,45.76,11.58l.07.02h.07c18.88,1.69,36.33,3.24,51.65,4.61l.83.07-.06-.83c-.04-.5-.07-1.01-.1-1.44v-.03s0-.03,0-.03c-3.27-20.87-5.96-37.98-7.84-50.01-.96-5.84-1.72-10.44-2.26-13.72-.27-1.48-.48-2.66-.64-3.58-.16-.81-.25-1.22-.29-1.21Z"/>
            <path class="cls-7" d="M1507.92,378.66c.29.04.84-3.41,2.23-8.84,1.39-5.43,3.8-12.8,7.59-20.44,3.81-7.63,8.24-14,11.73-18.38,3.49-4.38,5.91-6.9,5.7-7.1-.14-.15-2.89,2.05-6.68,6.29-3.79,4.22-8.48,10.61-12.37,18.39-3.87,7.79-6.14,15.39-7.22,20.96-1.1,5.58-1.2,9.1-1,9.12Z"/>
            <g class="cls-14">
              <path class="cls-1" d="M1506.16,396.61c4.16,22.63,7.13,48.19,10.72,70.92-.85,1.06-.39,4.46-1.24,5.52-4.17-11.64-9.67-25.67-12.03-37.81-2.36-12.14-.68-26.69,2.55-38.63Z"/>
            </g>
            <g class="cls-14">
              <path class="cls-1" d="M1417.44,324.05c-10.32,1.43-20.65,2.86-30.97,4.29,12.31-7.02,24.25-14.35,35.03-23.55,3.86,9.12,6.03,12.45,5.39,25.63,15-12.62,29.22-27.03,44.23-39.65-15.52,22.99-34.31,42.76-56.12,59.88,2-8.7,2.83-17.67,2.44-26.59Z"/>
            </g>
          </g>
        </g>
        <g>
          <g>
            <path class="cls-7" d="M1432.39,53.26c-2.94-6.2-10.16-10.06-16.95-9.05-7.69-6.55-20.06-6.75-27.96-.44-5.85-3.75-13.67-4.17-19.89-1.08-6.22,3.1-10.6,9.61-11.13,16.54-6.9-1.35-14.48,2.15-17.93,8.29-3.45,6.14-2.52,14.44,2.21,19.65-7.64,2.19-12.9,10.66-11.49,18.5,1.41,7.83,9.3,13.93,17.22,13.31l82.23-46.84c5.06-4.63,6.63-12.68,3.68-18.88Z"/>
            <g>
              <g>
                <path class="cls-4" d="M1336,208.92c.4-17.86,4.21-54.57,8.05-87.75,4.12-35.68,34.91-62.19,70.75-60.94l3.56.12c38.32,3.59,56.69,38.18,52.05,76.45l-10.8,120.64-74.14,67.52-16.16-47.72,2.57-24.3s-36.71-7.04-35.89-44.01Z"/>
                <path class="cls-3" d="M1371.58,252.87s23.52,2.24,48.85-12.49c0,0-12.3,26.2-49.01,21.59l.16-9.1Z"/>
                <path class="cls-7" d="M1354.81,156.08c-.2,2.78,2,5.24,4.9,5.5,2.89.26,5.4-1.78,5.6-4.57.19-2.78-2-5.25-4.89-5.51-2.9-.26-5.41,1.79-5.6,4.57Z"/>
                <path class="cls-7" d="M1351.35,139.54c.63.71,4.72-2.11,10.4-1.9,5.67.13,9.73,3.2,10.37,2.52.31-.3-.31-1.56-2.08-2.95-1.74-1.38-4.74-2.76-8.27-2.87-3.53-.1-6.55,1.1-8.31,2.37-1.79,1.28-2.42,2.5-2.11,2.82Z"/>
                <path class="cls-7" d="M1404.82,158.36c-.2,2.78,2,5.24,4.9,5.5,2.89.26,5.4-1.78,5.6-4.57.19-2.78-2-5.25-4.89-5.51-2.9-.26-5.41,1.79-5.6,4.57Z"/>
                <path class="cls-7" d="M1407.06,142.54c.63.71,4.73-2.11,10.4-1.89,5.67.13,9.73,3.2,10.37,2.52.31-.3-.3-1.56-2.08-2.95-1.74-1.38-4.74-2.76-8.27-2.87-3.53-.1-6.55,1.1-8.31,2.37-1.79,1.28-2.42,2.5-2.11,2.82Z"/>
                <path class="cls-7" d="M1385.02,183.95c.04-.32-3.47-1.06-9.15-1.99-1.44-.2-2.8-.54-3.01-1.53-.3-1.06.36-2.6,1.12-4.27,1.48-3.46,3.04-7.09,4.67-10.9,6.5-15.52,11.25-28.3,10.62-28.55-.63-.26-6.4,12.11-12.89,27.63-1.57,3.83-3.06,7.48-4.49,10.97-.6,1.63-1.61,3.47-.95,5.67.35,1.1,1.39,1.92,2.31,2.2.92.32,1.73.36,2.45.43,5.74.51,9.3.66,9.34.34Z"/>
                <path class="cls-7" d="M1401.57,188.46c-.92-.09-1.15,6.08-6.57,10.27-5.41,4.21-11.95,3.29-12.03,4.15-.1.38,1.42,1.25,4.19,1.42,2.71.19,6.71-.55,10.03-3.11,3.31-2.57,4.81-6.1,5.11-8.63.32-2.57-.31-4.12-.73-4.1Z"/>
                <path class="cls-7" d="M1406.37,120.23c.51,1.56,6.19,1.03,12.82,2.06,6.65.9,11.95,3.04,12.88,1.69.42-.65-.47-2.13-2.59-3.71-2.1-1.57-5.48-3.11-9.46-3.69-3.98-.58-7.66-.07-10.12.83-2.48.9-3.75,2.07-3.53,2.81Z"/>
                <path class="cls-7" d="M1354.01,123.17c.95,1.33,4.91.12,9.61.22,4.7-.06,8.65,1.17,9.61-.15.42-.64-.16-1.96-1.85-3.24-1.67-1.28-4.5-2.37-7.73-2.39-3.23,0-6.07,1.06-7.75,2.33-1.71,1.27-2.3,2.58-1.88,3.22Z"/>
                <path class="cls-7" d="M1348.18,104.35s10.54-22.81,21.87-27.82c13.72-6.07,19.01,8.97,32,5.81,12.98-3.15,26.08-8.98,38.88,1.44,14,11.4,7,18.81,7.32,35.24,1.29,66.62,12.76,85.84,17.3,54.64.5-3.42,10.1-5.82,12.01-20.26,2.48-18.73,4-41.53.27-55.02-3.14-11.37-9.27-19.36-20.45-28.32-17.65-14.15-42.53-15.31-59.49-14.2-16.96,1.11-50.23,19.46-49.7,48.49Z"/>
                <path class="cls-4" d="M1463.23,172.57c.43-5.7,5.5-10.03,11.15-9.29,6.86.9,14.38,5.08,13.43,19.31-1.68,25.24-26.64,18.34-26.64,17.61,0-.49,1.25-17.07,2.05-27.63Z"/>
                <path class="cls-3" d="M1467.3,191.07c.12-.07.42.34,1.14.73.7.38,1.93.69,3.28.29,2.73-.8,5.25-4.88,5.68-9.43.22-2.29-.12-4.51-.81-6.38-.65-1.9-1.75-3.27-3.08-3.6-1.31-.4-2.32.34-2.67,1.03-.38.68-.26,1.2-.39,1.23-.07.06-.51-.46-.24-1.49.14-.49.47-1.07,1.1-1.51.64-.45,1.54-.64,2.47-.48,1.93.26,3.56,2.17,4.33,4.22.87,2.06,1.3,4.56,1.05,7.14-.5,5.08-3.42,9.66-7.13,10.47-1.8.34-3.25-.29-3.97-.94-.74-.68-.83-1.25-.74-1.29Z"/>
              </g>
              <path class="cls-7" d="M1464.44,123.59c-3.35,2.13-6.9,4.32-10.86,4.57-3.96.25-8.4-2.18-8.93-6.12-.24-1.77.26-3.8-.85-5.2-1.32-1.67-3.88-1.25-6-1.1-7.36.52-14.69-4.94-16.31-12.15-1.97,2.74-6.33,2.47-9.1.54-2.77-1.93-4.49-4.98-6.61-7.6-2.13-2.62-5.16-5-8.51-4.64-1.87.2-3.66,1.25-5.53,1.02-3.3-.41-4.79-4.35-5.17-7.66-.39-3.31-.64-7.17-3.39-9.06-2.54-1.75-5.95-.91-9.01-.56-3.07.34-6.98-.51-7.66-3.53-.36-1.58.37-3.21,1.29-4.54,4.14-6.06,12.81-8.51,19.51-5.52,2.76-8.26,10.78-14.49,19.46-15.1,8.68-.61,17.5,4.43,21.38,12.22,5.5-4.66,13.32-6.42,20.29-4.57,6.96,1.85,12.89,7.26,15.36,14.04,6.19-1.4,13.11,1.22,16.82,6.38,3.71,5.16,4.01,12.56.72,18,4.45,2.75,8.17,7.4,8.08,12.64-.09,5.23-5.36,10.27-10.35,8.72,1.89,4.14.05,9.61-3.97,11.75-4.02,2.14-9.58.61-11.95-3.28"/>
            </g>
            <path class="cls-11" d="M1480.92,114.36c.09-.06.39,2.14-1.74,4.8-1.05,1.26-2.83,2.55-5.16,2.84-2.29.3-5.05-.35-7.12-2.34l1.07-.12c-1.32,2.13-3.05,4.29-5.26,6.13-1.42,1.17-2.99,2.15-4.7,2.7-1.68.6-3.57.6-5.1.3-3.19-.47-5.92-2.28-7.14-4.44-1.27-2.11-1.63-4.04-1.86-5.33-.21-1.3-.21-2.03-.12-2.05.11-.02.3.68.67,1.92.38,1.22.91,3.06,2.16,4.89,2.27,3.71,9.99,5.83,15.15.88,2.05-1.7,3.72-3.74,5.01-5.74l.47-.73.6.61c1.67,1.68,4.04,2.34,6.02,2.15,2.01-.17,3.61-1.18,4.65-2.25,2.11-2.23,2.16-4.29,2.38-4.22Z"/>
            <path class="cls-3" d="M1410.12,192.44c-.41-.01-.47-2.68-2.54-4.96-1.99-2.35-4.62-2.75-4.59-3.16,0-.18.72-.37,1.86-.13,1.13.23,2.63.98,3.82,2.33,1.18,1.35,1.74,2.94,1.82,4.09.09,1.16-.19,1.85-.37,1.83Z"/>
            <path class="cls-3" d="M1412.6,185.53c-.36.2-1.25-.71-2.57-1.35-1.3-.68-2.56-.86-2.61-1.27-.09-.38,1.53-.92,3.26-.03,1.74.88,2.27,2.5,1.91,2.65Z"/>
          </g>
          <path class="cls-2" d="M1366.41,43.34c-.11-.25-2.72,1.4-4.76,5.59-1.02,2.06-1.99,4.69-2.25,7.79-.33,3.09.46,6.73,2.6,9.7,2.19,2.95,5.15,4.83,7.87,6.12,2.74,1.3,5.3,2.15,7.45,2.83,4.31,1.31,6.97,2.04,7.06,1.81.1-.24-2.46-1.4-6.63-3.01-2.07-.83-4.55-1.79-7.13-3.12-2.57-1.31-5.24-3.11-7.16-5.69-1.87-2.62-2.62-5.71-2.41-8.53.15-2.83.94-5.36,1.76-7.38,1.65-4.11,3.76-5.94,3.61-6.12Z"/>
          <path class="cls-2" d="M1350.4,59.96c-.2.01-.37,1.6.31,4.07.66,2.45,2.36,5.68,5.23,8.35,2.88,2.66,6.24,4.1,8.73,4.57,2.51.48,4.08.2,4.07,0,.01-.29-1.5-.46-3.74-1.22-2.25-.74-5.19-2.23-7.84-4.66-2.63-2.45-4.34-5.27-5.26-7.46-.93-2.18-1.22-3.68-1.51-3.64Z"/>
        </g>
      </g>
    </g>
  </g>
  <g id="Speech_Bubble_3" data-name="Speech Bubble 3">
    <g class="cls-13">
      <g>
        <path class="cls-6" d="M1683,27.71c7.83,0,14.19,6.4,14.21,14.31l.46,130.67-.4,52.7c-.06,7.88-6.4,14.24-14.21,14.24h-99.91l-31.35,31.6v-31.6h-6.71c-7.9,0-14.28-6.5-14.21-14.48l1.73-183.22c.07-7.88,6.41-14.23,14.21-14.23h136.17Z"/>
        <path class="cls-7" d="M1683,27.71s-.64.04-1.89.06c-1.28.01-3.13.04-5.54.06-4.91.03-12.09.07-21.34.12-18.58.05-45.43.12-78.69.2-8.32.01-17.04.03-26.14.04-2.3,0-4.53-.07-6.68.64-2.12.7-4.12,1.9-5.71,3.56-1.57,1.66-2.8,3.71-3.39,5.99-.66,2.24-.48,4.69-.53,7.18-.17,19.81-.35,40.99-.54,63.32-.2,22.33-.41,45.79-.62,70.16-.11,12.18-.22,24.59-.34,37.19-.02,3.14-.09,6.34-.06,9.46.04,3.04,1.23,6.02,3.15,8.37,1.94,2.35,4.69,3.99,7.67,4.63,1.49.31,3.02.28,4.64.28h4.81s.64,0,.64,0v.64c0,5.21,0,10.81,0,16.44,0,5.08,0,10.13,0,15.16l-1.09-.46c10.71-10.79,21.21-21.38,31.36-31.6l.18-.19h.26c23.11,0,45.53.02,67.08.03,10.77,0,21.33.01,31.65.02,5.06.37,9.96-2.11,12.6-6.24,1.32-2.04,2.1-4.42,2.19-6.83.08-2.46.06-4.99.09-7.45.12-19.8.44-38.53.37-56-.03-17.46-.06-33.66-.09-48.4-.02-29.46-.04-53.09-.05-69.4-.01-2.04.08-3.95-.31-5.69-.36-1.74-1.04-3.29-1.86-4.58-1.65-2.62-3.8-4.25-5.67-5.17-3.82-1.82-6.2-1.4-6.15-1.56,0,0,.55-.03,1.63.04,1.07.12,2.69.39,4.62,1.31,1.92.9,4.14,2.53,5.86,5.19.86,1.32,1.57,2.9,1.96,4.68.43,1.79.35,3.75.38,5.77.1,16.31.25,39.95.43,69.4.08,14.74.16,30.94.25,48.41.12,17.47-.17,36.2-.25,56.01-.03,2.49,0,4.95-.08,7.5-.1,2.61-.94,5.19-2.37,7.41-2.81,4.48-8.26,7.18-13.55,6.79-10.31,0-20.87.01-31.65.02-21.55,0-43.97.02-67.08.03l.45-.19c-10.14,10.22-20.64,20.81-31.34,31.61l-1.09,1.1v-1.55c0-5.02,0-10.08,0-15.16,0-5.63,0-11.24,0-16.44l.64.64h-4.81c-1.57,0-3.26.04-4.9-.31-3.26-.7-6.27-2.5-8.39-5.07-2.1-2.57-3.4-5.84-3.44-9.16-.03-3.22.05-6.35.06-9.51.12-12.6.24-25.01.36-37.19.24-24.36.48-47.83.7-70.16.23-22.32.45-43.51.66-63.32.06-2.43-.14-4.98.59-7.45.64-2.44,1.96-4.64,3.65-6.42,1.71-1.78,3.85-3.06,6.13-3.8,2.3-.76,4.74-.68,6.97-.67,9.09.01,17.81.03,26.14.04,33.26.09,60.11.15,78.69.2,9.25.05,16.43.09,21.34.12,2.41.03,4.26.05,5.54.06,1.25.02,1.89.06,1.89.06Z"/>
      </g>
      <rect class="cls-11" x="1650.64" y="145.28" width="21.42" height="70.06" transform="translate(3322.7 360.62) rotate(180)"/>
      <rect class="cls-11" x="1556.77" y="178.34" width="21.42" height="37" transform="translate(3134.97 393.69) rotate(180)"/>
      <rect class="cls-11" x="1617.37" y="132.1" width="21.42" height="83.24" transform="translate(3256.16 347.44) rotate(180)"/>
      <rect class="cls-11" x="1585.26" y="97.22" width="21.42" height="118.13" transform="translate(3191.93 312.56) rotate(180)"/>
      <path class="cls-7" d="M1686.69,215.34s-.02-.28-.03-.81c0-.57-.02-1.33-.03-2.33-.02-2.09-.04-5.11-.07-9.02-.03-7.91-.09-19.42-.15-34.02-.07-29.2-.17-70.75-.28-120.3l.56.57c-42.12.02-90.98.05-142.84.07h-.01l.64-.64c-.04,61.41-.07,118.65-.1,166.48l-.54-.54c42.92.12,78.56.21,103.52.28,12.47.06,22.27.11,29,.14,3.33.03,5.88.05,7.66.06,1.74.02,2.67.06,2.67.06,0,0-.85.04-2.55.06-1.76.01-4.28.04-7.56.06-6.7.03-16.46.08-28.88.14-25.04.07-60.8.16-103.86.28h-.54s0-.54,0-.54c-.03-47.84-.06-105.08-.1-166.48v-.65s.64,0,.64,0h.01c51.85.03,100.71.05,142.84.07h.57s0,.57,0,.57c-.12,49.7-.22,91.38-.28,120.67-.06,14.54-.11,26.01-.15,33.89-.03,3.87-.05,6.85-.07,8.91-.01.97-.02,1.72-.03,2.27-.01.51-.02.76-.03.75Z"/>
      <path class="cls-7" d="M1686.69,164.09c0,.36-31.98.65-71.42.65s-71.43-.29-71.43-.65,31.97-.65,71.43-.65,71.42.29,71.42.65Z"/>
      <path class="cls-7" d="M1686.69,88.67c0,.36-31.98.65-71.42.65s-71.43-.29-71.43-.65,31.97-.64,71.43-.64,71.42.29,71.42.64Z"/>
    </g>
  </g>
  <g id="Speech_Bubble_1" data-name="Speech Bubble 1">
    <g class="cls-13">
      <g>
        <path class="cls-6" d="M234.79,676.34h-32.75v-6.43c0-7.9-6.34-14.3-14.16-14.3H14.8c-7.82,0-14.16,6.4-14.16,14.3v142.37c0,7.9,6.34,14.3,14.16,14.3h173.09c7.82,0,14.16-6.4,14.16-14.3v-104.53l32.75-31.4Z"/>
        <path class="cls-7" d="M234.79,676.34c-1.52,1.48-11.68,11.35-32.54,31.62l.09-.22c.04,15.77.08,35.63.14,58.88.02,11.63.04,24.1.06,37.33-.05,3.33.13,6.61-.1,10.12-.38,3.51-2.14,6.88-4.81,9.28-2.66,2.42-6.29,3.8-9.96,3.76-3.54,0-7.13,0-10.76.01-29.02.02-60.67.05-94.25.07-16.79,0-34.06.01-51.72.02-4.42,0-8.86,0-13.32,0-2.18,0-4.56.11-6.83-.57-2.27-.61-4.35-1.85-6.08-3.46-1.74-1.61-3.05-3.67-3.84-5.92-.42-1.12-.64-2.3-.79-3.49-.08-1.21-.08-2.36-.08-3.5,0-4.59,0-9.21,0-13.84,0-39.43.02-77.48.03-113.3,0-4.48,0-8.92.01-13.33.03-4.6,2.27-9.09,5.88-11.77,1.78-1.35,3.86-2.32,6.04-2.73,2.22-.43,4.36-.23,6.44-.28,4.21,0,8.38,0,12.52,0,16.53.02,32.39.03,47.5.05,30.21.05,57.38.09,80.68.12,5.82.01,11.4.02,16.73.04,2.66,0,5.26.01,7.79.02,2.51.08,5.02-.2,7.45.39,4.84,1.09,8.58,4.68,10.19,8.73.83,2.03,1.1,4.19,1.07,6.2,0,2-.01,3.93-.02,5.78l-.26-.26c20.8.17,30.95.25,32.75.26-1.79.01-11.94.09-32.75.26h-.26s0-.26,0-.26c0-1.85-.01-3.78-.02-5.78.02-1.99-.26-4.02-1.06-5.97-1.57-3.87-5.17-7.28-9.78-8.29-2.27-.55-4.77-.27-7.3-.33-2.53,0-5.13.01-7.79.02-5.33.01-10.91.02-16.73.04-23.3.04-50.47.08-80.68.12-15.11.01-30.98.03-47.5.05-4.13,0-8.3,0-12.52,0-2.11.04-4.24-.13-6.22.26-2,.38-3.91,1.27-5.55,2.52-3.32,2.47-5.37,6.59-5.39,10.82,0,4.4,0,8.85,0,13.32,0,35.82.02,73.87.03,113.3,0,4.63,0,9.25,0,13.84-.05,2.34,0,4.49.79,6.56.72,2.05,1.92,3.94,3.51,5.41,1.58,1.47,3.48,2.61,5.55,3.17,2.06.62,4.23.52,6.49.52,4.46,0,8.9,0,13.32,0,17.66,0,34.93.01,51.72.02,33.58.03,65.23.05,94.25.07,7.1-.36,14.92,1.54,20.02-3.46,2.49-2.23,4.14-5.35,4.5-8.62.22-3.27.07-6.72.12-10,.02-13.23.04-25.7.06-37.33.05-23.24.1-43.1.14-58.88v-.13s.09-.09.09-.09c21.13-19.99,31.41-29.73,32.95-31.18Z"/>
      </g>
      <g>
        <path class="cls-11" d="M189.58,696.48c-3.07,6.93-9.22,12.31-16.32,14.27-5.13,1.41-10.65,1.13-15.6,3.12-9.03,3.63-13.81,13.65-17.87,22.78-4.05,9.13-9.11,19.09-18.29,22.31-7.58,2.66-15.94-.15-22.98-4.11-7.03-3.96-13.54-9.12-21.15-11.67-13.51-4.52-28.78.1-39.94,9.2-11.17,9.1-18.75,22.15-24.49,35.64h176.27l.38-91.53Z"/>
        <path class="cls-7" d="M189.58,787.89s-.04-.71-.05-2.03c-.01-1.37-.03-3.31-.06-5.84-.03-5.15-.07-12.65-.13-22.24-.06-19.22-.15-46.84-.26-80.62l.5.51c-47.96.04-109.53.09-176.46.14h-.01l.64-.64c-.02,39.26-.03,76.68-.05,110.73l-.59-.6c51.72.12,95.75.22,126.91.29,15.57.07,27.93.12,36.44.16,4.21.03,7.47.06,9.73.07,1.08.02,1.91.03,2.52.04.57.01.88.04.88.04.01.01-.26.02-.81.04-.59,0-1.4.02-2.46.04-2.23.02-5.45.04-9.61.07-8.48.04-20.79.09-36.3.16-31.25.07-75.42.17-127.3.29h-.59s0-.6,0-.6c-.01-34.05-.03-71.48-.05-110.73v-.65s.64,0,.64,0h.01c66.93.05,128.5.1,176.46.14h.5s0,.51,0,.51c-.11,33.92-.2,61.64-.26,80.94-.05,9.54-.1,17-.13,22.13-.02,2.49-.04,4.4-.06,5.75-.02,1.29-.05,1.93-.05,1.93Z"/>
        <path class="cls-7" d="M58.07,787.53c-.35,0-.64-24.37-.64-54.43s.29-54.44.64-54.44.64,24.37.64,54.44-.29,54.43-.64,54.43Z"/>
        <path class="cls-7" d="M103.46,789.63c-.35,0-.64-25.18-.64-56.23s.29-56.24.64-56.24.64,25.17.64,56.24-.29,56.23-.64,56.23Z"/>
        <path class="cls-7" d="M147.73,789.63c-.35,0-.64-25.18-.64-56.23s.29-56.24.64-56.24.64,25.17.64,56.24-.29,56.23-.64,56.23Z"/>
        <path class="cls-7" d="M189.21,733.96c0,.36-39.38.65-87.95.65s-87.96-.29-87.96-.65,39.37-.65,87.96-.65,87.95.29,87.95.65Z"/>
        <rect class="cls-2" x="13.53" y="797.08" width="146.43" height="10.85"/>
      </g>
    </g>
  </g>
</svg>